<svg width="301" height="301" viewBox="0 0 301 301" fill="none" xmlns="http://www.w3.org/2000/svg">
<circle cx="150.11" cy="150.675" r="147.803" transform="rotate(0.893797 150.11 150.675)" fill="#FFD94E"/>
<g clip-path="url(#clip0_1_731)">
<path d="M128.166 43.1213C128.166 43.1213 143.32 23.3213 166.95 29.7499C190.579 35.9213 185.185 61.1213 177.223 91.207C170.802 116.15 167.463 165.007 166.95 194.321C166.436 223.636 167.463 256.55 163.611 268.636C163.611 268.636 160.272 224.407 159.501 196.636C158.217 160.378 158.217 124.893 164.638 102.264C171.059 79.6356 174.655 68.0642 171.83 57.7785C169.004 47.4927 158.217 43.3785 158.217 43.3785C158.217 43.3785 162.07 56.2356 149.484 68.3213C136.642 80.9213 128.166 43.1213 128.166 43.1213Z" fill="#224106"/>
<path d="M172.086 114.092C171.83 106.635 172.857 99.1782 174.141 91.7211C174.912 87.3496 175.425 82.9782 175.939 78.6068C176.71 73.2068 176.966 67.5496 176.196 62.1496C175.682 57.7782 174.141 53.4068 171.829 49.8068C169.261 45.9496 165.922 42.6068 162.326 39.7782C160.272 38.2354 158.217 36.9496 155.905 35.6639C154.878 35.1496 153.594 34.3782 152.566 34.1211C151.282 33.6068 149.998 33.3496 148.714 33.3496C145.888 33.0925 143.063 33.3496 140.238 33.3496C132.533 37.7211 128.166 43.3782 128.166 43.3782C128.166 43.3782 136.642 81.1782 149.227 69.0925C162.069 56.4925 157.96 43.8925 157.96 43.8925C157.96 43.8925 168.747 48.0068 171.573 58.2925C174.398 68.5782 170.802 80.4068 164.381 102.778C157.96 125.407 157.96 160.892 159.244 197.15C160.272 224.921 163.354 269.15 163.354 269.15C167.206 256.807 166.179 224.15 166.693 194.835C167.206 174.264 169.004 143.664 172.086 118.721C172.343 116.921 172.086 115.635 172.086 114.092Z" fill="#638D37"/>
<path d="M165.922 130.293C163.867 130.036 161.813 129.264 160.015 127.979C157.96 148.036 158.474 172.464 159.244 197.15C160.272 224.921 163.354 269.15 163.354 269.15C167.206 256.807 166.179 224.15 166.693 194.836C166.95 177.35 168.491 152.921 170.802 130.55C169.261 130.55 167.72 130.55 165.922 130.293Z" fill="#D9D4AC"/>
<path d="M165.922 130.293C163.867 130.036 161.813 129.264 160.015 127.979C157.96 148.036 158.474 172.464 159.244 197.15C160.272 224.921 163.354 269.15 163.354 269.15C167.206 256.807 166.179 224.15 166.693 194.836C166.95 177.35 168.491 152.921 170.802 130.55C169.261 130.55 167.72 130.55 165.922 130.293Z" fill="#6FA543"/>
<path d="M167.463 136.207C167.206 138.521 166.693 140.578 166.436 142.893C165.922 145.721 165.665 148.807 165.409 151.636C164.124 163.207 162.84 175.036 162.583 186.864C162.07 198.693 162.583 210.521 163.097 222.35C163.354 227.75 163.611 233.407 163.867 238.807C164.124 244.207 164.381 249.607 164.638 254.75C164.895 257.321 164.895 259.636 165.152 262.207C167.463 247.036 166.693 219.521 167.206 194.578C167.463 177.093 169.004 152.664 171.316 130.293C170.032 130.55 168.747 130.55 167.206 130.55C167.72 132.093 167.72 134.15 167.463 136.207Z" fill="#B0CD71"/>
<path d="M154.621 52.8932C153.594 49.036 151.796 45.436 148.714 42.8646C147.173 41.5789 145.632 40.5503 143.577 39.7789C141.009 38.7503 138.183 38.4932 135.615 38.4932C129.194 37.9789 122.516 39.0074 116.352 40.5503C100.427 45.1789 88.8696 55.9789 80.3938 70.1217C78.8527 72.9503 77.8254 75.7789 77.3117 78.8646C75.2569 100.979 111.985 98.1503 124.827 94.2932C134.331 91.4646 143.32 86.3217 149.227 78.0932C154.107 71.6646 156.676 61.636 154.621 52.8932Z" fill="#B98261"/>
<path d="M154.621 52.8932C153.594 49.036 151.796 45.436 148.714 42.8646C147.173 41.5789 145.632 40.5503 143.577 39.7789C141.009 38.7503 138.183 38.4932 135.615 38.4932C129.194 37.9789 122.516 39.0074 116.352 40.5503C100.427 45.1789 88.8696 55.9789 80.3938 70.1217C78.8527 72.9503 77.8254 75.7789 77.3117 78.8646C75.2569 100.979 111.985 98.1503 124.827 94.2932C134.331 91.4646 143.32 86.3217 149.227 78.0932C154.107 71.6646 156.676 61.636 154.621 52.8932ZM110.187 88.8932C104.537 90.6932 98.3727 91.7217 92.7222 90.6932C88.0991 89.9217 83.4759 87.6074 81.9348 82.9789C81.1643 80.4074 81.1643 77.836 81.9348 75.2646C82.7054 71.9217 84.2464 68.836 86.3012 66.2646C89.1264 61.8932 92.7222 58.036 96.8317 54.436C103.766 45.9503 115.067 39.5217 126.112 42.6074C131.249 44.1503 135.872 47.7503 137.67 52.8932C139.211 57.5217 138.954 62.6646 137.156 67.2932C135.358 72.436 131.762 76.8074 127.396 80.1503C122.259 84.2646 116.352 87.0932 110.187 88.8932ZM143.063 81.1789C139.467 84.5217 134.587 86.3217 129.707 86.0646C129.194 86.0646 129.194 85.5503 129.451 85.2932C130.478 83.7503 132.276 82.4646 133.817 81.436C135.358 80.1503 136.899 78.8646 138.44 77.3217C139.981 75.7789 141.522 73.9789 142.806 72.1789C144.604 68.3217 146.145 64.4646 147.686 60.6074C147.943 60.0932 148.457 60.0932 148.714 60.6074C149.484 63.1789 149.741 66.0074 149.484 68.836C148.714 73.4646 146.402 78.0932 143.063 81.1789Z" fill="#5C4E2A"/>
<path d="M147.943 56.7507C147.943 53.665 146.916 50.8365 146.145 48.0079C146.145 47.7507 145.632 48.0079 145.632 48.265C145.889 50.8365 146.402 53.4079 146.402 55.9793C146.402 58.8079 145.889 61.1222 144.604 63.6936C142.806 68.3222 139.724 72.1793 136.385 75.7793C130.478 82.2079 123.03 87.0936 114.811 89.9222C109.16 91.9793 103.253 92.2365 97.0885 92.7507C96.8317 92.7507 96.318 93.265 96.8317 93.265C106.849 93.7793 117.379 91.465 126.112 86.3222C129.964 84.0079 133.56 80.9222 136.899 77.5793C140.495 73.9793 143.577 69.865 145.889 65.2365C146.916 62.4079 147.943 59.5793 147.943 56.7507Z" fill="#844934"/>
<path opacity="0.45" d="M146.659 78.3496C145.888 79.3781 144.861 80.1496 144.091 80.921C142.036 82.721 139.724 84.2639 137.413 85.8067C136.385 86.5781 135.358 87.0924 134.074 87.6067C133.817 87.8639 133.56 88.3781 134.074 88.3781C135.358 88.3781 136.642 87.8639 137.67 87.3496C138.954 86.8353 140.238 85.8067 141.522 84.7781C142.806 84.0067 143.834 82.9781 144.861 81.6924C145.632 80.6639 146.402 79.6353 146.916 78.6067C147.173 78.0924 146.659 78.0924 146.659 78.3496Z" fill="#B8765D"/>
<path opacity="0.45" d="M88.099 69.3499C88.099 69.0928 87.8421 69.0928 87.8421 69.0928C87.5853 69.0928 87.5853 69.0928 87.3284 69.0928C86.5579 69.3499 86.0442 69.8642 85.5305 70.3785V70.6356L85.2737 70.8928C85.0169 71.4071 84.76 72.1785 85.0169 72.6928C85.5305 73.4642 86.5579 73.2071 87.0716 72.6928C87.5853 72.1785 87.8421 71.6642 88.099 70.8928C88.3558 70.6356 88.3558 69.8642 88.099 69.3499Z" fill="#B8765D"/>
<path opacity="0.45" d="M87.3285 78.0924C87.3285 77.8353 87.0716 77.8353 87.0716 77.8353H86.8148C86.8148 77.8353 86.8148 77.8353 86.558 77.5781H86.3011C86.3011 77.5781 86.0443 77.5781 86.0443 77.8353C86.0443 77.8353 86.0443 77.8353 86.0443 78.0924C86.0443 78.0924 86.0443 78.0924 85.7874 78.3496C85.7874 78.3496 85.7874 78.3496 85.7874 78.6067C85.7874 78.6067 85.7874 78.6067 85.7874 78.8638C85.7874 78.8638 85.7874 78.8638 85.7874 79.121C85.7874 79.121 85.7874 79.121 85.7874 79.3781C85.7874 79.3781 85.7874 79.6353 86.0443 79.6353H86.3011H86.558H86.8148C86.8148 79.6353 86.8148 79.6353 87.0716 79.6353C87.0716 79.6353 87.0716 79.6353 87.3285 79.6353C87.3285 79.6353 87.5853 79.6353 87.5853 79.3781C87.5853 79.3781 87.5853 79.3781 87.5853 79.121C87.3285 78.6067 87.3285 78.3496 87.3285 78.0924C87.3285 78.0924 87.3285 78.3496 87.3285 78.0924Z" fill="#B8765D"/>
<g opacity="0.45">
<path d="M91.9516 74.7499C92.2084 74.7499 92.2084 74.4928 91.9516 74.7499V74.7499Z" fill="#B8765D"/>
<path d="M92.7221 75.2642C92.7221 75.2642 92.7221 75.007 92.7221 75.2642C92.7221 75.007 92.7221 75.007 92.7221 75.007C92.7221 75.007 92.7221 75.007 92.7221 74.7499C92.7221 74.7499 92.7221 74.7499 92.4653 74.7499C92.4653 74.7499 92.4653 74.7499 92.2084 74.7499H91.9516C91.9516 74.7499 91.9516 74.7499 91.6948 74.7499H91.4379C91.4379 74.7499 91.1811 74.7499 91.1811 75.007L90.9242 75.2642V75.5213C90.9242 75.5213 90.9242 75.5213 90.9242 75.7784C90.9242 75.7784 90.9242 76.0356 91.1811 76.0356H91.4379H91.6948C91.6948 76.0356 91.9516 76.0356 91.9516 75.7784L92.2084 75.5213C92.7221 75.5213 92.7221 75.2642 92.7221 75.2642Z" fill="#B8765D"/>
</g>
<path opacity="0.45" d="M101.712 83.4928C101.712 83.2357 101.455 83.2357 101.455 83.2357H101.198C101.198 83.2357 101.198 82.9785 100.941 82.9785C100.684 82.9785 100.684 82.9785 100.427 82.9785H100.171C99.9137 83.2357 99.6569 83.4928 99.4 83.7499L99.1432 84.0071C99.1432 84.0071 99.1432 84.2642 99.1432 84.0071C99.1432 84.2642 98.8863 84.2642 98.8863 84.5214C98.6295 84.7785 98.6295 85.2928 98.6295 85.5499C98.6295 85.8071 99.1432 86.0642 99.4 86.0642C99.9137 86.0642 100.684 85.8071 101.198 85.2928C101.712 84.7785 101.968 84.2642 102.225 83.7499C101.712 83.7499 101.712 83.7499 101.712 83.4928Z" fill="#B8765D"/>
<path opacity="0.45" d="M110.187 80.6642C109.931 81.1785 109.931 81.4357 110.187 81.4357C110.187 81.6928 110.444 81.6928 110.958 81.6928C111.215 81.6928 111.215 81.6928 111.472 81.4357C111.985 80.6642 110.958 79.6356 110.187 80.6642Z" fill="#B8765D"/>
<path opacity="0.45" d="M128.166 75.5218C128.166 75.2646 128.166 75.2646 128.166 75.2646H127.91C127.653 75.2646 127.653 75.2646 127.396 75.2646C127.396 75.2646 127.396 75.2646 127.653 75.2646C127.396 75.2646 127.139 75.2646 127.139 75.5218C126.882 75.5218 126.882 75.7789 126.882 75.7789L126.625 76.0361C126.625 76.0361 126.625 76.0361 126.625 75.7789C126.625 75.7789 126.625 75.7789 126.625 76.0361C126.625 76.0361 126.625 76.0361 126.625 76.2932V76.5504C126.625 76.5504 126.625 76.8075 126.882 76.8075H127.139H127.396C127.653 76.8075 127.653 76.8075 127.91 76.8075H128.166C128.166 76.8075 128.423 76.8075 128.423 76.5504L128.68 76.2932C128.68 76.2932 128.68 76.0361 128.937 76.0361C128.166 75.7789 128.166 75.7789 128.166 75.5218Z" fill="#B8765D"/>
<path opacity="0.45" d="M139.467 79.636C139.467 79.636 139.467 79.3789 139.467 79.636C139.211 79.1217 138.954 79.1217 138.954 79.3789C138.954 79.3789 138.697 79.3789 138.697 79.636C138.697 79.636 138.697 79.636 138.44 79.636C137.926 79.636 137.67 79.8932 137.156 80.1503C136.899 80.4074 136.642 80.6646 136.642 81.1789C136.642 81.436 136.642 81.436 136.642 81.436V81.6932C136.642 81.9503 136.642 82.2074 136.899 82.2074C137.156 82.4646 137.156 82.4646 137.413 82.4646C138.697 82.2074 139.724 81.436 139.981 80.4074C139.981 80.1503 139.724 79.636 139.467 79.636Z" fill="#B8765D"/>
<path opacity="0.45" d="M144.347 76.5499C144.347 76.2927 144.347 76.2927 144.347 76.5499C144.091 76.2927 144.091 76.2927 144.347 76.5499C144.091 76.2927 144.091 76.2927 144.091 76.2927C144.091 76.2927 144.091 76.2927 143.834 76.2927H143.577C143.577 76.2927 143.32 76.2927 143.32 76.5499C143.32 76.5499 143.32 76.5499 143.063 76.5499H142.806C142.549 76.5499 142.549 76.807 142.549 76.807L142.293 77.0642V77.3213C142.293 77.3213 142.293 77.5784 142.549 77.5784H142.806C143.063 77.5784 143.063 77.5784 143.32 77.5784C143.577 77.5784 143.577 77.5784 143.834 77.3213L144.091 77.0642C144.091 77.0642 144.091 77.0642 144.091 76.807C144.091 76.807 144.091 76.807 144.347 76.5499C144.347 76.807 144.347 76.5499 144.347 76.5499Z" fill="#B8765D"/>
<path d="M120.204 54.1793C120.204 52.3793 119.434 50.3222 117.893 49.0365C116.352 47.7507 114.04 47.4936 111.985 47.7507C110.187 48.0079 108.389 49.0365 106.848 50.065C103.766 51.6079 100.941 53.1507 98.1158 55.2079C94.52 57.7793 91.181 61.1222 88.8695 64.9793C86.5579 68.5793 84.5032 72.6936 84.2463 77.065C83.9895 81.1793 86.301 85.0365 89.8968 87.3507C96.8316 91.465 105.821 87.6079 111.215 82.465C114.554 79.1222 116.865 74.4936 118.149 69.865C118.92 67.2936 119.434 64.7222 119.947 62.1507C119.947 59.3222 120.461 56.7507 120.204 54.1793Z" fill="#B5AA6B"/>
<path opacity="0.45" d="M137.67 40.5503C141.779 43.3789 144.347 48.0074 144.861 52.8932C145.375 58.8074 143.063 64.2075 140.752 69.6075C142.036 68.0646 143.063 66.2646 144.091 64.4646C145.375 61.8932 146.145 59.3217 146.659 56.4932C146.916 53.1503 146.402 50.0646 145.889 46.7217C145.632 45.1789 145.375 43.3789 144.861 41.836C144.604 41.0646 144.347 40.5503 144.091 39.7789C141.522 38.7503 138.697 38.4932 136.129 38.4932C135.358 38.4932 134.844 38.4932 134.074 38.4932C135.101 39.0074 136.385 39.5217 137.67 40.5503Z" fill="#B8765D"/>
<path d="M163.097 215.664C161.556 218.236 160.785 221.321 160.785 224.15C160.529 227.236 160.785 230.578 161.299 233.664C161.556 235.207 162.07 236.493 162.326 237.778C161.556 238.55 161.556 240.35 161.556 241.636C161.556 243.178 161.813 244.721 162.07 246.264C162.583 248.836 163.611 251.407 164.895 253.721C165.409 254.236 165.922 254.75 166.436 255.264C166.693 255.521 166.95 255.778 167.206 255.778C165.922 254.236 165.152 252.436 164.638 250.636C163.611 247.807 163.097 244.978 162.84 241.893C162.84 241.121 162.84 240.35 162.84 239.836C162.84 239.836 162.84 239.836 162.84 239.578C164.638 243.95 167.206 247.807 170.289 250.893C171.573 252.178 173.114 253.464 174.655 254.75C175.682 255.521 176.71 256.293 177.48 257.064C176.196 255.778 174.912 254.493 173.884 252.95C173.628 252.693 173.371 252.436 173.114 251.921C172.857 251.664 172.343 251.15 172.086 250.893C169.775 248.321 167.72 245.75 166.179 242.664C163.354 237.264 161.813 231.35 161.813 225.178C161.813 222.093 162.326 219.007 163.097 215.921C163.611 215.664 163.354 215.407 163.097 215.664Z" fill="#638D39"/>
<path d="M173.371 219.007C171.573 216.949 169.518 215.149 167.977 213.092C166.179 210.778 164.381 208.207 163.611 205.378C163.611 205.121 163.097 205.378 163.097 205.635C163.354 206.921 163.611 208.464 164.124 209.749C164.638 211.035 165.152 212.064 165.922 213.349C167.463 215.664 169.261 217.464 171.059 219.521C172.6 221.064 173.884 222.607 175.169 224.407C174.655 225.949 175.169 227.749 175.425 229.035C175.682 230.835 176.196 232.378 176.71 233.921C177.737 237.264 178.764 240.864 181.076 243.435C180.819 242.921 180.562 242.149 180.562 241.635C179.021 239.064 178.251 236.235 177.48 233.407C176.966 231.864 176.71 230.321 176.453 228.778C176.196 227.749 176.196 226.721 176.196 225.692L176.453 225.949C177.994 228.264 179.535 230.578 180.819 232.892C181.59 234.435 182.36 235.978 183.131 237.521C183.901 238.549 184.672 239.578 185.442 240.349C184.415 237.778 183.388 235.464 182.103 232.892C180.819 230.321 179.535 228.007 178.251 225.692C176.71 223.121 175.169 221.064 173.371 219.007Z" fill="#638D39"/>
<path d="M172.086 241.635C171.316 239.835 170.289 238.549 169.518 236.749C169.004 236.235 168.747 235.721 168.234 235.206C167.463 234.178 166.436 233.406 165.665 232.635C165.152 232.121 164.638 231.863 164.124 231.349C163.611 230.835 163.097 230.321 162.583 230.063C162.07 229.806 161.813 230.835 162.07 231.092C162.583 232.121 163.867 232.892 164.638 233.663C165.665 234.435 166.693 235.206 167.463 236.235C169.261 237.778 170.545 239.835 172.086 241.635Z" fill="#638D39"/>
<path d="M161.299 184.807C160.785 185.321 160.529 185.836 160.272 186.35C160.015 186.864 159.501 187.636 158.988 188.15C158.217 189.436 157.446 190.464 156.676 191.493C155.135 193.55 153.337 195.864 152.053 198.178C151.282 199.207 150.769 200.493 150.255 201.521C149.998 201.521 149.998 201.778 149.741 201.778C149.228 202.036 148.971 202.293 148.457 202.293C147.686 202.807 146.659 203.321 145.889 203.835C144.348 204.864 143.063 206.407 142.806 208.207C142.806 208.464 143.063 208.721 143.32 208.207C143.834 206.407 145.118 205.378 146.659 204.607C147.43 204.093 148.2 203.836 148.971 203.321C149.228 203.321 149.484 203.064 149.741 203.064C148.714 205.378 147.943 207.693 147.686 210.264C147.43 212.064 147.43 214.121 147.43 215.921C147.686 216.436 147.686 216.95 147.943 217.721C147.943 213.35 148.457 209.236 149.998 205.121C151.796 200.75 154.621 196.636 157.446 193.036C158.217 191.75 159.244 190.721 160.015 189.436C160.529 188.664 160.785 188.15 161.299 187.378C161.556 186.607 162.07 186.093 162.07 185.321C162.07 184.807 161.556 184.55 161.299 184.807Z" fill="#638D39"/>
<path d="M175.939 199.978C175.682 198.178 175.425 196.378 175.169 194.835C174.912 193.807 174.912 192.778 174.655 191.749C174.655 191.492 174.655 191.235 174.655 190.978C174.912 191.235 175.169 191.749 175.425 192.007C178.251 195.864 180.562 199.978 182.617 204.607C183.644 206.921 184.415 209.492 185.185 211.807C185.185 210.778 185.185 209.749 185.185 208.721C182.617 200.492 178.508 192.521 172.343 186.092C171.316 185.064 170.289 184.035 169.261 183.264C168.234 182.235 166.95 181.207 165.665 180.435C165.152 180.178 164.381 181.207 164.895 181.721C165.922 182.492 166.95 183.264 167.72 184.035C168.748 184.807 169.518 185.578 170.289 186.607C171.316 187.635 172.086 188.664 173.114 189.692C172.857 190.464 173.114 191.492 173.114 192.521C173.114 193.549 173.371 194.578 173.628 195.607C173.884 197.407 174.141 199.464 174.655 201.264C175.169 203.835 175.939 206.664 177.48 208.978C178.508 209.749 179.535 210.264 180.562 210.778C180.562 210.521 180.562 210.521 180.562 210.521C177.48 207.692 176.453 203.578 175.939 199.978Z" fill="#638D39"/>
<path d="M170.545 199.721C170.545 199.464 170.289 199.464 170.289 199.207C169.775 198.178 169.004 197.15 168.234 196.378C166.693 194.578 165.152 192.778 163.868 190.721C163.611 190.978 163.611 191.235 163.611 191.492C163.868 192.521 164.895 193.55 165.409 194.321C166.179 195.35 166.95 196.121 167.72 197.15C169.261 198.95 170.545 201.007 171.83 203.064H172.086C171.316 202.035 171.059 201.007 170.545 199.721Z" fill="#638D39"/>
<path d="M186.983 197.921C186.983 197.664 186.726 197.407 186.726 197.15C186.47 196.892 186.213 196.378 186.213 196.121C185.442 195.092 184.415 194.064 183.388 193.035C182.36 192.007 181.076 191.235 180.049 190.721C179.535 190.464 178.764 190.207 178.251 189.95C177.48 189.692 176.71 189.435 176.196 189.95C175.939 190.207 175.682 190.721 175.939 190.978C176.453 191.492 177.223 191.235 177.737 191.492C178.251 191.75 179.021 192.007 179.535 192.264C180.819 192.778 181.846 193.55 182.874 194.578C184.672 196.121 186.47 198.178 188.011 200.235C187.754 199.464 187.497 198.692 186.983 197.921Z" fill="#638D39"/>
<path d="M186.47 234.692C185.699 233.921 184.929 233.149 183.901 232.121C183.388 231.607 182.617 230.835 181.846 230.321C181.59 230.064 181.076 229.807 180.819 229.549C180.562 229.292 180.049 229.035 179.535 229.035C179.278 229.035 179.021 229.549 179.278 229.549C179.535 229.807 180.049 230.064 180.305 230.064C180.819 230.321 181.076 230.578 181.59 230.835C182.36 231.349 183.131 231.864 183.644 232.378C184.672 233.149 185.699 234.178 186.726 235.207C186.726 235.207 186.47 234.949 186.47 234.692Z" fill="#638D39"/>
<path d="M180.819 207.693C180.562 207.178 180.305 206.407 180.048 205.893C179.792 205.378 179.535 205.121 179.021 204.607C178.507 204.093 177.994 203.836 177.48 203.321C177.223 203.064 176.966 202.807 176.71 202.807C176.453 202.55 176.196 202.55 175.682 202.55C175.425 202.55 175.168 203.064 175.425 203.321C175.682 203.578 175.939 203.836 176.196 203.836C176.453 204.093 176.71 204.093 176.966 204.35C177.48 204.607 177.994 205.121 178.507 205.378C179.535 206.15 180.305 206.921 180.819 207.693Z" fill="#638D39"/>
<path d="M168.234 196.378C167.977 196.378 167.977 196.635 167.977 196.635C167.72 197.406 167.72 198.435 167.72 199.206C167.72 200.235 167.72 201.006 167.977 202.035C168.234 203.064 168.491 204.092 169.004 205.121C169.518 205.635 170.032 206.149 170.289 206.406V206.149C169.261 204.864 168.748 203.064 168.748 201.521C168.748 200.749 168.748 199.721 168.748 198.949C168.748 198.178 169.004 197.664 168.748 196.892C168.748 196.635 168.491 196.378 168.234 196.378Z" fill="#638D39"/>
<path d="M158.987 212.836C159.501 211.807 160.015 211.036 160.528 210.007C161.042 209.236 161.556 208.207 161.556 207.179C161.556 206.664 160.785 206.922 160.785 207.179C160.272 207.95 160.015 208.979 159.501 209.75C158.987 210.779 158.474 211.55 158.217 212.579C157.189 214.122 156.162 215.922 155.135 217.464C155.135 217.464 155.135 217.722 154.878 217.722C154.878 217.722 154.878 217.722 154.621 217.722C153.08 218.75 151.282 219.007 149.484 219.264C147.686 219.522 145.888 219.522 144.091 219.779C139.981 220.55 135.872 222.093 132.533 224.922C130.735 226.207 129.194 228.007 128.423 230.064C128.423 230.322 128.68 230.322 128.937 230.064C130.735 226.207 134.844 223.636 138.697 222.093C140.495 221.322 142.549 220.807 144.604 220.55C146.402 220.293 148.2 220.293 149.998 220.036C151.282 220.036 152.823 219.779 153.851 219.264C152.566 221.064 151.539 223.122 150.512 224.922C149.484 225.436 148.457 226.207 147.686 226.979C146.659 227.75 145.632 228.264 144.604 229.036C142.549 230.322 140.752 231.864 139.211 233.664C136.128 237.264 134.074 241.379 132.533 245.75C132.533 246.007 132.789 246.007 133.046 245.75C134.074 243.179 135.358 240.35 137.156 238.036C137.156 238.55 137.156 239.064 137.156 239.322C137.156 240.35 136.899 241.379 136.899 242.15C136.642 244.207 136.642 246.007 136.385 248.064C136.385 248.322 136.642 248.064 136.642 248.064C137.156 246.007 137.669 243.95 137.926 241.893C138.183 240.864 138.183 239.836 138.183 238.807C138.183 238.293 138.183 237.779 138.183 237.264C138.183 237.007 138.183 236.493 138.183 236.236C138.954 235.464 139.467 234.436 140.238 233.664C141.779 231.864 143.577 230.579 145.632 229.036C146.659 228.264 147.686 227.75 148.714 226.979C148.971 226.722 149.227 226.464 149.741 226.207C149.741 226.464 149.484 226.722 149.484 226.979C146.916 232.893 145.118 239.064 144.347 245.493C143.063 246.779 142.293 248.579 141.779 250.122C141.008 252.179 140.495 254.493 139.981 256.807C138.954 262.722 139.211 268.636 141.008 274.293C141.008 274.55 141.779 274.293 141.522 274.036C139.981 268.636 139.724 262.979 140.752 257.322C141.265 255.007 141.779 252.95 142.293 250.893C142.806 249.607 143.063 248.322 143.834 247.293C143.834 248.064 143.577 248.579 143.577 249.35C143.32 253.722 143.32 257.836 143.834 262.207C143.834 262.464 144.347 262.207 144.347 261.95C143.577 256.807 143.834 251.407 144.604 246.007C144.604 246.007 144.604 245.75 144.861 245.75C145.118 245.493 144.861 245.236 144.861 245.236C145.118 243.179 145.632 240.864 146.145 238.807C146.916 236.236 147.686 233.922 148.457 231.607C148.457 232.379 148.714 233.407 148.714 234.179C148.714 235.722 148.971 237.007 148.971 238.55C149.227 241.122 149.741 243.95 149.998 246.522V246.779C149.998 246.779 149.998 246.779 149.998 247.036C150.512 249.864 150.768 252.693 150.768 255.779C150.768 258.607 151.025 261.436 151.539 264.264C151.539 264.522 152.053 264.264 152.053 264.007C151.796 261.179 151.796 258.35 151.796 255.264C151.796 253.464 151.796 251.407 151.539 249.607C153.594 253.207 155.135 257.064 156.162 261.179C156.933 263.75 157.189 266.322 157.446 269.15C157.703 271.979 158.217 274.55 158.731 277.379C158.731 277.636 159.244 277.379 159.244 277.122C158.987 274.293 158.731 271.464 158.474 268.636C158.217 265.807 157.96 263.236 157.189 260.407C155.905 255.522 153.594 250.893 151.025 246.522C150.512 243.693 150.255 240.864 149.998 238.036C149.741 236.493 149.741 234.95 149.741 233.407C149.741 232.636 149.741 231.864 149.741 231.35C149.741 230.579 149.741 229.807 149.741 229.293C149.998 229.036 149.998 228.522 150.255 228.264C151.025 226.722 151.796 225.179 152.566 223.636C152.566 223.636 152.566 223.893 152.823 223.893C152.823 224.15 153.08 224.407 153.08 224.664C153.337 225.179 153.594 225.693 153.851 226.207C154.364 227.236 154.621 228.264 154.878 229.293C154.878 229.55 155.392 229.293 155.392 229.036C155.135 228.007 154.878 226.722 154.621 225.693C154.364 225.179 154.364 224.664 154.107 224.15C154.107 223.893 153.851 223.636 153.851 223.379C153.851 223.122 153.594 222.864 153.594 222.607C154.364 221.064 155.392 219.522 156.419 218.236C156.676 216.436 157.96 214.636 158.987 212.836Z" fill="#638D39"/>
<path d="M199.312 248.321C198.284 246.264 197.257 243.95 196.23 241.893C195.202 239.836 194.175 237.778 192.891 235.978C190.065 231.864 186.213 228.779 182.103 225.95C181.076 225.179 179.792 224.664 178.764 224.15C178.251 223.893 177.737 223.636 176.966 223.121C176.453 222.864 175.939 222.35 175.425 222.093C175.169 221.836 174.398 222.35 174.655 222.607C174.912 223.636 175.939 224.15 176.71 224.407C177.737 224.921 178.507 225.436 179.535 225.95C181.846 227.236 184.158 228.778 186.213 230.578C187.754 231.864 189.038 233.407 190.322 234.95C190.322 234.95 190.065 235.207 190.065 235.464C190.065 240.093 190.065 244.978 191.606 249.35C193.147 253.464 195.459 257.064 197.514 260.921C197.514 261.178 198.027 260.921 197.771 260.664C195.973 256.807 193.918 252.95 192.634 248.836C191.863 246.521 191.606 244.464 191.35 242.15C191.35 240.35 191.35 238.55 191.35 236.75C192.377 238.293 193.661 240.093 194.432 241.893C195.716 244.207 197 246.521 198.284 248.836C199.055 248.836 199.312 248.321 199.312 248.321Z" fill="#638D39"/>
<path d="M177.223 270.436C176.453 268.893 175.425 267.35 174.655 265.807C174.141 265.036 173.627 264.264 173.114 263.493C172.6 262.721 172.343 261.95 171.83 261.436C171.83 260.407 171.83 259.378 171.573 258.35C171.573 257.064 171.573 255.778 171.573 254.75C171.573 253.464 171.83 252.178 171.83 250.636C171.83 250.121 170.802 250.378 170.802 250.636C170.545 251.921 170.289 253.207 170.289 254.493C170.289 255.778 170.289 257.064 170.289 258.35C170.289 260.921 170.545 263.236 171.059 265.55C171.83 270.693 173.627 275.321 175.939 279.95C175.939 280.207 176.453 279.95 176.453 279.693C174.398 275.064 172.857 270.436 172.086 265.293C172.086 264.778 172.086 264.521 171.83 264.007C172.343 264.521 172.6 265.293 173.114 265.807C174.141 267.35 175.425 268.636 176.196 270.178C176.71 271.207 177.223 270.693 177.223 270.436Z" fill="#638D39"/>
<g clip-path="url(#clip1_1_731)">
<path d="M97.4337 188.885C97.4337 188.885 101.905 182.992 108.878 184.906C115.851 186.742 114.259 194.242 111.909 203.196C110.015 210.62 109.029 225.161 108.878 233.885C108.726 242.61 109.029 252.406 107.893 256.003C107.893 256.003 106.907 242.839 106.68 234.574C106.301 223.783 106.301 213.222 108.196 206.487C110.091 199.753 111.152 196.309 110.318 193.247C109.484 190.186 106.301 188.962 106.301 188.962C106.301 188.962 107.438 192.788 103.724 196.385C99.9347 200.135 97.4337 188.885 97.4337 188.885Z" fill="#224106"/>
<path d="M110.394 210.008C110.318 207.789 110.621 205.569 111 203.35C111.227 202.049 111.379 200.748 111.531 199.447C111.758 197.84 111.834 196.156 111.606 194.549C111.455 193.248 111 191.947 110.318 190.875C109.56 189.727 108.575 188.732 107.514 187.891C106.907 187.431 106.301 187.049 105.619 186.666C105.316 186.513 104.937 186.283 104.634 186.207C104.255 186.054 103.876 185.977 103.497 185.977C102.663 185.901 101.829 185.977 100.996 185.977C98.7221 187.278 97.4337 188.962 97.4337 188.962C97.4337 188.962 99.9347 200.212 103.648 196.615C107.438 192.865 106.225 189.115 106.225 189.115C106.225 189.115 109.408 190.34 110.242 193.401C111.076 196.462 110.015 199.982 108.12 206.641C106.225 213.375 106.225 223.937 106.604 234.727C106.907 242.993 107.817 256.156 107.817 256.156C108.954 252.482 108.651 242.763 108.802 234.039C108.954 227.916 109.484 218.809 110.394 211.386C110.469 210.85 110.394 210.467 110.394 210.008Z" fill="#224106"/>
<path d="M108.575 214.829C107.968 214.753 107.362 214.523 106.832 214.141C106.225 220.11 106.377 227.38 106.604 234.727C106.907 242.993 107.817 256.156 107.817 256.156C108.954 252.482 108.651 242.763 108.802 234.039C108.878 228.834 109.333 221.564 110.015 214.906C109.56 214.906 109.105 214.906 108.575 214.829Z" fill="#D9D4AC"/>
<path d="M108.575 214.829C107.968 214.753 107.362 214.523 106.832 214.141C106.225 220.11 106.377 227.38 106.604 234.727C106.907 242.993 107.817 256.156 107.817 256.156C108.954 252.482 108.651 242.763 108.802 234.039C108.878 228.834 109.333 221.564 110.015 214.906C109.56 214.906 109.105 214.906 108.575 214.829Z" fill="#6FA543"/>
<path d="M109.029 216.589C108.954 217.278 108.802 217.89 108.726 218.579C108.575 219.421 108.499 220.339 108.423 221.181C108.044 224.625 107.665 228.145 107.589 231.666C107.438 235.186 107.589 238.707 107.741 242.227C107.817 243.834 107.893 245.518 107.968 247.125C108.044 248.732 108.12 250.339 108.196 251.87C108.272 252.635 108.272 253.324 108.347 254.089C109.029 249.574 108.802 241.385 108.954 233.962C109.029 228.758 109.484 221.487 110.166 214.829C109.787 214.906 109.408 214.906 108.954 214.906C109.105 215.365 109.105 215.977 109.029 216.589Z" fill="#B0CD71"/>
<path d="M105.24 191.793C104.937 190.645 104.406 189.574 103.497 188.809C103.042 188.426 102.587 188.12 101.981 187.89C101.223 187.584 100.389 187.508 99.6316 187.508C97.7368 187.355 95.7663 187.661 93.9474 188.12C89.2484 189.497 85.8379 192.712 83.3368 196.921C82.8821 197.763 82.5789 198.605 82.4274 199.523C81.821 206.105 92.6589 205.263 96.4484 204.115C99.2526 203.273 101.905 201.742 103.648 199.293C105.088 197.38 105.846 194.395 105.24 191.793Z" fill="#B98261"/>
<path d="M105.24 191.793C104.937 190.645 104.406 189.574 103.497 188.809C103.042 188.426 102.587 188.12 101.981 187.89C101.223 187.584 100.389 187.508 99.6316 187.508C97.7368 187.355 95.7663 187.661 93.9474 188.12C89.2484 189.497 85.8379 192.712 83.3368 196.921C82.8821 197.763 82.5789 198.605 82.4274 199.523C81.821 206.105 92.6589 205.263 96.4484 204.115C99.2526 203.273 101.905 201.742 103.648 199.293C105.088 197.38 105.846 194.395 105.24 191.793ZM92.1284 202.508C90.461 203.043 88.6421 203.349 86.9747 203.043C85.6105 202.814 84.2463 202.125 83.7916 200.747C83.5642 199.982 83.5642 199.217 83.7916 198.451C84.0189 197.457 84.4737 196.538 85.08 195.773C85.9137 194.472 86.9747 193.324 88.1874 192.252C90.2337 189.727 93.5684 187.814 96.8274 188.732C98.3431 189.191 99.7074 190.263 100.238 191.793C100.693 193.171 100.617 194.701 100.086 196.079C99.5558 197.61 98.4947 198.911 97.2063 199.906C95.6905 201.13 93.9474 201.972 92.1284 202.508ZM101.829 200.212C100.768 201.207 99.3284 201.742 97.8884 201.666C97.7368 201.666 97.7368 201.513 97.8126 201.436C98.1158 200.977 98.6463 200.594 99.101 200.288C99.5558 199.906 100.011 199.523 100.465 199.064C100.92 198.605 101.375 198.069 101.754 197.533C102.284 196.385 102.739 195.237 103.194 194.089C103.269 193.936 103.421 193.936 103.497 194.089C103.724 194.855 103.8 195.696 103.724 196.538C103.497 197.916 102.815 199.293 101.829 200.212Z" fill="#5C4E2A"/>
<path d="M103.269 192.941C103.269 192.023 102.966 191.181 102.739 190.339C102.739 190.263 102.587 190.339 102.587 190.416C102.663 191.181 102.815 191.946 102.815 192.712C102.815 193.554 102.663 194.242 102.284 195.008C101.754 196.385 100.844 197.533 99.8589 198.605C98.1158 200.518 95.9179 201.972 93.4926 202.814C91.8252 203.426 90.0821 203.503 88.2631 203.656C88.1874 203.656 88.0358 203.809 88.1874 203.809C91.1431 203.962 94.2505 203.273 96.8274 201.742C97.9642 201.054 99.0253 200.135 100.011 199.14C101.072 198.069 101.981 196.844 102.663 195.467C102.966 194.625 103.269 193.783 103.269 192.941Z" fill="#844934"/>
<path opacity="0.45" d="M102.891 199.37C102.663 199.676 102.36 199.905 102.133 200.135C101.526 200.671 100.844 201.13 100.162 201.589C99.8591 201.819 99.5559 201.972 99.1769 202.125C99.1012 202.201 99.0254 202.354 99.1769 202.354C99.5559 202.354 99.9348 202.201 100.238 202.048C100.617 201.895 100.996 201.589 101.375 201.283C101.754 201.053 102.057 200.747 102.36 200.365C102.587 200.058 102.815 199.752 102.966 199.446C103.042 199.293 102.891 199.293 102.891 199.37Z" fill="#B8765D"/>
<path opacity="0.45" d="M85.6106 196.691C85.6106 196.614 85.5348 196.614 85.5348 196.614C85.459 196.614 85.459 196.614 85.3833 196.614C85.1559 196.691 85.0043 196.844 84.8527 196.997V197.073L84.7769 197.15C84.7011 197.303 84.6254 197.533 84.7011 197.686C84.8527 197.915 85.1559 197.839 85.3075 197.686C85.459 197.533 85.5348 197.38 85.6106 197.15C85.6864 197.073 85.6864 196.844 85.6106 196.691Z" fill="#B8765D"/>
<path opacity="0.45" d="M85.3833 199.293C85.3833 199.216 85.3075 199.216 85.3075 199.216H85.2317C85.2317 199.216 85.2317 199.216 85.1559 199.14H85.0801C85.0801 199.14 85.0043 199.14 85.0043 199.216C85.0043 199.216 85.0043 199.216 85.0043 199.293C85.0043 199.293 85.0043 199.293 84.9285 199.369C84.9285 199.369 84.9285 199.369 84.9285 199.446C84.9285 199.446 84.9285 199.446 84.9285 199.522C84.9285 199.522 84.9285 199.522 84.9285 199.599C84.9285 199.599 84.9285 199.599 84.9285 199.675C84.9285 199.675 84.9285 199.752 85.0043 199.752H85.0801H85.1559H85.2317C85.2317 199.752 85.2317 199.752 85.3075 199.752C85.3075 199.752 85.3075 199.752 85.3833 199.752C85.3833 199.752 85.459 199.752 85.459 199.675C85.459 199.675 85.459 199.675 85.459 199.599C85.3833 199.446 85.3833 199.369 85.3833 199.293C85.3833 199.293 85.3833 199.369 85.3833 199.293Z" fill="#B8765D"/>
<g opacity="0.45">
<path d="M86.7476 198.298C86.8234 198.298 86.8234 198.221 86.7476 198.298V198.298Z" fill="#B8765D"/>
<path d="M86.9749 198.451C86.9749 198.451 86.9749 198.374 86.9749 198.451C86.9749 198.374 86.9749 198.374 86.9749 198.374C86.9749 198.374 86.9749 198.374 86.9749 198.298C86.9749 198.298 86.9749 198.298 86.8991 198.298C86.8991 198.298 86.8991 198.298 86.8234 198.298H86.7476C86.7476 198.298 86.7476 198.298 86.6718 198.298H86.596C86.596 198.298 86.5202 198.298 86.5202 198.374L86.4444 198.451V198.527C86.4444 198.527 86.4444 198.527 86.4444 198.604C86.4444 198.604 86.4444 198.68 86.5202 198.68H86.596H86.6718C86.6718 198.68 86.7476 198.68 86.7476 198.604L86.8234 198.527C86.9749 198.527 86.9749 198.451 86.9749 198.451Z" fill="#B8765D"/>
</g>
<path opacity="0.45" d="M89.6275 200.9C89.6275 200.823 89.5517 200.823 89.5517 200.823H89.4759C89.4759 200.823 89.4759 200.747 89.4001 200.747C89.3243 200.747 89.3243 200.747 89.2485 200.747H89.1727C89.0969 200.823 89.0211 200.9 88.9454 200.976L88.8696 201.053C88.8696 201.053 88.8696 201.129 88.8696 201.053C88.8696 201.129 88.7938 201.129 88.7938 201.206C88.718 201.283 88.718 201.436 88.718 201.512C88.718 201.589 88.8696 201.665 88.9454 201.665C89.0969 201.665 89.3243 201.589 89.4759 201.436C89.6275 201.283 89.7033 201.129 89.779 200.976C89.6275 200.976 89.6275 200.976 89.6275 200.9Z" fill="#B8765D"/>
<path opacity="0.45" d="M92.1285 200.058C92.0527 200.212 92.0527 200.288 92.1285 200.288C92.1285 200.365 92.2042 200.365 92.3558 200.365C92.4316 200.365 92.4316 200.365 92.5074 200.288C92.659 200.058 92.3558 199.752 92.1285 200.058Z" fill="#B8765D"/>
<path opacity="0.45" d="M97.4338 198.527C97.4338 198.451 97.4338 198.451 97.4338 198.451H97.358C97.2822 198.451 97.2822 198.451 97.2064 198.451C97.2064 198.451 97.2064 198.451 97.2822 198.451C97.2064 198.451 97.1306 198.451 97.1306 198.527C97.0548 198.527 97.0548 198.604 97.0548 198.604L96.979 198.681C96.979 198.681 96.979 198.681 96.979 198.604C96.979 198.604 96.979 198.604 96.979 198.681C96.979 198.681 96.979 198.681 96.979 198.757V198.834C96.979 198.834 96.979 198.91 97.0548 198.91H97.1306H97.2064C97.2822 198.91 97.2822 198.91 97.358 198.91H97.4338C97.4338 198.91 97.5096 198.91 97.5096 198.834L97.5854 198.757C97.5854 198.757 97.5854 198.681 97.6611 198.681C97.4338 198.604 97.4338 198.604 97.4338 198.527Z" fill="#B8765D"/>
<path opacity="0.45" d="M100.769 199.752C100.769 199.752 100.769 199.676 100.769 199.752C100.693 199.599 100.617 199.599 100.617 199.676C100.617 199.676 100.541 199.676 100.541 199.752C100.541 199.752 100.541 199.752 100.465 199.752C100.314 199.752 100.238 199.829 100.086 199.905C100.011 199.982 99.9348 200.058 99.9348 200.211C99.9348 200.288 99.9348 200.288 99.9348 200.288V200.364C99.9348 200.441 99.9348 200.517 100.011 200.517C100.086 200.594 100.086 200.594 100.162 200.594C100.541 200.517 100.844 200.288 100.92 199.982C100.92 199.905 100.844 199.752 100.769 199.752Z" fill="#B8765D"/>
<path opacity="0.45" d="M102.208 198.833C102.208 198.757 102.208 198.757 102.208 198.833C102.133 198.757 102.133 198.757 102.208 198.833C102.133 198.757 102.133 198.757 102.133 198.757C102.133 198.757 102.133 198.757 102.057 198.757H101.981C101.981 198.757 101.905 198.757 101.905 198.833C101.905 198.833 101.905 198.833 101.829 198.833H101.754C101.678 198.833 101.678 198.91 101.678 198.91L101.602 198.986V199.063C101.602 199.063 101.602 199.139 101.678 199.139H101.754C101.829 199.139 101.829 199.139 101.905 199.139C101.981 199.139 101.981 199.139 102.057 199.063L102.133 198.986C102.133 198.986 102.133 198.986 102.133 198.91C102.133 198.91 102.133 198.91 102.208 198.833C102.208 198.91 102.208 198.833 102.208 198.833Z" fill="#B8765D"/>
<path d="M95.0841 192.176C95.0841 191.641 94.8567 191.028 94.402 190.646C93.9473 190.263 93.2652 190.186 92.6588 190.263C92.1283 190.34 91.5978 190.646 91.1431 190.952C90.2336 191.411 89.3999 191.87 88.5662 192.482C87.5052 193.248 86.5199 194.243 85.8378 195.391C85.1557 196.462 84.5494 197.686 84.4736 198.987C84.3978 200.212 85.0799 201.36 86.141 202.049C88.1873 203.273 90.8399 202.125 92.4315 200.595C93.4167 199.6 94.0988 198.222 94.4778 196.845C94.7052 196.079 94.8567 195.314 95.0083 194.549C95.0083 193.707 95.1599 192.942 95.0841 192.176Z" fill="#B5AA6B"/>
<path opacity="0.45" d="M100.238 188.12C101.451 188.962 102.208 190.339 102.36 191.793C102.512 193.553 101.829 195.161 101.147 196.768C101.526 196.309 101.829 195.773 102.133 195.237C102.512 194.472 102.739 193.707 102.891 192.865C102.966 191.87 102.815 190.951 102.663 189.957C102.587 189.497 102.512 188.962 102.36 188.502C102.284 188.273 102.208 188.12 102.133 187.89C101.375 187.584 100.541 187.508 99.7831 187.508C99.5558 187.508 99.4042 187.508 99.1768 187.508C99.48 187.661 99.8589 187.814 100.238 188.12Z" fill="#B8765D"/>
<path d="M107.741 240.237C107.286 241.003 107.059 241.921 107.059 242.763C106.983 243.681 107.059 244.676 107.211 245.594C107.286 246.054 107.438 246.436 107.514 246.819C107.286 247.048 107.286 247.584 107.286 247.967C107.286 248.426 107.362 248.885 107.438 249.344C107.589 250.11 107.893 250.875 108.272 251.564C108.423 251.717 108.575 251.87 108.726 252.023C108.802 252.1 108.878 252.176 108.954 252.176C108.575 251.717 108.347 251.181 108.196 250.645C107.893 249.804 107.741 248.962 107.665 248.043C107.665 247.814 107.665 247.584 107.665 247.431C107.665 247.431 107.665 247.431 107.665 247.355C108.196 248.656 108.954 249.804 109.863 250.722C110.242 251.105 110.697 251.487 111.152 251.87C111.455 252.1 111.758 252.329 111.985 252.559C111.606 252.176 111.227 251.793 110.924 251.334C110.848 251.258 110.773 251.181 110.697 251.028C110.621 250.952 110.469 250.798 110.394 250.722C109.712 249.957 109.105 249.191 108.651 248.273C107.817 246.666 107.362 244.906 107.362 243.069C107.362 242.151 107.514 241.232 107.741 240.314C107.893 240.237 107.817 240.161 107.741 240.237Z" fill="#638D39"/>
<path d="M110.773 241.233C110.242 240.62 109.636 240.085 109.181 239.472C108.65 238.784 108.12 238.018 107.893 237.176C107.893 237.1 107.741 237.176 107.741 237.253C107.817 237.636 107.893 238.095 108.044 238.477C108.196 238.86 108.347 239.166 108.575 239.549C109.029 240.238 109.56 240.773 110.09 241.386C110.545 241.845 110.924 242.304 111.303 242.84C111.151 243.299 111.303 243.835 111.379 244.217C111.455 244.753 111.606 245.212 111.758 245.671C112.061 246.666 112.364 247.738 113.046 248.503C112.97 248.35 112.895 248.12 112.895 247.967C112.44 247.202 112.213 246.36 111.985 245.518C111.834 245.059 111.758 244.6 111.682 244.141C111.606 243.835 111.606 243.529 111.606 243.222L111.682 243.299C112.137 243.988 112.591 244.676 112.97 245.365C113.198 245.824 113.425 246.284 113.653 246.743C113.88 247.049 114.107 247.355 114.335 247.585C114.031 246.819 113.728 246.131 113.349 245.365C112.97 244.6 112.591 243.911 112.213 243.222C111.758 242.457 111.303 241.845 110.773 241.233Z" fill="#638D39"/>
<path d="M110.394 247.967C110.166 247.431 109.863 247.048 109.636 246.513C109.484 246.36 109.408 246.207 109.257 246.054C109.029 245.747 108.726 245.518 108.499 245.288C108.347 245.135 108.196 245.059 108.044 244.906C107.893 244.753 107.741 244.599 107.589 244.523C107.438 244.446 107.362 244.753 107.438 244.829C107.589 245.135 107.968 245.365 108.196 245.594C108.499 245.824 108.802 246.054 109.029 246.36C109.56 246.819 109.939 247.431 110.394 247.967Z" fill="#638D39"/>
<path d="M107.211 231.053C107.059 231.207 106.983 231.36 106.907 231.513C106.832 231.666 106.68 231.895 106.528 232.048C106.301 232.431 106.074 232.737 105.846 233.043C105.392 233.656 104.861 234.344 104.482 235.033C104.255 235.339 104.103 235.722 103.952 236.028C103.876 236.028 103.876 236.104 103.8 236.104C103.648 236.181 103.573 236.258 103.421 236.258C103.194 236.411 102.891 236.564 102.663 236.717C102.208 237.023 101.829 237.482 101.754 238.018C101.754 238.094 101.829 238.171 101.905 238.018C102.057 237.482 102.436 237.176 102.891 236.946C103.118 236.793 103.345 236.717 103.573 236.564C103.648 236.564 103.724 236.487 103.8 236.487C103.497 237.176 103.269 237.865 103.194 238.63C103.118 239.166 103.118 239.778 103.118 240.314C103.194 240.467 103.194 240.62 103.269 240.849C103.269 239.548 103.421 238.324 103.876 237.099C104.406 235.798 105.24 234.574 106.074 233.502C106.301 233.12 106.604 232.814 106.832 232.431C106.983 232.201 107.059 232.048 107.211 231.819C107.286 231.589 107.438 231.436 107.438 231.207C107.438 231.053 107.286 230.977 107.211 231.053Z" fill="#638D39"/>
<path d="M111.531 235.569C111.455 235.033 111.379 234.497 111.303 234.038C111.227 233.732 111.227 233.426 111.152 233.12C111.152 233.043 111.152 232.967 111.152 232.89C111.227 232.967 111.303 233.12 111.379 233.196C112.213 234.344 112.895 235.569 113.501 236.946C113.804 237.635 114.032 238.401 114.259 239.089C114.259 238.783 114.259 238.477 114.259 238.171C113.501 235.722 112.288 233.349 110.469 231.436C110.166 231.13 109.863 230.824 109.56 230.594C109.257 230.288 108.878 229.982 108.499 229.753C108.347 229.676 108.12 229.982 108.272 230.135C108.575 230.365 108.878 230.594 109.105 230.824C109.408 231.054 109.636 231.283 109.863 231.589C110.166 231.895 110.394 232.202 110.697 232.508C110.621 232.737 110.697 233.043 110.697 233.349C110.697 233.656 110.773 233.962 110.848 234.268C110.924 234.804 111 235.416 111.152 235.952C111.303 236.717 111.531 237.559 111.985 238.247C112.288 238.477 112.592 238.63 112.895 238.783C112.895 238.707 112.895 238.707 112.895 238.707C111.985 237.865 111.682 236.64 111.531 235.569Z" fill="#638D39"/>
<path d="M109.939 235.492C109.939 235.416 109.863 235.416 109.863 235.339C109.712 235.033 109.484 234.727 109.257 234.497C108.802 233.962 108.347 233.426 107.968 232.814C107.893 232.89 107.893 232.967 107.893 233.043C107.968 233.349 108.272 233.656 108.423 233.885C108.651 234.191 108.878 234.421 109.105 234.727C109.56 235.263 109.939 235.875 110.318 236.487H110.394C110.166 236.181 110.091 235.875 109.939 235.492Z" fill="#638D39"/>
<path d="M114.789 234.956C114.789 234.88 114.714 234.803 114.714 234.727C114.638 234.65 114.562 234.497 114.562 234.42C114.335 234.114 114.031 233.808 113.728 233.502C113.425 233.196 113.046 232.966 112.743 232.813C112.591 232.737 112.364 232.66 112.213 232.584C111.985 232.507 111.758 232.431 111.606 232.584C111.53 232.66 111.455 232.813 111.53 232.89C111.682 233.043 111.909 232.966 112.061 233.043C112.213 233.119 112.44 233.196 112.591 233.273C112.97 233.426 113.274 233.655 113.577 233.961C114.107 234.42 114.638 235.033 115.093 235.645C115.017 235.415 114.941 235.186 114.789 234.956Z" fill="#638D39"/>
<path d="M114.638 245.9C114.411 245.671 114.183 245.441 113.88 245.135C113.728 244.982 113.501 244.753 113.274 244.599C113.198 244.523 113.046 244.446 112.971 244.37C112.895 244.293 112.743 244.217 112.592 244.217C112.516 244.217 112.44 244.37 112.516 244.37C112.592 244.446 112.743 244.523 112.819 244.523C112.971 244.599 113.046 244.676 113.198 244.753C113.425 244.906 113.653 245.059 113.804 245.212C114.107 245.441 114.411 245.747 114.714 246.054C114.714 246.054 114.638 245.977 114.638 245.9Z" fill="#638D39"/>
<path d="M112.971 237.865C112.895 237.712 112.819 237.482 112.743 237.329C112.667 237.176 112.592 237.1 112.44 236.946C112.288 236.793 112.137 236.717 111.985 236.564C111.909 236.487 111.834 236.411 111.758 236.411C111.682 236.334 111.606 236.334 111.455 236.334C111.379 236.334 111.303 236.487 111.379 236.564C111.455 236.64 111.531 236.717 111.606 236.717C111.682 236.793 111.758 236.793 111.834 236.87C111.985 236.946 112.137 237.1 112.288 237.176C112.592 237.406 112.819 237.635 112.971 237.865Z" fill="#638D39"/>
<path d="M109.257 234.498C109.181 234.498 109.181 234.574 109.181 234.574C109.105 234.804 109.105 235.11 109.105 235.339C109.105 235.646 109.105 235.875 109.181 236.181C109.257 236.487 109.333 236.793 109.484 237.1C109.636 237.253 109.787 237.406 109.863 237.482V237.406C109.56 237.023 109.408 236.487 109.408 236.028C109.408 235.799 109.408 235.492 109.408 235.263C109.408 235.033 109.484 234.88 109.408 234.651C109.408 234.574 109.333 234.498 109.257 234.498Z" fill="#638D39"/>
<path d="M106.528 239.395C106.68 239.089 106.831 238.859 106.983 238.553C107.135 238.324 107.286 238.018 107.286 237.711C107.286 237.558 107.059 237.635 107.059 237.711C106.907 237.941 106.831 238.247 106.68 238.477C106.528 238.783 106.377 239.012 106.301 239.319C105.998 239.778 105.695 240.313 105.391 240.773C105.391 240.773 105.391 240.849 105.316 240.849C105.316 240.849 105.316 240.849 105.24 240.849C104.785 241.155 104.255 241.232 103.724 241.308C103.194 241.385 102.663 241.385 102.133 241.461C100.92 241.691 99.7072 242.15 98.722 242.992C98.1915 243.375 97.7367 243.91 97.5094 244.523C97.5094 244.599 97.5851 244.599 97.6609 244.523C98.1915 243.375 99.4041 242.609 100.541 242.15C101.071 241.921 101.678 241.768 102.284 241.691C102.815 241.614 103.345 241.614 103.876 241.538C104.255 241.538 104.709 241.461 105.013 241.308C104.634 241.844 104.33 242.456 104.027 242.992C103.724 243.145 103.421 243.375 103.194 243.604C102.89 243.834 102.587 243.987 102.284 244.217C101.678 244.599 101.147 245.058 100.693 245.594C99.783 246.666 99.1767 247.89 98.722 249.191C98.722 249.268 98.7978 249.268 98.8736 249.191C99.1767 248.426 99.5557 247.584 100.086 246.895C100.086 247.048 100.086 247.201 100.086 247.278C100.086 247.584 100.01 247.89 100.01 248.12C99.9346 248.732 99.9346 249.268 99.8588 249.88C99.8588 249.956 99.9346 249.88 99.9346 249.88C100.086 249.268 100.238 248.655 100.314 248.043C100.389 247.737 100.389 247.431 100.389 247.125C100.389 246.972 100.389 246.819 100.389 246.665C100.389 246.589 100.389 246.436 100.389 246.359C100.617 246.13 100.768 245.824 100.996 245.594C101.45 245.058 101.981 244.676 102.587 244.217C102.89 243.987 103.194 243.834 103.497 243.604C103.573 243.528 103.648 243.451 103.8 243.375C103.8 243.451 103.724 243.528 103.724 243.604C102.966 245.364 102.436 247.201 102.208 249.114C101.829 249.497 101.602 250.033 101.45 250.492C101.223 251.104 101.071 251.793 100.92 252.482C100.617 254.242 100.693 256.002 101.223 257.686C101.223 257.762 101.45 257.686 101.375 257.609C100.92 256.002 100.844 254.319 101.147 252.635C101.299 251.946 101.45 251.334 101.602 250.722C101.754 250.339 101.829 249.956 102.057 249.65C102.057 249.88 101.981 250.033 101.981 250.262C101.905 251.563 101.905 252.788 102.057 254.089C102.057 254.166 102.208 254.089 102.208 254.012C101.981 252.482 102.057 250.875 102.284 249.268C102.284 249.268 102.284 249.191 102.36 249.191C102.436 249.114 102.36 249.038 102.36 249.038C102.436 248.426 102.587 247.737 102.739 247.125C102.966 246.359 103.194 245.671 103.421 244.982C103.421 245.211 103.497 245.518 103.497 245.747C103.497 246.206 103.573 246.589 103.573 247.048C103.648 247.813 103.8 248.655 103.876 249.421V249.497C103.876 249.497 103.876 249.497 103.876 249.574C104.027 250.415 104.103 251.257 104.103 252.176C104.103 253.018 104.179 253.859 104.33 254.701C104.33 254.778 104.482 254.701 104.482 254.625C104.406 253.783 104.406 252.941 104.406 252.023C104.406 251.487 104.406 250.875 104.33 250.339C104.937 251.41 105.391 252.558 105.695 253.783C105.922 254.548 105.998 255.313 106.074 256.155C106.149 256.997 106.301 257.762 106.453 258.604C106.453 258.681 106.604 258.604 106.604 258.528C106.528 257.686 106.453 256.844 106.377 256.002C106.301 255.16 106.225 254.395 105.998 253.553C105.619 252.099 104.937 250.722 104.179 249.421C104.027 248.579 103.951 247.737 103.876 246.895C103.8 246.436 103.8 245.977 103.8 245.518C103.8 245.288 103.8 245.058 103.8 244.905C103.8 244.676 103.8 244.446 103.8 244.293C103.876 244.217 103.876 244.063 103.951 243.987C104.179 243.528 104.406 243.069 104.634 242.609C104.634 242.609 104.634 242.686 104.709 242.686C104.709 242.762 104.785 242.839 104.785 242.916C104.861 243.069 104.937 243.222 105.013 243.375C105.164 243.681 105.24 243.987 105.316 244.293C105.316 244.37 105.467 244.293 105.467 244.217C105.391 243.91 105.316 243.528 105.24 243.222C105.164 243.069 105.164 242.915 105.088 242.762C105.088 242.686 105.013 242.609 105.013 242.533C105.013 242.456 104.937 242.38 104.937 242.303C105.164 241.844 105.467 241.385 105.77 241.002C105.846 240.467 106.225 239.931 106.528 239.395Z" fill="#638D39"/>
<path d="M118.427 249.957C118.124 249.345 117.821 248.656 117.518 248.044C117.215 247.431 116.912 246.819 116.533 246.283C115.699 245.059 114.562 244.141 113.349 243.299C113.046 243.069 112.667 242.916 112.364 242.763C112.213 242.686 112.061 242.61 111.834 242.457C111.682 242.38 111.531 242.227 111.379 242.151C111.303 242.074 111.076 242.227 111.152 242.304C111.227 242.61 111.531 242.763 111.758 242.84C112.061 242.993 112.288 243.146 112.592 243.299C113.274 243.681 113.956 244.141 114.562 244.676C115.017 245.059 115.396 245.518 115.775 245.977C115.775 245.977 115.699 246.054 115.699 246.13C115.699 247.508 115.699 248.962 116.154 250.263C116.608 251.487 117.291 252.559 117.897 253.707C117.897 253.783 118.048 253.707 117.973 253.63C117.442 252.482 116.836 251.334 116.457 250.11C116.229 249.421 116.154 248.809 116.078 248.12C116.078 247.584 116.078 247.049 116.078 246.513C116.381 246.972 116.76 247.508 116.987 248.044C117.366 248.732 117.745 249.421 118.124 250.11C118.352 250.11 118.427 249.957 118.427 249.957Z" fill="#638D39"/>
<path d="M111.909 256.538C111.682 256.079 111.379 255.62 111.152 255.16C111 254.931 110.848 254.701 110.697 254.472C110.545 254.242 110.469 254.012 110.318 253.859C110.318 253.553 110.318 253.247 110.242 252.941C110.242 252.558 110.242 252.176 110.242 251.869C110.242 251.487 110.318 251.104 110.318 250.645C110.318 250.492 110.015 250.568 110.015 250.645C109.939 251.028 109.863 251.41 109.863 251.793C109.863 252.176 109.863 252.558 109.863 252.941C109.863 253.706 109.939 254.395 110.09 255.084C110.318 256.614 110.848 257.992 111.53 259.37C111.53 259.446 111.682 259.369 111.682 259.293C111.076 257.915 110.621 256.538 110.394 255.007C110.394 254.854 110.394 254.778 110.318 254.625C110.469 254.778 110.545 255.007 110.697 255.16C111 255.62 111.379 256.002 111.606 256.461C111.758 256.767 111.909 256.614 111.909 256.538Z" fill="#638D39"/>
</g>
</g>
<g clip-path="url(#clip2_1_731)">
<path d="M208.529 143.248C208.529 143.248 215.484 134.056 226.331 137.04C237.177 139.906 234.701 151.606 231.046 165.574C228.099 177.155 226.566 199.838 226.331 213.448C226.095 227.059 226.566 242.34 224.798 247.951C224.798 247.951 223.265 227.417 222.912 214.523C222.322 197.689 222.322 181.214 225.27 170.708C228.217 160.201 229.867 154.829 228.571 150.054C227.274 145.278 222.322 143.368 222.322 143.368C222.322 143.368 224.091 149.337 218.314 154.948C212.419 160.798 208.529 143.248 208.529 143.248Z" fill="#224106"/>
<path d="M228.688 176.2C228.571 172.738 229.042 169.275 229.632 165.813C229.985 163.783 230.221 161.754 230.457 159.724C230.811 157.217 230.928 154.591 230.575 152.083C230.339 150.054 229.632 148.024 228.571 146.353C227.392 144.562 225.859 143.01 224.208 141.697C223.265 140.98 222.322 140.383 221.261 139.786C220.79 139.548 220.2 139.19 219.728 139.07C219.139 138.831 218.55 138.712 217.96 138.712C216.663 138.593 215.366 138.712 214.07 138.712C210.533 140.742 208.528 143.368 208.528 143.368C208.528 143.368 212.419 160.918 218.196 155.307C224.091 149.457 222.204 143.607 222.204 143.607C222.204 143.607 227.156 145.517 228.453 150.293C229.75 155.068 228.099 160.56 225.152 170.947C222.204 181.453 222.204 197.928 222.794 214.762C223.265 227.656 224.68 248.191 224.68 248.191C226.448 242.46 225.977 227.298 226.213 213.688C226.448 204.136 227.274 189.929 228.688 178.349C228.806 177.513 228.688 176.916 228.688 176.2Z" fill="#224106"/>
<path d="M225.859 183.721C224.916 183.601 223.973 183.243 223.147 182.646C222.204 191.959 222.44 203.3 222.794 214.762C223.265 227.656 224.68 248.19 224.68 248.19C226.449 242.46 225.977 227.297 226.213 213.687C226.331 205.569 227.038 194.227 228.099 183.84C227.392 183.84 226.684 183.84 225.859 183.721Z" fill="#D9D4AC"/>
<path d="M225.859 183.721C224.916 183.601 223.973 183.243 223.147 182.646C222.204 191.959 222.44 203.3 222.794 214.762C223.265 227.656 224.68 248.19 224.68 248.19C226.449 242.46 225.977 227.297 226.213 213.687C226.331 205.569 227.038 194.227 228.099 183.84C227.392 183.84 226.684 183.84 225.859 183.721Z" fill="#6FA543"/>
<path d="M226.566 186.466C226.448 187.541 226.213 188.496 226.095 189.57C225.859 190.884 225.741 192.316 225.623 193.63C225.034 199.002 224.444 204.494 224.326 209.986C224.091 215.478 224.326 220.969 224.562 226.461C224.68 228.968 224.798 231.595 224.916 234.102C225.034 236.609 225.152 239.116 225.269 241.504C225.387 242.698 225.387 243.773 225.505 244.966C226.566 237.923 226.213 225.148 226.448 213.567C226.566 205.449 227.274 194.107 228.335 183.72C227.745 183.84 227.156 183.84 226.448 183.84C226.684 184.556 226.684 185.511 226.566 186.466Z" fill="#B0CD71"/>
<path d="M220.672 147.785C220.2 145.994 219.375 144.322 217.96 143.129C217.253 142.532 216.545 142.054 215.602 141.696C214.423 141.218 213.126 141.099 211.947 141.099C209 140.86 205.935 141.338 203.105 142.054C195.796 144.203 190.491 149.217 186.6 155.784C185.893 157.097 185.421 158.41 185.185 159.843C184.242 170.11 201.101 168.797 206.996 167.006C211.358 165.693 215.484 163.305 218.196 159.485C220.436 156.5 221.615 151.844 220.672 147.785Z" fill="#B98261"/>
<path d="M220.672 147.785C220.2 145.994 219.375 144.322 217.96 143.129C217.253 142.532 216.545 142.054 215.602 141.696C214.423 141.218 213.126 141.099 211.947 141.099C209 140.86 205.935 141.338 203.105 142.054C195.796 144.203 190.491 149.217 186.6 155.784C185.893 157.097 185.421 158.41 185.185 159.843C184.242 170.11 201.101 168.797 206.996 167.006C211.358 165.693 215.484 163.305 218.196 159.485C220.436 156.5 221.615 151.844 220.672 147.785ZM200.276 164.499C197.682 165.335 194.853 165.812 192.259 165.335C190.137 164.977 188.015 163.902 187.307 161.753C186.954 160.559 186.954 159.365 187.307 158.171C187.661 156.619 188.369 155.187 189.312 153.993C190.609 151.963 192.259 150.172 194.145 148.501C197.329 144.561 202.516 141.577 207.585 143.009C209.943 143.726 212.065 145.397 212.891 147.785C213.598 149.934 213.48 152.321 212.655 154.47C211.83 156.858 210.179 158.888 208.175 160.44C205.817 162.35 203.105 163.663 200.276 164.499ZM215.366 160.917C213.716 162.469 211.476 163.305 209.236 163.186C209 163.186 209 162.947 209.118 162.828C209.59 162.111 210.415 161.514 211.122 161.037C211.83 160.44 212.537 159.843 213.244 159.127C213.952 158.41 214.659 157.574 215.249 156.739C216.074 154.948 216.781 153.157 217.489 151.366C217.606 151.128 217.842 151.128 217.96 151.366C218.314 152.56 218.432 153.873 218.314 155.187C217.96 157.336 216.899 159.485 215.366 160.917Z" fill="#5C4E2A"/>
<path d="M217.607 149.575C217.607 148.143 217.135 146.829 216.781 145.516C216.781 145.397 216.545 145.516 216.545 145.635C216.663 146.829 216.899 148.023 216.899 149.217C216.899 150.53 216.663 151.605 216.074 152.799C215.249 154.948 213.834 156.738 212.301 158.41C209.59 161.395 206.171 163.663 202.398 164.976C199.804 165.931 197.093 166.051 194.263 166.289C194.145 166.289 193.91 166.528 194.145 166.528C198.743 166.767 203.577 165.693 207.585 163.305C209.354 162.23 211.004 160.798 212.537 159.246C214.188 157.574 215.602 155.664 216.663 153.515C217.135 152.202 217.607 150.888 217.607 149.575Z" fill="#844934"/>
<path opacity="0.45" d="M217.017 159.604C216.663 160.082 216.192 160.44 215.838 160.798C214.895 161.634 213.834 162.35 212.773 163.067C212.301 163.425 211.83 163.663 211.24 163.902C211.122 164.022 211.004 164.26 211.24 164.26C211.83 164.26 212.419 164.022 212.891 163.783C213.48 163.544 214.07 163.067 214.659 162.589C215.249 162.231 215.72 161.753 216.192 161.156C216.545 160.679 216.899 160.201 217.135 159.724C217.253 159.485 217.017 159.485 217.017 159.604Z" fill="#B8765D"/>
<path opacity="0.45" d="M190.137 155.426C190.137 155.306 190.019 155.306 190.019 155.306C189.901 155.306 189.901 155.306 189.783 155.306C189.43 155.426 189.194 155.665 188.958 155.903V156.023L188.84 156.142C188.722 156.381 188.604 156.739 188.722 156.978C188.958 157.336 189.43 157.217 189.665 156.978C189.901 156.739 190.019 156.5 190.137 156.142C190.255 156.023 190.255 155.665 190.137 155.426Z" fill="#B8765D"/>
<path opacity="0.45" d="M189.783 159.485C189.783 159.365 189.666 159.365 189.666 159.365H189.548C189.548 159.365 189.548 159.365 189.43 159.246H189.312C189.312 159.246 189.194 159.246 189.194 159.365C189.194 159.365 189.194 159.365 189.194 159.485C189.194 159.485 189.194 159.485 189.076 159.604C189.076 159.604 189.076 159.604 189.076 159.723C189.076 159.723 189.076 159.723 189.076 159.843C189.076 159.843 189.076 159.843 189.076 159.962C189.076 159.962 189.076 159.962 189.076 160.082C189.076 160.082 189.076 160.201 189.194 160.201H189.312H189.43H189.548C189.548 160.201 189.548 160.201 189.666 160.201C189.666 160.201 189.666 160.201 189.783 160.201C189.783 160.201 189.901 160.201 189.901 160.082C189.901 160.082 189.901 160.082 189.901 159.962C189.783 159.723 189.783 159.604 189.783 159.485C189.783 159.485 189.783 159.604 189.783 159.485Z" fill="#B8765D"/>
<g opacity="0.45">
<path d="M191.905 157.933C192.023 157.933 192.023 157.814 191.905 157.933V157.933Z" fill="#B8765D"/>
<path d="M192.259 158.171C192.259 158.171 192.259 158.052 192.259 158.171C192.259 158.052 192.259 158.052 192.259 158.052C192.259 158.052 192.259 158.052 192.259 157.933C192.259 157.933 192.259 157.933 192.141 157.933C192.141 157.933 192.141 157.933 192.023 157.933H191.905C191.905 157.933 191.905 157.933 191.788 157.933H191.67C191.67 157.933 191.552 157.933 191.552 158.052L191.434 158.171V158.291C191.434 158.291 191.434 158.291 191.434 158.41C191.434 158.41 191.434 158.53 191.552 158.53H191.67H191.788C191.788 158.53 191.905 158.53 191.905 158.41L192.023 158.291C192.259 158.291 192.259 158.171 192.259 158.171Z" fill="#B8765D"/>
</g>
<path opacity="0.45" d="M196.386 161.992C196.386 161.873 196.268 161.873 196.268 161.873H196.15C196.15 161.873 196.15 161.754 196.032 161.754C195.914 161.754 195.914 161.754 195.796 161.754H195.678C195.56 161.873 195.442 161.992 195.325 162.112L195.207 162.231C195.207 162.231 195.207 162.351 195.207 162.231C195.207 162.351 195.089 162.351 195.089 162.47C194.971 162.589 194.971 162.828 194.971 162.948C194.971 163.067 195.207 163.186 195.325 163.186C195.56 163.186 195.914 163.067 196.15 162.828C196.386 162.589 196.503 162.351 196.621 162.112C196.386 162.112 196.386 162.112 196.386 161.992Z" fill="#B8765D"/>
<path opacity="0.45" d="M200.276 160.679C200.158 160.918 200.158 161.037 200.276 161.037C200.276 161.157 200.394 161.157 200.63 161.157C200.748 161.157 200.748 161.157 200.866 161.037C201.101 160.679 200.63 160.202 200.276 160.679Z" fill="#B8765D"/>
<path opacity="0.45" d="M208.529 158.291C208.529 158.172 208.529 158.172 208.529 158.172H208.411C208.293 158.172 208.293 158.172 208.175 158.172C208.175 158.172 208.175 158.172 208.293 158.172C208.175 158.172 208.057 158.172 208.057 158.291C207.939 158.291 207.939 158.411 207.939 158.411L207.821 158.53C207.821 158.53 207.821 158.53 207.821 158.411C207.821 158.411 207.821 158.411 207.821 158.53C207.821 158.53 207.821 158.53 207.821 158.649V158.769C207.821 158.769 207.821 158.888 207.939 158.888H208.057H208.175C208.293 158.888 208.293 158.888 208.411 158.888H208.529C208.529 158.888 208.647 158.888 208.647 158.769L208.764 158.649C208.764 158.649 208.764 158.53 208.882 158.53C208.529 158.411 208.529 158.411 208.529 158.291Z" fill="#B8765D"/>
<path opacity="0.45" d="M213.716 160.201C213.716 160.201 213.716 160.082 213.716 160.201C213.598 159.963 213.48 159.963 213.48 160.082C213.48 160.082 213.362 160.082 213.362 160.201C213.362 160.201 213.362 160.201 213.244 160.201C213.009 160.201 212.891 160.321 212.655 160.44C212.537 160.56 212.419 160.679 212.419 160.918C212.419 161.037 212.419 161.037 212.419 161.037V161.156C212.419 161.276 212.419 161.395 212.537 161.395C212.655 161.515 212.655 161.515 212.773 161.515C213.362 161.395 213.834 161.037 213.952 160.56C213.952 160.44 213.834 160.201 213.716 160.201Z" fill="#B8765D"/>
<path opacity="0.45" d="M215.956 158.769C215.956 158.649 215.956 158.649 215.956 158.769C215.838 158.649 215.838 158.649 215.956 158.769C215.838 158.649 215.838 158.649 215.838 158.649C215.838 158.649 215.838 158.649 215.72 158.649H215.602C215.602 158.649 215.484 158.649 215.484 158.769C215.484 158.769 215.484 158.769 215.367 158.769H215.249C215.131 158.769 215.131 158.888 215.131 158.888L215.013 159.007V159.127C215.013 159.127 215.013 159.246 215.131 159.246H215.249C215.367 159.246 215.367 159.246 215.484 159.246C215.602 159.246 215.602 159.246 215.72 159.127L215.838 159.007C215.838 159.007 215.838 159.007 215.838 158.888C215.838 158.888 215.838 158.888 215.956 158.769C215.956 158.888 215.956 158.769 215.956 158.769Z" fill="#B8765D"/>
<path d="M204.874 148.382C204.874 147.546 204.52 146.591 203.813 145.994C203.105 145.397 202.044 145.278 201.101 145.397C200.276 145.516 199.451 145.994 198.743 146.471C197.329 147.188 196.032 147.904 194.735 148.859C193.084 150.053 191.552 151.605 190.491 153.396C189.43 155.067 188.486 156.978 188.369 159.007C188.251 160.917 189.312 162.708 190.962 163.783C194.145 165.693 198.272 163.902 200.747 161.514C202.28 159.962 203.341 157.813 203.931 155.664C204.284 154.47 204.52 153.277 204.756 152.083C204.756 150.769 204.992 149.576 204.874 148.382Z" fill="#B5AA6B"/>
<path opacity="0.45" d="M212.891 142.054C214.777 143.368 215.956 145.517 216.192 147.785C216.427 150.531 215.366 153.038 214.305 155.545C214.895 154.829 215.366 153.993 215.838 153.158C216.427 151.964 216.781 150.77 217.017 149.457C217.135 147.904 216.899 146.472 216.663 144.92C216.545 144.203 216.427 143.368 216.192 142.651C216.074 142.293 215.956 142.054 215.838 141.696C214.659 141.219 213.362 141.099 212.183 141.099C211.83 141.099 211.594 141.099 211.24 141.099C211.712 141.338 212.301 141.577 212.891 142.054Z" fill="#B8765D"/>
<path d="M224.562 223.357C223.855 224.551 223.501 225.983 223.501 227.297C223.383 228.729 223.501 230.281 223.737 231.714C223.855 232.43 224.09 233.027 224.208 233.624C223.855 233.982 223.855 234.818 223.855 235.415C223.855 236.131 223.973 236.848 224.09 237.564C224.326 238.758 224.798 239.952 225.387 241.026C225.623 241.265 225.859 241.504 226.095 241.743C226.213 241.862 226.33 241.981 226.448 241.981C225.859 241.265 225.505 240.429 225.269 239.594C224.798 238.28 224.562 236.967 224.444 235.534C224.444 235.176 224.444 234.818 224.444 234.579C224.444 234.579 224.444 234.579 224.444 234.46C225.269 236.489 226.448 238.28 227.863 239.713C228.453 240.31 229.16 240.907 229.867 241.504C230.339 241.862 230.81 242.22 231.164 242.578C230.575 241.981 229.985 241.384 229.514 240.668C229.396 240.549 229.278 240.429 229.16 240.19C229.042 240.071 228.806 239.832 228.688 239.713C227.627 238.519 226.684 237.325 225.977 235.893C224.68 233.385 223.973 230.639 223.973 227.774C223.973 226.342 224.208 224.909 224.562 223.476C224.798 223.357 224.68 223.237 224.562 223.357Z" fill="#638D39"/>
<path d="M229.278 224.909C228.453 223.954 227.509 223.118 226.802 222.163C225.977 221.089 225.152 219.895 224.798 218.582C224.798 218.462 224.562 218.582 224.562 218.701C224.68 219.298 224.798 220.014 225.034 220.611C225.269 221.208 225.505 221.686 225.859 222.283C226.566 223.357 227.392 224.193 228.217 225.148C228.924 225.864 229.514 226.581 230.103 227.416C229.867 228.133 230.103 228.968 230.221 229.565C230.339 230.401 230.575 231.117 230.811 231.834C231.282 233.386 231.754 235.057 232.815 236.251C232.697 236.012 232.579 235.654 232.579 235.415C231.872 234.221 231.518 232.908 231.164 231.595C230.928 230.879 230.811 230.162 230.693 229.446C230.575 228.968 230.575 228.491 230.575 228.013L230.693 228.133C231.4 229.207 232.107 230.282 232.697 231.356C233.051 232.072 233.404 232.789 233.758 233.505C234.112 233.983 234.465 234.46 234.819 234.818C234.347 233.625 233.876 232.55 233.286 231.356C232.697 230.162 232.107 229.088 231.518 228.013C230.811 226.819 230.103 225.864 229.278 224.909Z" fill="#638D39"/>
<path d="M228.688 235.416C228.335 234.58 227.863 233.983 227.51 233.147C227.274 232.908 227.156 232.67 226.92 232.431C226.566 231.953 226.095 231.595 225.741 231.237C225.505 230.998 225.27 230.879 225.034 230.64C224.798 230.401 224.562 230.163 224.326 230.043C224.091 229.924 223.973 230.401 224.091 230.521C224.326 230.998 224.916 231.356 225.27 231.715C225.741 232.073 226.213 232.431 226.566 232.908C227.392 233.625 227.981 234.58 228.688 235.416Z" fill="#638D39"/>
<path d="M223.737 209.031C223.501 209.27 223.383 209.509 223.265 209.747C223.147 209.986 222.912 210.344 222.676 210.583C222.322 211.18 221.968 211.658 221.615 212.135C220.907 213.09 220.082 214.165 219.493 215.239C219.139 215.717 218.903 216.314 218.667 216.791C218.549 216.791 218.549 216.911 218.432 216.911C218.196 217.03 218.078 217.149 217.842 217.149C217.488 217.388 217.017 217.627 216.663 217.866C215.956 218.343 215.366 219.06 215.248 219.895C215.248 220.015 215.366 220.134 215.484 219.895C215.72 219.06 216.309 218.582 217.017 218.224C217.371 217.985 217.724 217.866 218.078 217.627C218.196 217.627 218.314 217.508 218.432 217.508C217.96 218.582 217.606 219.656 217.488 220.85C217.371 221.686 217.371 222.641 217.371 223.477C217.488 223.716 217.488 223.954 217.606 224.313C217.606 222.283 217.842 220.373 218.549 218.463C219.375 216.433 220.672 214.523 221.968 212.851C222.322 212.254 222.794 211.777 223.147 211.18C223.383 210.822 223.501 210.583 223.737 210.225C223.855 209.867 224.091 209.628 224.091 209.27C224.091 209.031 223.855 208.912 223.737 209.031Z" fill="#638D39"/>
<path d="M230.457 216.074C230.339 215.239 230.221 214.403 230.103 213.687C229.985 213.209 229.985 212.732 229.867 212.254C229.867 212.135 229.867 212.015 229.867 211.896C229.985 212.015 230.103 212.254 230.221 212.373C231.518 214.164 232.579 216.074 233.522 218.223C233.994 219.298 234.347 220.492 234.701 221.566C234.701 221.089 234.701 220.611 234.701 220.134C233.522 216.313 231.636 212.612 228.806 209.628C228.335 209.15 227.863 208.672 227.392 208.314C226.92 207.837 226.331 207.359 225.741 207.001C225.505 206.882 225.152 207.359 225.387 207.598C225.859 207.956 226.331 208.314 226.684 208.672C227.156 209.031 227.509 209.389 227.863 209.866C228.335 210.344 228.688 210.821 229.16 211.299C229.042 211.657 229.16 212.135 229.16 212.612C229.16 213.09 229.278 213.567 229.396 214.045C229.514 214.881 229.632 215.836 229.867 216.671C230.103 217.865 230.457 219.179 231.164 220.253C231.636 220.611 232.107 220.85 232.579 221.089C232.579 220.969 232.579 220.969 232.579 220.969C231.164 219.656 230.693 217.746 230.457 216.074Z" fill="#638D39"/>
<path d="M227.981 215.955C227.981 215.835 227.863 215.835 227.863 215.716C227.627 215.238 227.274 214.761 226.92 214.403C226.213 213.567 225.505 212.731 224.916 211.776C224.798 211.896 224.798 212.015 224.798 212.134C224.916 212.612 225.387 213.089 225.623 213.448C225.977 213.925 226.331 214.283 226.684 214.761C227.392 215.597 227.981 216.552 228.571 217.507H228.689C228.335 217.029 228.217 216.552 227.981 215.955Z" fill="#638D39"/>
<path d="M235.526 215.119C235.526 215 235.409 214.88 235.409 214.761C235.291 214.641 235.173 214.403 235.173 214.283C234.819 213.806 234.347 213.328 233.876 212.851C233.404 212.373 232.815 212.015 232.343 211.776C232.107 211.657 231.754 211.537 231.518 211.418C231.164 211.298 230.811 211.179 230.575 211.418C230.457 211.537 230.339 211.776 230.457 211.895C230.693 212.134 231.046 212.015 231.282 212.134C231.518 212.254 231.872 212.373 232.107 212.492C232.697 212.731 233.169 213.089 233.64 213.567C234.465 214.283 235.291 215.238 235.998 216.193C235.88 215.835 235.762 215.477 235.526 215.119Z" fill="#638D39"/>
<path d="M235.291 232.192C234.937 231.834 234.583 231.476 234.112 230.998C233.876 230.759 233.522 230.401 233.168 230.162C233.051 230.043 232.815 229.924 232.697 229.804C232.579 229.685 232.343 229.565 232.107 229.565C231.989 229.565 231.872 229.804 231.989 229.804C232.107 229.924 232.343 230.043 232.461 230.043C232.697 230.162 232.815 230.282 233.051 230.401C233.404 230.64 233.758 230.879 233.994 231.117C234.465 231.476 234.937 231.953 235.408 232.431C235.408 232.431 235.291 232.311 235.291 232.192Z" fill="#638D39"/>
<path d="M232.697 219.656C232.579 219.417 232.461 219.059 232.343 218.82C232.225 218.582 232.107 218.462 231.872 218.223C231.636 217.985 231.4 217.865 231.164 217.626C231.046 217.507 230.928 217.388 230.811 217.388C230.693 217.268 230.575 217.268 230.339 217.268C230.221 217.268 230.103 217.507 230.221 217.626C230.339 217.746 230.457 217.865 230.575 217.865C230.693 217.985 230.811 217.985 230.928 218.104C231.164 218.223 231.4 218.462 231.636 218.582C232.107 218.94 232.461 219.298 232.697 219.656Z" fill="#638D39"/>
<path d="M226.92 214.403C226.802 214.403 226.802 214.522 226.802 214.522C226.684 214.881 226.684 215.358 226.684 215.716C226.684 216.194 226.684 216.552 226.802 217.03C226.92 217.507 227.038 217.985 227.274 218.462C227.509 218.701 227.745 218.94 227.863 219.059V218.94C227.392 218.343 227.156 217.507 227.156 216.791C227.156 216.433 227.156 215.955 227.156 215.597C227.156 215.239 227.274 215 227.156 214.642C227.156 214.522 227.038 214.403 226.92 214.403Z" fill="#638D39"/>
<path d="M222.676 222.044C222.912 221.567 223.147 221.209 223.383 220.731C223.619 220.373 223.855 219.895 223.855 219.418C223.855 219.179 223.501 219.298 223.501 219.418C223.265 219.776 223.147 220.254 222.912 220.612C222.676 221.089 222.44 221.447 222.322 221.925C221.851 222.641 221.379 223.477 220.907 224.193C220.907 224.193 220.907 224.313 220.79 224.313C220.79 224.313 220.79 224.313 220.672 224.313C219.964 224.79 219.139 224.91 218.314 225.029C217.489 225.148 216.663 225.148 215.838 225.268C213.952 225.626 212.065 226.342 210.533 227.656C209.707 228.253 209 229.088 208.646 230.043C208.646 230.163 208.764 230.163 208.882 230.043C209.707 228.253 211.594 227.059 213.362 226.342C214.187 225.984 215.131 225.745 216.074 225.626C216.899 225.507 217.724 225.507 218.55 225.387C219.139 225.387 219.846 225.268 220.318 225.029C219.729 225.865 219.257 226.82 218.785 227.656C218.314 227.894 217.842 228.253 217.489 228.611C217.017 228.969 216.545 229.208 216.074 229.566C215.131 230.163 214.305 230.879 213.598 231.715C212.183 233.386 211.24 235.296 210.533 237.326C210.533 237.445 210.651 237.445 210.769 237.326C211.24 236.132 211.83 234.819 212.655 233.744C212.655 233.983 212.655 234.222 212.655 234.341C212.655 234.819 212.537 235.296 212.537 235.655C212.419 236.61 212.419 237.445 212.301 238.401C212.301 238.52 212.419 238.401 212.419 238.401C212.655 237.445 212.891 236.49 213.009 235.535C213.126 235.058 213.126 234.58 213.126 234.103C213.126 233.864 213.126 233.625 213.126 233.386C213.126 233.267 213.126 233.028 213.126 232.909C213.48 232.551 213.716 232.073 214.07 231.715C214.777 230.879 215.602 230.282 216.545 229.566C217.017 229.208 217.489 228.969 217.96 228.611C218.078 228.491 218.196 228.372 218.432 228.253C218.432 228.372 218.314 228.491 218.314 228.611C217.135 231.357 216.31 234.222 215.956 237.207C215.366 237.804 215.013 238.639 214.777 239.356C214.423 240.311 214.187 241.385 213.952 242.46C213.48 245.206 213.598 247.952 214.423 250.578C214.423 250.697 214.777 250.578 214.659 250.459C213.952 247.952 213.834 245.325 214.305 242.698C214.541 241.624 214.777 240.669 215.013 239.714C215.249 239.117 215.366 238.52 215.72 238.042C215.72 238.401 215.602 238.639 215.602 238.997C215.484 241.027 215.484 242.937 215.72 244.967C215.72 245.086 215.956 244.967 215.956 244.847C215.602 242.46 215.72 239.953 216.074 237.445C216.074 237.445 216.074 237.326 216.192 237.326C216.31 237.207 216.192 237.087 216.192 237.087C216.31 236.132 216.545 235.058 216.781 234.103C217.135 232.909 217.489 231.834 217.842 230.76C217.842 231.118 217.96 231.595 217.96 231.954C217.96 232.67 218.078 233.267 218.078 233.983C218.196 235.177 218.432 236.49 218.55 237.684V237.804C218.55 237.804 218.55 237.804 218.55 237.923C218.785 239.236 218.903 240.55 218.903 241.982C218.903 243.295 219.021 244.609 219.257 245.922C219.257 246.041 219.493 245.922 219.493 245.803C219.375 244.489 219.375 243.176 219.375 241.743C219.375 240.908 219.375 239.953 219.257 239.117C220.2 240.788 220.907 242.579 221.379 244.489C221.733 245.683 221.851 246.877 221.969 248.19C222.086 249.504 222.322 250.697 222.558 252.011C222.558 252.13 222.794 252.011 222.794 251.891C222.676 250.578 222.558 249.265 222.44 247.952C222.322 246.638 222.204 245.444 221.851 244.131C221.261 241.863 220.2 239.714 219.021 237.684C218.785 236.371 218.667 235.058 218.55 233.744C218.432 233.028 218.432 232.312 218.432 231.595C218.432 231.237 218.432 230.879 218.432 230.64C218.432 230.282 218.432 229.924 218.432 229.685C218.55 229.566 218.55 229.327 218.667 229.208C219.021 228.491 219.375 227.775 219.729 227.059C219.729 227.059 219.729 227.178 219.846 227.178C219.846 227.297 219.964 227.417 219.964 227.536C220.082 227.775 220.2 228.014 220.318 228.253C220.554 228.73 220.672 229.208 220.79 229.685C220.79 229.805 221.025 229.685 221.025 229.566C220.907 229.088 220.79 228.491 220.672 228.014C220.554 227.775 220.554 227.536 220.436 227.297C220.436 227.178 220.318 227.059 220.318 226.939C220.318 226.82 220.2 226.701 220.2 226.581C220.554 225.865 221.025 225.149 221.497 224.552C221.615 223.716 222.204 222.88 222.676 222.044Z" fill="#638D39"/>
<path d="M241.186 238.519C240.714 237.564 240.242 236.49 239.771 235.535C239.299 234.58 238.828 233.625 238.238 232.789C236.941 230.879 235.173 229.446 233.287 228.133C232.815 227.775 232.226 227.536 231.754 227.297C231.518 227.178 231.282 227.058 230.929 226.819C230.693 226.7 230.457 226.461 230.221 226.342C230.103 226.222 229.75 226.461 229.868 226.581C229.986 227.058 230.457 227.297 230.811 227.416C231.282 227.655 231.636 227.894 232.108 228.133C233.169 228.73 234.23 229.446 235.173 230.282C235.88 230.879 236.47 231.595 237.059 232.311C237.059 232.311 236.941 232.431 236.941 232.55C236.941 234.699 236.941 236.967 237.649 238.997C238.356 240.907 239.417 242.579 240.36 244.369C240.36 244.489 240.596 244.369 240.478 244.25C239.653 242.459 238.71 240.668 238.12 238.758C237.767 237.684 237.649 236.729 237.531 235.654C237.531 234.818 237.531 233.983 237.531 233.147C238.002 233.863 238.592 234.699 238.946 235.535C239.535 236.609 240.124 237.684 240.714 238.758C241.068 238.758 241.186 238.519 241.186 238.519Z" fill="#638D39"/>
<path d="M231.046 248.787C230.693 248.071 230.221 247.355 229.867 246.639C229.632 246.28 229.396 245.922 229.16 245.564C228.924 245.206 228.806 244.848 228.571 244.609C228.571 244.131 228.571 243.654 228.453 243.176C228.453 242.579 228.453 241.982 228.453 241.505C228.453 240.908 228.571 240.311 228.571 239.595C228.571 239.356 228.099 239.475 228.099 239.595C227.981 240.192 227.863 240.789 227.863 241.385C227.863 241.982 227.863 242.579 227.863 243.176C227.863 244.37 227.981 245.445 228.217 246.519C228.571 248.907 229.396 251.056 230.457 253.205C230.457 253.324 230.693 253.205 230.693 253.085C229.749 250.936 229.042 248.787 228.688 246.4C228.688 246.161 228.688 246.042 228.571 245.803C228.806 246.042 228.924 246.4 229.16 246.639C229.632 247.355 230.221 247.952 230.575 248.668C230.811 249.146 231.046 248.907 231.046 248.787Z" fill="#638D39"/>
</g>
<defs>
<clipPath id="clip0_1_731">
<rect width="122" height="252" fill="white" transform="translate(77.3116 28.4639)"/>
</clipPath>
<clipPath id="clip1_1_731">
<rect width="36" height="75" fill="white" transform="translate(82.4273 184.522)"/>
</clipPath>
<clipPath id="clip2_1_731">
<rect width="56" height="117" fill="white" transform="translate(185.185 136.443)"/>
</clipPath>
</defs>
</svg>
