<svg xmlns="http://www.w3.org/2000/svg" xmlns:xlink="http://www.w3.org/1999/xlink" width="301" height="301" fill="none" xmlns:v="https://vecta.io/nano"><style><![CDATA[.B{fill:#b8765d}.C{opacity:.45}.D{fill:#224106}.E{fill:#d9d4ac}.F{fill:#6fa543}.G{fill:#b0cd71}.H{fill:#b98261}.I{fill:#5c4e2a}.J{fill:#844934}.K{fill:#b5aa6b}.L{fill:#638d39}]]></style><circle cx="150.11" cy="150.675" r="147.803" transform="rotate(0.894 150.11 150.675)" fill="#ffd94e"/><g clip-path="url(#A)"><path d="M128.166 43.121s15.154-19.8 38.784-13.371c23.629 6.171 18.235 31.371 10.273 61.457-6.421 24.943-9.76 73.8-10.273 103.114s.513 62.229-3.339 74.315c0 0-3.339-44.229-4.11-72-1.284-36.258-1.284-71.743 5.137-94.372s10.017-34.2 7.192-44.485-13.613-14.4-13.613-14.4 3.853 12.857-8.733 24.943c-12.842 12.6-21.318-25.2-21.318-25.2z" class="D"/><path d="M172.086 114.092c-.256-7.457.771-14.914 2.055-22.371.771-4.372 1.284-8.743 1.798-13.114.771-5.4 1.027-11.057.257-16.457-.514-4.371-2.055-8.743-4.367-12.343-2.568-3.857-5.907-7.2-9.503-10.029-2.054-1.543-4.109-2.829-6.421-4.114-1.027-.514-2.311-1.286-3.339-1.543-1.284-.514-2.568-.771-3.852-.771-2.826-.257-5.651 0-8.476 0-7.705 4.371-12.072 10.029-12.072 10.029s8.476 37.8 21.061 25.714c12.842-12.6 8.733-25.2 8.733-25.2s10.787 4.114 13.613 14.4-.771 22.114-7.192 44.486c-6.421 22.629-6.421 58.114-5.137 94.372 1.028 27.771 4.11 72 4.11 72 3.852-12.343 2.825-45 3.339-74.315.513-20.571 2.311-51.171 5.393-76.114.257-1.8 0-3.086 0-4.629z" fill="#638d37"/><use xlink:href="#D" class="E"/><use xlink:href="#D" class="F"/><path d="M167.463 136.207l-1.027 6.686c-.514 2.828-.771 5.914-1.027 8.743-1.285 11.571-2.569 23.4-2.826 35.228-.513 11.829 0 23.657.514 35.486l.77 16.457.771 15.943c.257 2.571.257 4.886.514 7.457 2.311-15.171 1.541-42.686 2.054-67.629.257-17.485 1.798-41.914 4.11-64.285-1.284.257-2.569.257-4.11.257.514 1.543.514 3.6.257 5.657z" class="G"/><path d="M154.621 52.893c-1.027-3.857-2.825-7.457-5.907-10.029-1.541-1.286-3.082-2.314-5.137-3.086-2.568-1.029-5.394-1.286-7.962-1.286-6.421-.514-13.099.514-19.263 2.057-15.925 4.629-27.482 15.429-35.958 29.571-1.541 2.829-2.568 5.657-3.082 8.743-2.055 22.114 34.673 19.286 47.515 15.429 9.504-2.829 18.493-7.971 24.4-16.2 4.88-6.429 7.449-16.457 5.394-25.2z" class="H"/><path d="M154.621 52.893c-1.027-3.857-2.825-7.457-5.907-10.029-1.541-1.286-3.082-2.314-5.137-3.086-2.568-1.029-5.394-1.286-7.962-1.286-6.421-.514-13.099.514-19.263 2.057-15.925 4.629-27.482 15.429-35.958 29.571-1.541 2.829-2.568 5.657-3.082 8.743-2.055 22.114 34.673 19.286 47.515 15.429 9.504-2.829 18.493-7.971 24.4-16.2 4.88-6.429 7.449-16.457 5.394-25.2zm-44.434 36c-5.65 1.8-11.814 2.829-17.465 1.8-4.623-.772-9.246-3.086-10.787-7.714a13.16 13.16 0 0 1 0-7.714c.771-3.343 2.312-6.429 4.366-9 2.825-4.371 6.421-8.229 10.531-11.829 6.934-8.486 18.235-14.914 29.28-11.829 5.137 1.543 9.76 5.143 11.558 10.286 1.541 4.629 1.284 9.771-.514 14.4-1.798 5.143-5.394 9.514-9.76 12.857-5.137 4.114-11.044 6.943-17.209 8.743zm32.876-7.714c-3.596 3.343-8.476 5.143-13.356 4.886-.513 0-.513-.514-.256-.771 1.027-1.543 2.825-2.829 4.366-3.857 1.541-1.286 3.082-2.571 4.623-4.114a41.93 41.93 0 0 0 4.366-5.143c1.798-3.857 3.339-7.714 4.88-11.571.257-.514.771-.514 1.028 0 .77 2.572 1.027 5.4.77 8.229-.77 4.629-3.082 9.257-6.421 12.343z" class="I"/><path d="M147.943 56.751c0-3.086-1.027-5.914-1.798-8.743 0-.257-.513 0-.513.257l.77 7.714c0 2.829-.513 5.143-1.798 7.714-1.798 4.629-4.88 8.486-8.219 12.086a52.65 52.65 0 0 1-21.574 14.143c-5.651 2.057-11.558 2.314-17.723 2.828-.257 0-.77.514-.257.514 10.017.514 20.547-1.8 29.28-6.943 3.852-2.314 7.448-5.4 10.787-8.743 3.596-3.6 6.678-7.714 8.99-12.343 1.027-2.829 2.054-5.657 2.054-8.486z" class="J"/><g class="B"><path d="M146.659 78.35c-.771 1.029-1.798 1.8-2.568 2.571-2.055 1.8-4.367 3.343-6.678 4.886-1.028.771-2.055 1.286-3.339 1.8-.257.257-.514.771 0 .771 1.284 0 2.568-.514 3.596-1.029 1.284-.514 2.568-1.543 3.852-2.572 1.284-.771 2.312-1.8 3.339-3.086.771-1.029 1.541-2.057 2.055-3.086.257-.514-.257-.514-.257-.257zm-58.56-9c0-.257-.257-.257-.257-.257h-.514c-.77.257-1.284.771-1.798 1.286v.257l-.257.257c-.257.514-.514 1.286-.257 1.8.514.771 1.541.514 2.055 0s.77-1.029 1.027-1.8c.257-.257.257-1.029 0-1.543zm-.77 8.742c0-.257-.257-.257-.257-.257h-.257l-.257-.257h-.257s-.257 0-.257.257v.257l-.257.257v.257.257.257.257s0 .257.257.257h.257.257.257.257.257s.257 0 .257-.257v-.257c-.257-.514-.257-.771-.257-1.029 0 0 0 .257 0 0z" class="C"/><g class="C"><path d="M91.952 74.75c.257 0 .257-.257 0 0h0z"/><path d="M92.722 75.264s0-.257 0 0v-.257-.257h-.257-.257-.257-.257-.257s-.257 0-.257.257l-.257.257v.257.257s0 .257.257.257h.257.257s.257 0 .257-.257l.257-.257c.514 0 .514-.257.514-.257z"/></g><path d="M101.712 83.493c0-.257-.257-.257-.257-.257h-.257s0-.257-.257-.257h-.514-.256l-.771.771-.257.257s0 .257 0 0c0 .257-.257.257-.257.514-.257.257-.257.771-.257 1.028s.514.514.771.514c.514 0 1.284-.257 1.798-.771s.77-1.029 1.027-1.543c-.513 0-.513 0-.513-.257zm8.475-2.829c-.256.514-.256.772 0 .772 0 .257.257.257.771.257.257 0 .257 0 .514-.257.513-.772-.514-1.8-1.285-.772zm17.979-5.142v-.257h-.256-.514.257c-.257 0-.514 0-.514.257-.257 0-.257.257-.257.257l-.257.257v-.257.257.257.257s0 .257.257.257h.257.257.514.256s.257 0 .257-.257l.257-.257s0-.257.257-.257c-.771-.257-.771-.257-.771-.514zm11.301 4.114s0-.257 0 0c-.256-.514-.513-.514-.513-.257 0 0-.257 0-.257.257h-.257c-.514 0-.77.257-1.284.514-.257.257-.514.514-.514 1.029v.257.257c0 .257 0 .514.257.514.257.257.257.257.514.257 1.284-.257 2.311-1.029 2.568-2.057 0-.257-.257-.771-.514-.771zm4.88-3.086c0-.257 0-.257 0 0-.256-.257-.256-.257 0 0l-.256-.257h-.257-.257s-.257 0-.257.257h-.257-.257c-.257 0-.257.257-.257.257l-.256.257v.257s0 .257.256.257h.257.514c.257 0 .257 0 .514-.257l.257-.257v-.257l.256-.257c0 .257 0 0 0 0z" class="C"/></g><path d="M120.204 54.179c0-1.8-.77-3.857-2.311-5.143s-3.853-1.543-5.908-1.286c-1.798.257-3.596 1.286-5.137 2.314-3.082 1.543-5.907 3.086-8.732 5.143-3.596 2.571-6.935 5.914-9.246 9.771-2.312 3.6-4.366 7.714-4.623 12.086-.257 4.114 2.055 7.972 5.65 10.286 6.935 4.114 15.924.257 21.318-4.886 3.339-3.343 5.65-7.971 6.934-12.6.771-2.571 1.285-5.143 1.798-7.714 0-2.828.514-5.4.257-7.971z" class="K"/><path d="M137.67 40.55c4.109 2.829 6.677 7.457 7.191 12.343.514 5.914-1.798 11.314-4.109 16.714 1.284-1.543 2.311-3.343 3.339-5.143 1.284-2.571 2.054-5.143 2.568-7.971.257-3.343-.257-6.429-.77-9.772-.257-1.543-.514-3.343-1.028-4.886-.257-.771-.514-1.286-.77-2.057-2.569-1.029-5.394-1.286-7.962-1.286h-2.055c1.027.514 2.311 1.029 3.596 2.057z" class="B C"/><g class="L"><path d="M163.097 215.664c-1.541 2.572-2.312 5.657-2.312 8.486-.256 3.086 0 6.428.514 9.514.257 1.543.771 2.829 1.027 4.114-.77.772-.77 2.572-.77 3.858 0 1.542.257 3.085.514 4.628.513 2.572 1.541 5.143 2.825 7.457l1.541 1.543c.257.257.514.514.77.514-1.284-1.542-2.054-3.342-2.568-5.142-1.027-2.829-1.541-5.658-1.798-8.743v-2.057-.258c1.798 4.372 4.366 8.229 7.449 11.315 1.284 1.285 2.825 2.571 4.366 3.857 1.027.771 2.055 1.543 2.825 2.314-1.284-1.286-2.568-2.571-3.596-4.114-.256-.257-.513-.514-.77-1.029l-1.028-1.028c-2.311-2.572-4.366-5.143-5.907-8.229-2.825-5.4-4.366-11.314-4.366-17.486 0-3.085.513-6.171 1.284-9.257.514-.257.257-.514 0-.257zm10.274 3.343l-5.394-5.915c-1.798-2.314-3.596-4.885-4.366-7.714 0-.257-.514 0-.514.257.257 1.286.514 2.829 1.027 4.114s1.028 2.315 1.798 3.6c1.541 2.315 3.339 4.115 5.137 6.172 1.541 1.543 2.825 3.086 4.11 4.886-.514 1.542 0 3.342.256 4.628.257 1.8.771 3.343 1.285 4.886 1.027 3.343 2.054 6.943 4.366 9.514-.257-.514-.514-1.286-.514-1.8-1.541-2.571-2.311-5.4-3.082-8.228-.514-1.543-.77-3.086-1.027-4.629-.257-1.029-.257-2.057-.257-3.086l.257.257c1.541 2.315 3.082 4.629 4.366 6.943l2.312 4.629c.77 1.028 1.541 2.057 2.311 2.828-1.027-2.571-2.054-4.885-3.339-7.457s-2.568-4.885-3.852-7.2c-1.541-2.571-3.082-4.628-4.88-6.685z"/><path d="M172.086 241.635c-.77-1.8-1.797-3.086-2.568-4.886-.514-.514-.771-1.028-1.284-1.543-.771-1.028-1.798-1.8-2.569-2.571-.513-.514-1.027-.772-1.541-1.286s-1.027-1.028-1.541-1.286-.77.772-.513 1.029c.513 1.029 1.797 1.8 2.568 2.571 1.027.772 2.055 1.543 2.825 2.572 1.798 1.543 3.082 3.6 4.623 5.4zm-10.787-56.828c-.514.514-.77 1.029-1.027 1.543a7.84 7.84 0 0 1-1.284 1.8c-.771 1.286-1.542 2.314-2.312 3.343l-4.623 6.685c-.771 1.029-1.284 2.315-1.798 3.343-.257 0-.257.257-.514.257-.513.258-.77.515-1.284.515l-2.568 1.542c-1.541 1.029-2.826 2.572-3.083 4.372 0 .257.257.514.514 0 .514-1.8 1.798-2.829 3.339-3.6.771-.514 1.541-.771 2.312-1.286.257 0 .513-.257.77-.257-1.027 2.314-1.798 4.629-2.055 7.2-.256 1.8-.256 3.857-.256 5.657.256.515.256 1.029.513 1.8 0-4.371.514-8.485 2.055-12.6 1.798-4.371 4.623-8.485 7.448-12.085.771-1.286 1.798-2.315 2.569-3.6.514-.772.77-1.286 1.284-2.058.257-.771.771-1.285.771-2.057 0-.514-.514-.771-.771-.514zm14.64 15.171l-.77-5.143c-.257-1.028-.257-2.057-.514-3.086v-.771c.257.257.514.771.77 1.029 2.826 3.857 5.137 7.971 7.192 12.6 1.027 2.314 1.798 4.885 2.568 7.2v-3.086c-2.568-8.229-6.677-16.2-12.842-22.629-1.027-1.028-2.054-2.057-3.082-2.828a19.37 19.37 0 0 0-3.596-2.829c-.513-.257-1.284.772-.77 1.286 1.027.771 2.055 1.543 2.825 2.314 1.028.772 1.798 1.543 2.569 2.572 1.027 1.028 1.797 2.057 2.825 3.085-.257.772 0 1.8 0 2.829s.257 2.057.514 3.086c.256 1.8.513 3.857 1.027 5.657.514 2.571 1.284 5.4 2.825 7.714 1.028.771 2.055 1.286 3.082 1.8v-.257c-3.082-2.829-4.109-6.943-4.623-10.543zm-5.394-.257c0-.257-.256-.257-.256-.514-.514-1.029-1.285-2.057-2.055-2.829-1.541-1.8-3.082-3.6-4.366-5.657-.257.257-.257.514-.257.771.257 1.029 1.284 2.058 1.798 2.829l2.311 2.829c1.541 1.8 2.825 3.857 4.11 5.914h.256c-.77-1.029-1.027-2.057-1.541-3.343z"/><path d="M186.983 197.921c0-.257-.257-.514-.257-.771-.256-.258-.513-.772-.513-1.029-.771-1.029-1.798-2.057-2.825-3.086s-2.312-1.8-3.339-2.314c-.514-.257-1.285-.514-1.798-.771-.771-.258-1.541-.515-2.055 0-.257.257-.514.771-.257 1.028.514.514 1.284.257 1.798.514s1.284.515 1.798.772c1.284.514 2.311 1.286 3.339 2.314 1.798 1.543 3.596 3.6 5.137 5.657-.257-.771-.514-1.543-1.028-2.314zm-.513 36.771l-2.569-2.571c-.513-.514-1.284-1.286-2.055-1.8-.256-.257-.77-.514-1.027-.772s-.77-.514-1.284-.514c-.257 0-.514.514-.257.514.257.258.771.515 1.027.515.514.257.771.514 1.285.771.77.514 1.541 1.029 2.054 1.543 1.028.771 2.055 1.8 3.082 2.829 0 0-.256-.258-.256-.515zm-5.651-26.999c-.257-.515-.514-1.286-.771-1.8s-.513-.772-1.027-1.286-1.027-.771-1.541-1.286c-.257-.257-.514-.514-.77-.514-.257-.257-.514-.257-1.028-.257-.257 0-.514.514-.257.771s.514.515.771.515c.257.257.514.257.77.514.514.257 1.028.771 1.541 1.028 1.028.772 1.798 1.543 2.312 2.315zm-12.585-11.315c-.257 0-.257.257-.257.257-.257.771-.257 1.8-.257 2.571 0 1.029 0 1.8.257 2.829s.514 2.057 1.027 3.086l1.285 1.285v-.257c-1.028-1.285-1.541-3.085-1.541-4.628v-2.572c0-.771.256-1.285 0-2.057 0-.257-.257-.514-.514-.514zm-9.247 16.458l1.541-2.829c.514-.771 1.028-1.8 1.028-2.828 0-.515-.771-.257-.771 0-.513.771-.77 1.8-1.284 2.571-.514 1.029-1.027 1.8-1.284 2.829l-3.082 4.885s0 .258-.257.258h-.257c-1.541 1.028-3.339 1.285-5.137 1.542l-5.393.515c-4.11.771-8.219 2.314-11.558 5.143-1.798 1.285-3.339 3.085-4.11 5.142 0 .258.257.258.514 0 1.798-3.857 5.907-6.428 9.76-7.971 1.798-.771 3.852-1.286 5.907-1.543 1.798-.257 3.596-.257 5.394-.514 1.284 0 2.825-.257 3.853-.772-1.285 1.8-2.312 3.858-3.339 5.658-1.028.514-2.055 1.285-2.826 2.057-1.027.771-2.054 1.285-3.082 2.057a23.36 23.36 0 0 0-5.393 4.628c-3.083 3.6-5.137 7.715-6.678 12.086 0 .257.256.257.513 0 1.028-2.571 2.312-5.4 4.11-7.714v1.286c0 1.028-.257 2.057-.257 2.828-.257 2.057-.257 3.857-.514 5.914 0 .258.257 0 .257 0 .514-2.057 1.027-4.114 1.284-6.171.257-1.029.257-2.057.257-3.086v-1.543-1.028c.771-.772 1.284-1.8 2.055-2.572 1.541-1.8 3.339-3.085 5.394-4.628 1.027-.772 2.054-1.286 3.082-2.057.257-.257.513-.515 1.027-.772 0 .257-.257.515-.257.772-2.568 5.914-4.366 12.085-5.137 18.514-1.284 1.286-2.054 3.086-2.568 4.629-.771 2.057-1.284 4.371-1.798 6.685-1.027 5.915-.77 11.829 1.027 17.486 0 .257.771 0 .514-.257-1.541-5.4-1.798-11.057-.77-16.714.513-2.315 1.027-4.372 1.541-6.429.513-1.286.77-2.571 1.541-3.6 0 .771-.257 1.286-.257 2.057-.257 4.372-.257 8.486.257 12.857 0 .257.513 0 .513-.257-.77-5.143-.513-10.543.257-15.943 0 0 0-.257.257-.257.257-.257 0-.514 0-.514.257-2.057.771-4.372 1.284-6.429.771-2.571 1.541-4.885 2.312-7.2 0 .772.257 1.8.257 2.572 0 1.543.257 2.828.257 4.371.256 2.572.77 5.4 1.027 7.972v.257.257a48.11 48.11 0 0 1 .77 8.743c0 2.828.257 5.657.771 8.485 0 .258.514 0 .514-.257-.257-2.828-.257-5.657-.257-8.743 0-1.8 0-3.857-.257-5.657 2.055 3.6 3.596 7.457 4.623 11.572.771 2.571 1.027 5.143 1.284 7.971s.771 5.4 1.285 8.229c0 .257.513 0 .513-.257l-.77-8.486c-.257-2.829-.514-5.4-1.285-8.229-1.284-4.885-3.595-9.514-6.164-13.885-.513-2.829-.77-5.658-1.027-8.486-.257-1.543-.257-3.086-.257-4.629v-2.057-2.057c.257-.257.257-.771.514-1.029l2.311-4.628s0 .257.257.257c0 .257.257.514.257.771l.771 1.543c.513 1.029.77 2.057 1.027 3.086 0 .257.514 0 .514-.257-.257-1.029-.514-2.314-.771-3.343-.257-.514-.257-1.029-.514-1.543 0-.257-.256-.514-.256-.771s-.257-.515-.257-.772c.77-1.543 1.798-3.085 2.825-4.371.257-1.8 1.541-3.6 2.568-5.4zm40.325 35.485l-3.082-6.428c-1.028-2.057-2.055-4.115-3.339-5.915-2.826-4.114-6.678-7.199-10.788-10.028-1.027-.771-2.311-1.286-3.339-1.8-.513-.257-1.027-.514-1.798-1.029-.513-.257-1.027-.771-1.541-1.028-.256-.257-1.027.257-.77.514.257 1.029 1.284 1.543 2.055 1.8 1.027.514 1.797 1.029 2.825 1.543 2.311 1.286 4.623 2.828 6.678 4.628 1.541 1.286 2.825 2.829 4.109 4.372 0 0-.257.257-.257.514 0 4.629 0 9.514 1.541 13.886 1.541 4.114 3.853 7.714 5.908 11.571 0 .257.513 0 .257-.257-1.798-3.857-3.853-7.714-5.137-11.828-.771-2.315-1.028-4.372-1.284-6.686v-5.4c1.027 1.543 2.311 3.343 3.082 5.143l3.852 6.943c.771 0 1.028-.515 1.028-.515zm-22.089 22.115l-2.568-4.629-1.541-2.314c-.514-.772-.771-1.543-1.284-2.057 0-1.029 0-2.058-.257-3.086v-3.6c0-1.286.257-2.572.257-4.114 0-.515-1.028-.258-1.028 0-.257 1.285-.513 2.571-.513 3.857v3.857c0 2.571.256 4.886.77 7.2.771 5.143 2.568 9.771 4.88 14.4 0 .257.514 0 .514-.257-2.055-4.629-3.596-9.257-4.367-14.4 0-.515 0-.772-.256-1.286.513.514.77 1.286 1.284 1.8 1.027 1.543 2.311 2.829 3.082 4.371.514 1.029 1.027.515 1.027.258z"/></g><g clip-path="url(#B)"><g class="D"><path d="M97.434 188.885s4.471-5.893 11.444-3.979c6.973 1.836 5.381 9.336 3.031 18.29-1.894 7.424-2.88 21.965-3.031 30.689s.151 18.521-.985 22.118c0 0-.986-13.164-1.213-21.429-.379-10.791-.379-21.352 1.516-28.087s2.956-10.178 2.122-13.24-4.017-4.285-4.017-4.285 1.137 3.826-2.577 7.423c-3.789 3.75-6.29-7.5-6.29-7.5z"/><path d="M110.394 210.008c-.076-2.219.227-4.439.606-6.658l.531-3.903c.227-1.607.303-3.291.075-4.898-.151-1.301-.606-2.602-1.288-3.674-.758-1.148-1.743-2.143-2.804-2.984-.607-.46-1.213-.842-1.895-1.225-.303-.153-.682-.383-.985-.459-.379-.153-.758-.23-1.137-.23-.834-.076-1.668 0-2.501 0-2.274 1.301-3.562 2.985-3.562 2.985s2.501 11.25 6.214 7.653c3.79-3.75 2.577-7.5 2.577-7.5s3.183 1.225 4.017 4.286-.227 6.581-2.122 13.24c-1.895 6.734-1.895 17.296-1.516 28.086.303 8.266 1.213 21.429 1.213 21.429 1.137-3.674.834-13.393.985-22.117.152-6.123.682-15.23 1.592-22.653.075-.536 0-.919 0-1.378z"/></g><use xlink:href="#E" class="E"/><use xlink:href="#E" class="F"/><path d="M109.029 216.589l-.303 1.99c-.151.842-.227 1.76-.303 2.602-.379 3.444-.758 6.964-.834 10.485-.151 3.52 0 7.041.152 10.561l.227 4.898.228 4.745c.076.765.076 1.454.151 2.219.682-4.515.455-12.704.607-20.127.075-5.204.53-12.475 1.212-19.133-.379.077-.758.077-1.212.077.151.459.151 1.071.075 1.683z" class="G"/><path d="M105.24 191.793c-.303-1.148-.834-2.219-1.743-2.984-.455-.383-.91-.689-1.516-.919-.758-.306-1.592-.382-2.349-.382-1.895-.153-3.865.153-5.684.612-4.699 1.377-8.109 4.592-10.611 8.801-.455.842-.758 1.684-.909 2.602-.606 6.582 10.231 5.74 14.021 4.592 2.804-.842 5.457-2.373 7.2-4.822 1.44-1.913 2.198-4.898 1.592-7.5z" class="H"/><path d="M105.24 191.793c-.303-1.148-.834-2.219-1.743-2.984-.455-.383-.91-.689-1.516-.919-.758-.306-1.592-.382-2.349-.382-1.895-.153-3.865.153-5.684.612-4.699 1.377-8.109 4.592-10.611 8.801-.455.842-.758 1.684-.909 2.602-.606 6.582 10.231 5.74 14.021 4.592 2.804-.842 5.457-2.373 7.2-4.822 1.44-1.913 2.198-4.898 1.592-7.5zm-13.112 10.715c-1.667.535-3.486.841-5.154.535-1.364-.229-2.728-.918-3.183-2.296a3.95 3.95 0 0 1 0-2.296 6.76 6.76 0 0 1 1.288-2.678c.834-1.301 1.895-2.449 3.107-3.521 2.046-2.525 5.381-4.438 8.64-3.52 1.516.459 2.88 1.531 3.411 3.061.455 1.378.379 2.908-.152 4.286-.53 1.531-1.591 2.832-2.88 3.827-1.516 1.224-3.259 2.066-5.078 2.602zm9.701-2.296a5.39 5.39 0 0 1-3.941 1.454c-.152 0-.152-.153-.076-.23.303-.459.834-.842 1.288-1.148.455-.382.91-.765 1.364-1.224s.91-.995 1.289-1.531c.53-1.148.985-2.296 1.44-3.444.075-.153.227-.153.303 0 .227.766.303 1.607.227 2.449-.227 1.378-.909 2.755-1.895 3.674z" class="I"/><path d="M103.269 192.941c0-.918-.303-1.76-.53-2.602 0-.076-.152 0-.152.077l.228 2.296a4.86 4.86 0 0 1-.531 2.296c-.53 1.377-1.44 2.525-2.425 3.597a15.53 15.53 0 0 1-6.366 4.209c-1.667.612-3.41.689-5.23.842-.076 0-.227.153-.076.153 2.956.153 6.063-.536 8.64-2.067 1.137-.688 2.198-1.607 3.184-2.602 1.061-1.071 1.97-2.296 2.652-3.673.303-.842.606-1.684.606-2.526z" class="J"/><g class="B"><path d="M102.891 199.37c-.228.306-.531.535-.758.765-.607.536-1.289.995-1.971 1.454a4.05 4.05 0 0 1-.985.536c-.076.076-.151.229 0 .229.379 0 .758-.153 1.061-.306.379-.153.758-.459 1.137-.765.379-.23.682-.536.985-.918.227-.307.455-.613.606-.919.076-.153-.075-.153-.075-.076zm-17.28-2.679c0-.077-.076-.077-.076-.077h-.151c-.227.077-.379.23-.531.383v.076l-.076.077c-.076.153-.151.383-.076.536.152.229.455.153.606 0s.227-.306.303-.536c.076-.077.076-.306 0-.459zm-.228 2.602c0-.077-.076-.077-.076-.077h-.076l-.076-.076h-.076s-.076 0-.076.076v.077l-.076.076v.077.076.077.076s0 .077.076.077h.076.076.076.076.076s.076 0 .076-.077v-.076c-.076-.153-.076-.23-.076-.306 0 0 0 .076 0 0z" class="C"/><g class="C"><path d="M86.748 198.298c.076 0 .076-.077 0 0h0z"/><path d="M86.975 198.451s0-.077 0 0v-.077-.076h-.076-.076-.076-.076-.076s-.076 0-.076.076l-.076.077v.076.077s0 .076.076.076h.076.076s.076 0 .076-.076l.076-.077c.151 0 .151-.076.151-.076z"/></g><path d="M89.628 200.9c0-.077-.076-.077-.076-.077h-.076s0-.076-.076-.076h-.152-.076l-.227.229-.076.077s0 .076 0 0c0 .076-.076.076-.076.153-.076.077-.076.23-.076.306s.152.153.227.153c.151 0 .379-.076.53-.229s.227-.307.303-.46c-.151 0-.151 0-.151-.076zm2.501-.842c-.076.154-.076.23 0 .23 0 .077.076.077.227.077.076 0 .076 0 .152-.077.152-.23-.152-.536-.379-.23zm5.305-1.531v-.076h-.076-.152.076c-.076 0-.152 0-.152.076-.076 0-.076.077-.076.077l-.076.077v-.077.077.076.077s0 .076.076.076h.076.076.152.076s.076 0 .076-.076l.076-.077s0-.076.076-.076c-.227-.077-.227-.077-.227-.154zm3.335 1.225s0-.076 0 0c-.076-.153-.152-.153-.152-.076 0 0-.076 0-.076.076h-.076c-.151 0-.227.077-.379.153-.075.077-.151.153-.151.306v.077.076c0 .077 0 .153.076.153.075.077.075.077.151.077.379-.077.682-.306.758-.612 0-.077-.076-.23-.151-.23zm1.439-.919c0-.076 0-.076 0 0-.075-.076-.075-.076 0 0l-.075-.076h-.076-.076s-.076 0-.076.076h-.076-.075c-.076 0-.076.077-.076.077l-.076.076v.077s0 .076.076.076h.076.151c.076 0 .076 0 .152-.076l.076-.077v-.076l.075-.077c0 .077 0 0 0 0z" class="C"/></g><path d="M95.084 192.176c0-.535-.227-1.148-.682-1.53s-1.137-.46-1.743-.383c-.531.077-1.061.383-1.516.689-.91.459-1.743.918-2.577 1.53-1.061.766-2.046 1.761-2.728 2.909-.682 1.071-1.288 2.295-1.364 3.596-.076 1.225.606 2.373 1.667 3.062 2.046 1.224 4.699.076 6.29-1.454.985-.995 1.667-2.373 2.046-3.75.227-.766.379-1.531.531-2.296 0-.842.152-1.607.076-2.373z" class="K"/><path d="M100.238 188.12c1.213.842 1.97 2.219 2.122 3.673.152 1.76-.531 3.368-1.213 4.975.379-.459.682-.995.986-1.531.379-.765.606-1.53.758-2.372.075-.995-.076-1.914-.228-2.908-.076-.46-.151-.995-.303-1.455l-.227-.612c-.758-.306-1.592-.382-2.35-.382h-.606c.303.153.682.306 1.061.612z" class="B C"/><g class="L"><path d="M107.741 240.237c-.455.766-.682 1.684-.682 2.526-.076.918 0 1.913.152 2.831.075.46.227.842.303 1.225-.228.229-.228.765-.228 1.148 0 .459.076.918.152 1.377.151.766.455 1.531.834 2.22l.454.459c.076.077.152.153.228.153-.379-.459-.607-.995-.758-1.531-.303-.841-.455-1.683-.531-2.602v-.612-.076c.531 1.301 1.289 2.449 2.198 3.367.379.383.834.765 1.289 1.148l.833.689c-.379-.383-.758-.766-1.061-1.225-.076-.076-.151-.153-.227-.306l-.303-.306c-.682-.765-1.289-1.531-1.743-2.449a11.24 11.24 0 0 1-1.289-5.204c0-.918.152-1.837.379-2.755.152-.077.076-.153 0-.077zm3.032.996l-1.592-1.761c-.531-.688-1.061-1.454-1.288-2.296 0-.076-.152 0-.152.077.076.383.152.842.303 1.224s.303.689.531 1.072c.454.689.985 1.224 1.515 1.837a11.12 11.12 0 0 1 1.213 1.454c-.152.459 0 .995.076 1.377.076.536.227.995.379 1.454.303.995.606 2.067 1.288 2.832-.076-.153-.151-.383-.151-.536-.455-.765-.682-1.607-.91-2.449-.151-.459-.227-.918-.303-1.377-.076-.306-.076-.612-.076-.919l.076.077 1.288 2.066.683 1.378.682.842-.986-2.22-1.136-2.143c-.455-.765-.91-1.377-1.44-1.989z"/><path d="M110.394 247.967c-.228-.536-.531-.919-.758-1.454-.152-.153-.228-.306-.379-.459-.228-.307-.531-.536-.758-.766-.152-.153-.303-.229-.455-.382s-.303-.307-.455-.383-.227.23-.151.306c.151.306.53.536.758.765.303.23.606.46.833.766.531.459.91 1.071 1.365 1.607zm-3.183-16.914c-.152.154-.228.307-.304.46s-.227.382-.379.535c-.227.383-.454.689-.682.995l-1.364 1.99c-.227.306-.379.689-.53.995-.076 0-.076.076-.152.076-.152.077-.227.154-.379.154l-.758.459c-.455.306-.834.765-.909 1.301 0 .076.075.153.151 0 .152-.536.531-.842.986-1.072.227-.153.454-.229.682-.382.075 0 .151-.077.227-.077-.303.689-.531 1.378-.606 2.143-.076.536-.076 1.148-.076 1.684.076.153.076.306.151.535 0-1.301.152-2.525.607-3.75.53-1.301 1.364-2.525 2.198-3.597.227-.382.53-.688.758-1.071l.379-.612c.075-.23.227-.383.227-.612 0-.154-.152-.23-.227-.154zm4.32 4.516l-.228-1.531c-.076-.306-.076-.612-.151-.918v-.23c.075.077.151.23.227.306.834 1.148 1.516 2.373 2.122 3.75.303.689.531 1.455.758 2.143v-.918c-.758-2.449-1.971-4.822-3.79-6.735l-.909-.842a5.7 5.7 0 0 0-1.061-.841c-.152-.077-.379.229-.227.382l.833.689c.303.23.531.459.758.765l.834.919c-.076.229 0 .535 0 .841s.076.613.151.919l.304 1.684c.151.765.379 1.607.833 2.295.303.23.607.383.91.536v-.076c-.91-.842-1.213-2.067-1.364-3.138zm-1.592-.077c0-.076-.076-.076-.076-.153a3.4 3.4 0 0 0-.606-.842c-.455-.535-.91-1.071-1.289-1.683-.075.076-.075.153-.075.229.075.306.379.613.53.842l.682.842c.455.536.834 1.148 1.213 1.76h.076c-.228-.306-.303-.612-.455-.995z"/><path d="M114.789 234.956c0-.076-.075-.153-.075-.229-.076-.077-.152-.23-.152-.307-.227-.306-.531-.612-.834-.918s-.682-.536-.985-.689c-.152-.076-.379-.153-.53-.229-.228-.077-.455-.153-.607 0-.076.076-.151.229-.076.306.152.153.379.076.531.153s.379.153.53.23c.379.153.683.382.986.688.53.459 1.061 1.072 1.516 1.684-.076-.23-.152-.459-.304-.689zm-.151 10.944l-.758-.765c-.152-.153-.379-.382-.606-.536-.076-.076-.228-.153-.303-.229a.58.58 0 0 0-.379-.153c-.076 0-.152.153-.076.153.076.076.227.153.303.153.152.076.227.153.379.23.227.153.455.306.606.459.303.229.607.535.91.842 0 0-.076-.077-.076-.154zm-1.667-8.035c-.076-.153-.152-.383-.228-.536s-.151-.229-.303-.383-.303-.229-.455-.382c-.076-.077-.151-.153-.227-.153-.076-.077-.152-.077-.303-.077-.076 0-.152.153-.076.23s.152.153.227.153c.076.076.152.076.228.153.151.076.303.23.454.306.304.23.531.459.683.689zm-3.714-3.367c-.076 0-.076.076-.076.076-.076.23-.076.536-.076.765 0 .307 0 .536.076.842s.152.612.303.919l.379.382v-.076c-.303-.383-.455-.919-.455-1.378v-.765c0-.23.076-.383 0-.612 0-.077-.075-.153-.151-.153zm-2.729 4.897l.455-.842c.152-.229.303-.535.303-.842 0-.153-.227-.076-.227 0-.152.23-.228.536-.379.766-.152.306-.303.535-.379.842l-.91 1.454s0 .076-.075.076h-.076c-.455.306-.985.383-1.516.459l-1.591.153c-1.213.23-2.426.689-3.411 1.531-.53.383-.985.918-1.213 1.531 0 .076.076.076.151 0 .531-1.148 1.743-1.914 2.88-2.373a6.54 6.54 0 0 1 1.743-.459l1.592-.153c.379 0 .833-.077 1.137-.23-.379.536-.683 1.148-.986 1.684a3.37 3.37 0 0 0-.833.612c-.304.23-.607.383-.91.613-.606.382-1.137.841-1.591 1.377-.91 1.072-1.516 2.296-1.971 3.597 0 .077.076.077.152 0 .303-.765.682-1.607 1.212-2.296v.383c0 .306-.076.612-.076.842l-.151 1.76c0 .076.076 0 .076 0l.379-1.837c.075-.306.075-.612.075-.918v-.46-.306c.228-.229.379-.535.607-.765.454-.536.985-.918 1.591-1.377.303-.23.607-.383.91-.613.076-.076.151-.153.303-.229 0 .076-.076.153-.076.229-.758 1.76-1.288 3.597-1.516 5.51-.379.383-.606.919-.758 1.378-.227.612-.379 1.301-.53 1.99-.303 1.76-.227 3.52.303 5.204 0 .076.227 0 .152-.077-.455-1.607-.531-3.29-.228-4.974l.455-1.913c.152-.383.227-.766.455-1.072 0 .23-.076.383-.076.612-.076 1.301-.076 2.526.076 3.827 0 .077.151 0 .151-.077-.227-1.53-.151-3.137.076-4.744 0 0 0-.077.076-.077.076-.077 0-.153 0-.153.076-.612.227-1.301.379-1.913l.682-2.143c0 .229.076.536.076.765 0 .459.076.842.076 1.301l.303 2.373v.076.077a14.49 14.49 0 0 1 .227 2.602c0 .842.076 1.683.227 2.525 0 .077.152 0 .152-.076-.076-.842-.076-1.684-.076-2.602l-.076-1.684a13.58 13.58 0 0 1 1.365 3.444c.227.765.303 1.53.379 2.372s.227 1.607.379 2.449c0 .077.151 0 .151-.076l-.227-2.526c-.076-.842-.152-1.607-.379-2.449-.379-1.454-1.061-2.831-1.819-4.132-.152-.842-.228-1.684-.303-2.526-.076-.459-.076-.918-.076-1.377v-.613-.612c.076-.076.076-.23.151-.306l.683-1.378s0 .077.075.077c0 .076.076.153.076.23l.228.459c.151.306.227.612.303.918 0 .077.151 0 .151-.076l-.227-.995c-.076-.153-.076-.307-.152-.46 0-.076-.075-.153-.075-.229s-.076-.153-.076-.23c.227-.459.53-.918.833-1.301.076-.535.455-1.071.758-1.607zm11.899 10.562l-.909-1.913c-.303-.613-.606-1.225-.985-1.761-.834-1.224-1.971-2.142-3.184-2.984-.303-.23-.682-.383-.985-.536-.151-.077-.303-.153-.53-.306-.152-.077-.303-.23-.455-.306-.076-.077-.303.076-.227.153.075.306.379.459.606.536l.834.459a11.43 11.43 0 0 1 1.97 1.377c.455.383.834.842 1.213 1.301 0 0-.076.077-.076.153 0 1.378 0 2.832.455 4.133.454 1.224 1.137 2.296 1.743 3.444 0 .076.151 0 .076-.077-.531-1.148-1.137-2.296-1.516-3.52-.228-.689-.303-1.301-.379-1.99v-1.607c.303.459.682.995.909 1.531l1.137 2.066c.228 0 .303-.153.303-.153zm-6.518 6.581l-.757-1.378-.455-.688c-.152-.23-.228-.46-.379-.613 0-.306 0-.612-.076-.918v-1.072c0-.382.076-.765.076-1.224 0-.153-.303-.077-.303 0-.076.383-.152.765-.152 1.148v1.148c0 .765.076 1.454.227 2.143.228 1.53.758 2.908 1.44 4.286 0 .076.152-.001.152-.077-.606-1.378-1.061-2.755-1.288-4.286 0-.153 0-.229-.076-.382.151.153.227.382.379.535.303.46.682.842.909 1.301.152.306.303.153.303.077z"/></g></g></g><g clip-path="url(#C)"><g class="D"><path d="M208.529 143.248s6.955-9.192 17.802-6.208c10.846 2.866 8.37 14.566 4.715 28.534-2.947 11.581-4.48 34.264-4.715 47.874s.235 28.892-1.533 34.503c0 0-1.533-20.534-1.886-33.428-.59-16.834-.59-33.309 2.358-43.815s4.597-15.879 3.301-20.654-6.249-6.686-6.249-6.686 1.769 5.969-4.008 11.58c-5.895 5.85-9.785-11.7-9.785-11.7z"/><path d="M228.688 176.2c-.117-3.462.354-6.925.944-10.387.353-2.03.589-4.059.825-6.089.354-2.507.471-5.133.118-7.641-.236-2.029-.943-4.059-2.004-5.73-1.179-1.791-2.712-3.343-4.363-4.656-.943-.717-1.886-1.314-2.947-1.911-.471-.238-1.061-.596-1.533-.716-.589-.239-1.178-.358-1.768-.358-1.297-.119-2.594 0-3.89 0-3.537 2.03-5.542 4.656-5.542 4.656s3.891 17.55 9.668 11.939c5.895-5.85 4.008-11.7 4.008-11.7s4.952 1.91 6.249 6.686-.354 10.267-3.301 20.654c-2.948 10.506-2.948 26.981-2.358 43.815.471 12.894 1.886 33.429 1.886 33.429 1.768-5.731 1.297-20.893 1.533-34.503.235-9.552 1.061-23.759 2.475-35.339.118-.836 0-1.433 0-2.149z"/></g><use xlink:href="#F" class="E"/><use xlink:href="#F" class="F"/><path d="M226.566 186.466l-.471 3.104c-.236 1.314-.354 2.746-.472 4.06-.589 5.372-1.179 10.864-1.297 16.356-.235 5.492 0 10.983.236 16.475l.354 7.641.353 7.402c.118 1.194.118 2.269.236 3.462 1.061-7.043.708-19.818.943-31.399.118-8.118.826-19.46 1.887-29.847-.59.12-1.179.12-1.887.12.236.716.236 1.671.118 2.626z" class="G"/><path d="M220.672 147.785c-.472-1.791-1.297-3.463-2.712-4.656-.707-.597-1.415-1.075-2.358-1.433-1.179-.478-2.476-.597-3.655-.597-2.947-.239-6.012.239-8.842.955-7.309 2.149-12.614 7.163-16.505 13.73-.707 1.313-1.179 2.626-1.415 4.059-.943 10.267 15.916 8.954 21.811 7.163 4.362-1.313 8.488-3.701 11.2-7.521 2.24-2.985 3.419-7.641 2.476-11.7z" class="H"/><path d="M220.672 147.785c-.472-1.791-1.297-3.463-2.712-4.656-.707-.597-1.415-1.075-2.358-1.433-1.179-.478-2.476-.597-3.655-.597-2.947-.239-6.012.239-8.842.955-7.309 2.149-12.614 7.163-16.505 13.73-.707 1.313-1.179 2.626-1.415 4.059-.943 10.267 15.916 8.954 21.811 7.163 4.362-1.313 8.488-3.701 11.2-7.521 2.24-2.985 3.419-7.641 2.476-11.7zm-20.396 16.714c-2.594.836-5.423 1.313-8.017.836-2.122-.358-4.244-1.433-4.952-3.582a6.19 6.19 0 0 1 0-3.582c.354-1.552 1.062-2.984 2.005-4.178 1.297-2.03 2.947-3.821 4.833-5.492 3.184-3.94 8.371-6.924 13.44-5.492 2.358.717 4.48 2.388 5.306 4.776.707 2.149.589 4.536-.236 6.685-.825 2.388-2.476 4.418-4.48 5.97-2.358 1.91-5.07 3.223-7.899 4.059zm15.09-3.582c-1.65 1.552-3.89 2.388-6.13 2.269-.236 0-.236-.239-.118-.358.472-.717 1.297-1.314 2.004-1.791.708-.597 1.415-1.194 2.122-1.91s1.415-1.553 2.005-2.388c.825-1.791 1.532-3.582 2.24-5.373.117-.238.353-.238.471 0 .354 1.194.472 2.507.354 3.821-.354 2.149-1.415 4.298-2.948 5.73z" class="I"/><path d="M217.607 149.575c0-1.432-.472-2.746-.826-4.059 0-.119-.236 0-.236.119l.354 3.582c0 1.313-.236 2.388-.825 3.582-.825 2.149-2.24 3.939-3.773 5.611-2.711 2.985-6.13 5.253-9.903 6.566-2.594.955-5.305 1.075-8.135 1.313-.118 0-.353.239-.118.239 4.598.239 9.432-.835 13.44-3.223 1.769-1.075 3.419-2.507 4.952-4.059 1.651-1.672 3.065-3.582 4.126-5.731.472-1.313.944-2.627.944-3.94z" class="J"/><g class="B"><path d="M217.017 159.604c-.354.478-.825.836-1.179 1.194-.943.836-2.004 1.552-3.065 2.269-.472.358-.943.596-1.533.835-.118.12-.236.358 0 .358.59 0 1.179-.238 1.651-.477.589-.239 1.179-.716 1.768-1.194.59-.358 1.061-.836 1.533-1.433.353-.477.707-.955.943-1.432.118-.239-.118-.239-.118-.12zm-26.88-4.178c0-.12-.118-.12-.118-.12h-.236c-.353.12-.589.359-.825.597v.12l-.118.119c-.118.239-.236.597-.118.836.236.358.708.239.943 0s.354-.478.472-.836c.118-.119.118-.477 0-.716zm-.354 4.059c0-.12-.117-.12-.117-.12h-.118l-.118-.119h-.118s-.118 0-.118.119v.12l-.118.119v.119.12.119.12s0 .119.118.119h.118.118.118.118.117s.118 0 .118-.119v-.12c-.118-.239-.118-.358-.118-.477 0 0 0 .119 0 0z" class="C"/><g class="C"><path d="M191.905 157.933c.118 0 .118-.119 0 0h0z"/><path d="M192.259 158.171s0-.119 0 0v-.119-.119h-.118-.118-.118-.117-.118s-.118 0-.118.119l-.118.119v.12.119s0 .12.118.12h.118.118s.117 0 .117-.12l.118-.119c.236 0 .236-.12.236-.12z"/></g><path d="M196.386 161.992c0-.119-.118-.119-.118-.119h-.118s0-.119-.118-.119h-.236-.118l-.353.358-.118.119s0 .12 0 0c0 .12-.118.12-.118.239-.118.119-.118.358-.118.478s.236.238.354.238c.235 0 .589-.119.825-.358s.353-.477.471-.716c-.235 0-.235 0-.235-.12zm3.89-1.313c-.118.239-.118.358 0 .358 0 .12.118.12.354.12.118 0 .118 0 .236-.12.235-.358-.236-.835-.59-.358zm8.253-2.388v-.119h-.118-.236.118c-.118 0-.236 0-.236.119-.118 0-.118.12-.118.12l-.118.119v-.119.119.119.12s0 .119.118.119h.118.118.236.118s.118 0 .118-.119l.117-.12s0-.119.118-.119c-.353-.119-.353-.119-.353-.239zm5.187 1.91s0-.119 0 0c-.118-.238-.236-.238-.236-.119 0 0-.118 0-.118.119h-.118c-.235 0-.353.12-.589.239-.118.12-.236.239-.236.478v.119.119c0 .12 0 .239.118.239.118.12.118.12.236.12.589-.12 1.061-.478 1.179-.955 0-.12-.118-.359-.236-.359zm2.24-1.432c0-.12 0-.12 0 0-.118-.12-.118-.12 0 0l-.118-.12h-.118-.118s-.118 0-.118.12h-.117-.118c-.118 0-.118.119-.118.119l-.118.119v.12s0 .119.118.119h.118.235c.118 0 .118 0 .236-.119l.118-.12v-.119l.118-.119c0 .119 0 0 0 0z" class="C"/></g><path d="M204.874 148.382c0-.836-.354-1.791-1.061-2.388s-1.769-.716-2.712-.597c-.825.119-1.65.597-2.358 1.074-1.414.717-2.711 1.433-4.008 2.388-1.651 1.194-3.183 2.746-4.244 4.537-1.061 1.671-2.005 3.582-2.122 5.611-.118 1.91.943 3.701 2.593 4.776 3.183 1.91 7.31.119 9.785-2.269 1.533-1.552 2.594-3.701 3.184-5.85.353-1.194.589-2.387.825-3.581 0-1.314.236-2.507.118-3.701z" class="K"/><path d="M212.891 142.054c1.886 1.314 3.065 3.463 3.301 5.731.235 2.746-.826 5.253-1.887 7.76.59-.716 1.061-1.552 1.533-2.387.589-1.194.943-2.388 1.179-3.701.118-1.553-.118-2.985-.354-4.537-.118-.717-.236-1.552-.471-2.269l-.354-.955c-1.179-.477-2.476-.597-3.655-.597h-.943c.472.239 1.061.478 1.651.955z" class="B C"/><g class="L"><path d="M224.562 223.357c-.707 1.194-1.061 2.626-1.061 3.94-.118 1.432 0 2.984.236 4.417.118.716.353 1.313.471 1.91-.353.358-.353 1.194-.353 1.791 0 .716.118 1.433.235 2.149.236 1.194.708 2.388 1.297 3.462l.708.717c.118.119.235.238.353.238-.589-.716-.943-1.552-1.179-2.387-.471-1.314-.707-2.627-.825-4.06v-.955-.119c.825 2.029 2.004 3.82 3.419 5.253.59.597 1.297 1.194 2.004 1.791l1.297 1.074c-.589-.597-1.179-1.194-1.65-1.91a1.64 1.64 0 0 1-.354-.478l-.472-.477c-1.061-1.194-2.004-2.388-2.711-3.82-1.297-2.508-2.004-5.254-2.004-8.119 0-1.432.235-2.865.589-4.298.236-.119.118-.239 0-.119zm4.716 1.552l-2.476-2.746c-.825-1.074-1.65-2.268-2.004-3.581 0-.12-.236 0-.236.119.118.597.236 1.313.472 1.91s.471 1.075.825 1.672c.707 1.074 1.533 1.91 2.358 2.865.707.716 1.297 1.433 1.886 2.268-.236.717 0 1.552.118 2.149.118.836.354 1.552.59 2.269.471 1.552.943 3.223 2.004 4.417-.118-.239-.236-.597-.236-.836-.707-1.194-1.061-2.507-1.415-3.82-.236-.716-.353-1.433-.471-2.149-.118-.478-.118-.955-.118-1.433l.118.12 2.004 3.223 1.061 2.149 1.061 1.313-1.533-3.462-1.768-3.343c-.707-1.194-1.415-2.149-2.24-3.104z"/><path d="M228.688 235.416c-.353-.836-.825-1.433-1.178-2.269-.236-.239-.354-.477-.59-.716-.354-.478-.825-.836-1.179-1.194-.236-.239-.471-.358-.707-.597s-.472-.477-.708-.597-.353.358-.235.478c.235.477.825.835 1.179 1.194.471.358.943.716 1.296 1.193.826.717 1.415 1.672 2.122 2.508zm-4.951-26.385c-.236.239-.354.478-.472.716s-.353.597-.589.836c-.354.597-.708 1.075-1.061 1.552l-2.122 3.104c-.354.478-.59 1.075-.826 1.552-.118 0-.118.12-.235.12-.236.119-.354.238-.59.238l-1.179.717c-.707.477-1.297 1.194-1.415 2.029 0 .12.118.239.236 0 .236-.835.825-1.313 1.533-1.671.354-.239.707-.358 1.061-.597.118 0 .236-.119.354-.119-.472 1.074-.826 2.148-.944 3.342-.117.836-.117 1.791-.117 2.627.117.239.117.477.235.836 0-2.03.236-3.94.943-5.85.826-2.03 2.123-3.94 3.419-5.612.354-.597.826-1.074 1.179-1.671l.59-.955c.118-.358.354-.597.354-.955 0-.239-.236-.358-.354-.239zm6.72 7.043l-.354-2.387c-.118-.478-.118-.955-.236-1.433v-.358c.118.119.236.358.354.477 1.297 1.791 2.358 3.701 3.301 5.85.472 1.075.825 2.269 1.179 3.343v-1.432c-1.179-3.821-3.065-7.522-5.895-10.506-.471-.478-.943-.956-1.414-1.314-.472-.477-1.061-.955-1.651-1.313-.236-.119-.589.358-.354.597.472.358.944.716 1.297 1.074.472.359.825.717 1.179 1.194.472.478.825.955 1.297 1.433-.118.358 0 .836 0 1.313s.118.955.236 1.433c.118.836.236 1.791.471 2.626.236 1.194.59 2.508 1.297 3.582.472.358.943.597 1.415.836v-.12c-1.415-1.313-1.886-3.223-2.122-4.895zm-2.476-.119c0-.12-.118-.12-.118-.239-.236-.478-.589-.955-.943-1.313-.707-.836-1.415-1.672-2.004-2.627-.118.12-.118.239-.118.358.118.478.589.955.825 1.314l1.061 1.313c.708.836 1.297 1.791 1.887 2.746h.118c-.354-.478-.472-.955-.708-1.552z"/><path d="M235.526 215.119c0-.119-.117-.239-.117-.358-.118-.12-.236-.358-.236-.478-.354-.477-.826-.955-1.297-1.432s-1.061-.836-1.533-1.075c-.236-.119-.589-.239-.825-.358-.354-.12-.707-.239-.943 0-.118.119-.236.358-.118.477.236.239.589.12.825.239s.59.239.825.358c.59.239 1.062.597 1.533 1.075.825.716 1.651 1.671 2.358 2.626-.118-.358-.236-.716-.472-1.074zm-.235 17.073l-1.179-1.194c-.236-.239-.59-.597-.944-.836-.117-.119-.353-.238-.471-.358a.9.9 0 0 0-.59-.239c-.118 0-.235.239-.118.239.118.12.354.239.472.239.236.119.354.239.59.358.353.239.707.478.943.716.471.359.943.836 1.414 1.314 0 0-.117-.12-.117-.239zm-2.594-12.536c-.118-.239-.236-.597-.354-.836s-.236-.358-.471-.597-.472-.358-.708-.597c-.118-.119-.236-.238-.353-.238-.118-.12-.236-.12-.472-.12-.118 0-.236.239-.118.358s.236.239.354.239c.118.12.236.12.353.239.236.119.472.358.708.478.471.358.825.716 1.061 1.074zm-5.777-5.253c-.118 0-.118.119-.118.119-.118.359-.118.836-.118 1.194 0 .478 0 .836.118 1.314s.236.955.472 1.432l.589.597v-.119c-.471-.597-.707-1.433-.707-2.149v-1.194c0-.358.118-.597 0-.955 0-.12-.118-.239-.236-.239zm-4.244 7.641l.707-1.313c.236-.358.472-.836.472-1.313 0-.239-.354-.12-.354 0-.236.358-.354.836-.589 1.194-.236.477-.472.835-.59 1.313l-1.415 2.268s0 .12-.117.12h-.118c-.708.477-1.533.597-2.358.716l-2.476.239c-1.886.358-3.773 1.074-5.305 2.388-.826.597-1.533 1.432-1.887 2.387 0 .12.118.12.236 0 .825-1.79 2.712-2.984 4.48-3.701.825-.358 1.769-.597 2.712-.716l2.476-.239c.589 0 1.296-.119 1.768-.358-.589.836-1.061 1.791-1.533 2.627-.471.238-.943.597-1.296.955-.472.358-.944.597-1.415.955a10.75 10.75 0 0 0-2.476 2.149c-1.415 1.671-2.358 3.581-3.065 5.611 0 .119.118.119.236 0 .471-1.194 1.061-2.507 1.886-3.582v.597c0 .478-.118.955-.118 1.314l-.236 2.746c0 .119.118 0 .118 0l.59-2.866c.117-.477.117-.955.117-1.432v-.717-.477c.354-.358.59-.836.944-1.194.707-.836 1.532-1.433 2.475-2.149.472-.358.944-.597 1.415-.955.118-.12.236-.239.472-.358 0 .119-.118.238-.118.358-1.179 2.746-2.004 5.611-2.358 8.596-.59.597-.943 1.432-1.179 2.149-.354.955-.59 2.029-.825 3.104-.472 2.746-.354 5.492.471 8.118 0 .119.354 0 .236-.119-.707-2.507-.825-5.134-.354-7.761l.708-2.984c.236-.597.353-1.194.707-1.672 0 .359-.118.597-.118.955-.118 2.03-.118 3.94.118 5.97 0 .119.236 0 .236-.12-.354-2.387-.236-4.894.118-7.402 0 0 0-.119.118-.119.118-.119 0-.239 0-.239.118-.955.353-2.029.589-2.984l1.061-3.343c0 .358.118.835.118 1.194 0 .716.118 1.313.118 2.029l.472 3.701v.12.119c.235 1.313.353 2.627.353 4.059 0 1.313.118 2.627.354 3.94 0 .119.236 0 .236-.119-.118-1.314-.118-2.627-.118-4.06l-.118-2.626c.943 1.671 1.65 3.462 2.122 5.372.354 1.194.472 2.388.59 3.701s.353 2.507.589 3.821c0 .119.236 0 .236-.12l-.354-3.939c-.118-1.314-.236-2.508-.589-3.821-.59-2.268-1.651-4.417-2.83-6.447-.236-1.313-.354-2.626-.471-3.94-.118-.716-.118-1.432-.118-2.149v-.955-.955c.118-.119.118-.358.235-.477l1.062-2.149s0 .119.117.119c0 .119.118.239.118.358l.354.717c.236.477.354.955.472 1.432 0 .12.235 0 .235-.119l-.353-1.552c-.118-.239-.118-.478-.236-.717 0-.119-.118-.238-.118-.358s-.118-.238-.118-.358a11.85 11.85 0 0 1 1.297-2.029c.118-.836.707-1.672 1.179-2.508zm18.51 16.475l-1.415-2.984c-.472-.955-.943-1.91-1.533-2.746-1.297-1.91-3.065-3.343-4.951-4.656-.472-.358-1.061-.597-1.533-.836a6.61 6.61 0 0 1-.825-.478c-.236-.119-.472-.358-.708-.477-.118-.12-.471.119-.353.239.118.477.589.716.943.835l1.297.717c1.061.597 2.122 1.313 3.065 2.149.707.597 1.297 1.313 1.886 2.029 0 0-.118.12-.118.239 0 2.149 0 4.417.708 6.447.707 1.91 1.768 3.582 2.711 5.372 0 .12.236 0 .118-.119-.825-1.791-1.768-3.582-2.358-5.492-.353-1.074-.471-2.029-.589-3.104v-2.507c.471.716 1.061 1.552 1.415 2.388l1.768 3.223c.354 0 .472-.239.472-.239zm-10.14 10.268l-1.179-2.148-.707-1.075c-.236-.358-.354-.716-.589-.955 0-.478 0-.955-.118-1.433v-1.671c0-.597.118-1.194.118-1.91 0-.239-.472-.12-.472 0-.118.597-.236 1.194-.236 1.79v1.791a15.27 15.27 0 0 0 .354 3.343c.354 2.388 1.179 4.537 2.24 6.686 0 .119.236 0 .236-.12-.944-2.149-1.651-4.298-2.005-6.685 0-.239 0-.358-.117-.597.235.239.353.597.589.836.472.716 1.061 1.313 1.415 2.029.236.478.471.239.471.119z"/></g></g><defs><clipPath id="A"><path fill="#fff" transform="translate(77.312 28.464)" d="M0 0h122v252H0z"/></clipPath><clipPath id="B"><path fill="#fff" transform="translate(82.427 184.522)" d="M0 0h36v75H0z"/></clipPath><clipPath id="C"><path fill="#fff" transform="translate(185.185 136.443)" d="M0 0h56v117H0z"/></clipPath><path id="D" d="M165.922 130.293a12.96 12.96 0 0 1-5.907-2.314c-2.055 20.057-1.541 44.485-.771 69.171 1.028 27.771 4.11 72 4.11 72 3.852-12.343 2.825-45 3.339-74.314.257-17.486 1.798-41.915 4.109-64.286-1.541 0-3.082 0-4.88-.257z"/><path id="E" d="M108.575 214.829a3.8 3.8 0 0 1-1.743-.688c-.607 5.969-.455 13.239-.228 20.586.303 8.266 1.213 21.429 1.213 21.429 1.137-3.674.834-13.393.985-22.117.076-5.205.531-12.475 1.213-19.133-.455 0-.91 0-1.44-.077z"/><path id="F" d="M225.859 183.721a5.92 5.92 0 0 1-2.712-1.075c-.943 9.313-.707 20.654-.353 32.116.471 12.894 1.886 33.428 1.886 33.428 1.769-5.73 1.297-20.893 1.533-34.503.118-8.118.825-19.46 1.886-29.847-.707 0-1.415 0-2.24-.119z"/></defs></svg>