<svg xmlns="http://www.w3.org/2000/svg" xmlns:xlink="http://www.w3.org/1999/xlink" width="301" height="328" fill="none" xmlns:v="https://vecta.io/nano"><style><![CDATA[.B{fill:#204205}.C{fill:#3c993d}.D{fill:#68b843}.E{fill:#638d37}.F{fill:#6ea442}.G{fill:#638d39}.H{opacity:.61}.I{fill:#1f3e03}.J{fill:#317727}.K{fill:#a2c73a}.L{fill:#d9d4ac}]]></style><circle cx="150.842" cy="177.692" r="147.803" transform="rotate(0.894 150.842 177.692)" fill="#ffd94e"/><g clip-path="url(#A)"><path d="M192.618 89.371c0-3.773-2.156-7.276-5.66-9.163-3.773-2.156-7.815-1.886-11.857-.808s-8.085 3.234-11.588 5.659-6.738 5.39-9.163 8.893c-2.695 3.503-4.851 7.815-5.39 12.396 0 1.078-.27 1.887 0 2.965v.269c0 .809.269 1.617.269 2.156.27.809 1.348.27 1.348-.269.539-2.965 3.503-4.582 6.468-5.121 3.234-.808 6.468-.808 9.701-.808 7.277 0 15.631 0 21.021-5.39 3.234-2.965 4.851-6.737 4.851-10.78z" class="E"/><path d="M149.23 109.312c.539-2.965 1.617-5.929 3.233-8.624 3.773-7.546 10.241-13.744 17.787-17.787 4.042-2.156 8.893-3.773 13.744-4.042-2.964-.809-5.929-.27-8.624.539-4.042 1.078-8.084 3.234-11.588 5.659s-6.737 5.39-9.163 8.893c-2.695 3.503-4.85 7.816-5.389 12.396v2.965z" class="B"/><path d="M192.618 89.371c0-2.156-.808-4.042-1.617-5.659v1.617c-.269 6.737-6.468 11.588-12.396 13.744-7.007 2.425-14.553 1.617-21.829 4.042-.539.27-.809-.539-.539-.808 3.234-4.582 6.737-8.893 10.779-12.397-3.503 2.156-7.006 4.312-9.971 7.276-3.773 3.773-6.468 8.355-7.546 13.745 0 .269 0 .808.27 1.078.269.808 1.347.269 1.347-.27.539-2.964 3.504-4.581 6.468-5.12 3.234-.809 6.468-.809 9.702-.809 7.276 0 15.63 0 21.02-5.39 2.695-3.234 4.312-7.006 4.312-11.049z" class="F"/><path d="M109.884 103.115c4.851 5.929 13.205 7.007 20.212 7.546 3.234.27 6.467.809 9.432 1.887 2.695 1.078 5.39 2.695 5.659 5.928 0 .539 1.078 1.348 1.348.539s.539-1.347.539-2.156c.269-1.077.269-1.886.269-2.964 0-4.581-1.617-8.893-4.042-12.936-2.156-3.773-4.851-7.006-8.085-9.701s-6.737-5.39-10.78-7.007c-3.773-1.617-7.815-2.156-11.857-.539-3.504 1.617-5.929 4.851-6.468 8.624 0 3.503 1.347 7.815 3.773 10.779z" class="C"/><path d="M126.054 87.484c-1.078-.27-2.156-.27-3.234-.27 2.964.809 5.39 2.425 7.815 4.312 1.887 1.347 3.773 2.964 5.39 4.581-.539-.808-.809-1.347-1.348-1.886-2.425-3.234-5.12-5.659-8.623-6.737z" class="I"/><path d="M147.883 113.624c0-4.581-1.617-8.893-4.043-12.936-2.156-3.773-4.851-7.007-8.085-9.701-2.425-2.156-4.85-4.042-7.545-5.39 1.886 1.078 3.772 2.425 5.659 4.042 1.347 1.347 2.156 2.695 3.234 4.312s1.886 3.234 2.695 4.851c.539 1.347 1.347 3.234 1.078 4.581-.27 1.078-1.078 2.156-2.426 1.887-1.617-.27-2.964-1.348-4.312-2.156-1.617-1.078-3.233-2.156-4.85-2.965-1.887-1.347-4.043-2.156-6.199-2.964l-4.851-1.617c1.078.539 2.426 1.078 3.504 1.886 2.156 1.078 4.312 2.425 6.198 3.773 1.887 1.078 3.773 2.426 5.659 3.773 1.617 1.078 2.965 2.695 3.773 4.312.27.27 0 .808-.539.808-3.773-.269-7.545-.808-11.318-1.616-3.234-.809-6.468-1.617-9.433-3.234-2.155-1.078-3.772-2.695-5.389-4.312-1.348-1.348-2.965-3.234-4.043-5.39.27 2.695 1.348 5.39 3.234 7.546 4.851 5.929 13.205 7.006 20.212 7.545 3.234.27 6.468.809 9.432 1.887 2.695 1.078 5.39 2.695 5.66 5.929 0 .539 1.078 1.347 1.347.539s.539-1.348.539-2.156c.539-1.348.809-2.156.809-3.234z" class="F"/><path d="M165.399 41.13c-5.12 9.971-9.162 20.481-12.396 31.261-2.965 10.78-5.121 21.559-7.007 32.608-1.617 10.78-2.965 21.829-4.043 32.609-1.078 11.049-2.425 22.368-2.964 33.417-.269 6.198-.269 12.397-.269 18.595 0 2.426.269 4.581.539 6.737l5.389.27c0-2.156-.269-4.581-.269-6.737 0-5.66 0-11.05.269-16.709.539-10.51 1.887-21.29 2.965-32.339 2.425-21.559 5.12-43.119 9.702-64.409 2.694-11.858 5.659-23.715 9.971-35.034.539-1.347-1.617-1.078-1.887-.269z" class="G"/><path d="M141.684 175.876c-.269-18.595.539-36.92 2.695-55.515.809-7.815 1.887-15.631 3.234-23.446-.539 2.695-1.078 5.659-1.347 8.354-1.617 10.78-2.965 21.829-4.043 32.609-1.078 11.049-2.425 22.368-2.964 33.417-.269 6.198-.269 12.397-.269 18.595 0 2.425.269 4.581.539 6.737l3.233.27c-.539-7.007-.808-14.014-1.078-21.021z" class="C"/><path d="M165.399 41.13c-3.773 7.815-7.276 15.9-9.971 23.985.27 0 .27-.269.539-.269.539-.27.808 0 .808.539 0 2.425-.808 4.581-1.616 6.737-.809 2.425-1.078 4.851-1.617 7.276-1.078 5.12-1.887 10.51-2.426 15.631-2.695 18.865-5.659 37.999-5.929 57.133 0 4.851 0 9.701.27 14.552.539-8.624 1.617-17.247 2.425-25.871 2.426-21.559 5.121-43.119 9.702-64.409 2.695-11.858 5.659-23.715 9.971-35.034.27-1.347-1.886-1.078-2.156-.269z" class="B"/><path d="M245.977 6.098c-1.078-2.964-4.851-3.503-7.546-3.773-3.773-.269-7.546.269-11.049.808-.269 0-.539 0-.808.269.539-.539.808-1.078 1.078-1.617 0-.269 0-.539-.27-.539-7.276-1.347-13.475 2.425-19.942 5.12 1.078-.808 2.156-1.886 2.695-3.234.269-.269-.27-.539-.539-.539-6.199.808-11.319 4.042-16.17 7.546.539-.809.808-1.617.808-2.425 0-.27-.269-.539-.269-.539-3.234-.539-6.468 1.347-8.893 3.234-2.965 2.156-5.66 5.12-7.816 8.354l-.269.27c.269-.808.269-1.347.269-2.156 0-.27-.269-.27-.539-.27-1.886.27-3.503 1.886-4.85 3.234-1.617 1.887-2.965 4.312-4.043 6.468-.269.809-.808 1.617-1.078 2.156-.269-.539-.269-1.078-.808-1.617-.27-.27-.539-.27-.809-.27-2.156 1.078-3.234 3.234-4.312 5.39s-1.617 4.581-2.156 7.007c-1.077 5.12-1.616 10.78-1.077 15.9.269 2.964.808 5.929 2.425 8.354.269.539.808 0 1.078-.27 1.078-1.617 2.425-3.234 4.042-4.581 1.348-1.347 2.695-2.425 4.312-3.234 2.695-1.617 5.929-2.156 8.624-3.773 1.347-.809 2.695-1.617 3.773-2.964 0-.27.269-.27 0-.539-.27-.539-.809-.809-1.348-1.078l5.929-.808c2.965-.539 6.199-1.617 8.354-3.773.27-.27.27-.539 0-.809-.808-.539-1.886-1.078-2.964-1.347 1.078 0 2.425-.27 3.503-.539 2.426-.539 4.851-1.078 6.199-3.503v-.539c-.809-.808-1.617-1.347-2.695-1.886 2.425-.27 4.851-.539 7.007-1.078 2.964-.808 6.467-1.617 8.623-3.773.27-.27.27-.539 0-.808-1.078-.808-2.156-1.348-3.503-1.617 2.425-.539 4.851-.808 7.276-1.347 3.234-.808 6.468-1.886 9.163-3.773.27-.27.27-.539 0-.808-.808-.809-1.886-1.348-2.964-2.156 5.12-1.348 10.779-1.617 14.822-5.39.269-.27.269-.539 0-.809-1.348-.809-2.965-1.347-4.582-1.617 4.043-1.078 7.816-1.617 11.319-3.773 0 0 .27-.269 0-.539z" class="D"/><path d="M245.707 5.56c-8.085 0-16.169.808-23.985 2.964-15.091 3.773-29.374 11.319-40.962 21.829-5.66 5.39-11.05 11.049-15.362 17.787-2.694 4.581-5.12 9.702-5.928 15.091 0 0 0 .27.269.27.27.539.809 0 1.078-.27 1.078-1.617 2.425-3.234 4.042-4.581 1.348-1.347 2.695-2.425 4.312-3.234 2.695-1.617 5.929-2.156 8.624-3.773 1.348-.809 2.695-1.617 3.773-2.964 0-.27.269-.27 0-.539-.27-.539-.808-.809-1.347-1.078l5.928-.809c2.965-.539 6.199-1.617 8.355-3.773.269-.269.269-.539 0-.808-.809-.539-1.887-1.078-2.965-1.347 1.078 0 2.426-.27 3.504-.539 2.425-.539 4.85-1.078 6.198-3.503v-.539c-.809-.809-1.617-1.347-2.695-1.886 2.425-.27 4.851-.539 7.007-1.078 2.964-.809 6.468-1.617 8.624-3.773.269-.27.269-.539 0-.809-1.078-.808-2.156-1.347-3.504-1.617 2.426-.539 4.851-.808 7.276-1.347 3.234-.809 6.468-1.886 9.163-3.773.27-.269.27-.539 0-.808-.808-.808-1.886-1.347-2.964-2.156 5.12-1.348 10.779-1.617 14.822-5.39.269-.269.269-.539 0-.808-1.348-.809-2.965-1.348-4.582-1.617 4.043-1.078 7.816-1.617 11.319-3.773.27-.269.539-.539.27-.808 0-.269 0-.539-.27-.539z" class="B"/><path d="M245.438 5.02l-9.163 5.12c3.234-.808 6.468-1.617 9.432-3.234.27-.269.539-.539.27-.808 0-.539-.27-.808-.539-1.078z" class="C"/><path d="M235.197 10.679c-.808.539-1.617 1.078-2.425 1.348l-15.631 8.085-15.091 7.815c-9.432 5.39-18.595 11.319-28.566 15.9-.539.269-1.078-.27-.809-.809 1.078-3.234 18.865-19.403 23.985-23.176 2.695-1.887 1.078-3.234-.27-2.425-13.474 7.276-24.793 18.595-32.608 31.8-.27.539-1.078.27-1.078-.27 0-2.964.539-5.929 1.078-9.163.808-4.851 2.425-9.702 4.581-14.014 0 .27-.269.539-.269.539-.27.808-.809 1.617-1.078 2.156-.27-.539-.27-1.078-.809-1.617-.269-.269-.539-.269-.808-.269-2.156 1.078-3.234 3.234-4.312 5.39s-1.617 4.581-2.156 7.007c-1.078 5.12-1.617 10.78-1.078 15.9.27 2.964.809 5.929 2.425 8.354.27.539.809 0 1.078-.27 1.078-1.617 2.426-3.234 4.043-4.581 1.347-1.348 2.695-2.425 4.312-3.234 2.695-1.617 5.929-2.156 8.623-3.773 1.348-.809 2.695-1.617 3.773-2.965 0-.269.27-.269 0-.539-.269-.539-.808-.808-1.347-1.078l5.929-.809c2.964-.539 6.198-1.617 8.354-3.773.269-.27.269-.539 0-.809-.808-.539-1.886-1.078-2.964-1.347 1.078 0 2.425-.27 3.503-.539 2.425-.539 4.851-1.078 6.198-3.503v-.539c-.808-.809-1.617-1.348-2.695-1.886 2.426-.27 4.851-.539 7.007-1.078 2.965-.808 6.468-1.617 8.624-3.773.269-.27.269-.539 0-.808-1.078-.809-2.156-1.347-3.503-1.617 2.425-.539 4.85-.808 7.276-1.348 3.234-.808 6.468-1.886 9.163-3.773.269-.27.269-.539 0-.808-.809-.808-1.887-1.347-2.965-2.156 5.121-1.348 10.78-1.617 14.822-5.39.27-.269.27-.539 0-.809-1.886-.539-3.234-.808-4.312-1.348z" class="H J"/><path d="M164.052 30.082c.269 4.042 0 8.085.269 12.127 2.426-7.815 3.234-16.978 9.702-22.637.269-.27 1.078 0 1.078.539-.27 2.156-.809 4.312-1.078 6.468.269-.539.539-.809.808-1.347 3.504-6.198 7.546-12.666 14.553-15.631.539-.269 1.078.269.809.809-.27 1.347-.539 2.964-1.078 4.581 1.347-1.617 3.233-2.964 4.85-4.312 2.965-2.156 6.468-3.773 9.972-5.39.539-.269 1.078.269.808.808l-1.617 3.234c2.695-1.347 5.39-2.695 8.085-3.773 3.503-1.347 7.007-2.425 10.51-2.964.539 0 1.078.539.539 1.078-1.078 1.078-1.886 2.156-2.695 3.234 3.773-1.347 7.815-2.156 11.858-3.234 2.695-.539 5.39-1.078 8.354-1.347-.539 0-.808 0-1.347-.269-3.773-.269-7.546.269-11.05.808-.269 0-.539 0-.808.269.539-.539.808-1.078 1.078-1.617 0-.269 0-.539-.27-.539-7.276-1.078-13.474 2.695-19.942 5.39 1.078-.808 2.156-1.886 2.695-3.234.269-.269-.27-.539-.539-.539-6.198.808-11.319 4.042-16.17 7.546.539-.808.809-1.617.809-2.425 0-.269-.27-.539-.27-.539-3.234-.539-6.467 1.347-8.893 3.234-2.964 2.156-5.659 5.12-7.815 8.354l-.27.27c.27-.808.27-1.347.27-2.156 0-.27-.27-.27-.539-.27-1.887.27-3.504 1.886-4.851 3.234-1.617 1.886-2.964 4.312-4.042 6.468-.27.808-.809 1.617-1.078 2.156-.27-.539-.27-1.078-.809-1.617-.269-.269-.539-.269-.808-.269-2.156 1.078-3.234 3.234-4.312 5.39s-1.617 4.581-2.156 7.007c-.539 1.886-.809 3.773-1.078 5.659 0-.27 0-.539.269-1.078 1.078-4.851 2.156-9.971 5.121-14.014.269 0 1.078 0 1.078.539z" class="B"/><path d="M90.211 6.099c2.695 2.156 6.198 2.964 9.432 4.312-1.347.27-2.695.539-4.042 1.078-.269 0-.269.539 0 .808 2.964 3.773 8.084 4.312 12.127 5.929-.809.539-1.887.808-2.695 1.347-.27.27-.27.539 0 .539 2.156 2.156 4.851 3.234 7.546 4.042 1.886.808 4.042 1.347 5.928 1.886-1.078.27-2.156.539-3.233 1.078-.27.269-.27.539 0 .808 1.616 2.156 4.581 3.234 7.006 4.042 1.887.808 4.043 1.078 5.929 1.617-.808.27-1.617.809-2.425 1.348 0 0-.27.27-.27.539.809 1.886 2.965 2.964 4.851 3.503 1.078.269 1.887.539 2.965.808-.809.27-1.887.539-2.695.808-.27.27-.27.539 0 .809 1.617 2.156 4.311 3.234 6.737 4.042 1.617.539 3.234 1.078 4.851 1.347-.539.27-.809.539-1.348.809v.539c.809 1.078 1.617 2.156 2.965 2.695 2.156 1.347 4.851 2.425 7.007 4.042 1.347.808 2.425 2.156 3.503 3.234 1.078 1.347 2.156 2.695 2.964 4.312.27.27.809.539.809.27 1.617-2.156 2.156-4.581 2.695-7.007 1.078-4.581 1.078-9.163.539-13.744-.27-2.156-.539-4.042-1.078-6.198-.539-1.886-1.348-3.773-3.234-4.851h-.539c-.27.269-.539.808-.809 1.347-.269-.808-.539-1.347-.808-2.156-.809-2.156-1.617-4.042-2.965-5.929-.808-1.348-2.155-2.964-3.772-3.234-.27 0-.539 0-.539.27v1.886s0-.27-.27-.27c-1.078-2.964-2.964-5.659-5.39-7.815-1.886-1.886-4.581-3.773-7.546-3.503-.269 0-.269 0-.269.269 0 .809.269 1.617.539 2.156-4.042-3.234-8.085-6.737-13.205-8.085-.27 0-.539 0-.539.539.269 1.078 1.078 2.156 2.156 2.964-5.39-2.964-10.241-6.737-16.709-6.198-.269 0-.269.269-.269.539 0 .539.539 1.078.808 1.347-.269 0-.539 0-.808-.269-2.965-.808-6.199-1.617-9.433-1.617-2.425 0-5.39.269-6.737 2.425 0 .269 0 .539.27.539z" class="D"/><path d="M90.48 5.02c7.007.808 13.744 2.425 20.212 4.851 12.666 4.851 23.985 12.397 33.148 22.637 4.581 5.12 8.354 10.51 11.318 16.709 1.887 4.312 3.504 8.893 3.504 13.475 0 0 0 .269-.27.269-.269.27-.808 0-.808-.269-.809-1.617-1.887-2.965-2.965-4.312-1.078-1.078-2.156-2.425-3.503-3.234-2.156-1.617-4.851-2.425-7.007-4.042-1.078-.809-2.156-1.617-2.964-2.695v-.539c.269-.539.808-.809 1.347-.809-1.617-.27-3.234-.809-4.851-1.348-2.425-.808-5.12-1.886-6.737-4.042-.269-.269-.269-.539 0-.808.809-.539 1.887-.808 2.695-.808-1.078-.27-1.886-.539-2.964-.809-1.887-.539-4.043-1.617-4.851-3.503 0-.27 0-.27.269-.539.809-.539 1.617-1.078 2.426-1.347l-5.929-1.617c-2.426-.809-5.39-1.886-7.007-4.042-.269-.27-.269-.539 0-.809 1.078-.539 2.156-.808 3.234-1.078-2.156-.808-4.312-1.348-6.198-1.886-2.695-.808-5.39-2.156-7.546-4.042-.27-.269-.27-.539 0-.808.808-.539 1.886-1.078 2.695-1.347-4.043-1.886-8.893-2.425-12.127-6.198 0-.27-.269-.539 0-.809 1.347-.539 2.695-.809 4.042-1.078-3.234-.808-6.737-1.886-9.432-4.042-.27 0-.27-.269-.27-.539l.539-.539z" class="B"/><g class="C"><path d="M90.48 4.751l7.546 5.12c-2.695-1.078-5.39-1.886-7.815-3.773-.27 0-.27-.269-.27-.539.27-.269.539-.539.539-.808z"/><path d="M99.104 10.681c.539.27 1.078.808 1.887 1.078 4.312 2.965 8.354 5.659 12.666 8.354 4.042 2.695 8.354 5.39 12.127 8.085 7.546 5.39 14.822 11.588 23.176 16.169.27.27.809 0 .809-.539-.539-2.964-14.283-18.325-18.326-22.098-2.156-1.887-.539-2.965.539-2.156 10.78 7.546 19.404 18.326 25.063 30.183.27.539 1.078.27 1.078-.27.27-2.695.27-5.12 0-7.815-.269-4.042-1.078-8.354-2.425-12.397 0 .27.269.27.269.539.27.809.539 1.348.809 2.156.269-.539.539-.809.808-1.348.27-.27.539-.27.539 0 1.617 1.078 2.695 2.964 3.234 4.851s.808 4.042 1.078 6.198c.539 4.581.269 9.163-.539 13.744-.539 2.425-1.347 4.851-2.695 7.007-.269.27-.808 0-.808-.27-.809-1.617-1.887-2.964-2.965-4.312-1.078-1.078-2.156-2.425-3.503-3.234-2.156-1.617-4.851-2.425-7.007-4.042-1.078-.808-2.156-1.617-2.964-2.695v-.539c.269-.539.808-.808 1.347-.808-1.617-.27-3.234-.809-4.851-1.348-2.425-.809-5.12-1.886-6.737-4.042-.27-.27-.27-.539 0-.808a5.2 5.2 0 0 1 2.695-.808c-1.078-.27-1.887-.539-2.965-.808-1.886-.539-4.042-1.617-4.851-3.503 0-.27 0-.27.27-.539.808-.539 1.617-1.078 2.425-1.348l-5.928-1.617c-2.426-.808-5.39-1.887-7.007-4.042-.27-.27-.27-.539 0-.808 1.078-.539 2.156-.809 3.234-1.078-2.965-.27-5.121-.808-7.007-1.347-2.695-.809-5.39-2.156-7.546-4.042-.269-.27-.269-.539 0-.809.809-.539 1.887-1.078 2.695-1.347-4.042-1.887-8.893-2.426-12.127-6.198 0-.27-.269-.539 0-.809 1.078-.269 2.156-.539 3.503-.539z" class="H"/></g><path d="M157.854 33.856c-.539 3.503-.539 7.007-1.348 10.241-1.347-7.007-1.078-14.822-6.198-20.481-.27-.27-1.078 0-1.078.269 0 1.886.269 3.773.539 5.659-.27-.539-.27-.809-.539-1.348-2.426-5.659-5.39-11.588-11.049-14.822-.539-.269-.809 0-.809.539 0 1.348.27 2.965.539 4.312-1.078-1.617-2.425-2.964-3.773-4.042-2.425-2.156-5.12-3.773-8.085-5.39-.269-.269-1.077 0-.808.539.269 1.078.539 1.886 1.078 2.964-1.886-1.617-4.312-2.964-6.468-4.042-2.695-1.617-5.659-2.695-8.893-3.503-.539 0-.809.539-.539.808.808 1.078 1.347 1.886 1.886 2.964-3.234-1.617-6.467-2.695-9.971-3.773-2.156-.539-4.312-1.347-6.737-1.886h1.078c3.234.269 6.468 1.078 9.432 1.886.27 0 .539.269.809.269-.27-.269-.809-.808-.809-1.347 0-.27 0-.539.27-.539 6.467-.539 11.318 3.234 16.708 6.198a11.98 11.98 0 0 1-2.156-2.964c0-.269.27-.539.539-.539 5.12 1.347 9.163 4.581 13.205 8.085-.269-.808-.539-1.347-.539-2.156 0-.27.27-.27.27-.27 2.964 0 5.39 1.886 7.546 3.503 2.425 2.156 4.311 4.851 5.928 7.815 0 0 0 .27.27.27V21.19c0-.269.269-.269.539-.269 1.617.539 2.964 1.886 3.773 3.234 1.078 1.886 2.156 3.773 2.964 5.929.27.809.539 1.348.809 2.156.269-.539.539-.808.808-1.347.27-.27.539-.27.539 0 1.617 1.078 2.695 2.964 3.234 4.851s.808 4.042 1.078 6.198c.269 1.617.269 3.234.269 5.12v-.809c-.539-4.312-.808-8.893-3.233-12.397-.27-.539-1.078-.539-1.078 0z" class="B"/><g class="K"><use xlink:href="#D"/><use xlink:href="#D"/></g><use xlink:href="#D" class="L"/><use xlink:href="#D" class="B"/><path d="M147.612 224.387c-.539-4.042-.809-8.624-1.348-13.475-.539-2.156-.539-4.581-.808-7.006-.27-2.695-.809-5.66-.809-8.355l-1.347.27v3.503c0 7.007.269 14.014 1.078 20.751.539 7.007 1.617 13.744 2.964 20.751l1.617 9.432 1.617 9.432.809 4.312c.269-8.893-2.156-25.062-3.773-39.615z" class="E"/><g class="G"><path d="M146.803 237.053c-.808 1.617-.808 3.503-.808 5.12 0 1.887.539 3.773 1.078 5.39.269.809.539 1.617 1.078 2.426-.539.539-.27 1.616-.27 2.155 0 .809.27 1.887.539 2.695.539 1.348 1.348 2.965 2.156 4.043.27.269.809.539 1.078.808.27 0 .27.27.539.27-.808-.809-1.347-1.887-1.886-2.695-.809-1.617-1.348-3.234-1.617-4.851v-1.348c1.347 2.426 3.234 4.312 5.12 6.199.809.808 1.887 1.347 2.695 1.886.539.27 1.348.809 1.887 1.078-.809-.539-1.617-1.347-2.426-2.156l-.539-.539c-.269-.269-.539-.269-.539-.539-1.617-1.347-2.964-2.695-4.042-4.312-2.156-2.964-3.504-6.198-3.773-9.971a19.87 19.87 0 0 1 0-5.659s0-.27-.27 0zm6.199 1.347c-1.078-1.078-2.425-1.887-3.503-2.965-1.348-1.078-2.426-2.694-2.965-4.311 0-.27-.269 0-.269.269l.808 2.426c.27.808.809 1.347 1.348 1.886l3.503 3.234c1.078.808 1.887 1.617 2.695 2.425 0 .809.27 1.887.539 2.695.27 1.078.808 1.887 1.078 2.695.808 1.887 1.617 4.043 3.234 5.39-.27-.27-.27-.808-.539-1.078-1.078-1.347-1.887-2.964-2.426-4.581-.269-.809-.808-1.887-1.077-2.695-.27-.539-.27-1.078-.539-1.617v.269a20.43 20.43 0 0 1 2.964 3.773c.539.809 1.078 1.617 1.886 2.426l1.617 1.617-2.425-4.043-2.695-4.042c-.808-1.617-1.886-2.695-3.234-3.773z"/><path d="M154.08 251.605c-.539-.809-1.348-1.617-1.887-2.695l-.808-.809c-.539-.539-1.078-1.078-1.617-1.347s-.809-.539-1.078-.539c-.27-.269-.539-.539-1.078-.539-.27 0-.27.539-.27.539.27.539 1.078 1.078 1.617 1.347s1.348.809 1.887 1.348c1.347.808 2.156 1.617 3.234 2.695zm-10.511-32.338c-.269.27-.269.539-.539 1.078-.269.27-.269.809-.539 1.078-.269.809-.808 1.348-1.078 2.156-.808 1.348-1.617 2.695-2.156 4.312-.539.539-.808 1.347-.808 2.156 0 0-.27 0-.27.269-.269.27-.539.27-.539.539-.539.27-.808.539-1.347 1.078-.809.809-1.348 1.617-1.348 2.695 0 .27.27.27.27 0 .269-1.078.808-1.886 1.617-2.425.269-.27.808-.539 1.347-.809l.27-.269c-.27 1.347-.539 2.964-.539 4.312 0 1.078 0 2.156.269 3.234.27.269.27.539.539 1.078-.269-2.426-.269-5.121.27-7.546.808-2.695 2.156-5.12 3.503-7.815.539-.809.809-1.617 1.348-2.426.269-.539.269-.808.539-1.347s.269-.809.269-1.348c-.808 0-1.078-.269-1.078 0z"/><path d="M153.271 227.081l-.808-2.964c-.27-.539-.27-1.078-.539-1.617v-.539l.539.539c1.886 2.156 3.772 4.312 5.12 6.737.808 1.348 1.347 2.695 2.156 4.043 0-.539-.27-1.348-.27-1.887-2.156-4.581-5.12-8.893-9.162-12.397-.539-.539-1.348-1.077-1.887-1.347-.808-.539-1.347-1.078-2.156-1.347-.269-.27-.539.539-.269.808.539.539 1.347.809 1.886 1.078s1.078.808 1.617 1.347 1.348 1.078 1.887 1.617c0 .539 0 1.078.269 1.617s.27 1.078.539 1.887c.27 1.078.539 2.156 1.078 3.234.539 1.347 1.078 3.234 2.156 4.312.539.269 1.347.539 1.886.808v-.269c-2.695-1.348-3.503-3.773-4.042-5.66zm-3.233.27s0-.269-.269-.269c-.539-.539-.809-1.078-1.348-1.617-1.078-.809-2.156-1.887-2.964-2.965 0 0-.27.27 0 .539.269.539.808 1.078 1.347 1.617l1.617 1.617 2.965 2.965h.269c-.808-.809-1.347-1.348-1.617-1.887z"/><path d="M159.74 224.924l-.27-.269-.539-.539c-.539-.539-1.347-1.078-1.886-1.617-.809-.539-1.348-.809-2.156-1.078-.27 0-.809-.27-1.078-.27s-.809-.269-1.348 0c-.269 0-.269.539 0 .539.27.27.809 0 1.078.27.27 0 .809.269 1.078.269.809.27 1.617.539 2.156 1.078 1.348.809 2.426 1.887 3.504 2.965-.27-.539-.539-.809-.539-1.348zm2.155 21.562c-.539-.539-1.078-.808-1.617-1.347-.539-.27-.808-.539-1.347-.808-.27 0-.539-.27-.539-.27-.27 0-.539-.269-.809-.269s-.269.269 0 .269c.27.269.539.27.539.27.27 0 .539.269.809.269.539.269.808.539 1.347.808.809.539 1.348.809 1.887 1.348l-.27-.27zm-5.12-15.361c-.269-.27-.269-.809-.539-1.078l-.539-.539c-.269-.27-.539-.539-1.078-.539-.269 0-.269-.27-.539-.27s-.269-.269-.539-.269-.269.269-.269.539.269.269.539.269.269.27.539.27c.269.269.539.269 1.078.539.269.269.808.539 1.347 1.078zm-8.354-5.661c-.27.539-.27 1.348-.27 1.617 0 .539.27 1.078.27 1.617l.808 1.617.809.808v-.269c-.809-.809-1.078-1.617-1.348-2.695 0-.539-.269-1.078-.269-1.347v-1.078c.269-.27.269-.27 0-.27zm-4.042 10.241c.269-.539.539-1.078.539-1.617.269-.539.269-1.078.269-1.617 0-.27-.539 0-.539 0-.269.539-.269 1.078-.539 1.617s-.269 1.078-.539 1.617c-.539 1.077-.808 2.155-1.347 2.964v.269c-.809.809-1.887 1.078-2.965 1.348s-2.156.269-2.964.539c-2.426.808-4.582 2.156-6.468 3.773-.808 1.078-1.617 2.156-2.156 3.503 0 .27.27 0 .27 0 .808-2.425 2.964-4.312 5.12-5.39 1.078-.539 2.156-1.078 3.234-1.347s2.156-.27 2.964-.539 1.617-.27 2.156-.809l-1.617 3.504c-.539.269-1.078 1.078-1.617 1.347-.539.539-1.078.809-1.617 1.348-1.078.808-1.886 1.886-2.695 3.234-1.078 2.156-2.156 4.85-2.695 7.545 0 .27.27 0 .27 0l1.886-4.85v.808 1.617c0 1.078 0 2.425.27 3.503h.269c0-1.347.27-2.425.27-3.773v-1.886-.808-.539c.269-.539.808-1.078 1.078-1.617.808-1.078 1.617-2.156 2.695-2.965.539-.539 1.078-.808 1.617-1.347l.539-.539c0 .269 0 .269-.27.539-1.078 3.773-1.617 7.546-1.617 11.318-.808.809-1.078 1.887-1.078 2.965-.269 1.347-.539 2.695-.539 4.042-.269 3.504.539 7.007 1.887 9.971 0 .27.269 0 .269-.269-1.347-2.964-1.886-6.468-1.617-9.702 0-1.347.27-2.695.539-4.042.27-.809.27-1.617.539-2.156v1.078c0 2.425.539 5.12 1.078 7.546 0 .269.27 0 .27-.27-.809-2.964-1.078-6.198-1.078-9.163v-.269c0-1.348.269-2.695.269-3.773a129.09 129.09 0 0 1 .809-4.312c0 .539.269 1.078.269 1.348.27.808.27 1.617.539 2.425.27 1.617.809 2.964 1.348 4.581v.27c.539 1.617.808 3.234 1.078 5.12.269 1.617.539 3.234 1.078 4.851 0 .27.269 0 .269-.269-.539-1.617-.539-3.504-.808-5.121-.27-1.078-.27-2.156-.539-3.234 1.347 2.156 2.695 4.043 3.503 6.468.539 1.348 1.078 2.965 1.347 4.582s.809 3.233 1.348 4.581c0 .269.269 0 .269-.27-.539-1.617-.539-3.233-1.078-4.85-.269-1.617-.808-3.234-1.347-4.582-1.078-2.695-2.695-5.12-4.581-7.546-.539-1.617-.809-3.233-1.348-4.85-.269-.809-.269-1.617-.539-2.695 0-.539-.269-.809-.269-1.348s0-.808-.27-1.347c0-.27 0-.539.27-.809.269-1.078.539-1.886 1.078-2.695v.27c0 .269.269.269.269.539.27.269.27.539.539.808.27.539.539 1.078.809 1.887 0 .269.269 0 .269-.27-.269-.539-.539-1.347-.808-1.886-.27-.27-.27-.539-.539-.809 0-.269-.27-.269-.27-.539s-.269-.269-.269-.539c.539-1.078.808-1.886 1.347-2.964.809-1.078 1.348-2.156 1.887-3.503zm26.14 17.788c-.809-1.078-1.348-2.425-2.156-3.503l-2.426-3.234c-1.886-2.156-4.311-3.773-7.006-5.12l-2.156-.809c-.27 0-.809-.269-1.078-.539s-.539-.269-1.078-.539a.58.58 0 0 0-.539.539c.269.539.808.809 1.347 1.078s1.078.27 1.617.539c1.617.539 2.965 1.348 4.312 2.156 1.078.539 1.886 1.348 2.695 2.156v.27c.269 2.695.539 5.389 1.886 8.084 1.078 2.156 2.965 4.312 4.312 6.199 0 0 .27 0 .27-.27l-3.773-6.468c-.539-1.347-1.078-2.425-1.348-3.773-.269-1.077-.269-2.155-.539-3.233.809.808 1.617 1.886 2.156 2.694l3.504 3.773c-.27.27 0 0 0 0zM159.2 268.045c-.539-.809-1.347-1.617-1.886-2.426l-1.078-1.078c-.27-.269-.539-.808-.809-1.078 0-.539-.269-1.077-.269-1.886s-.27-1.347-.27-2.156 0-1.617-.269-2.425c0-.27-.539 0-.539.269v2.426c0 .808.269 1.617.269 2.425.27 1.347.539 2.964 1.078 4.312.809 2.964 2.156 5.659 4.043 8.085 0 0 .269 0 .269-.27-1.617-2.425-2.695-5.12-3.503-8.085 0-.269 0-.539-.27-.808.27.269.539.539.809 1.078.808.808 1.617 1.617 2.156 2.425 0-.269.269-.539.269-.808z"/><path d="M178.064 251.066c-2.695-2.425-5.12-5.12-8.354-6.737-1.617-.809-3.234-1.078-4.851-1.617-.808-.27-1.886-.27-2.695-.539h-2.156c-.269 0-.539.539 0 .539h2.156c.809 0 1.617.269 2.426.539 1.617.269 3.234.808 4.851 1.617 3.234 1.617 5.659 4.042 8.354 6.198 0 .539.269.27.269 0zm-7.544-16.709c-1.078-1.078-2.426-1.887-3.773-2.695l-2.426-.809c-.539 0-.808-.269-1.347-.269s-.808-.27-1.347-.27c-.539-.539-1.078-1.078-1.617-1.347s-1.078-.809-1.348-1.078c-.539-.27-1.078-.809-1.617-1.078-.269 0-.808.269-.539.539.27.539.809.808 1.348 1.078s1.078.808 1.347 1.078c1.078.808 2.156 1.617 3.234 2.695l5.39 5.659c.269.269.539-.27.539-.27-.809-1.077-1.617-2.155-2.695-2.964-.809-1.078-1.887-1.886-2.695-2.964l-.269-.27c.269 0 .538 0 1.077.27.809.269 1.617.269 2.426.808 1.347.539 2.695 1.617 4.042 2.426 0 0 .539-.539.27-.539zm-36.113 14.285c-.808.539-1.347.808-1.886 1.347-.809.539-1.617 1.078-2.156 1.617-1.348 1.078-2.426 2.156-3.234 3.504-1.887 2.695-2.695 5.659-3.773 8.623 0 .27.269 0 .269 0 .27-1.347.809-2.425 1.348-3.772 0 .269.269.808.269 1.077.27 1.078.27 2.156.539 3.234.27 1.887 0 4.043 0 5.929 0 .27.27 0 .27 0l.269-5.929c0-1.078 0-1.886-.269-2.964 0-.27-.27-.809-.27-1.078 0-.539 0-.808-.269-1.347.539-1.348 1.347-2.426 2.156-3.773a21.54 21.54 0 0 1 3.503-3.504l2.156-1.347c.27-.27.809-.809 1.078-1.617.27.269.27 0 0 0zm2.156 16.708c0-.27-.27-.27-.539 0-.539 1.078-.539 2.425-.809 3.503l-.808 3.773c-.27 2.695 0 5.12.808 7.546 0 .269.27 0 .27-.27-1.078-4.85 0-9.701 1.078-14.552zm10.51 8.893c0-2.156.539-4.581.809-6.737 0-.269-.539-.269-.539 0-.539 2.156-.809 4.581-.809 7.007s.539 4.581 1.617 6.737c0 .27.27 0 .27-.269-.809-2.156-1.348-4.312-1.348-6.738zm19.403-2.425l-5.12-6.468c-.808-.808-1.886-1.617-2.964-2.425s-2.426-1.348-3.504-2.156c-.269-.269-.539.269-.539.539.809.808 2.156 1.347 3.234 1.886 1.348.539 2.156 1.617 3.234 2.426 1.887 1.886 3.234 4.312 5.12 6.198.539.539.809.27.539 0zm6.468-3.772c-1.617-1.617-2.964-3.503-4.042-5.659-.539-1.078-.809-2.156-1.078-3.234s-.269-2.426-.808-3.504c0-.269-.27 0-.27 0-.269 1.078 0 2.426.27 3.773.269 1.078.539 2.426 1.347 3.504 1.078 2.156 2.695 4.042 4.312 5.659 0-.27.269-.539.269-.539z"/><path d="M183.724 250.796l-6.737-3.773c-1.078-.539-2.426-1.078-3.504-1.347a8.3 8.3 0 0 0-3.503-.809c-.27 0-.809.539-.27.809 1.348.269 2.426.539 3.504 1.078s2.425.808 3.503 1.347l6.468 3.503c.539-.269.809-.538.539-.808zm-56.323 3.235c-1.347.808-3.234 1.347-4.581 2.425-1.617 1.078-2.695 2.156-4.043 3.503-2.425 2.965-4.312 6.199-5.659 9.702 0 .27.269.27.269 0 1.078-2.425 2.156-4.581 3.773-6.737 0 .539 0 1.347.27 1.886 0 .809 0 1.617-.27 2.426-.269 1.617-.539 2.964-.539 4.581 0 .27.27 0 .27-.269 0-1.617.539-3.234.808-4.851.27-.809.27-1.617.27-2.156 0-.809-.27-1.617-.27-2.426.539-.808 1.078-1.347 1.887-2.156 1.078-1.347 2.695-2.695 4.042-3.503s3.234-1.078 4.312-2.156c0 0-.269-.539-.539-.269zm3.503-10.78c-1.078.27-2.695.27-3.773.27l-3.234.808c-1.886.809-3.503 1.617-5.12 2.965-3.234 2.425-5.929 5.659-7.546 9.162 0 .27.269.27.269 0 1.617-3.503 4.582-6.737 7.816-9.162.539-.539 1.347-.809 1.886-1.078v.269c0 .27-.269.27-.269.539-.27.539-.539.809-.809 1.348-.539.808-.808 1.617-1.078 2.425 0 .27.27.27.27 0 .269-.808.808-1.617 1.078-2.425.269-.27.539-.809.808-1.078 0-.27.27-.27.27-.539s.269-.539.269-.809c.809-.539 1.886-.808 2.964-1.347 1.078-.27 2.426-.539 3.504-.809 1.078 0 2.156 0 2.964-.269 0 0 0-.539-.269-.27zm8.624-15.9c-1.617.539-2.964.808-4.581 1.078-1.078.269-2.156.808-2.965 1.347-.269 0-.539 0-.539.27-2.156 1.347-4.042 3.233-5.928 5.12-.27.269 0 .269.269.269 1.617-1.617 3.503-3.234 5.39-4.581 0 .269-.27.539-.27.539-.269.539-.539.808-.539 1.347-.539.809-.808 1.617-1.078 2.695 0 .27.27.27.27 0 .539-.808 1.078-1.617 1.347-2.695.27-.539.539-.808.539-1.347.27-.27.27-.809.539-1.078 1.078-.539 2.156-1.078 3.234-1.347 1.348-.539 2.965-.539 4.312-1.348.27 0 .27-.269 0-.269z"/></g><g clip-path="url(#B)"><path d="M232.032 175.979c0-1.454-.828-2.804-2.173-3.531-1.448-.83-3-.727-4.551-.311s-3.104 1.246-4.449 2.181-2.586 2.077-3.517 3.427c-1.034 1.35-1.862 3.011-2.069 4.776 0 .416-.103.727 0 1.143v.104c0 .311.104.623.104.83.103.312.517.104.517-.103.207-1.143 1.345-1.766 2.483-1.974 1.241-.311 2.482-.311 3.724-.311 2.793 0 6 0 8.069-2.077 1.241-1.142 1.862-2.596 1.862-4.154z" class="E"/><path d="M215.377 183.663a9.95 9.95 0 0 1 1.241-3.323c1.448-2.908 3.931-5.296 6.828-6.854 1.551-.831 3.413-1.454 5.275-1.557-1.138-.312-2.275-.104-3.31.207-1.552.416-3.103 1.246-4.448 2.181s-2.586 2.077-3.517 3.427c-1.035 1.35-1.863 3.011-2.069 4.777v1.142z" class="B"/><path d="M232.032 175.979c0-.83-.31-1.557-.621-2.18v.623c-.103 2.596-2.483 4.465-4.758 5.296-2.69.934-5.587.623-8.38 1.558-.207.103-.31-.208-.207-.312 1.242-1.765 2.587-3.427 4.138-4.777-1.345.831-2.689 1.662-3.827 2.804-1.449 1.454-2.483 3.219-2.897 5.296 0 .104 0 .312.104.415.103.312.517.104.517-.103.207-1.143 1.345-1.766 2.483-1.973 1.241-.312 2.482-.312 3.724-.312 2.793 0 6 0 8.069-2.077 1.034-1.246 1.655-2.7 1.655-4.258z" class="F"/><path d="M200.273 181.275c1.862 2.285 5.069 2.7 7.759 2.908 1.241.104 2.483.311 3.621.727 1.034.415 2.069 1.038 2.172 2.284 0 .208.414.519.517.208s.207-.519.207-.831c.104-.415.104-.727.104-1.142 0-1.766-.621-3.427-1.552-4.985-.828-1.454-1.862-2.7-3.104-3.738s-2.586-2.077-4.138-2.7c-1.448-.623-3-.831-4.551-.208-1.345.623-2.276 1.869-2.483 3.323 0 1.35.517 3.012 1.448 4.154z" class="C"/><path d="M206.48 175.252c-.414-.104-.827-.104-1.241-.104 1.138.312 2.069.935 3 1.662.724.519 1.448 1.142 2.069 1.765-.207-.311-.31-.519-.517-.727-.931-1.246-1.966-2.18-3.311-2.596z" class="I"/><path d="M214.86 185.324c0-1.765-.621-3.427-1.552-4.984-.828-1.454-1.862-2.7-3.104-3.739-.931-.83-1.862-1.557-2.896-2.077.724.416 1.448.935 2.172 1.558.518.519.828 1.039 1.242 1.662s.724 1.246 1.034 1.869c.207.519.517 1.246.414 1.765-.103.416-.414.831-.931.727-.621-.104-1.138-.519-1.655-.831l-1.862-1.142c-.724-.519-1.552-.831-2.38-1.142l-1.862-.623c.414.207.931.415 1.345.727.828.415 1.655.934 2.379 1.453.725.416 1.449.935 2.173 1.454a4.44 4.44 0 0 1 1.448 1.662c.104.104 0 .311-.207.311-1.448-.103-2.896-.311-4.345-.623-1.241-.311-2.482-.623-3.62-1.246-.828-.415-1.449-1.038-2.069-1.661-.517-.52-1.138-1.247-1.552-2.077.103 1.038.517 2.077 1.241 2.907 1.862 2.285 5.069 2.7 7.759 2.908 1.241.104 2.483.312 3.621.727 1.034.415 2.069 1.038 2.172 2.285 0 .207.414.519.517.207s.207-.519.207-.83c.207-.52.311-.831.311-1.247z" class="F"/><path d="M221.583 157.39c-1.965 3.843-3.517 7.893-4.758 12.047-1.138 4.153-1.966 8.307-2.69 12.565a261.53 261.53 0 0 0-1.552 12.565c-.413 4.258-.931 8.62-1.137 12.877-.104 2.389-.104 4.777-.104 7.166 0 .934.104 1.765.207 2.596l2.069.104c0-.831-.103-1.766-.103-2.596 0-2.181 0-4.258.103-6.439.207-4.05.724-8.204 1.138-12.461.931-8.308 1.965-16.616 3.724-24.82 1.035-4.569 2.172-9.138 3.828-13.5.207-.519-.621-.415-.725-.104z" class="G"/><path d="M212.48 209.314c-.103-7.166.207-14.227 1.035-21.393.31-3.011.724-6.023 1.241-9.034-.207 1.038-.414 2.18-.517 3.219-.621 4.154-1.138 8.411-1.552 12.565-.414 4.258-.931 8.62-1.138 12.877-.103 2.389-.103 4.777-.103 7.166 0 .934.103 1.765.207 2.596l1.241.104c-.207-2.7-.31-5.4-.414-8.1z" class="C"/><path d="M221.584 157.39c-1.449 3.012-2.793 6.127-3.828 9.243.103 0 .103-.104.207-.104.207-.104.31 0 .31.208 0 .934-.31 1.765-.62 2.596-.311.934-.414 1.869-.621 2.804a60.56 60.56 0 0 0-.931 6.023c-1.035 7.269-2.173 14.642-2.276 22.015 0 1.869 0 3.739.103 5.608.207-3.323.621-6.646.931-9.969.932-8.308 1.966-16.616 3.725-24.82 1.034-4.569 2.172-9.138 3.827-13.5.104-.519-.724-.415-.827-.104z" class="B"/><path d="M252.514 143.891c-.413-1.142-1.862-1.35-2.896-1.454-1.448-.104-2.897.104-4.242.312-.103 0-.206 0-.31.104.207-.208.31-.416.414-.624 0-.103 0-.207-.104-.207-2.793-.519-5.172.934-7.655 1.973.414-.312.828-.727 1.035-1.246.103-.104-.104-.208-.207-.208-2.379.312-4.345 1.558-6.207 2.908.207-.312.31-.623.31-.935 0-.104-.103-.208-.103-.208-1.242-.207-2.483.52-3.414 1.247-1.138.83-2.172 1.973-3 3.219l-.103.104c.103-.312.103-.52.103-.831 0-.104-.103-.104-.207-.104-.724.104-1.345.727-1.862 1.246-.621.727-1.138 1.662-1.552 2.492-.103.312-.31.624-.413.831-.104-.207-.104-.415-.311-.623-.103-.104-.207-.104-.31-.104-.828.416-1.241 1.246-1.655 2.077s-.621 1.766-.828 2.7c-.414 1.973-.621 4.154-.414 6.127.104 1.142.311 2.285.931 3.219.104.208.311 0 .414-.103.414-.624.931-1.247 1.552-1.766.517-.519 1.034-.934 1.655-1.246 1.035-.623 2.276-.831 3.31-1.454.518-.311 1.035-.623 1.449-1.142 0-.104.103-.104 0-.208-.104-.208-.311-.311-.518-.415l2.276-.312c1.138-.207 2.38-.623 3.207-1.454.104-.103.104-.207 0-.311-.31-.208-.724-.416-1.138-.519.414 0 .931-.104 1.345-.208.931-.208 1.862-.415 2.379-1.35v-.208c-.31-.311-.62-.519-1.034-.727l2.69-.415c1.138-.312 2.482-.623 3.31-1.454.103-.104.103-.208 0-.311-.414-.312-.828-.52-1.345-.624l2.793-.519c1.242-.311 2.483-.727 3.517-1.454.104-.103.104-.207 0-.311-.31-.312-.724-.519-1.137-.831 1.965-.519 4.137-.623 5.689-2.077.104-.104.104-.208 0-.311-.517-.312-1.138-.52-1.758-.623 1.551-.416 3-.624 4.344-1.454 0 0 .104-.104 0-.208z" class="D"/><path d="M252.411 143.684c-3.104 0-6.207.311-9.207 1.142-5.793 1.454-11.276 4.361-15.724 8.411-2.173 2.077-4.242 4.258-5.897 6.854-1.034 1.766-1.965 3.739-2.276 5.816 0 0 0 .104.104.104.103.207.31 0 .414-.104.413-.623.931-1.246 1.551-1.766.518-.519 1.035-.934 1.656-1.246 1.034-.623 2.275-.831 3.31-1.454.517-.311 1.034-.623 1.448-1.142 0-.104.104-.104 0-.208-.103-.207-.31-.311-.517-.415l2.276-.312c1.138-.207 2.379-.623 3.207-1.453.103-.104.103-.208 0-.312a3.82 3.82 0 0 0-1.138-.519c.414 0 .931-.104 1.345-.208.931-.208 1.862-.415 2.379-1.35v-.208c-.31-.311-.621-.519-1.035-.727.931-.103 1.862-.207 2.69-.415 1.138-.311 2.483-.623 3.31-1.454.104-.104.104-.207 0-.311-.413-.312-.827-.52-1.344-.623.931-.208 1.862-.312 2.793-.52 1.241-.311 2.482-.727 3.517-1.453.103-.104.103-.208 0-.312-.31-.312-.724-.519-1.138-.831 1.965-.519 4.138-.623 5.69-2.077.103-.104.103-.207 0-.311-.518-.312-1.138-.519-1.759-.623 1.552-.416 3-.623 4.345-1.454.103-.104.207-.208.103-.312 0-.104 0-.207-.103-.207z" class="B"/><path d="M248.377 145.656c-.311.208-.621.416-.931.519l-6 3.116-5.794 3.011c-3.62 2.077-7.138 4.362-10.965 6.127-.207.104-.414-.104-.31-.311.413-1.246 7.241-7.477 9.206-8.931 1.035-.727.414-1.246-.103-.935-5.172 2.804-9.517 7.166-12.517 12.254-.104.208-.414.104-.414-.104 0-1.142.207-2.284.414-3.53a19.43 19.43 0 0 1 1.758-5.4c0 .103-.103.207-.103.207-.104.312-.31.623-.414.831-.103-.208-.103-.415-.31-.623-.104-.104-.207-.104-.311-.104-.827.416-1.241 1.246-1.655 2.077s-.62 1.765-.827 2.7c-.414 1.973-.621 4.154-.414 6.127.103 1.142.31 2.285.931 3.219.103.208.31 0 .414-.104a8.25 8.25 0 0 1 1.551-1.765c.518-.519 1.035-.935 1.656-1.246 1.034-.623 2.275-.831 3.31-1.454.517-.312 1.034-.623 1.448-1.142 0-.104.104-.104 0-.208-.103-.208-.31-.312-.517-.415l2.276-.312c1.138-.208 2.379-.623 3.207-1.454.103-.104.103-.207 0-.311a3.82 3.82 0 0 0-1.138-.52c.414 0 .931-.103 1.345-.207.931-.208 1.862-.416 2.379-1.35v-.208c-.31-.311-.621-.519-1.035-.727.931-.104 1.863-.208 2.69-.415 1.138-.312 2.483-.623 3.31-1.454.104-.104.104-.208 0-.312-.413-.311-.827-.519-1.344-.623.931-.207 1.862-.311 2.793-.519 1.241-.311 2.482-.727 3.517-1.454.103-.104.103-.207 0-.311-.31-.312-.724-.52-1.138-.831 1.966-.519 4.138-.623 5.69-2.077.103-.104.103-.208 0-.312-.724-.207-1.242-.311-1.655-.519z" class="H J"/><g class="D"><path d="M221.066 153.133l.104 4.673c.931-3.012 1.241-6.542 3.724-8.723.103-.104.414 0 .414.208l-.414 2.492c.103-.208.207-.312.31-.519 1.345-2.389 2.897-4.881 5.586-6.023.207-.104.414.103.311.311-.104.519-.207 1.142-.414 1.765.517-.623 1.241-1.142 1.862-1.661 1.138-.831 2.483-1.454 3.828-2.077.206-.104.413.104.31.312l-.621 1.246 3.104-1.454c1.345-.519 2.689-.935 4.034-1.142.207 0 .414.207.207.415-.414.415-.724.831-1.034 1.246 1.448-.519 3-.831 4.551-1.246l3.207-.519c-.207 0-.31 0-.517-.104-1.448-.104-2.897.104-4.241.311-.104 0-.207 0-.311.104.207-.207.311-.415.414-.623 0-.104 0-.208-.103-.208-2.794-.415-5.173 1.039-7.656 2.077.414-.311.828-.727 1.035-1.246.103-.104-.104-.207-.207-.207-2.379.311-4.345 1.557-6.207 2.907.207-.311.31-.623.31-.934 0-.104-.103-.208-.103-.208-1.241-.208-2.483.519-3.414 1.246-1.138.831-2.172 1.973-3 3.219l-.103.104c.103-.311.103-.519.103-.831 0-.103-.103-.103-.207-.103-.724.103-1.345.726-1.862 1.246-.62.727-1.138 1.661-1.551 2.492-.104.312-.311.623-.414.831-.104-.208-.104-.416-.311-.623-.103-.104-.207-.104-.31-.104-.828.415-1.241 1.246-1.655 2.077s-.621 1.765-.828 2.7c-.207.727-.31 1.454-.414 2.181 0-.104 0-.208.104-.416.414-1.869.828-3.842 1.965-5.4.104 0 .414 0 .414.208z"/><path d="M192.721 143.891c1.035.831 2.38 1.142 3.621 1.662-.517.103-1.034.207-1.552.415-.103 0-.103.208 0 .312 1.138 1.453 3.104 1.661 4.656 2.284-.311.208-.725.312-1.035.519-.103.104-.103.208 0 .208.828.831 1.862 1.246 2.897 1.558.724.311 1.551.519 2.275.727-.413.104-.827.207-1.241.415-.103.104-.103.208 0 .312.621.83 1.759 1.246 2.69 1.557.724.312 1.551.416 2.276.623-.311.104-.621.312-.931.52 0 0-.104.103-.104.207.31.727 1.138 1.143 1.862 1.35l1.138.312-1.034.311c-.104.104-.104.208 0 .312.62.831 1.655 1.246 2.586 1.558.621.207 1.241.415 1.862.519-.207.104-.31.208-.517.311v.208c.31.415.62.831 1.138 1.039.827.519 1.862.934 2.689 1.557.518.312.931.831 1.345 1.246.414.52.828 1.039 1.138 1.662.103.104.31.208.31.104.621-.831.828-1.766 1.035-2.7.414-1.766.414-3.531.207-5.296l-.414-2.389c-.207-.727-.517-1.454-1.241-1.869h-.207c-.104.104-.207.311-.311.519l-.31-.831c-.31-.83-.621-1.557-1.138-2.284-.31-.519-.828-1.143-1.448-1.246-.104 0-.207 0-.207.103v.727s0-.103-.104-.103c-.413-1.143-1.137-2.181-2.069-3.012-.724-.727-1.758-1.454-2.896-1.35-.104 0-.104 0-.104.104 0 .311.104.623.207.831-1.551-1.247-3.103-2.597-5.069-3.116-.103 0-.206 0-.206.208.103.415.413.831.827 1.142-2.069-1.142-3.931-2.596-6.414-2.388-.103 0-.103.104-.103.207 0 .208.207.416.31.52-.103 0-.207 0-.31-.104-1.138-.312-2.379-.623-3.621-.623-.931 0-2.069.104-2.586.934 0 .104 0 .208.103.208z"/></g><path d="M192.825 143.475a32.51 32.51 0 0 1 7.758 1.869c4.863 1.869 9.207 4.777 12.725 8.723 1.758 1.973 3.207 4.05 4.344 6.438.725 1.662 1.345 3.427 1.345 5.193 0 0 0 .104-.103.104-.104.103-.311 0-.311-.104-.31-.623-.724-1.143-1.137-1.662-.414-.415-.828-.934-1.345-1.246-.828-.623-1.862-.935-2.69-1.558-.414-.311-.828-.623-1.138-1.038v-.208c.104-.208.31-.311.517-.311-.62-.104-1.241-.312-1.862-.52-.931-.311-1.965-.727-2.586-1.557-.103-.104-.103-.208 0-.312.31-.208.724-.311 1.035-.311-.414-.104-.725-.208-1.138-.312-.724-.208-1.552-.623-1.862-1.35 0-.104 0-.104.103-.208.31-.207.621-.415.931-.519l-2.276-.623c-.931-.311-2.069-.727-2.689-1.558-.104-.103-.104-.207 0-.311.413-.208.827-.312 1.241-.416-.828-.311-1.655-.519-2.379-.726-1.035-.312-2.069-.831-2.897-1.558-.103-.104-.103-.208 0-.312.31-.207.724-.415 1.035-.519-1.552-.727-3.414-.935-4.656-2.388 0-.104-.103-.208 0-.312.518-.208 1.035-.311 1.552-.415-1.241-.312-2.586-.727-3.621-1.558-.103 0-.103-.104-.103-.208l.207-.207z" class="B"/><g class="C"><path d="M192.825 143.372l2.896 1.973c-1.034-.415-2.069-.727-3-1.454-.103 0-.103-.104-.103-.207.103-.104.207-.208.207-.312z"/><path d="M196.135 145.656c.207.104.414.312.724.416l4.863 3.219 4.655 3.115c2.896 2.077 5.689 4.466 8.896 6.231.104.104.311 0 .311-.207-.207-1.143-5.483-7.062-7.035-8.516-.827-.727-.207-1.142.207-.831 4.138 2.908 7.448 7.062 9.621 11.631.103.208.413.104.413-.104a14.57 14.57 0 0 0 0-3.011c-.103-1.558-.413-3.219-.931-4.777 0 .104.104.104.104.208.103.311.207.519.31.83.104-.207.207-.311.311-.519.103-.104.206-.104.206 0 .621.415 1.035 1.142 1.242 1.869s.31 1.558.414 2.389c.207 1.765.103 3.531-.207 5.296-.207.935-.517 1.869-1.035 2.7-.103.104-.31 0-.31-.104-.31-.623-.724-1.142-1.138-1.661-.414-.416-.828-.935-1.345-1.247-.827-.623-1.862-.934-2.689-1.557-.414-.312-.828-.623-1.138-1.039v-.207c.103-.208.31-.312.517-.312-.621-.104-1.242-.312-1.862-.519-.931-.312-1.966-.727-2.586-1.558-.104-.104-.104-.208 0-.311.31-.208.724-.312 1.034-.312-.414-.104-.724-.208-1.138-.312-.724-.207-1.552-.623-1.862-1.35 0-.103 0-.103.103-.207.311-.208.621-.416.932-.519l-2.276-.624c-.931-.311-2.069-.726-2.69-1.557-.103-.104-.103-.208 0-.312.414-.207.828-.311 1.241-.415-1.138-.104-1.965-.312-2.689-.519-1.035-.312-2.069-.831-2.897-1.558-.103-.104-.103-.208 0-.312.311-.207.724-.415 1.035-.519-1.552-.727-3.414-.934-4.656-2.388 0-.104-.103-.208 0-.312.414-.104.828-.208 1.345-.208z" class="H"/></g><path d="M218.687 154.587c-.207 1.35-.207 2.7-.517 3.946-.517-2.7-.414-5.712-2.38-7.892-.103-.104-.413 0-.413.104 0 .726.103 1.453.207 2.18-.104-.207-.104-.311-.207-.519-.931-2.181-2.069-4.465-4.242-5.711-.207-.104-.31 0-.31.207 0 .519.103 1.143.207 1.662-.414-.623-.931-1.143-1.448-1.558-.931-.831-1.966-1.454-3.104-2.077-.103-.104-.414 0-.31.208.103.415.207.727.414 1.142-.725-.623-1.656-1.142-2.483-1.558-1.035-.623-2.173-1.038-3.414-1.35-.207 0-.31.208-.207.312.31.415.517.727.724 1.142-1.241-.623-2.482-1.038-3.827-1.454l-2.587-.726h.414c1.242.103 2.483.415 3.621.726.103 0 .207.104.31.104-.103-.104-.31-.311-.31-.519 0-.104 0-.208.103-.208 2.483-.207 4.345 1.247 6.414 2.389-.31-.312-.62-.727-.827-1.142 0-.104.103-.208.207-.208 1.965.519 3.517 1.765 5.068 3.115-.103-.311-.206-.519-.206-.831 0-.103.103-.103.103-.103 1.138 0 2.069.727 2.897 1.35.931.83 1.655 1.869 2.275 3.011 0 0 0 .104.104.104v-.727c0-.104.103-.104.207-.104.62.208 1.138.727 1.448 1.246.414.727.828 1.454 1.138 2.285l.31.831c.104-.208.207-.312.311-.519.103-.104.207-.104.207 0 .62.415 1.034 1.142 1.241 1.869s.31 1.557.414 2.388c.103.623.103 1.246.103 1.973v-.311c-.207-1.662-.31-3.427-1.241-4.777-.104-.208-.414-.208-.414 0z" class="D"/><g class="K"><use xlink:href="#E"/><use xlink:href="#E"/></g><use xlink:href="#E" class="L"/><use xlink:href="#E" class="B"/><path d="M214.756 228.006l-.518-5.192c-.207-.831-.207-1.766-.31-2.7l-.31-3.219-.518.103v1.35c0 2.7.104 5.4.414 7.997.207 2.7.621 5.296 1.138 7.996l.621 3.634.621 3.635.31 1.661c.103-3.426-.828-9.657-1.448-15.265z" class="E"/><g class="G"><path d="M214.445 232.887c-.31.623-.31 1.35-.31 1.973 0 .727.207 1.454.414 2.077.103.311.207.623.414.934-.207.208-.104.623-.104.831 0 .312.104.727.207 1.039.207.519.517 1.142.828 1.557.103.104.31.208.413.312.104 0 .104.104.207.104-.31-.312-.517-.727-.724-1.039-.31-.623-.517-1.246-.621-1.869v-.519c.518.934 1.242 1.661 1.966 2.388.31.312.724.519 1.034.727.207.104.518.312.725.415-.311-.207-.621-.519-.931-.83l-.207-.208c-.104-.104-.207-.104-.207-.208-.621-.519-1.138-1.038-1.552-1.661-.828-1.142-1.345-2.389-1.448-3.843-.104-.726-.104-1.453 0-2.18 0 0 0-.104-.104 0zm2.38.518c-.414-.415-.931-.726-1.345-1.142a3.69 3.69 0 0 1-1.138-1.661c0-.104-.104 0-.104.103l.311.935c.103.312.31.519.517.727l1.345 1.246c.414.312.724.623 1.034.935 0 .311.104.727.207 1.038.104.416.311.727.414 1.039.31.727.621 1.557 1.241 2.077-.103-.104-.103-.312-.206-.416-.414-.519-.725-1.142-.932-1.765-.103-.312-.31-.727-.413-1.039-.104-.207-.104-.415-.207-.623v.104c.414.416.827.935 1.138 1.454.207.312.414.623.724.935l.621.623-.931-1.558-1.035-1.558c-.31-.623-.724-1.038-1.241-1.454z"/><path d="M217.238 238.495c-.207-.312-.517-.624-.724-1.039l-.31-.311c-.207-.208-.414-.416-.621-.52s-.31-.207-.414-.207c-.103-.104-.207-.208-.414-.208-.103 0-.103.208-.103.208.103.207.414.415.621.519s.517.311.724.519c.517.312.827.623 1.241 1.039zm-4.034-12.462c-.104.104-.104.208-.207.416-.104.104-.104.311-.207.415-.103.312-.31.519-.414.831-.31.519-.62 1.038-.827 1.662-.207.207-.311.519-.311.83 0 0-.103 0-.103.104-.104.104-.207.104-.207.208-.207.104-.31.208-.517.415-.311.312-.518.623-.518 1.039 0 .104.104.104.104 0 .103-.416.31-.727.621-.935.103-.104.31-.208.517-.311l.103-.104c-.103.519-.207 1.142-.207 1.661 0 .416 0 .831.104 1.246.103.104.103.208.207.416-.104-.935-.104-1.973.103-2.908.311-1.038.828-1.973 1.345-3.011.207-.312.31-.624.517-.935.104-.208.104-.312.207-.519s.104-.312.104-.52c-.311 0-.414-.103-.414 0zm3.724 3.012l-.31-1.142c-.104-.208-.104-.416-.207-.624v-.207l.207.207c.724.831 1.448 1.662 1.965 2.597.31.519.517 1.038.828 1.557 0-.207-.104-.519-.104-.727-.827-1.765-1.965-3.427-3.517-4.777a3.17 3.17 0 0 0-.724-.519c-.31-.207-.517-.415-.828-.519-.103-.104-.207.208-.103.312.207.207.517.311.724.415s.414.311.621.519.517.416.724.623c0 .208 0 .416.103.623s.104.416.207.727c.104.416.207.831.414 1.246.207.52.414 1.247.828 1.662.206.104.517.208.724.311v-.103c-1.035-.52-1.345-1.454-1.552-2.181zm-1.241.104s0-.104-.103-.104c-.207-.208-.311-.416-.518-.623a5.98 5.98 0 0 1-1.138-1.143s-.103.104 0 .208c.104.208.311.415.518.623l.62.623 1.138 1.142h.104c-.311-.311-.518-.519-.621-.726z"/><path d="M219.411 228.213l-.104-.104-.206-.208c-.207-.207-.518-.415-.725-.623-.31-.207-.517-.311-.827-.415-.104 0-.311-.104-.414-.104s-.31-.104-.517 0c-.104 0-.104.208 0 .208.103.104.31 0 .414.104.103 0 .31.103.413.103.311.104.621.208.828.416.517.311.931.727 1.345 1.142-.104-.208-.207-.311-.207-.519zm.827 8.309c-.206-.208-.413-.312-.62-.519-.207-.104-.311-.208-.517-.312-.104 0-.207-.104-.207-.104-.104 0-.207-.104-.311-.104s-.103.104 0 .104a.32.32 0 0 0 .207.104c.104 0 .207.104.311.104.206.104.31.208.517.311.31.208.517.312.724.52l-.104-.104zm-1.965-5.919c-.103-.104-.103-.312-.207-.415l-.207-.208c-.103-.104-.206-.208-.413-.208-.104 0-.104-.104-.207-.104s-.104-.104-.207-.104-.104.104-.104.208.104.104.207.104.104.104.207.104c.104.104.207.104.414.208.103.103.31.207.517.415zm-3.207-2.182c-.103.208-.103.519-.103.623 0 .208.103.416.103.623l.311.623.31.312v-.104c-.31-.311-.414-.623-.517-1.038 0-.208-.104-.416-.104-.52v-.415c.104-.104.104-.104 0-.104zm-1.551 3.946c.103-.207.206-.415.206-.623.104-.207.104-.415.104-.623 0-.103-.207 0-.207 0-.103.208-.103.416-.207.623s-.103.416-.207.623c-.207.416-.31.831-.517 1.143v.104c-.31.311-.724.415-1.138.519s-.828.104-1.138.208c-.931.311-1.759.83-2.483 1.453-.31.416-.62.831-.827 1.35 0 .104.103 0 .103 0 .311-.934 1.138-1.661 1.966-2.077.413-.207.827-.415 1.241-.519s.828-.104 1.138-.207.621-.104.828-.312l-.621 1.35c-.207.104-.414.415-.621.519-.207.208-.414.312-.62.52-.414.311-.725.726-1.035 1.246-.414.83-.828 1.869-1.034 2.907 0 .104.103 0 .103 0l.724-1.869v.312.623c0 .415 0 .934.104 1.35h.103c0-.519.103-.935.103-1.454v-.727-.312-.207c.104-.208.311-.416.414-.623.311-.416.621-.831 1.035-1.143.207-.207.414-.311.62-.519l.207-.208c0 .104 0 .104-.103.208-.414 1.454-.621 2.908-.621 4.362-.31.311-.414.727-.414 1.142-.103.519-.206 1.038-.206 1.558-.104 1.35.206 2.7.724 3.842 0 .104.103 0 .103-.104-.517-1.142-.724-2.492-.621-3.738 0-.52.104-1.039.207-1.558.104-.312.104-.623.207-.831v.416c0 .934.207 1.973.414 2.907 0 .104.103 0 .103-.104-.31-1.142-.413-2.388-.413-3.53v-.104c0-.519.103-1.039.103-1.454l.31-1.662c0 .208.104.416.104.52.103.311.103.623.207.934.103.623.31 1.143.517 1.766v.104c.207.623.31 1.246.414 1.973.103.623.207 1.246.414 1.869 0 .104.103 0 .103-.104-.207-.623-.207-1.35-.31-1.973-.104-.415-.104-.831-.207-1.246.517.831 1.034 1.557 1.345 2.492a8.82 8.82 0 0 1 .517 1.765c.103.624.31 1.247.517 1.766 0 .104.104 0 .104-.104-.207-.623-.207-1.246-.414-1.869-.104-.623-.311-1.246-.517-1.766-.414-1.038-1.035-1.973-1.759-2.907-.207-.623-.31-1.246-.517-1.87-.104-.311-.104-.623-.207-1.038 0-.208-.104-.312-.104-.519s0-.312-.103-.519c0-.104 0-.208.103-.312.104-.415.207-.727.414-1.039v.104c0 .104.104.104.104.208.103.104.103.208.206.312.104.207.207.415.311.727 0 .103.103 0 .103-.104-.103-.208-.207-.52-.31-.727-.104-.104-.104-.208-.207-.312 0-.104-.103-.104-.103-.208s-.104-.103-.104-.207l.517-1.142c.311-.416.518-.831.725-1.351zm10.034 6.855c-.311-.415-.517-.935-.828-1.35l-.931-1.246c-.724-.831-1.655-1.454-2.69-1.973l-.827-.312c-.104 0-.31-.104-.414-.208s-.207-.103-.414-.207c-.103 0-.207.104-.207.207.104.208.311.312.518.416s.413.104.62.208c.621.207 1.138.519 1.656.83.413.208.724.52 1.034.831v.104c.103 1.038.207 2.077.724 3.115.414.831 1.138 1.662 1.655 2.389 0 0 .104 0 .104-.104l-1.449-2.492c-.206-.52-.413-.935-.517-1.454-.103-.416-.103-.831-.207-1.246.311.311.621.727.828 1.038l1.345 1.454c-.104.104 0 0 0 0zm-4.345 5.607c-.207-.312-.517-.623-.724-.935l-.414-.415c-.103-.104-.207-.312-.31-.415 0-.208-.104-.416-.104-.727s-.103-.52-.103-.831 0-.623-.104-.935c0-.104-.207 0-.207.104v.935c0 .311.104.623.104.934.103.52.207 1.143.414 1.662a8.8 8.8 0 0 0 1.551 3.115s.104 0 .104-.104c-.621-.934-1.035-1.973-1.345-3.115 0-.104 0-.208-.103-.311a1.43 1.43 0 0 1 .31.415c.31.311.621.623.828.935 0-.104.103-.208.103-.312z"/><path d="M226.445 238.286c-1.034-.934-1.965-1.973-3.207-2.596-.62-.311-1.241-.415-1.862-.623-.31-.104-.724-.104-1.034-.208h-.828c-.103 0-.207.208 0 .208h.828c.31 0 .62.104.931.208.62.104 1.241.311 1.862.623 1.241.623 2.172 1.558 3.207 2.388 0 .208.103.104.103 0zm-2.896-6.438c-.414-.415-.931-.727-1.448-1.038l-.931-.312c-.207 0-.311-.104-.517-.104s-.311-.104-.518-.104c-.207-.207-.413-.415-.62-.519s-.414-.311-.518-.415c-.207-.104-.413-.312-.62-.416-.104 0-.311.104-.207.208.103.208.31.312.517.416s.414.311.517.415c.414.311.828.623 1.242 1.038l2.069 2.181c.103.104.207-.104.207-.104-.311-.415-.621-.83-1.035-1.142-.31-.415-.724-.727-1.034-1.142l-.104-.104c.104 0 .207 0 .414.104.31.104.621.104.931.311.517.208 1.034.623 1.552.935 0 0 .207-.208.103-.208zm-13.862 5.505c-.311.207-.517.311-.724.519-.311.207-.621.415-.828.623-.517.415-.931.831-1.241 1.35-.724 1.038-1.035 2.181-1.449 3.323 0 .104.104 0 .104 0 .103-.519.31-.935.517-1.454 0 .104.104.312.104.415.103.416.103.831.206 1.247.104.727 0 1.557 0 2.284 0 .104.104 0 .104 0l.103-2.284c0-.416 0-.727-.103-1.143 0-.104-.104-.311-.104-.415 0-.208 0-.312-.103-.519.207-.52.517-.935.828-1.454a8.25 8.25 0 0 1 1.344-1.35l.828-.519c.103-.104.31-.312.414-.623.103.103.103 0 0 0zm.827 6.438c0-.104-.103-.104-.207 0-.206.415-.206.935-.31 1.35l-.31 1.454c-.104 1.038 0 1.973.31 2.908 0 .103.104 0 .104-.104-.414-1.87 0-3.739.413-5.608zm4.035 3.427c0-.831.207-1.765.31-2.596 0-.104-.207-.104-.207 0-.207.831-.31 1.765-.31 2.7s.207 1.765.621 2.596c0 .104.103 0 .103-.104-.31-.831-.517-1.661-.517-2.596zm7.448-.935l-1.965-2.492c-.311-.312-.725-.623-1.138-.935s-.931-.519-1.345-.831c-.104-.103-.207.104-.207.208.31.312.828.519 1.241.727.518.208.828.623 1.242.935.724.727 1.241 1.661 1.965 2.388.207.208.311.104.207 0zm2.483-1.453a8.31 8.31 0 0 1-1.552-2.181c-.207-.415-.31-.831-.414-1.246s-.103-.935-.31-1.35c0-.104-.103 0-.103 0-.104.415 0 .935.103 1.454.104.415.207.934.517 1.35.414.831 1.035 1.558 1.656 2.181 0-.104.103-.208.103-.208z"/><path d="M228.618 238.183l-2.586-1.454c-.414-.208-.932-.415-1.345-.519-.414-.208-.931-.312-1.345-.312-.104 0-.31.208-.104.312.518.104.931.207 1.345.415s.931.312 1.345.519l2.483 1.35c.207-.103.31-.207.207-.311zm-21.621 1.246c-.517.312-1.241.519-1.758.935-.621.415-1.035.83-1.552 1.35-.931 1.142-1.655 2.388-2.172 3.738 0 .104.103.104.103 0 .414-.935.828-1.765 1.448-2.596 0 .208 0 .519.104.727 0 .311 0 .623-.104.934-.103.624-.207 1.143-.207 1.766 0 .104.104 0 .104-.104 0-.623.207-1.246.31-1.869.104-.312.104-.623.104-.831 0-.312-.104-.623-.104-.935.207-.311.414-.519.724-.83a6.3 6.3 0 0 1 1.552-1.35c.517-.312 1.242-.416 1.655-.831 0 0-.103-.208-.207-.104zm1.345-4.154c-.414.104-1.034.104-1.448.104l-1.242.311c-.724.312-1.344.623-1.965 1.143-1.242.934-2.276 2.18-2.897 3.53 0 .104.104.104.104 0 .62-1.35 1.758-2.596 3-3.53.207-.208.517-.312.724-.416v.104c0 .104-.104.104-.104.208-.103.207-.206.311-.31.519-.207.312-.31.623-.414.935 0 .103.104.103.104 0 .103-.312.31-.623.414-.935.103-.104.206-.312.31-.415 0-.104.103-.104.103-.208s.104-.208.104-.312c.31-.207.724-.311 1.138-.519l1.345-.311c.413 0 .827 0 1.137-.104 0 0 0-.208-.103-.104zm3.311-6.127c-.621.208-1.138.312-1.759.416-.414.103-.828.311-1.138.519-.103 0-.207 0-.207.104-.827.519-1.552 1.246-2.276 1.973-.103.104 0 .104.104.104a16.85 16.85 0 0 1 2.069-1.766c0 .104-.104.208-.104.208-.103.208-.207.311-.207.519-.207.312-.31.623-.413 1.039 0 .103.103.103.103 0 .207-.312.414-.623.517-1.039.104-.208.207-.311.207-.519.104-.104.104-.312.207-.416.414-.207.828-.415 1.241-.519.518-.207 1.138-.207 1.656-.519.103 0 .103-.104 0-.104z"/></g></g></g><g clip-path="url(#C)"><path d="M104.93 195.877c0-1.063-.607-2.051-1.593-2.583-1.062-.607-2.2-.531-3.338-.228s-2.276.912-3.262 1.596-1.897 1.519-2.579 2.506c-.759.988-1.366 2.203-1.517 3.495 0 .303-.076.531 0 .835v.076c0 .228.076.456.076.608.076.228.379.076.379-.076.152-.836.986-1.291 1.821-1.443.91-.228 1.821-.228 2.731-.228 2.048 0 4.4 0 5.917-1.519.911-.836 1.366-1.9 1.366-3.039z" class="E"/><path d="M92.716 201.497a7.29 7.29 0 0 1 .91-2.431c1.062-2.127 2.883-3.874 5.007-5.013 1.138-.608 2.504-1.064 3.869-1.139-.834-.228-1.669-.076-2.428.151-1.138.304-2.275.912-3.262 1.596s-1.897 1.519-2.579 2.506c-.759.988-1.366 2.203-1.517 3.495v.835z" class="B"/><path d="M104.93 195.877c0-.607-.228-1.139-.455-1.595v.456c-.076 1.899-1.821 3.266-3.49 3.874-1.972.684-4.097.456-6.145 1.139-.152.076-.228-.151-.152-.227.91-1.292 1.897-2.507 3.034-3.495-.986.608-1.972 1.216-2.807 2.051-1.062 1.064-1.821 2.355-2.124 3.874 0 .076 0 .228.076.304.076.228.379.076.379-.076.152-.835.986-1.291 1.821-1.443.91-.228 1.821-.228 2.731-.228 2.048 0 4.4 0 5.917-1.519.759-.912 1.214-1.975 1.214-3.115z" class="F"/><path d="M81.64 199.751c1.366 1.671 3.717 1.975 5.69 2.127.91.076 1.821.228 2.655.532.759.304 1.517.759 1.593 1.671 0 .152.303.38.379.152s.152-.38.152-.608c.076-.304.076-.532.076-.836 0-1.291-.455-2.506-1.138-3.646-.607-1.063-1.365-1.975-2.276-2.734s-1.897-1.52-3.034-1.975c-1.062-.456-2.2-.608-3.338-.152-.986.456-1.669 1.367-1.821 2.431 0 .987.379 2.202 1.062 3.038z" class="C"/><path d="M86.192 195.345c-.303-.075-.607-.075-.91-.075.835.227 1.517.683 2.2 1.215.531.38 1.062.835 1.517 1.291-.152-.228-.228-.38-.379-.531-.683-.912-1.441-1.596-2.428-1.9z" class="I"/><path d="M92.337 202.713c0-1.291-.455-2.506-1.138-3.646a9.94 9.94 0 0 0-2.276-2.734c-.683-.608-1.366-1.14-2.124-1.52.531.304 1.062.684 1.593 1.14.379.38.607.76.91 1.215s.531.912.759 1.368c.152.379.379.911.303 1.291-.076.304-.303.608-.683.532-.455-.076-.835-.38-1.214-.608l-1.365-.836c-.531-.379-1.138-.607-1.745-.835l-1.366-.456c.303.152.683.304.986.532.607.304 1.214.683 1.745 1.063.531.304 1.062.684 1.593 1.064a3.25 3.25 0 0 1 1.062 1.215c.076.076 0 .228-.152.228a22.98 22.98 0 0 1-3.186-.456c-.91-.228-1.821-.456-2.655-.911-.607-.304-1.062-.76-1.517-1.216-.379-.38-.835-.911-1.138-1.519a3.82 3.82 0 0 0 .91 2.127c1.365 1.671 3.717 1.975 5.69 2.127.91.076 1.821.228 2.655.532.759.303 1.517.759 1.593 1.671 0 .152.303.38.379.152s.152-.38.152-.608c.152-.38.228-.608.228-.912z" class="F"/><path d="M97.268 182.28c-1.441 2.81-2.579 5.773-3.49 8.811-.835 3.039-1.441 6.077-1.972 9.192l-1.138 9.191-.834 9.419-.076 5.242c0 .683.076 1.291.152 1.899l1.517.076-.076-1.899.076-4.71.835-9.115c.683-6.077 1.441-12.154 2.731-18.155.759-3.343 1.593-6.685 2.807-9.875.152-.38-.455-.304-.531-.076z" class="G"/><path d="M90.592 220.261c-.076-5.242.152-10.407.759-15.648a98.75 98.75 0 0 1 .91-6.609c-.152.76-.303 1.595-.379 2.355a189.93 189.93 0 0 0-1.138 9.191c-.303 3.114-.683 6.305-.834 9.419-.076 1.747-.076 3.495-.076 5.242 0 .683.076 1.291.152 1.899l.91.076c-.152-1.975-.228-3.95-.303-5.925z" class="C"/><path d="M97.268 182.28c-1.062 2.203-2.048 4.481-2.807 6.76.076 0 .076-.076.152-.076.152-.076.228 0 .228.152 0 .684-.228 1.292-.455 1.899-.228.684-.303 1.368-.455 2.051-.303 1.444-.531 2.963-.683 4.406-.759 5.317-1.593 10.711-1.669 16.104 0 1.367 0 2.735.076 4.102.152-2.431.455-4.862.683-7.292.683-6.077 1.441-12.154 2.731-18.155.759-3.343 1.593-6.685 2.807-9.875.076-.38-.531-.304-.607-.076z" class="B"/><path d="M119.95 172.405c-.303-.836-1.365-.988-2.124-1.064-1.062-.076-2.124.076-3.11.228-.076 0-.152 0-.228.076.152-.152.228-.304.304-.456 0-.076 0-.151-.076-.151-2.048-.38-3.793.683-5.614 1.443.304-.228.607-.532.759-.912.076-.076-.076-.152-.152-.152-1.745.228-3.186 1.14-4.552 2.127.152-.228.228-.456.228-.683 0-.076-.076-.152-.076-.152-.91-.152-1.821.379-2.503.911-.835.608-1.594 1.443-2.2 2.355l-.076.076c.076-.228.076-.38.076-.608 0-.076-.076-.076-.152-.076-.531.076-.986.532-1.366.912-.455.532-.835 1.215-1.138 1.823-.076.228-.228.456-.303.608-.076-.152-.076-.304-.228-.456-.076-.076-.152-.076-.228-.076-.607.304-.91.911-1.214 1.519s-.455 1.291-.607 1.975c-.303 1.443-.455 3.039-.303 4.482.076.835.228 1.671.683 2.355.076.152.228 0 .303-.076.303-.456.683-.912 1.138-1.292.379-.379.759-.683 1.214-.911.759-.456 1.669-.608 2.427-1.064.379-.228.759-.455 1.062-.835 0-.076.076-.076 0-.152-.076-.152-.227-.228-.379-.304l1.669-.228c.834-.152 1.745-.456 2.352-1.063.075-.076.075-.152 0-.228-.228-.152-.531-.304-.835-.38.304 0 .683-.076.986-.152.683-.152 1.366-.304 1.745-.987v-.152a2.72 2.72 0 0 0-.758-.532l1.972-.304c.834-.228 1.821-.456 2.428-1.063.075-.076.075-.152 0-.228a2.35 2.35 0 0 0-.987-.456l2.049-.38c.91-.228 1.82-.532 2.579-1.063a.14.14 0 0 0 0-.228c-.228-.228-.531-.38-.835-.608 1.442-.38 3.035-.456 4.173-1.519a.14.14 0 0 0 0-.228c-.379-.228-.835-.38-1.29-.456 1.138-.304 2.2-.456 3.186-1.063 0 0 .076-.076 0-.152z" class="D"/><path d="M119.874 172.253c-2.275 0-4.551.228-6.751.836-4.249 1.063-8.269 3.19-11.531 6.153-1.593 1.519-3.111 3.114-4.324 5.013-.759 1.291-1.441 2.735-1.669 4.254 0 0 0 .076.076.076.076.152.228 0 .303-.076a6.02 6.02 0 0 1 1.138-1.291c.379-.38.759-.684 1.214-.912.759-.456 1.669-.608 2.427-1.063.38-.228.759-.456 1.062-.836 0-.076.076-.076 0-.152-.076-.152-.227-.228-.379-.304l1.669-.228c.834-.152 1.745-.455 2.352-1.063a.14.14 0 0 0 0-.228c-.228-.152-.531-.304-.835-.38.304 0 .683-.076.986-.152.683-.152 1.366-.304 1.745-.987v-.152a2.72 2.72 0 0 0-.758-.532c.682-.076 1.365-.152 1.972-.304.834-.228 1.821-.455 2.428-1.063.075-.076.075-.152 0-.228a2.35 2.35 0 0 0-.987-.456c.683-.152 1.366-.228 2.049-.38.91-.228 1.82-.531 2.579-1.063a.14.14 0 0 0 0-.228c-.228-.228-.531-.38-.835-.608 1.442-.379 3.035-.455 4.173-1.519a.14.14 0 0 0 0-.228c-.379-.228-.835-.38-1.29-.456 1.138-.303 2.2-.455 3.186-1.063.076-.076.152-.152.076-.228 0-.076 0-.152-.076-.152z" class="B"/><path d="M119.798 172.101l-2.579 1.443c.91-.228 1.821-.456 2.655-.912.076-.076.152-.152.076-.228 0-.151-.076-.227-.152-.303z" class="C"/><path d="M116.916 173.696c-.227.152-.455.304-.683.38l-4.4 2.279-4.248 2.203-8.041 4.482c-.152.076-.303-.076-.228-.228.303-.912 5.311-5.47 6.752-6.533.759-.532.303-.912-.076-.684-3.793 2.051-6.979 5.242-9.179 8.964-.076.152-.303.076-.303-.076 0-.836.152-1.671.303-2.583.228-1.367.683-2.734 1.29-3.95 0 .076-.076.152-.076.152-.076.228-.228.456-.303.608-.076-.152-.076-.304-.228-.456-.076-.076-.152-.076-.228-.076-.607.304-.91.912-1.214 1.519s-.455 1.292-.607 1.975c-.303 1.444-.455 3.039-.303 4.482.076.836.228 1.671.683 2.355.076.152.228 0 .303-.076.303-.456.683-.912 1.138-1.292.379-.379.759-.683 1.214-.911.759-.456 1.669-.608 2.427-1.064.38-.227.759-.455 1.062-.835 0-.076.076-.076 0-.152-.075-.152-.227-.228-.379-.304l1.669-.228c.835-.152 1.745-.456 2.352-1.063a.14.14 0 0 0 0-.228c-.228-.152-.531-.304-.835-.38.304 0 .683-.076.987-.152.682-.152 1.365-.304 1.744-.987v-.152a2.72 2.72 0 0 0-.758-.532c.682-.076 1.365-.152 1.972-.304.835-.228 1.821-.456 2.428-1.063a.14.14 0 0 0 0-.228c-.304-.228-.607-.38-.986-.456.682-.152 1.365-.228 2.048-.38.91-.228 1.82-.531 2.579-1.063a.14.14 0 0 0 0-.228c-.227-.228-.531-.38-.834-.608 1.441-.38 3.034-.456 4.172-1.519a.14.14 0 0 0 0-.228c-.531-.152-.91-.228-1.214-.38z" class="H J"/><g class="D"><path d="M96.888 179.165l.076 3.419c.683-2.203.91-4.786 2.731-6.381a.21.21 0 0 1 .303.152l-.303 1.823c.076-.152.152-.228.228-.38.986-1.747 2.124-3.57 4.096-4.406.152-.076.304.076.228.228-.076.38-.152.836-.303 1.291.379-.455.91-.835 1.365-1.215.835-.608 1.821-1.063 2.807-1.519.152-.076.303.076.228.228l-.456.911 2.276-1.063c.987-.38 1.973-.684 2.959-.836.152 0 .303.152.152.304-.304.304-.531.608-.759.912 1.062-.38 2.2-.608 3.338-.912l2.352-.38c-.152 0-.228 0-.38-.076-1.062-.076-2.124.076-3.11.228-.076 0-.152 0-.228.076.152-.152.228-.304.304-.456 0-.076 0-.152-.076-.152-2.048-.303-3.793.76-5.614 1.52.304-.228.607-.532.759-.912.076-.076-.076-.152-.152-.152-1.745.228-3.186 1.14-4.552 2.127.152-.228.228-.456.228-.684 0-.076-.076-.151-.076-.151-.91-.152-1.821.379-2.503.911-.835.608-1.593 1.443-2.2 2.355l-.076.076c.076-.228.076-.38.076-.608 0-.076-.076-.076-.152-.076-.531.076-.986.532-1.366.912-.455.531-.834 1.215-1.138 1.823-.076.228-.228.456-.303.607-.076-.151-.076-.303-.228-.455-.076-.076-.152-.076-.228-.076-.607.304-.91.911-1.214 1.519s-.455 1.291-.607 1.975c-.152.532-.228 1.063-.303 1.595 0-.076 0-.152.076-.304.303-1.367.607-2.81 1.441-3.95.076 0 .303 0 .303.152z"/><path d="M76.102 172.405c.759.608 1.745.836 2.655 1.216-.379.075-.759.151-1.138.303-.076 0-.076.152 0 .228.834 1.064 2.276 1.216 3.414 1.671-.228.152-.531.228-.759.38-.076.076-.076.152 0 .152.607.608 1.366.912 2.124 1.14.531.227 1.138.379 1.669.531-.303.076-.607.152-.91.304a.14.14 0 0 0 0 .228c.455.608 1.29.912 1.972 1.139.531.228 1.138.304 1.669.456-.228.076-.455.228-.683.38 0 0-.076.076-.076.152.228.532.834.836 1.365.987l.835.228-.759.228a.14.14 0 0 0 0 .228c.455.608 1.214.912 1.897 1.14l1.365.379c-.152.076-.228.152-.379.228v.152c.228.304.455.608.835.76.607.38 1.365.683 1.972 1.139.379.228.683.608.986.912.303.38.607.759.835 1.215.076.076.228.152.228.076.455-.608.607-1.291.759-1.975.303-1.291.303-2.583.152-3.874l-.303-1.747c-.152-.532-.379-1.064-.91-1.367h-.152c-.076.076-.152.227-.228.379l-.228-.607c-.228-.608-.455-1.14-.835-1.671-.227-.38-.607-.836-1.062-.912-.076 0-.152 0-.152.076v.532s0-.076-.076-.076c-.303-.836-.835-1.595-1.517-2.203-.531-.532-1.29-1.064-2.124-.988-.076 0-.076 0-.076.076 0 .228.076.456.152.608-1.138-.912-2.276-1.899-3.717-2.279-.076 0-.152 0-.152.152.076.304.303.608.607.836-1.517-.836-2.883-1.899-4.703-1.747-.076 0-.076.076-.076.151 0 .152.152.304.228.38-.076 0-.152 0-.228-.076-.835-.228-1.745-.455-2.655-.455-.683 0-1.517.076-1.897.683 0 .076 0 .152.076.152z"/></g><path d="M76.178 172.101c1.972.228 3.869.683 5.69 1.367 3.566 1.367 6.752 3.494 9.331 6.381 1.29 1.443 2.352 2.962 3.186 4.71.531 1.215.986 2.506.986 3.798 0 0 0 .076-.076.076-.076.076-.228 0-.228-.076-.228-.456-.531-.836-.834-1.216-.303-.304-.607-.683-.986-.911-.607-.456-1.366-.684-1.972-1.14-.303-.228-.607-.456-.834-.759v-.152c.076-.152.227-.228.379-.228-.455-.076-.91-.228-1.366-.38-.683-.228-1.441-.532-1.897-1.139a.14.14 0 0 1 0-.228c.228-.152.531-.228.759-.228-.303-.076-.531-.152-.835-.228-.531-.152-1.138-.456-1.365-.988 0-.076 0-.076.076-.151.228-.152.455-.304.683-.38l-1.669-.456c-.683-.228-1.517-.532-1.972-1.139a.14.14 0 0 1 0-.228c.303-.152.607-.228.91-.304-.607-.228-1.214-.38-1.745-.532-.759-.228-1.517-.608-2.124-1.139a.14.14 0 0 1 0-.228c.228-.152.531-.304.759-.38-1.138-.532-2.504-.684-3.414-1.747 0-.076-.076-.152 0-.228.379-.152.759-.228 1.138-.304-.91-.228-1.897-.532-2.655-1.139-.076 0-.076-.076-.076-.152l.152-.152z" class="B"/><g class="C"><path d="M76.178 172.026l2.124 1.443c-.759-.304-1.517-.532-2.2-1.064-.076 0-.076-.076-.076-.151.076-.076.152-.152.152-.228z"/><path d="M78.606 173.697c.152.075.303.227.531.303l3.566 2.355 3.414 2.279c2.124 1.519 4.172 3.266 6.524 4.558.076.076.228 0 .228-.152-.152-.836-4.021-5.166-5.159-6.229-.607-.532-.152-.836.152-.608 3.034 2.127 5.462 5.166 7.055 8.508.076.152.303.076.303-.076.076-.76.076-1.443 0-2.203-.076-1.139-.303-2.355-.683-3.494 0 .076.076.076.076.152.076.228.152.38.228.607.076-.151.152-.227.228-.379.076-.076.152-.076.152 0 .455.304.759.835.91 1.367s.228 1.139.303 1.747c.152 1.291.076 2.583-.152 3.874-.152.684-.379 1.367-.759 1.975-.076.076-.228 0-.228-.076-.228-.456-.531-.835-.835-1.215-.303-.304-.607-.684-.986-.912-.607-.456-1.365-.683-1.972-1.139-.303-.228-.607-.456-.835-.76v-.152c.076-.152.228-.228.379-.228-.455-.076-.91-.227-1.365-.379-.683-.228-1.441-.532-1.897-1.14a.14.14 0 0 1 0-.228c.228-.152.531-.228.759-.228-.303-.076-.531-.152-.835-.227-.531-.152-1.138-.456-1.365-.988 0-.076 0-.076.076-.152.228-.152.455-.304.683-.38l-1.669-.455c-.683-.228-1.517-.532-1.972-1.14a.14.14 0 0 1 0-.228c.303-.152.607-.228.91-.304-.835-.076-1.441-.228-1.973-.379-.759-.228-1.517-.608-2.124-1.14a.14.14 0 0 1 0-.228 3.54 3.54 0 0 1 .759-.38c-1.138-.531-2.503-.683-3.414-1.747 0-.076-.076-.152 0-.228.303-.076.607-.151.986-.151z" class="H"/></g><path d="M95.144 180.229c-.152.987-.152 1.975-.379 2.887-.379-1.975-.303-4.178-1.745-5.774-.076-.076-.303 0-.303.076 0 .532.076 1.064.152 1.596-.076-.152-.076-.228-.152-.38-.683-1.595-1.517-3.267-3.11-4.178-.152-.076-.228 0-.228.152 0 .38.076.835.152 1.215-.303-.456-.683-.835-1.062-1.139-.683-.608-1.441-1.064-2.276-1.519-.076-.076-.303 0-.228.151a3.71 3.71 0 0 0 .303.836c-.531-.456-1.214-.836-1.821-1.139-.759-.456-1.593-.76-2.503-.988-.152 0-.228.152-.152.228a5.11 5.11 0 0 1 .531.836c-.91-.456-1.821-.76-2.807-1.064l-1.896-.532h.303c.91.076 1.821.304 2.655.532.076 0 .152.076.228.076-.076-.076-.228-.228-.228-.38 0-.076 0-.152.076-.152 1.821-.152 3.186.912 4.703 1.747a3.35 3.35 0 0 1-.607-.835c0-.076.076-.152.152-.152 1.441.38 2.579 1.291 3.717 2.279-.076-.228-.152-.38-.152-.608 0-.076.076-.076.076-.076.835 0 1.517.532 2.124.988.683.607 1.214 1.367 1.669 2.203 0 0 0 .076.076.076v-.532c0-.076.076-.076.152-.076.455.152.834.532 1.062.911.303.532.607 1.064.834 1.672l.228.607c.076-.152.152-.228.228-.38.076-.076.152-.076.152 0 .455.304.759.836.91 1.368s.228 1.139.303 1.747c.076.456.076.911.076 1.443v-.228c-.152-1.215-.228-2.507-.91-3.494-.076-.152-.303-.152-.303 0z" class="D"/><g class="K"><use xlink:href="#F"/><use xlink:href="#F"/></g><use xlink:href="#F" class="L"/><use xlink:href="#F" class="B"/><path d="M92.261 233.934l-.379-3.798c-.152-.608-.152-1.292-.228-1.975l-.228-2.355-.379.076v.987c0 1.975.076 3.95.303 5.849.152 1.975.455 3.874.834 5.849l.455 2.659.455 2.659.228 1.215c.076-2.507-.607-7.064-1.062-11.166z" class="E"/><g class="G"><path d="M92.033 237.504c-.228.456-.228.987-.228 1.443 0 .532.152 1.064.303 1.519.076.228.152.456.303.684-.152.152-.076.456-.076.608 0 .228.076.532.152.759.152.38.379.836.607 1.14.076.076.228.152.303.228.076 0 .076.076.152.076-.228-.228-.379-.532-.531-.76a4.82 4.82 0 0 1-.455-1.367v-.38c.379.684.91 1.215 1.441 1.747.228.228.531.38.759.532.152.076.379.228.531.304-.228-.152-.455-.38-.683-.608l-.152-.152c-.076-.076-.152-.076-.152-.152-.455-.38-.834-.759-1.138-1.215-.607-.836-.986-1.747-1.062-2.811a5.62 5.62 0 0 1 0-1.595s0-.076-.076 0zm1.745.379c-.303-.303-.683-.531-.986-.835a2.7 2.7 0 0 1-.834-1.216c0-.075-.076 0-.076.076l.228.684c.076.228.228.38.379.532l.986.911c.303.228.531.456.759.684 0 .228.076.532.152.76.076.303.227.531.303.759.228.532.455 1.14.91 1.519-.076-.075-.076-.227-.152-.303-.303-.38-.531-.836-.683-1.292-.076-.228-.228-.531-.303-.759-.076-.152-.076-.304-.152-.456v.076c.303.304.607.684.835 1.063.152.228.303.456.531.684l.455.456-.683-1.14-.759-1.139c-.228-.456-.531-.76-.91-1.064z"/><path d="M94.081 241.606c-.152-.228-.379-.456-.531-.76l-.228-.228c-.152-.151-.303-.303-.455-.379s-.228-.152-.303-.152c-.076-.076-.152-.152-.303-.152-.076 0-.076.152-.076.152.076.152.303.304.455.38a2.3 2.3 0 0 1 .531.379c.379.228.607.456.91.76zm-2.958-9.115c-.076.076-.076.152-.152.304-.076.076-.076.228-.152.303-.076.228-.228.38-.303.608-.228.38-.455.76-.607 1.216a.86.86 0 0 0-.228.607s-.076 0-.076.076c-.076.076-.152.076-.152.152-.152.076-.228.152-.379.304-.228.228-.379.456-.379.76 0 .076.076.076.076 0 .076-.304.228-.532.455-.684.076-.076.228-.152.379-.228l.076-.076c-.076.38-.152.836-.152 1.215 0 .304 0 .608.076.912.076.076.076.152.152.304-.076-.684-.076-1.443.076-2.127.228-.76.607-1.443.986-2.203.152-.228.228-.456.379-.684.076-.152.076-.227.152-.379s.076-.228.076-.38c-.228 0-.303-.076-.303 0zm2.731 2.203l-.228-.836c-.076-.152-.076-.304-.152-.456v-.152l.152.152c.531.608 1.062 1.216 1.441 1.899.228.38.379.76.607 1.14 0-.152-.076-.38-.076-.532-.607-1.291-1.441-2.507-2.579-3.494-.152-.152-.379-.304-.531-.38-.228-.152-.379-.304-.607-.38-.076-.076-.152.152-.076.228.152.152.379.228.531.304s.303.228.455.38.379.304.531.455c0 .152 0 .304.076.456s.076.304.152.532c.076.304.152.608.303.912.152.379.303.911.607 1.215.152.076.379.152.531.228v-.076c-.759-.38-.986-1.064-1.138-1.595zm-.91.076s0-.076-.076-.076c-.152-.152-.228-.304-.379-.456-.303-.228-.607-.532-.835-.835 0 0-.076.076 0 .152.076.151.228.303.379.455l.455.456.835.836h.076c-.228-.228-.379-.38-.455-.532z"/><path d="M95.675 234.086l-.076-.076-.152-.152c-.152-.152-.379-.304-.531-.456a2.27 2.27 0 0 0-.607-.304c-.076 0-.228-.076-.303-.076s-.228-.076-.379 0c-.076 0-.076.152 0 .152.076.076.228 0 .303.076.076 0 .228.076.303.076.228.076.455.152.607.304.379.228.683.532.986.836-.076-.152-.152-.228-.152-.38zm.606 6.077c-.152-.152-.303-.228-.455-.38-.152-.076-.228-.152-.379-.228-.076 0-.152-.076-.152-.076-.076 0-.152-.076-.228-.076s-.076.076 0 .076c.076.076.152.076.152.076.076 0 .152.076.228.076.152.076.228.152.379.228.228.152.379.228.531.38l-.076-.076zm-1.441-4.33c-.076-.076-.076-.228-.152-.304l-.152-.152c-.076-.076-.152-.152-.303-.152-.076 0-.076-.076-.152-.076s-.076-.076-.152-.076-.076.076-.076.152.076.076.152.076.076.076.152.076c.076.076.152.076.303.152.076.076.228.152.379.304zm-2.351-1.596c-.076.152-.076.38-.076.456 0 .152.076.304.076.456l.227.456.228.227v-.075c-.228-.228-.303-.456-.379-.76 0-.152-.076-.304-.076-.38v-.304c.076-.076.076-.076 0-.076zm-1.139 2.887c.076-.152.152-.304.152-.456.076-.152.076-.304.076-.456 0-.075-.152 0-.152 0-.076.152-.076.304-.152.456s-.076.304-.152.456c-.152.304-.228.608-.379.836v.076c-.228.227-.531.303-.834.379s-.607.076-.834.152c-.683.228-1.29.608-1.821 1.064-.228.304-.455.607-.607.987 0 .076.076 0 .076 0 .228-.683.834-1.215 1.441-1.519.303-.152.607-.304.91-.38s.607-.076.834-.152.455-.076.607-.228l-.455.988c-.152.076-.303.304-.455.38-.152.152-.303.228-.455.38-.303.227-.531.531-.759.911-.303.608-.607 1.367-.759 2.127 0 .076.076 0 .076 0 .152-.456.303-.912.531-1.367v.228.455c0 .304 0 .684.076.988h.076c0-.38.076-.684.076-1.064v-.531-.228-.152c.076-.152.228-.304.303-.456.228-.304.455-.608.759-.836.152-.151.303-.227.455-.379l.152-.152c0 .076 0 .076-.076.152-.303 1.063-.455 2.127-.455 3.19-.228.228-.303.532-.303.836-.076.379-.152.759-.152 1.139-.076.988.152 1.975.531 2.811 0 .076.076 0 .076-.076-.379-.836-.531-1.823-.455-2.735 0-.38.076-.76.152-1.139.076-.228.076-.456.152-.608v.304c0 .683.152 1.443.303 2.127 0 .076.076 0 .076-.076-.228-.836-.303-1.747-.303-2.583v-.076c0-.38.076-.76.076-1.063l.228-1.216c0 .152.076.304.076.38.076.228.076.456.152.684.076.455.228.835.379 1.291v.076c.152.456.228.912.303 1.443.076.456.152.912.303 1.368 0 .076.076 0 .076-.076-.152-.456-.152-.988-.228-1.444-.076-.303-.076-.607-.152-.911.379.608.759 1.139.986 1.823a6.41 6.41 0 0 1 .379 1.291c.076.456.228.912.379 1.292 0 .076.076 0 .076-.076-.152-.456-.152-.912-.303-1.368-.076-.455-.228-.911-.379-1.291-.303-.76-.759-1.443-1.29-2.127-.152-.456-.228-.911-.379-1.367-.076-.228-.076-.456-.152-.76 0-.152-.076-.228-.076-.38s0-.228-.076-.379c0-.076 0-.152.076-.228.076-.304.152-.532.303-.76v.076c0 .076.076.076.076.152.076.076.076.152.152.228.076.152.152.304.228.532 0 .075.076 0 .076-.076-.076-.152-.152-.38-.228-.532-.076-.076-.076-.152-.152-.228 0-.076-.076-.076-.076-.152s-.076-.076-.076-.152l.379-.835c.228-.304.379-.608.531-.988z"/><path d="M98.709 242.138c-.228-.304-.379-.684-.607-.988l-.683-.911c-.531-.608-1.214-1.064-1.972-1.443l-.607-.228c-.076 0-.228-.076-.303-.152s-.152-.076-.303-.152c-.076 0-.152.076-.152.152.076.152.228.228.379.304s.303.076.455.152c.455.152.834.379 1.214.607.303.152.531.38.759.608v.076c.076.76.152 1.519.531 2.279.303.607.834 1.215 1.214 1.747 0 0 .076 0 .076-.076l-1.062-1.823c-.152-.38-.303-.684-.379-1.064-.076-.303-.076-.607-.152-.911a5.37 5.37 0 0 1 .607.759l.986 1.064c-.076.076 0 0 0 0zm-3.186 4.102c-.152-.228-.379-.456-.531-.684l-.303-.304c-.076-.076-.152-.228-.228-.303 0-.152-.076-.304-.076-.532s-.076-.38-.076-.608 0-.456-.076-.684c0-.076-.152 0-.152.076v.684c0 .228.076.456.076.684.076.38.152.835.303 1.215.228.836.607 1.595 1.138 2.279 0 0 .076 0 .076-.076-.455-.684-.759-1.443-.986-2.279 0-.076 0-.152-.076-.228.076.076.152.152.228.304.228.228.455.456.607.684 0-.076.076-.152.076-.228z"/><path d="M100.833 241.454c-.759-.683-1.441-1.443-2.352-1.899-.455-.228-.91-.304-1.366-.456-.228-.076-.531-.076-.759-.151h-.607c-.076 0-.152.151 0 .151h.607c.227 0 .455.076.683.152.455.076.91.228 1.365.456.91.456 1.593 1.14 2.352 1.747 0 .152.076.076.076 0zm-2.124-4.71c-.303-.304-.683-.532-1.062-.76l-.683-.227c-.152 0-.228-.076-.379-.076s-.228-.076-.379-.076c-.152-.152-.303-.304-.455-.38s-.303-.228-.379-.304c-.152-.076-.303-.228-.455-.304-.076 0-.228.076-.152.152.076.152.228.228.379.304s.303.228.379.304c.303.228.607.456.91.759l1.517 1.596c.076.076.152-.076.152-.076-.228-.304-.455-.608-.759-.836-.227-.304-.531-.532-.759-.836l-.076-.075c.076 0 .152 0 .303.075.228.076.455.076.683.228.379.152.759.456 1.138.684 0 0 .152-.152.076-.152zm-10.165 4.027c-.228.151-.379.227-.531.379-.228.152-.455.304-.607.456-.379.304-.683.608-.91.988-.531.759-.759 1.595-1.062 2.43 0 .076.076 0 .076 0 .076-.379.228-.683.379-1.063 0 .076.076.228.076.304.076.304.076.607.152.911.076.532 0 1.14 0 1.671 0 .076.076 0 .076 0l.076-1.671c0-.304 0-.531-.076-.835 0-.076-.076-.228-.076-.304 0-.152 0-.228-.076-.38.152-.38.379-.684.607-1.063a6.07 6.07 0 0 1 .986-.988l.607-.38c.076-.076.228-.228.303-.455.076.075.076 0 0 0zm.606 4.709c0-.076-.076-.076-.152 0-.152.304-.152.684-.228.988l-.228 1.063a4.98 4.98 0 0 0 .228 2.127c0 .076.076 0 .076-.076-.303-1.367 0-2.735.303-4.102zm2.959 2.507c0-.608.152-1.292.228-1.899 0-.076-.152-.076-.152 0a8.27 8.27 0 0 0-.228 1.975c0 .684.152 1.291.455 1.899 0 .076.076 0 .076-.076-.228-.608-.379-1.216-.379-1.899zm5.462-.684l-1.441-1.823c-.227-.228-.531-.456-.834-.684s-.683-.379-.986-.607c-.076-.076-.152.076-.152.152.228.227.607.379.91.531.379.152.607.456.91.684.531.532.91 1.215 1.441 1.747.152.152.228.076.152 0zm1.821-1.063c-.455-.456-.834-.987-1.138-1.595-.152-.304-.228-.608-.303-.912s-.076-.683-.228-.987c0-.076-.076 0-.076 0-.076.304 0 .684.076 1.063.076.304.152.684.379.988.303.608.759 1.139 1.214 1.595 0-.076.076-.152.076-.152z"/><path d="M102.426 241.378l-1.896-1.063a5.28 5.28 0 0 0-.986-.38c-.303-.152-.683-.228-.986-.228-.076 0-.227.152-.076.228.379.076.683.152.986.304s.682.228.986.38l1.821.987c.151-.076.227-.152.151-.228zm-15.855.912c-.379.228-.91.38-1.29.683-.455.304-.759.608-1.138.988a9.91 9.91 0 0 0-1.593 2.735c0 .076.076.076.076 0 .303-.684.607-1.292 1.062-1.899 0 .151 0 .379.076.531 0 .228 0 .456-.076.684-.076.456-.152.836-.152 1.291 0 .076.076 0 .076-.076 0-.455.152-.911.228-1.367.076-.228.076-.456.076-.608 0-.228-.076-.455-.076-.683.152-.228.303-.38.531-.608a4.63 4.63 0 0 1 1.138-.988c.379-.228.91-.303 1.214-.607 0 0-.076-.152-.152-.076zm.987-3.038c-.303.076-.759.076-1.062.076l-.91.228c-.531.227-.986.455-1.441.835-.91.684-1.669 1.595-2.124 2.583 0 .076.076.076.076 0 .455-.988 1.29-1.899 2.2-2.583.152-.152.379-.228.531-.304v.076c0 .076-.076.076-.076.152-.076.152-.152.228-.228.38-.152.228-.228.456-.303.684 0 .076.076.076.076 0 .076-.228.228-.456.303-.684.076-.076.152-.228.228-.304 0-.076.076-.076.076-.152s.076-.152.076-.228c.227-.152.531-.228.834-.379l.986-.228c.303 0 .607 0 .835-.076 0 0 0-.152-.076-.076zm2.427-4.482c-.455.151-.835.227-1.29.303-.303.076-.607.228-.835.38-.076 0-.152 0-.152.076-.607.38-1.138.912-1.669 1.443-.076.076 0 .076.076.076.455-.455.986-.911 1.517-1.291 0 .076-.076.152-.076.152-.076.152-.152.228-.152.38-.152.228-.228.456-.303.759 0 .076.076.076.076 0 .152-.228.304-.455.379-.759.076-.152.152-.228.152-.38.076-.076.076-.228.152-.304.303-.152.607-.304.91-.38.379-.152.835-.152 1.214-.38.076 0 .076-.075 0-.075z"/></g></g><defs><clipPath id="A"><path fill="#fff" transform="translate(89.941 .977)" d="M0 0h156.306v280.272H0z"/></clipPath><clipPath id="B"><path fill="#fff" transform="translate(192.618 141.917)" d="M0 0h60v108H0z"/></clipPath><clipPath id="C"><path fill="#fff" transform="translate(76.026 170.961)" d="M0 0h44v79H0z"/></clipPath><path id="D" d="M147.612 224.387c-.539-4.042-.809-8.624-1.348-13.475-.539-2.156-.539-4.581-.808-7.006-.27-2.695-.809-5.66-.809-8.355l-5.389.809c.808 9.432 2.425 19.673 4.042 30.183 2.695 16.169 7.815 41.771 7.815 41.771 1.348-7.546-1.617-26.68-3.503-43.927z"/><path id="E" d="M214.756 228.006l-.518-5.192c-.206-.831-.206-1.766-.31-2.7l-.31-3.219-2.069.311c.31 3.635.931 7.581 1.551 11.631 1.035 6.231 3 16.096 3 16.096.518-2.908-.62-10.281-1.344-16.927z"/><path id="F" d="M92.261 233.934l-.379-3.798c-.152-.608-.152-1.292-.228-1.975l-.228-2.355-1.517.228 1.138 8.507c.759 4.558 2.2 11.775 2.2 11.775.379-2.127-.455-7.521-.986-12.382z"/></defs></svg>