<svg width="301" height="301" viewBox="0 0 301 301" fill="none" xmlns="http://www.w3.org/2000/svg">
<circle cx="150.1" cy="150.183" r="147.803" transform="rotate(0.893797 150.1 150.183)" fill="#FFD94E"/>
<g clip-path="url(#clip0_1_605)">
<path d="M145.171 116.822C146.483 113.943 147.27 110.803 146.745 107.402C146.482 105.832 145.958 104.262 145.171 102.953C144.121 101.122 142.547 99.5517 140.972 97.9818C137.036 94.3185 132.576 91.4402 127.853 89.3469C115.258 83.8519 102.663 84.6369 89.8053 89.3469C87.1814 90.3935 84.8199 91.7018 82.9831 93.5335C70.3882 106.355 95.0532 123.363 105.024 127.811C112.371 130.951 120.768 132.26 128.64 130.166C135.2 128.335 142.022 123.101 145.171 116.822Z" fill="#70A644"/>
<path d="M145.171 116.822C146.483 113.943 147.27 110.803 146.745 107.402C146.482 105.832 145.958 104.262 145.171 102.953C144.121 101.122 142.547 99.5517 140.972 97.9818C137.036 94.3185 132.576 91.4402 127.853 89.3469C115.258 83.8519 102.663 84.6369 89.8053 89.3469C87.1814 90.3935 84.8199 91.7018 82.9831 93.5335C70.3882 106.355 95.0532 123.363 105.024 127.811C112.371 130.951 120.768 132.26 128.64 130.166C135.2 128.335 142.022 123.101 145.171 116.822ZM98.7268 116.56C94.266 114.728 89.8053 112.373 86.6566 108.71C84.2951 105.832 82.4583 101.907 84.0327 98.2434C84.8199 96.1501 86.1318 94.5801 87.9686 93.5335C90.0677 91.9635 92.6917 90.9169 95.3156 90.1319C99.5139 88.8235 103.712 88.3002 107.911 88.0386C116.57 86.2069 127.065 88.0386 132.313 95.6268C134.937 99.2901 135.724 103.738 134.412 107.925C133.1 111.588 129.952 114.728 126.541 116.822C122.605 119.176 118.144 119.961 113.683 119.961C108.698 119.7 103.45 118.653 98.7268 116.56ZM123.129 128.596C119.193 128.858 115.258 127.55 112.371 124.671C112.109 124.41 112.371 124.148 112.634 123.886C114.208 123.363 115.782 123.625 117.357 123.625C118.931 123.625 120.768 123.625 122.342 123.363C124.179 123.101 126.016 122.84 127.59 122.578C130.739 121.27 133.625 119.438 136.512 117.868C136.774 117.607 137.299 118.13 137.036 118.392C136.249 120.485 134.937 122.316 133.363 123.886C130.739 126.765 127.065 128.335 123.129 128.596Z" fill="#5C4E2A"/>
<path d="M138.873 115.775C140.447 113.943 141.235 111.588 142.284 109.233C142.284 108.972 142.022 108.972 142.022 108.972C140.972 110.803 139.923 112.635 138.611 114.205C137.299 116.037 135.462 117.083 133.625 118.13C129.952 119.962 126.278 121.008 122.342 121.27C115.258 122.055 108.173 121.532 101.351 119.177C96.6276 117.345 92.6917 114.728 88.7558 111.85C88.4934 111.85 87.9686 111.85 88.231 112.112C94.2661 117.607 102.138 121.532 110.272 122.84C113.946 123.363 117.882 123.363 121.555 122.84C125.753 122.317 129.689 121.532 133.625 119.7C135.462 118.653 137.299 117.345 138.873 115.775Z" fill="#844934"/>
<path opacity="0.45" d="M127.065 128.596C126.016 128.858 124.966 128.858 124.179 128.858C122.08 128.858 119.718 128.596 117.619 128.596C116.57 128.596 115.782 128.335 114.733 128.073C114.47 128.073 113.946 128.335 114.47 128.596C115.258 129.12 116.307 129.381 117.357 129.643C118.669 129.905 119.718 130.166 121.03 130.166C122.342 130.166 123.392 130.166 124.704 129.905C125.753 129.643 126.541 129.381 127.59 129.12C127.59 128.858 127.065 128.596 127.065 128.596Z" fill="#B8765D"/>
<path opacity="0.45" d="M94.7908 93.0101V92.7484C94.7908 92.4868 94.5284 92.4868 94.5284 92.4868C94.0036 92.2251 93.2165 92.2251 92.6917 92.4868H92.4293H92.1669C91.6421 92.7484 91.1173 93.0101 91.1173 93.5334C91.1173 94.3184 91.6421 94.5801 92.4293 94.5801C92.9541 94.5801 93.4789 94.3184 94.0036 94.0568C94.266 93.7951 94.7908 93.5334 94.7908 93.0101Z" fill="#B8765D"/>
<path opacity="0.45" d="M89.8053 97.9817C89.8053 97.72 89.8053 97.72 89.8053 97.72C89.8053 97.72 89.8053 97.72 89.8053 97.4584C89.8053 97.4584 89.8053 97.4584 89.8053 97.1967C89.8053 97.1967 89.8053 97.1967 89.5429 96.9351H89.2805C89.2805 96.9351 89.2805 96.9351 89.0181 96.9351C89.0181 96.9351 89.0181 96.9351 88.7557 96.9351C88.7557 96.9351 88.7557 96.9351 88.4934 96.9351C88.4934 96.9351 88.4934 96.9351 88.231 96.9351C88.231 96.9351 88.231 96.9351 88.231 97.1967C88.231 97.1967 88.231 97.1967 88.231 97.4584C88.231 97.4584 88.231 97.4584 88.4934 97.4584H88.7557H89.0181C89.5429 98.2434 89.5429 98.2434 89.8053 97.9817C89.8053 98.2434 89.5429 98.2434 89.8053 97.9817Z" fill="#B8765D"/>
<g opacity="0.45">
<path d="M94.7908 99.0288C94.7908 98.7671 94.7908 98.7671 94.7908 99.0288C95.0532 98.7671 95.0532 98.7671 95.0532 98.7671C95.0532 98.7671 95.0532 98.7671 94.7908 98.7671C94.7908 98.7671 94.7908 98.7671 94.5284 98.7671H94.266H94.0036C94.0036 98.7671 93.7412 98.7671 93.7412 99.0288C93.7412 99.0288 93.7412 99.0288 93.7412 99.2904V99.5521C93.7412 99.5521 93.7412 99.8137 94.0036 99.8137H94.266H94.5284C94.266 99.2904 94.5284 99.2904 94.7908 99.0288C94.5284 99.0288 94.5284 99.0288 94.7908 99.0288Z" fill="#B8765D"/>
</g>
<path opacity="0.45" d="M96.1029 108.71V108.449C96.1029 108.449 96.1029 108.449 96.1029 108.187V107.925L95.8405 107.664H95.5781C95.3157 107.664 95.0534 107.664 94.791 107.664H94.5286C94.2662 107.664 94.2662 107.664 94.0038 107.925C93.7414 108.187 93.479 108.187 93.2166 108.449C92.9542 108.71 93.2166 108.972 93.479 109.234C94.0038 109.495 94.5286 109.757 95.0534 109.757C95.5781 109.757 96.1029 109.495 96.3653 109.234C96.1029 108.972 96.1029 108.972 96.1029 108.71Z" fill="#B8765D"/>
<path opacity="0.45" d="M102.925 111.326C102.4 111.326 102.4 111.588 102.4 111.849C102.4 112.111 102.4 112.111 102.663 112.373H102.925C103.975 112.373 103.712 111.064 102.925 111.326Z" fill="#B8765D"/>
<path opacity="0.45" d="M116.832 117.345C116.832 117.083 116.832 117.083 116.832 117.083C116.832 117.083 116.832 116.821 116.57 116.821L116.307 116.56C116.045 116.56 116.045 116.298 115.782 116.298C115.52 116.298 115.52 116.298 115.52 116.298H115.258C115.258 116.298 115.258 116.298 114.995 116.298C114.995 116.298 114.995 116.298 114.733 116.298C114.733 116.298 114.733 116.56 114.47 116.56V116.821V117.083C114.47 117.083 114.47 117.083 114.733 117.083L114.995 117.345H115.258H115.52H115.782C116.57 117.606 116.57 117.606 116.832 117.345C116.832 117.606 116.832 117.606 116.832 117.345Z" fill="#B8765D"/>
<path opacity="0.45" d="M121.817 125.718C121.817 125.718 122.08 125.718 121.817 125.718C121.817 125.456 121.817 125.195 121.555 125.195H121.293C121.03 124.933 120.768 124.933 120.243 124.933C119.981 124.933 119.718 124.933 119.456 125.195L119.193 125.456C119.193 125.456 118.931 125.456 118.931 125.718C118.931 125.718 118.669 125.98 118.669 126.241C118.669 126.503 118.931 126.503 118.931 126.765C119.718 127.288 121.03 127.288 121.817 126.765C122.08 126.241 122.08 125.98 121.817 125.718Z" fill="#B8765D"/>
<path opacity="0.45" d="M126.541 126.242C126.541 126.242 126.541 125.98 126.541 126.242C126.541 125.98 126.541 125.98 126.541 126.242C126.541 125.98 126.541 125.98 126.541 125.98H126.278H126.016C126.016 125.98 126.016 125.98 125.753 125.98H125.491H125.229C125.229 125.98 125.229 126.242 124.966 126.242V126.503V126.765L125.229 127.027H125.491H125.753C126.278 126.242 126.278 126.242 126.541 126.242C126.541 126.242 126.278 126.242 126.541 126.242Z" fill="#B8765D"/>
<path d="M122.867 99.8134C123.917 98.5051 124.441 96.9351 124.179 95.3652C123.917 93.7952 122.605 92.2252 121.03 91.4402C119.718 90.9169 118.144 90.3936 116.57 90.3936C113.946 89.8702 111.322 89.3469 108.435 89.0852C104.762 88.8236 101.088 89.3469 97.6772 90.3936C94.5285 91.4402 90.8549 93.0102 88.4934 95.6268C86.1318 98.2435 85.6071 101.645 86.6566 104.785C89.0182 110.803 96.6276 113.158 102.4 112.635C106.336 112.373 110.01 110.542 113.158 108.448C114.995 107.14 116.57 105.832 118.144 104.523C119.981 102.953 121.555 101.645 122.867 99.8134Z" fill="#B5AA6B"/>
<path opacity="0.45" d="M140.71 100.075C141.759 104 141.235 108.187 138.873 111.588C136.249 115.513 132.051 117.606 127.852 119.961C129.427 119.438 131.001 119.176 132.576 118.391C134.675 117.606 136.511 116.298 138.348 114.728C140.185 112.897 141.497 110.542 142.809 108.187C143.334 107.14 144.121 105.832 144.646 104.523C144.908 104 144.908 103.477 145.171 102.953C144.121 101.122 142.547 99.5517 140.972 97.9817C140.447 97.72 140.185 97.1967 139.66 96.9351C139.923 97.9817 140.447 99.0284 140.71 100.075Z" fill="#B8765D"/>
<path d="M121.818 140.109C122.605 136.969 122.867 133.568 121.818 130.428C121.293 128.858 120.506 127.288 119.456 126.241C117.882 124.409 116.045 123.101 114.208 122.054C109.485 119.176 104.499 117.083 99.2516 115.774C86.1319 112.635 73.7994 115.513 62.254 121.793C58.8429 123.624 55.4318 126.241 53.595 129.904C46.248 144.557 72.7498 156.594 83.2456 158.949C91.3798 160.781 100.301 160.519 107.648 157.117C113.946 153.716 119.981 147.174 121.818 140.109Z" fill="#B98261"/>
<path d="M121.818 140.109C122.605 136.969 122.867 133.568 121.818 130.428C121.293 128.858 120.506 127.288 119.456 126.241C117.882 124.409 116.045 123.101 114.208 122.054C109.485 119.176 104.499 117.083 99.2516 115.774C86.1319 112.635 73.7994 115.513 62.254 121.793C58.8429 123.624 55.4318 126.241 53.595 129.904C46.248 144.557 72.7498 156.594 83.2456 158.949C91.3798 160.781 100.301 160.519 107.648 157.117C113.946 153.716 119.981 147.174 121.818 140.109ZM74.5866 148.482C69.8635 147.436 64.878 145.866 60.9421 142.726C58.0557 140.371 55.4318 136.708 56.219 132.783C56.7437 130.428 57.7933 128.596 59.3677 127.026C61.4668 124.933 63.8284 123.363 66.1899 122.054C70.1259 119.961 74.3242 118.653 78.7849 117.606C87.1815 114.204 98.4644 114.204 105.024 120.746C108.173 123.886 110.01 128.334 109.223 132.783C108.435 136.969 106.074 140.632 102.925 143.249C99.514 146.389 95.0533 147.959 90.5926 148.744C85.3447 149.791 79.8344 149.529 74.5866 148.482ZM101.876 156.071C97.9396 157.117 93.4789 156.332 90.0678 154.239C89.8054 153.977 89.8054 153.716 90.0678 153.454C91.6422 152.669 93.2165 152.407 94.7909 152.407C96.6277 152.146 98.202 151.622 99.7764 151.361C101.613 150.837 103.45 150.314 105.024 149.529C107.911 147.436 110.535 145.342 113.421 142.987C113.683 142.726 114.208 142.987 114.208 143.511C113.683 145.866 112.896 147.959 111.584 149.791C109.223 152.669 105.811 155.024 101.876 156.071Z" fill="#5C4E2A"/>
<path d="M115.52 140.11C116.832 137.755 117.094 135.4 117.882 133.045C117.882 132.783 117.619 132.783 117.619 133.045C116.832 135.138 116.045 136.97 114.995 138.801C113.946 140.895 112.371 142.465 110.535 143.773C107.386 146.389 103.45 147.959 99.514 149.268C92.4293 151.361 85.0823 152.146 77.7353 150.838C72.7498 150.053 68.2891 147.698 63.566 145.866C63.3036 145.866 62.7788 146.128 63.0412 146.128C70.3882 150.576 79.0472 153.193 87.4438 152.931C91.3798 152.669 95.3157 152.146 98.9892 150.838C103.187 149.529 107.123 147.959 110.535 145.343C112.371 143.773 114.208 142.203 115.52 140.11Z" fill="#844934"/>
<path opacity="0.45" d="M105.549 155.285C104.761 155.808 103.449 155.808 102.662 156.07C101.613 156.332 100.301 156.332 99.2512 156.593C97.152 156.855 95.0529 156.855 92.6913 156.855C92.4289 156.855 92.1665 157.117 92.4289 157.378C93.4785 157.902 94.5281 157.902 95.5777 158.163C96.8896 158.163 98.2016 158.163 99.5136 157.902C100.826 157.64 101.875 157.378 103.187 157.117C104.237 156.855 105.024 156.332 106.073 155.547C106.336 155.547 105.811 155.285 105.549 155.285Z" fill="#B8765D"/>
<path opacity="0.45" d="M66.4521 124.932C66.4521 124.671 66.4521 124.671 66.1897 124.671C66.1897 124.671 65.9273 124.409 65.6649 124.409C65.1401 124.147 64.3529 124.409 63.8281 124.671C63.8281 124.671 63.8281 124.671 63.5658 124.932C63.5658 124.932 63.3034 124.932 63.3034 125.194C62.7786 125.456 62.5162 125.979 62.5162 126.502C62.5162 127.287 63.3034 127.549 64.0905 127.287C64.6153 127.287 65.1401 126.764 65.6649 126.502C65.9273 125.979 66.4521 125.456 66.4521 124.932Z" fill="#B8765D"/>
<path opacity="0.45" d="M62.2538 131.212C62.2538 130.951 62.2538 130.951 62.2538 131.212C62.2538 130.951 62.2538 130.951 62.2538 130.951C62.2538 130.951 62.2538 130.951 62.2538 130.689C62.2538 130.689 62.2538 130.689 62.2538 130.427C62.2538 130.427 62.2538 130.427 61.9914 130.427H61.729C61.729 130.427 61.729 130.427 61.4666 130.427C61.4666 130.427 61.4666 130.427 61.2042 130.427C61.2042 130.427 61.2042 130.427 60.9418 130.427V130.689C60.9418 130.689 60.9418 130.689 61.2042 130.951H61.4666H61.729H61.9914C61.9914 131.474 61.9914 131.474 62.2538 131.212C61.9914 131.212 61.9914 131.474 62.2538 131.212Z" fill="#B8765D"/>
<g opacity="0.45">
<path d="M67.2392 131.212C67.5016 131.212 67.5016 131.212 67.2392 131.212C67.5016 130.951 67.5016 130.951 67.2392 131.212C67.5016 130.951 67.5016 130.951 67.5016 130.951C67.5016 130.951 67.5016 130.951 67.2392 130.951C67.2392 130.951 67.2392 130.951 66.9768 130.951H66.7144H66.452H66.1896C66.1896 130.951 65.9272 130.951 65.9272 131.212C65.9272 131.212 65.9272 131.212 65.9272 131.474V131.736L66.1896 131.997H66.452H66.7144C66.9768 131.474 66.9768 131.474 67.2392 131.212C67.2392 131.212 67.2392 131.474 67.2392 131.212Z" fill="#B8765D"/>
</g>
<path opacity="0.45" d="M70.6503 140.894V140.632C70.6503 140.632 70.6503 140.632 70.3879 140.371V140.109C70.3879 140.109 70.1255 139.847 69.8631 139.847H69.6007C69.3383 139.847 69.076 139.847 68.8136 140.109H68.5512C68.2888 140.109 68.2888 140.371 68.0264 140.371C67.5016 140.632 67.2392 140.894 67.2392 141.156C67.2392 141.417 67.2392 141.679 67.5016 141.679C68.0264 141.941 68.5512 141.941 69.076 141.941C69.6007 141.941 70.1255 141.679 70.3879 141.156C70.3879 141.156 70.6503 141.156 70.6503 140.894Z" fill="#B8765D"/>
<path opacity="0.45" d="M77.9975 142.202C77.7351 142.464 77.4727 142.464 77.7351 142.725C77.7351 142.987 77.7351 142.987 78.2599 142.987C78.5223 142.987 78.5223 142.987 78.7847 142.987C79.3095 142.987 78.7847 141.94 77.9975 142.202Z" fill="#B8765D"/>
<path opacity="0.45" d="M93.2163 145.865C93.2163 145.603 93.2163 145.603 93.2163 145.865C93.2163 145.603 93.2163 145.603 93.2163 145.603C93.2163 145.603 93.2163 145.342 92.9539 145.342H92.6915C92.4291 145.342 92.4291 145.342 92.1667 145.342C91.9043 145.342 91.9043 145.342 91.6419 145.342H91.3795C91.3795 145.342 91.3795 145.342 91.1171 145.342V145.603V145.865C91.1171 145.865 91.1171 145.865 91.3795 146.127C91.3795 146.127 91.3795 146.127 91.6419 146.127L91.9043 146.388H92.1667H92.4291H92.6915C92.9539 146.388 93.2163 146.127 93.2163 145.865C93.2163 146.127 93.2163 146.127 93.2163 145.865Z" fill="#B8765D"/>
<path opacity="0.45" d="M100.039 153.454C100.039 153.192 99.7761 152.93 99.7761 152.93H99.5137C99.2514 152.669 98.7266 152.669 98.4642 152.669C98.2018 152.669 97.9394 152.93 97.677 153.192C97.677 153.192 97.677 153.454 97.4146 153.454L97.1522 153.715C97.1522 153.977 96.8898 153.977 97.1522 154.239C97.1522 154.5 97.4146 154.5 97.4146 154.5C98.4642 155.024 99.5138 154.762 100.301 153.977C100.039 153.977 100.039 153.715 100.039 153.454Z" fill="#B8765D"/>
<path opacity="0.45" d="M104.762 152.93C104.762 152.669 104.762 152.669 104.762 152.669H104.499H104.237H103.974H103.712C103.712 152.669 103.45 152.669 103.45 152.93V153.192V153.454C103.45 153.454 103.45 153.715 103.712 153.715C103.712 153.715 103.974 153.715 103.974 153.977C104.237 153.977 104.237 153.977 104.499 153.977H104.762C104.499 153.192 104.499 153.192 104.762 152.93C104.762 153.192 104.762 153.192 104.762 152.93C104.762 153.192 104.762 153.192 104.762 152.93Z" fill="#B8765D"/>
<path d="M96.1029 126.764C96.89 125.194 97.1524 123.624 96.6276 122.054C95.8405 120.484 94.2661 119.176 92.6917 118.653C91.1174 118.129 89.543 118.129 87.9686 118.129C85.0823 117.868 82.196 117.868 79.572 118.391C75.8985 118.914 71.9626 119.961 68.8139 121.793C65.6651 123.363 62.5164 125.718 60.4172 128.596C58.5805 131.474 58.5805 135.399 60.4172 138.277C63.8284 144.034 72.225 144.819 77.9977 143.249C81.9336 142.202 85.3447 139.847 88.231 136.969C89.8054 135.399 91.1174 133.829 92.6917 131.998C94.0037 130.689 95.3157 128.858 96.1029 126.764Z" fill="#B5AA6B"/>
<path opacity="0.45" d="M114.47 123.886C116.307 127.549 116.307 131.998 114.733 135.923C112.634 140.371 108.698 143.511 105.024 146.389C106.599 145.604 108.173 144.819 109.485 144.034C111.584 142.726 113.159 141.156 114.47 139.062C116.045 136.707 117.094 134.353 117.882 131.736C118.406 130.428 118.669 129.119 119.194 127.811C119.194 127.288 119.456 126.764 119.456 125.979C117.882 124.148 116.045 122.839 114.208 121.793C113.683 121.531 113.159 121.269 112.634 121.008C113.421 121.793 113.946 122.839 114.47 123.886Z" fill="#B8765D"/>
<path d="M230.186 113.158C230.973 110.018 231.236 106.616 230.186 103.476C229.661 101.906 228.874 100.336 227.825 99.2898C226.25 97.4582 224.413 96.1499 222.577 95.1032C217.854 92.2249 212.868 90.1316 207.62 88.8233C194.501 85.6833 182.168 88.5616 170.623 94.8416C167.212 96.6732 163.8 99.2898 161.964 102.953C154.617 117.606 181.118 129.643 191.614 131.998C199.748 133.829 208.67 133.568 216.017 130.166C222.314 126.503 228.349 120.223 230.186 113.158Z" fill="#B98261"/>
<path d="M230.186 113.158C230.973 110.018 231.236 106.616 230.186 103.476C229.661 101.906 228.874 100.336 227.825 99.2898C226.25 97.4582 224.413 96.1499 222.577 95.1032C217.854 92.2249 212.868 90.1316 207.62 88.8233C194.501 85.6833 182.168 88.5616 170.623 94.8416C167.212 96.6732 163.8 99.2898 161.964 102.953C154.617 117.606 181.118 129.643 191.614 131.998C199.748 133.829 208.67 133.568 216.017 130.166C222.314 126.503 228.349 120.223 230.186 113.158ZM182.955 121.531C178.232 120.485 173.247 118.915 169.311 115.775C166.424 113.42 163.8 109.756 164.588 105.831C164.85 103.738 166.162 101.906 167.736 100.336C169.835 98.2432 172.197 96.6732 174.559 95.3649C178.495 93.2716 182.693 91.9633 187.154 90.9166C195.55 87.515 206.833 87.515 213.393 94.0566C216.542 97.1965 218.378 101.645 217.591 106.093C216.804 110.28 214.443 113.943 211.294 116.56C207.883 119.7 203.422 121.27 198.961 122.055C193.713 122.84 188.203 122.578 182.955 121.531ZM210.244 129.119C206.308 130.166 201.848 129.381 198.436 127.288C198.174 127.026 198.174 126.764 198.436 126.503C200.011 125.718 201.585 125.456 203.16 125.456C204.996 125.195 206.571 124.671 208.145 124.41C209.982 123.886 211.819 123.363 213.393 122.578C216.279 120.485 218.903 118.391 221.79 116.036C222.052 115.775 222.577 116.036 222.577 116.56C222.052 118.915 221.265 121.008 219.953 122.84C217.591 125.718 214.18 128.073 210.244 129.119Z" fill="#5C4E2A"/>
<path d="M223.626 113.158C224.938 110.803 225.201 108.448 225.988 106.093C225.988 105.832 225.726 105.832 225.726 106.093C224.938 108.187 224.151 110.018 223.102 111.85C222.052 113.943 220.478 115.513 218.641 116.822C215.492 119.438 211.556 121.008 207.62 122.317C200.536 124.41 193.189 125.195 185.842 123.887C180.856 123.102 176.396 120.747 171.672 118.915C171.41 118.915 170.885 119.177 171.148 119.177C178.495 123.625 187.154 126.242 195.55 125.98C199.486 125.718 203.422 125.195 207.096 123.887C211.294 122.578 215.23 121.008 218.641 118.392C220.74 116.822 222.577 115.252 223.626 113.158Z" fill="#844934"/>
<path opacity="0.45" d="M213.917 128.334C213.13 128.857 211.818 128.857 211.031 129.119C209.981 129.38 208.669 129.38 207.62 129.642C205.521 129.904 203.422 129.904 201.06 129.904C200.798 129.904 200.535 130.165 200.798 130.427C201.847 130.95 202.897 130.95 203.946 131.212C205.258 131.212 206.57 131.212 207.882 130.95C209.194 130.689 210.244 130.427 211.556 130.165C212.605 129.904 213.393 129.38 214.442 128.595C214.442 128.595 214.18 128.334 213.917 128.334Z" fill="#B8765D"/>
<path opacity="0.45" d="M174.558 97.9811C174.558 97.7194 174.558 97.7194 174.296 97.7194C174.296 97.7194 174.034 97.4577 173.771 97.4577C173.246 97.1961 172.459 97.4577 171.934 97.7194C171.934 97.7194 171.934 97.7194 171.672 97.9811C171.672 97.9811 171.41 97.9811 171.41 98.2427C170.885 98.5044 170.622 99.0277 170.622 99.5511C170.622 100.336 171.41 100.598 172.197 100.336C172.722 100.336 173.246 99.8127 173.771 99.5511C174.296 99.0277 174.558 98.5044 174.558 97.9811Z" fill="#B8765D"/>
<path opacity="0.45" d="M170.622 104C170.622 103.738 170.622 103.738 170.622 103.738C170.622 103.738 170.622 103.738 170.622 103.476C170.622 103.476 170.622 103.476 170.622 103.215C170.622 103.215 170.622 103.215 170.36 103.215H170.098C170.098 103.215 170.098 103.215 169.835 103.215C169.835 103.215 169.835 103.215 169.573 103.215C169.573 103.215 169.573 103.215 169.31 103.215V103.476C169.31 103.476 169.31 103.476 169.573 103.738H169.835H170.098H170.36C170.098 104.523 170.36 104.261 170.622 104C170.36 104.261 170.36 104.261 170.622 104C170.36 104.261 170.36 104.261 170.622 104Z" fill="#B8765D"/>
<g opacity="0.45">
<path d="M175.608 104.261C175.608 104.261 175.608 104 175.608 104.261C175.87 104 175.87 104 175.608 104.261C175.87 104 175.87 104 175.87 104C175.87 104 175.87 104 175.608 104C175.608 104 175.608 104 175.345 104H175.083H174.821H174.558C174.558 104 174.296 104 174.296 104.261C174.296 104.261 174.296 104.261 174.296 104.523V104.785L174.558 105.046H174.821H175.083C175.345 104.523 175.345 104.523 175.608 104.261Z" fill="#B8765D"/>
</g>
<path opacity="0.45" d="M178.757 113.943V113.681C178.757 113.681 178.757 113.681 178.494 113.42V113.158C178.494 113.158 178.232 112.896 177.969 112.896H177.707C177.445 112.896 177.182 112.896 176.92 113.158H176.657C176.395 113.158 176.395 113.42 176.133 113.42C175.87 113.681 175.608 113.943 175.608 114.205C175.608 114.466 175.608 114.728 175.87 114.728C176.395 114.99 176.92 114.99 177.445 114.99C177.969 114.99 178.494 114.728 178.757 114.205C178.757 114.205 178.757 114.205 178.757 113.943Z" fill="#B8765D"/>
<path opacity="0.45" d="M186.366 115.251C186.366 115.251 186.104 115.251 186.366 115.251C186.104 115.513 185.841 115.513 186.104 115.775C186.104 116.036 186.104 116.036 186.629 116.036C186.891 116.036 186.891 116.036 187.153 116.036C187.678 116.036 187.153 114.728 186.366 115.251Z" fill="#B8765D"/>
<path opacity="0.45" d="M201.585 118.914C201.585 118.652 201.585 118.652 201.585 118.914C201.585 118.652 201.585 118.652 201.585 118.914C201.585 118.652 201.585 118.652 201.585 118.652C201.585 118.652 201.585 118.39 201.323 118.39H201.06C200.798 118.39 200.798 118.39 200.535 118.39C200.273 118.39 200.273 118.39 200.011 118.39H199.748C199.748 118.39 199.748 118.39 199.486 118.39V118.652V118.914C199.486 118.914 199.486 118.914 199.748 119.175C199.748 119.175 199.748 119.175 200.011 119.175L200.273 119.437H200.535H200.798H201.06C201.323 119.175 201.323 119.175 201.585 118.914C201.585 118.914 201.585 119.175 201.585 118.914Z" fill="#B8765D"/>
<path opacity="0.45" d="M208.407 126.502C208.145 126.502 208.145 126.502 208.407 126.502C208.407 126.502 208.407 126.241 208.407 126.502C208.407 126.241 208.145 125.979 208.145 125.979H207.882C207.62 125.717 207.095 125.717 206.833 125.717C206.57 125.717 206.308 125.979 206.046 126.241C206.046 126.241 206.046 126.502 205.783 126.502L205.521 126.764C205.521 127.026 205.259 127.026 205.521 127.287C205.521 127.549 205.783 127.549 205.783 127.549C206.833 128.072 207.882 127.811 208.67 127.026C208.407 127.026 208.407 126.764 208.407 126.502Z" fill="#B8765D"/>
<path opacity="0.45" d="M213.13 125.979C213.13 125.979 213.13 125.717 213.13 125.979C213.13 125.717 213.13 125.717 213.13 125.717H212.868H212.606H212.343H212.081C212.081 125.717 211.818 125.717 211.818 125.979V126.241V126.502C211.818 126.502 211.818 126.764 212.081 126.764C212.081 126.764 212.343 126.764 212.343 127.026C212.606 127.026 212.606 127.026 212.868 127.026H213.13C212.868 126.241 212.868 126.241 213.13 125.979C212.868 126.241 212.868 126.241 213.13 125.979Z" fill="#B8765D"/>
<path opacity="0.52" d="M204.472 99.8131C205.259 98.2431 205.521 96.6732 204.996 95.1032C204.209 93.5332 202.635 92.4865 201.06 91.7015C199.486 91.1782 197.912 91.1782 196.337 91.1782C193.451 90.9166 190.565 90.9166 187.941 91.4399C184.267 91.9632 180.331 93.0099 177.183 94.8415C174.034 96.4115 170.885 98.7665 168.786 101.645C166.949 104.523 166.949 108.448 168.786 111.326C172.197 117.083 180.594 117.868 186.366 116.298C190.302 115.251 193.713 112.896 196.6 110.018C198.174 108.448 199.486 106.878 201.06 105.046C202.11 103.476 203.422 101.906 204.472 99.8131Z" fill="#B5AA6B"/>
<path opacity="0.45" d="M222.839 96.9348C224.676 100.598 224.676 105.046 223.102 108.971C221.002 113.42 217.066 116.56 213.393 119.438C214.967 118.653 216.542 117.868 217.854 117.083C219.953 115.775 221.527 114.205 222.839 112.111C224.414 109.756 225.463 107.401 226.25 104.785C226.775 103.476 227.037 102.168 227.562 100.86C227.562 100.336 227.825 99.8131 227.825 99.0281C226.25 97.1965 224.414 95.8882 222.577 94.8415C222.052 94.5798 221.527 94.3182 221.002 94.0565C221.527 94.8415 222.314 95.8882 222.839 96.9348Z" fill="#B8765D"/>
<path d="M181.118 121.27C180.594 117.869 179.544 114.99 177.183 112.374C176.133 111.065 174.821 110.019 173.247 109.234C171.147 108.187 169.048 107.664 166.687 107.402C161.177 106.355 155.666 106.617 150.418 107.402C137.036 109.495 126.803 116.822 118.669 127.288C116.307 130.428 114.208 134.092 113.946 138.017C112.896 154.501 142.022 155.025 152.78 153.193C160.914 151.623 169.048 148.221 174.559 141.942C179.282 136.708 182.168 128.597 181.118 121.27Z" fill="#70A644"/>
<path d="M181.118 121.27C180.594 117.869 179.544 114.99 177.183 112.374C176.133 111.065 174.821 110.019 173.247 109.234C171.147 108.187 169.048 107.664 166.687 107.402C161.177 106.355 155.666 106.617 150.418 107.402C137.036 109.495 126.803 116.822 118.669 127.288C116.307 130.428 114.208 134.092 113.946 138.017C112.896 154.501 142.022 155.025 152.78 153.193C160.914 151.623 169.048 148.221 174.559 141.942C179.282 136.708 182.168 128.597 181.118 121.27ZM140.972 147.175C136.249 148.221 131.001 148.483 126.278 147.175C122.605 146.128 118.931 143.773 117.881 139.848C117.357 137.755 117.881 135.4 118.669 133.568C119.718 130.952 121.293 128.597 123.129 126.242C126.016 122.84 129.427 119.962 132.838 117.345C139.398 111.065 149.631 106.617 158.29 110.019C162.488 111.589 165.9 114.99 166.949 119.439C167.999 123.363 166.949 127.812 165.112 131.475C163.013 135.662 159.865 138.802 155.929 141.418C151.206 144.297 146.22 146.128 140.972 147.175ZM169.048 143.773C165.637 146.39 161.439 147.436 157.503 146.651C157.241 146.651 156.978 146.128 157.241 145.867C158.29 144.558 159.865 143.773 161.177 142.988C162.751 142.203 164.063 141.157 165.375 139.848C166.949 138.54 168.261 137.493 169.573 136.185C171.41 133.307 172.984 130.167 174.821 127.027C175.083 126.765 175.608 126.765 175.608 127.027C176.133 129.382 176.133 131.737 175.608 133.83C174.559 137.755 172.197 141.418 169.048 143.773Z" fill="#5C4E2A"/>
<path d="M175.346 123.625C175.608 121.009 175.083 118.654 174.559 116.037C174.559 115.775 174.034 116.037 174.296 116.037C174.296 118.13 174.296 120.224 174.296 122.579C174.034 124.934 173.247 126.765 172.197 128.858C170.098 132.522 167.212 135.4 164.063 138.017C158.553 142.727 151.993 146.39 144.646 147.96C139.66 149.007 134.675 148.745 129.689 148.745C129.427 148.745 129.164 149.268 129.427 149.268C137.823 150.576 146.745 149.792 154.617 146.128C158.028 144.558 161.439 142.203 164.325 139.848C167.736 137.232 170.623 134.092 172.984 130.428C174.034 128.335 175.083 125.98 175.346 123.625Z" fill="#844934"/>
<path opacity="0.45" d="M172.197 141.68C171.672 142.465 170.623 142.988 169.836 143.511C168.786 144.296 167.737 144.82 166.949 145.343C165.113 146.39 163.013 147.174 161.177 148.221C160.914 148.483 160.652 148.744 161.177 148.744C162.226 148.744 163.276 148.483 164.325 148.221C165.637 147.698 166.687 147.174 167.736 146.651C168.786 146.128 169.836 145.343 170.623 144.558C171.41 143.773 171.935 142.988 172.722 142.203C172.984 141.418 172.46 141.418 172.197 141.68Z" fill="#B8765D"/>
<path opacity="0.45" d="M124.179 128.858C124.179 128.596 123.917 128.596 123.917 128.596C123.654 128.596 123.654 128.596 123.392 128.596C122.867 128.596 122.08 129.12 121.817 129.643V129.905L121.555 130.166C121.293 130.428 121.03 131.213 121.293 131.475C121.555 131.998 122.605 131.998 123.129 131.736C123.654 131.475 123.917 130.951 124.179 130.428C124.179 129.905 124.441 129.381 124.179 128.858Z" fill="#B8765D"/>
<path opacity="0.45" d="M122.867 136.184C122.867 135.923 122.867 135.923 122.867 136.184C122.867 135.923 122.867 135.923 122.605 135.923C122.605 135.923 122.605 135.923 122.342 135.923C122.342 135.923 122.342 135.923 122.08 135.661H121.818C121.818 135.661 121.555 135.661 121.555 135.923C121.555 135.923 121.555 135.923 121.293 135.923C121.293 135.923 121.293 135.923 121.293 136.184C121.293 136.184 121.293 136.184 121.293 136.446C121.293 136.446 121.293 136.446 121.555 136.446H121.818H122.08C122.08 136.446 122.342 136.446 122.342 136.184C122.342 136.184 122.342 136.184 122.342 135.923C122.605 136.446 122.605 136.184 122.867 136.184Z" fill="#B8765D"/>
<g opacity="0.45">
<path d="M127.59 134.091C127.59 134.091 127.59 133.83 127.59 134.091C127.59 133.83 127.59 133.83 127.59 133.83C127.59 133.83 127.59 133.83 127.328 133.83C127.328 133.83 127.328 133.83 127.065 133.83H126.803C126.803 133.83 126.541 133.83 126.541 134.091C126.541 134.091 126.541 134.091 126.278 134.353V134.615C126.278 134.615 126.278 134.615 126.278 134.876C126.278 134.876 126.278 134.876 126.278 135.138H126.541H126.803H127.065C127.328 134.615 127.328 134.615 127.59 134.091C127.59 134.353 127.59 134.353 127.59 134.091Z" fill="#B8765D"/>
</g>
<path opacity="0.45" d="M134.412 141.941C134.412 141.941 134.412 141.68 134.15 141.68H133.888V141.418C133.625 141.418 133.625 141.418 133.363 141.418H133.1C132.838 141.418 132.576 141.68 132.313 141.941C132.313 141.941 132.313 142.203 132.051 142.203L131.788 142.465C131.526 142.726 131.526 142.988 131.526 143.25C131.526 143.511 131.788 143.773 132.051 143.773C132.576 143.773 133.1 143.773 133.625 143.25C134.15 142.988 134.412 142.465 134.412 141.941C134.412 142.203 134.412 141.941 134.412 141.941Z" fill="#B8765D"/>
<path opacity="0.45" d="M141.759 140.11C141.497 140.11 141.497 140.371 141.759 140.11C141.497 140.371 141.497 140.633 141.497 140.633C141.497 140.895 141.759 140.895 142.022 140.895C142.284 140.895 142.284 140.895 142.284 140.633C143.334 140.371 142.284 139.586 141.759 140.11Z" fill="#B8765D"/>
<path opacity="0.45" d="M157.241 137.755C157.241 137.493 156.978 137.493 157.241 137.755C156.978 137.493 156.978 137.493 157.241 137.755C156.978 137.493 156.978 137.493 157.241 137.755C157.241 137.493 157.241 137.493 157.241 137.493H156.978C156.716 137.493 156.716 137.493 156.454 137.493C156.191 137.493 156.191 137.493 155.929 137.493C155.666 137.493 155.666 137.493 155.666 137.755L155.404 138.016C155.404 138.016 155.404 138.016 155.404 138.278C155.404 138.278 155.404 138.278 155.404 138.54V138.801C155.404 138.801 155.404 138.801 155.404 139.063C155.404 139.063 155.404 139.063 155.666 139.063C155.666 139.063 155.666 139.063 155.929 139.063C155.929 139.063 156.191 139.063 156.454 139.063H156.716H156.978C156.978 139.063 157.241 139.063 157.241 138.801C156.978 138.016 156.978 138.016 157.241 137.755Z" fill="#B8765D"/>
<path opacity="0.45" d="M166.162 141.941C166.162 141.68 165.9 141.68 165.637 141.68H165.375C165.113 141.68 164.588 141.68 164.325 141.941C164.063 142.203 163.801 142.465 163.801 142.726V142.988C163.801 142.988 163.801 143.25 163.538 143.25C163.538 143.511 163.538 143.511 163.538 143.773C163.538 143.773 163.801 144.035 164.063 144.035C165.113 144.035 166.162 143.511 166.425 142.465C166.687 142.465 166.425 142.203 166.162 141.941Z" fill="#B8765D"/>
<path opacity="0.45" d="M170.623 139.848C170.623 139.587 170.623 139.587 170.623 139.848C170.36 139.587 170.36 139.587 170.623 139.848C170.36 139.587 170.36 139.587 170.36 139.587H170.098H169.836C169.836 139.587 169.836 139.587 169.573 139.587C169.573 139.587 169.573 139.587 169.311 139.587C169.311 139.587 169.048 139.587 169.048 139.848L168.786 140.11V140.372C168.786 140.372 168.786 140.633 169.048 140.633C169.048 140.633 169.048 140.633 169.311 140.633H169.573C169.836 140.633 169.836 140.633 169.836 140.372L170.098 140.11C170.36 140.11 170.36 140.11 170.623 139.848C170.623 139.848 170.36 139.848 170.623 139.848Z" fill="#B8765D"/>
<path opacity="0.52" d="M152.518 118.915C152.518 117.345 152.255 115.514 151.206 114.467C149.894 113.159 148.057 112.897 146.22 112.897C144.646 112.897 143.072 113.421 141.76 114.206C139.136 115.252 136.512 116.299 133.888 117.607C130.477 119.7 127.59 122.055 124.966 124.934C122.867 127.55 120.506 130.952 119.981 134.615C119.456 138.017 120.768 141.419 123.654 143.512C128.902 147.437 137.036 145.082 141.76 141.419C144.908 138.802 147.27 135.4 148.582 131.475C149.369 129.382 150.156 127.289 150.681 125.195C151.731 123.364 152.255 121.27 152.518 118.915Z" fill="#B2CF74"/>
<path opacity="0.45" d="M168.261 109.234C171.41 112.112 173.247 116.037 172.984 120.223C172.722 125.195 170.36 129.382 168.261 133.83C169.311 132.522 170.623 131.213 171.41 129.905C172.722 127.812 173.771 125.718 174.296 123.363C174.821 120.747 174.821 117.869 174.559 115.252C174.559 113.944 174.296 112.374 174.034 111.065C174.034 110.542 173.771 110.019 173.509 109.495C171.41 108.449 169.311 107.925 166.949 107.664C166.424 107.664 165.9 107.402 165.112 107.402C166.162 107.664 167.212 108.449 168.261 109.234Z" fill="#B8765D"/>
<path d="M167.736 175.957C166.687 172.817 165.112 169.939 162.489 167.584C161.177 166.538 159.865 165.753 158.028 165.229C155.929 164.444 153.567 164.444 151.206 164.444C145.695 164.444 140.185 165.229 135.2 166.799C121.817 171.247 112.371 180.667 105.811 192.966C104.499 195.32 103.712 197.937 103.712 200.554C102.925 219.132 133.625 215.469 144.383 211.805C152.255 209.189 159.602 204.479 164.325 197.414C168.261 191.657 169.836 183.022 167.736 175.957Z" fill="#94694D"/>
<path opacity="0.45" d="M167.736 175.957C166.687 172.817 165.112 169.939 162.489 167.584C161.177 166.538 159.865 165.753 158.028 165.229C155.929 164.444 153.567 164.444 151.206 164.444C145.695 164.444 140.185 165.229 135.2 166.799C121.817 171.247 112.371 180.667 105.811 192.966C104.499 195.32 103.712 197.937 103.712 200.554C102.925 219.132 133.625 215.469 144.383 211.805C152.255 209.189 159.602 204.479 164.325 197.414C168.261 191.657 169.836 183.022 167.736 175.957ZM131.788 207.619C127.065 209.189 122.08 210.497 117.094 209.712C113.158 209.189 109.223 207.357 107.911 203.694C107.123 201.6 107.123 199.507 107.648 197.414C108.173 194.535 109.485 191.919 110.797 189.564C113.158 185.639 116.045 182.499 119.194 179.359C124.704 172.032 134.15 166.276 143.334 168.369C147.794 169.416 151.73 172.294 153.305 176.481C154.879 180.406 154.617 184.854 153.305 188.517C151.993 192.966 149.106 196.629 145.695 199.769C141.759 203.17 137.036 205.787 131.788 207.619ZM159.077 200.03C156.191 202.909 152.255 204.74 148.057 204.479C147.794 204.479 147.532 203.955 147.794 203.694C148.582 202.385 149.894 201.339 151.206 200.292C152.518 199.245 153.83 197.937 154.879 196.629C156.191 195.32 157.241 193.751 158.553 192.181C159.865 189.041 161.177 185.639 162.226 182.237C162.226 181.976 163.013 181.976 163.013 182.237C163.801 184.331 164.063 186.686 164.063 189.041C163.801 193.227 161.964 197.152 159.077 200.03Z" fill="#172D00"/>
<path d="M162.226 179.359C162.226 176.742 161.177 174.387 160.39 172.032C160.39 171.771 159.865 172.032 160.127 172.032C160.39 174.125 160.914 176.219 160.914 178.312C160.914 180.667 160.652 182.76 159.865 184.854C158.29 188.779 155.929 192.18 153.305 195.32C148.582 200.815 142.547 205.263 135.724 207.88C131.001 209.712 126.016 210.235 121.03 211.02C120.768 211.02 120.506 211.543 120.768 211.543C129.165 211.543 138.086 209.45 145.171 204.74C148.319 202.647 151.206 200.03 153.83 197.152C156.716 194.012 159.34 190.349 160.914 186.424C161.701 184.069 162.489 181.714 162.226 179.359Z" fill="#844934"/>
<path opacity="0.45" d="M161.964 197.414C161.439 198.199 160.652 198.984 159.865 199.769C158.29 201.339 156.191 202.647 154.617 203.955C153.83 204.479 152.78 205.002 151.993 205.525C151.73 205.787 151.468 206.31 151.993 206.049C153.042 205.787 154.092 205.525 155.142 205.002C156.191 204.479 157.241 203.694 158.29 202.909C159.34 202.124 160.127 201.339 160.914 200.292C161.701 199.507 161.964 198.46 162.489 197.675C162.489 197.414 162.226 197.414 161.964 197.414Z" fill="#B8765D"/>
<path opacity="0.45" d="M112.634 191.919L112.371 191.657C112.109 191.657 112.109 191.657 111.846 191.657C111.322 191.919 110.797 192.181 110.534 192.966V193.227C110.534 193.227 110.534 193.489 110.272 193.489C110.01 194.012 109.747 194.536 110.272 195.059C110.797 195.582 111.584 195.582 112.109 195.059C112.634 194.536 112.896 194.012 112.896 193.489C112.634 192.966 112.896 192.442 112.634 191.919Z" fill="#B8765D"/>
<path opacity="0.45" d="M112.371 199.507C112.371 199.245 112.109 199.245 112.371 199.507C112.371 199.245 112.109 199.245 112.109 199.245C112.109 199.245 112.109 199.245 111.847 199.245C111.847 199.245 111.847 199.245 111.584 199.245H111.322C111.322 199.245 111.059 199.245 111.059 199.507C111.059 199.507 111.059 199.507 111.059 199.768C111.059 199.768 111.059 199.768 111.059 200.03C111.059 200.03 111.059 200.03 111.059 200.292C111.059 200.292 111.059 200.292 111.059 200.553C111.059 200.553 111.059 200.553 111.322 200.815C111.322 200.815 111.322 200.815 111.584 200.815H111.847H112.109C112.109 200.815 112.371 200.815 112.371 200.553C112.371 200.553 112.371 200.553 112.371 200.292C112.109 199.768 112.371 199.507 112.371 199.507Z" fill="#B8765D"/>
<g opacity="0.45">
<path d="M116.57 196.89C116.832 196.629 116.57 196.629 116.57 196.89C116.57 196.629 116.832 196.629 116.57 196.89C116.57 196.629 116.57 196.629 116.57 196.629C116.57 196.629 116.57 196.629 116.307 196.629C116.307 196.629 116.307 196.629 116.045 196.629H115.782C115.782 196.629 115.52 196.629 115.52 196.89C115.52 196.89 115.52 196.89 115.258 197.152V197.414C115.258 197.414 115.258 197.414 115.258 197.675C115.258 197.675 115.258 197.675 115.52 197.937H115.782H116.045C116.045 197.937 116.307 197.937 116.307 197.675C116.57 197.152 116.57 197.152 116.57 196.89Z" fill="#B8765D"/>
</g>
<path opacity="0.45" d="M124.442 203.433L124.179 203.171H123.917C123.917 203.171 123.917 202.909 123.654 202.909C123.392 202.909 123.392 202.909 123.13 202.909H122.867C122.605 202.909 122.342 203.171 122.08 203.433C122.08 203.433 122.08 203.694 121.818 203.694C121.818 203.956 121.555 203.956 121.555 204.217C121.555 204.479 121.293 204.741 121.293 205.264C121.293 205.526 121.555 205.787 121.818 205.526C122.342 205.526 122.867 205.264 123.392 204.741C123.654 204.479 124.179 203.956 124.179 203.433C124.704 203.694 124.704 203.694 124.442 203.433Z" fill="#B8765D"/>
<path opacity="0.45" d="M131.526 200.554C131.526 200.815 131.526 200.815 131.526 200.554C131.264 200.815 131.264 201.077 131.526 201.339C131.526 201.6 131.788 201.6 132.051 201.339C132.313 201.339 132.313 201.339 132.313 201.077C133.1 200.554 132.051 199.769 131.526 200.554Z" fill="#B8765D"/>
<path opacity="0.45" d="M146.483 195.844C146.483 195.582 146.483 195.582 146.483 195.844C146.483 195.582 146.483 195.582 146.22 195.582H145.958C145.695 195.582 145.695 195.582 145.433 195.582C145.171 195.582 145.171 195.582 144.908 195.844L144.646 196.105C144.646 196.105 144.646 196.367 144.383 196.367C144.383 196.367 144.383 196.367 144.383 196.629C144.383 196.629 144.383 196.629 144.383 196.89V197.152C144.383 197.152 144.383 197.152 144.646 197.414C144.646 197.414 144.646 197.414 144.908 197.414C144.908 197.414 144.908 197.414 145.171 197.414C145.171 197.414 145.433 197.414 145.695 197.414H145.958C145.958 197.414 146.22 197.414 146.22 197.152L146.483 196.89C146.483 196.367 146.483 196.105 146.483 195.844C146.483 195.844 146.483 196.105 146.483 195.844Z" fill="#B8765D"/>
<path opacity="0.45" d="M156.191 198.723C155.929 198.461 155.929 198.461 155.666 198.461C155.666 198.461 155.404 198.461 155.404 198.723C155.141 198.723 154.617 198.984 154.354 199.246C154.092 199.508 153.829 199.769 153.829 200.031V200.293V200.554C153.829 200.816 153.829 200.816 154.092 201.078C154.354 201.078 154.354 201.339 154.617 201.078C155.666 200.816 156.716 200.293 156.716 199.246C156.453 199.246 156.453 198.984 156.191 198.723Z" fill="#B8765D"/>
<path opacity="0.45" d="M160.127 195.844C159.865 195.844 159.865 195.844 160.127 195.844C159.865 195.582 159.865 195.582 159.865 195.582H159.602C159.602 195.582 159.602 195.582 159.34 195.844C159.34 195.844 159.34 195.844 159.077 195.844C159.077 195.844 159.077 195.844 158.815 195.844L158.553 196.105C158.553 196.105 158.553 196.367 158.29 196.367V196.629C158.29 196.629 158.29 196.629 158.553 196.89H158.815H159.077C159.077 196.89 159.34 196.89 159.34 196.629L159.602 196.367C159.602 196.367 159.602 196.367 159.602 196.105C159.602 196.105 159.602 196.105 159.602 195.844C160.127 196.105 160.127 196.105 160.127 195.844C160.127 195.844 160.127 196.105 160.127 195.844Z" fill="#B8765D"/>
<path d="M139.135 178.051C138.873 176.481 138.348 174.649 137.036 173.864C135.724 172.817 133.625 172.556 132.051 173.079C130.476 173.341 129.164 174.126 127.853 175.172C125.229 176.481 122.867 178.051 120.768 179.882C117.882 182.237 115.258 185.116 113.158 188.256C111.322 191.395 109.747 194.797 109.747 198.46C109.747 202.124 111.584 205.264 114.733 206.834C120.505 209.974 128.115 206.31 132.313 201.862C135.2 198.984 136.774 195.059 137.823 191.134C138.348 189.041 138.611 186.947 138.873 184.592C138.873 182.499 139.135 180.144 139.135 178.051Z" fill="#B5AA6B"/>
<path opacity="0.45" d="M153.042 166.014C156.716 168.369 159.077 172.032 159.34 176.219C159.865 181.191 158.29 185.639 156.453 190.349C157.503 189.041 158.29 187.471 159.077 185.901C160.127 183.807 160.652 181.452 160.914 179.097C161.177 176.481 160.652 173.602 159.865 170.986C159.602 169.678 159.34 168.369 158.815 167.061C158.553 166.538 158.29 166.014 158.028 165.491C155.929 164.706 153.567 164.706 151.206 164.706C150.681 164.706 150.156 164.706 149.369 164.706C150.943 164.968 151.993 165.491 153.042 166.014Z" fill="#B8765D"/>
<path d="M105.287 161.566C104.499 158.426 102.663 155.547 100.039 153.192C98.7267 152.146 97.4148 151.361 95.8404 150.837C93.7412 150.052 91.3797 150.052 89.0181 149.791C83.5079 149.529 77.9976 150.576 72.7497 152.146C59.8924 156.071 50.7086 164.706 44.1487 176.219C42.0496 179.62 40.7376 183.545 41 187.47C42.312 203.955 71.1753 200.553 81.4087 197.152C89.2805 194.535 96.89 189.825 101.351 183.022C105.287 177.265 107.123 168.631 105.287 161.566Z" fill="#70A644"/>
<path d="M105.287 161.566C104.499 158.426 102.663 155.547 100.039 153.192C98.7267 152.146 97.4148 151.361 95.8404 150.837C93.7412 150.052 91.3797 150.052 89.0181 149.791C83.5079 149.529 77.9976 150.576 72.7497 152.146C59.8924 156.071 50.7086 164.706 44.1487 176.219C42.0496 179.62 40.7376 183.545 41 187.47C42.312 203.955 71.1753 200.553 81.4087 197.152C89.2805 194.535 96.89 189.825 101.351 183.022C105.287 177.265 107.123 168.631 105.287 161.566ZM68.8138 192.704C64.0907 194.274 59.1052 195.32 54.1197 194.797C50.4462 194.274 46.2479 192.442 44.9359 188.517C44.1487 186.424 44.1487 184.33 44.6735 182.237C45.4607 179.62 46.5103 177.004 48.0846 174.387C50.4462 170.724 53.3325 167.322 56.4813 164.182C61.9915 156.856 71.4377 151.361 80.6215 153.454C85.0822 154.501 88.7558 157.379 90.5925 161.566C92.1669 165.491 91.9045 169.939 90.5925 173.602C89.0181 178.05 86.3942 181.714 82.7207 184.592C78.7848 188.517 74.0617 191.134 68.8138 192.704ZM96.3652 185.377C93.4789 188.255 89.5429 189.825 85.3446 189.825C85.0822 189.825 84.8198 189.302 85.0822 189.04C85.8694 187.732 87.1814 186.685 88.4934 185.639C89.8053 184.592 91.1173 183.284 92.1669 181.975C93.4789 180.667 94.7908 179.097 95.8404 177.789C97.4148 174.649 98.4643 171.247 99.7763 168.107C99.7763 167.846 100.563 167.846 100.563 168.107C101.351 170.201 101.613 172.556 101.351 174.91C100.826 178.835 99.2515 182.499 96.3652 185.377Z" fill="#5C4E2A"/>
<path d="M99.7761 164.705C99.7761 162.089 98.7265 159.734 98.2017 157.379C98.2017 157.117 97.6769 157.379 97.9393 157.379C98.2017 159.472 98.7265 161.565 98.7265 163.659C98.7265 166.014 98.4641 168.107 97.4145 170.2C95.8402 174.125 93.4786 177.265 90.8547 180.405C85.8692 185.9 79.8341 190.348 73.0119 192.965C68.2888 194.797 63.3033 195.32 58.3178 195.843C58.0554 195.843 57.793 196.367 58.0554 196.367C66.452 196.367 75.3734 194.273 82.4581 189.825C85.6068 187.732 88.7555 185.115 91.3795 182.237C94.2658 179.097 96.8897 175.695 98.4641 171.509C98.9889 169.415 99.7761 167.06 99.7761 164.705Z" fill="#844934"/>
<path opacity="0.45" d="M99.2515 183.022C98.7267 183.807 97.9395 184.592 97.1524 185.377C96.3652 186.162 95.3156 186.947 94.5284 187.471C92.6917 188.779 90.8549 189.826 89.0181 191.134C88.7558 191.396 88.7558 191.657 89.0181 191.657C90.0677 191.396 91.1173 191.134 92.1669 190.611C93.2165 190.087 94.266 189.302 95.3156 188.517C96.3652 187.732 97.1524 186.947 97.9396 185.901C98.7267 185.116 98.9891 184.069 99.5139 183.284C99.7763 182.761 99.2515 182.761 99.2515 183.022Z" fill="#B8765D"/>
<path opacity="0.45" d="M49.9214 177.004L49.659 176.742C49.3966 176.742 49.3966 176.742 49.1342 176.742C48.6095 177.004 48.0847 177.265 47.8223 177.789V178.05C47.8223 178.05 47.8223 178.312 47.5599 178.312C47.2975 178.835 47.0351 179.359 47.5599 179.882C48.0847 180.405 48.8719 180.405 49.3966 179.882C49.9214 179.62 50.1838 178.835 50.1838 178.312C49.9214 177.789 50.1838 177.265 49.9214 177.004Z" fill="#B8765D"/>
<path opacity="0.45" d="M49.3965 184.33C49.3965 184.068 49.3965 184.068 49.3965 184.33C49.3965 184.068 49.1341 184.068 49.1341 184.068C49.1341 184.068 49.1341 184.068 48.8717 184.068C48.8717 184.068 48.8717 184.068 48.6093 184.068H48.3469C48.3469 184.068 48.0845 184.068 48.0845 184.33C48.0845 184.33 48.0845 184.33 48.0845 184.592C48.0845 184.592 48.0845 184.592 48.0845 184.853C48.0845 184.853 48.0845 184.853 48.0845 185.115C48.0845 185.115 48.0845 185.115 48.0845 185.377C48.0845 185.377 48.0845 185.377 48.3469 185.638C48.3469 185.638 48.3469 185.638 48.6093 185.638H48.8717H49.1341C49.1341 185.638 49.3965 185.638 49.3965 185.377C49.3965 185.377 49.3965 185.377 49.3965 185.115C49.3965 184.592 49.3965 184.33 49.3965 184.33Z" fill="#B8765D"/>
<g opacity="0.45">
<path d="M53.8573 181.714C53.8573 181.714 53.8573 181.452 53.8573 181.714C53.8573 181.452 53.8573 181.452 53.8573 181.714C53.8573 181.452 53.8573 181.452 53.8573 181.452C53.8573 181.452 53.8573 181.452 53.5949 181.452C53.5949 181.452 53.5949 181.452 53.3325 181.452H53.0701C53.0701 181.452 52.8077 181.452 52.8077 181.714C52.8077 181.714 52.8077 181.714 52.5453 181.975V182.237C52.5453 182.237 52.5453 182.237 52.5453 182.499C52.5453 182.499 52.5453 182.499 52.8077 182.76H53.0701H53.3325C53.3325 182.76 53.5949 182.76 53.5949 182.499C53.5949 181.975 53.8573 181.975 53.8573 181.714C53.8573 181.714 53.8573 181.975 53.8573 181.714Z" fill="#B8765D"/>
</g>
<path opacity="0.45" d="M61.7294 188.517L61.467 188.256H61.2046C61.2046 188.256 61.2046 187.994 60.9422 187.994C60.6798 187.994 60.6798 187.994 60.4174 187.994H60.155C59.8926 187.994 59.6302 188.256 59.3678 188.517C59.3678 188.517 59.3678 188.779 59.1054 188.779C59.1054 189.041 58.843 189.041 58.843 189.302C58.843 189.564 58.5806 189.826 58.5806 190.349C58.5806 190.611 58.843 190.872 59.1054 190.611C59.6302 190.611 60.155 190.349 60.6798 190.087C60.9422 189.826 61.467 189.302 61.467 188.779C61.7294 188.779 61.7294 188.517 61.7294 188.517Z" fill="#B8765D"/>
<path opacity="0.45" d="M68.5514 185.639C68.5514 185.639 68.5514 185.9 68.5514 185.639C68.289 185.9 68.289 186.162 68.5514 186.424C68.5514 186.685 68.8138 186.685 69.0762 186.424C69.3386 186.424 69.3386 186.424 69.3386 186.162C70.1258 185.639 69.0762 184.854 68.5514 185.639Z" fill="#B8765D"/>
<path opacity="0.45" d="M83.7703 181.19C83.5079 180.929 83.5079 180.929 83.7703 181.19C83.5079 180.929 83.5079 180.929 83.7703 181.19C83.5079 180.929 83.5079 180.929 83.7703 181.19C83.7703 180.929 83.7703 180.929 83.5079 180.929H83.2455C82.9831 180.929 82.9831 180.929 82.7207 180.929C82.4583 180.929 82.4583 180.929 82.1959 181.19L81.9335 181.452C81.9335 181.452 81.9335 181.714 81.6711 181.714C81.6711 181.714 81.6711 181.714 81.6711 181.975C81.6711 181.975 81.6711 181.975 81.6711 182.237V182.499C81.6711 182.499 81.6711 182.499 81.9335 182.76C81.9335 182.76 81.9335 182.76 82.1959 182.76C82.1959 182.76 82.1959 182.76 82.4583 182.76C82.4583 182.76 82.7207 182.76 82.9831 182.76H83.2455C83.2455 182.76 83.5079 182.76 83.5079 182.499L83.7703 182.237C83.5079 181.452 83.7703 181.452 83.7703 181.19Z" fill="#B8765D"/>
<path opacity="0.45" d="M93.2166 184.068C93.2166 183.807 92.9542 183.807 92.6918 183.807C92.6918 183.807 92.4294 183.807 92.4294 184.068C92.167 184.068 91.6422 184.33 91.3798 184.592C91.1174 184.853 90.855 185.115 90.855 185.376V185.638V185.9C90.855 186.161 90.855 186.161 91.1174 186.423C91.3798 186.423 91.3798 186.685 91.6422 186.423C92.6918 186.161 93.7414 185.638 93.7414 184.592C93.7414 184.592 93.479 184.33 93.2166 184.068Z" fill="#B8765D"/>
<path opacity="0.45" d="M97.1524 181.452C97.1524 181.19 97.1524 181.19 97.1524 181.452C97.1524 181.19 97.1524 181.19 97.1524 181.452C96.89 181.19 96.89 181.19 96.89 181.19H96.6276C96.6276 181.19 96.6276 181.19 96.3652 181.19C96.3652 181.19 96.3652 181.19 96.1028 181.19C96.1028 181.19 96.1028 181.19 95.8404 181.19L95.578 181.452C95.578 181.452 95.578 181.714 95.3156 181.714V181.975C95.3156 181.975 95.3156 181.975 95.578 182.237H95.8404H96.1028C96.1028 182.237 96.3652 182.237 96.3652 181.975L96.6276 181.714C96.6276 181.714 96.6276 181.714 96.6276 181.452C96.6276 181.452 96.6276 181.452 96.6276 181.19C97.1524 181.452 97.1524 181.452 97.1524 181.452Z" fill="#B8765D"/>
<path d="M76.4234 163.135C76.161 161.565 75.6362 159.734 74.3243 158.949C73.0123 157.902 70.9132 157.64 69.3388 158.164C67.7644 158.425 66.4525 159.21 65.1405 160.257C62.5165 161.565 60.155 162.874 58.0558 164.705C55.1695 167.06 52.2832 169.939 50.4464 173.079C48.6096 176.219 47.0353 179.62 46.7729 183.283C46.7729 186.947 48.6096 190.087 51.7584 191.657C57.531 194.797 65.1405 191.395 69.3388 186.947C72.2251 184.068 73.7995 180.143 74.8491 176.219C75.3739 174.125 75.6362 172.032 76.161 169.677C76.4234 167.584 76.6858 165.49 76.4234 163.135Z" fill="#B5AA6B"/>
<path opacity="0.45" d="M90.5925 151.361C94.0036 153.716 96.3652 157.379 96.89 161.566C97.4148 166.537 95.578 170.986 94.0036 175.695C95.0532 174.387 95.8404 172.817 96.6276 171.247C97.6772 169.154 98.202 166.799 98.4643 164.444C98.7267 161.827 98.202 158.949 97.6772 156.332C97.4148 155.024 97.1524 153.716 96.6276 152.407C96.3652 151.884 96.1028 151.361 95.8404 150.837C93.7412 150.052 91.3797 150.052 89.0182 149.791C88.4934 149.791 87.9686 149.791 87.1814 149.791C88.4934 150.052 89.5429 150.576 90.5925 151.361Z" fill="#B8765D"/>
<path d="M257.738 137.493C258.262 134.091 257.738 130.951 256.163 127.811C255.376 126.241 254.327 124.933 253.015 123.886C251.44 122.316 249.341 121.27 247.242 120.485C242.256 118.13 237.008 116.822 231.498 116.298C217.329 114.99 205.259 119.961 194.238 128.596C192.139 130.166 190.302 132.26 189.253 134.615C181.119 151.361 210.769 160.258 222.052 161.043C230.449 161.828 239.108 160.258 245.93 155.809C251.703 151.884 256.95 144.819 257.738 137.493Z" fill="#70A644"/>
<path d="M257.738 137.493C258.262 134.091 257.738 130.951 256.163 127.811C255.376 126.241 254.327 124.933 253.015 123.886C251.44 122.316 249.341 121.27 247.242 120.485C242.256 118.13 237.008 116.822 231.498 116.298C217.329 114.99 205.259 119.961 194.238 128.596C192.139 130.166 190.302 132.26 189.253 134.615C181.119 151.361 210.769 160.258 222.052 161.043C230.449 161.828 239.108 160.258 245.93 155.809C251.703 151.884 256.95 144.819 257.738 137.493ZM212.081 152.146C207.096 151.884 202.11 150.838 197.649 148.221C194.238 146.128 191.352 142.988 191.614 138.801C191.614 136.708 192.664 134.615 193.976 132.783C195.55 130.428 197.649 128.596 200.011 127.026C203.684 124.41 207.62 122.578 211.819 121.008C219.69 116.56 230.711 114.99 238.32 120.485C241.994 123.101 244.356 127.288 244.356 131.998C244.356 136.185 242.256 140.11 239.632 143.249C236.484 146.651 232.548 149.006 228.087 150.314C222.839 152.146 217.329 152.669 212.081 152.146ZM240.157 156.071C236.221 157.641 232.023 157.641 228.349 155.809C228.087 155.548 228.087 155.286 228.349 155.024C229.661 154.239 231.236 153.716 232.81 153.193C234.385 152.669 235.959 152.146 237.533 151.361C239.37 150.576 240.944 149.791 242.519 148.744C245.143 146.389 247.504 143.773 249.866 141.156C250.128 140.895 250.653 141.156 250.653 141.418C250.653 143.773 249.866 145.866 248.816 147.959C246.979 151.623 243.831 154.501 240.157 156.071Z" fill="#5C4E2A"/>
<path d="M251.44 138.278C252.49 135.923 252.49 133.306 252.752 130.951C252.752 130.689 252.49 130.689 252.227 130.951C251.703 133.044 251.178 135.138 250.391 137.231C249.603 139.324 248.291 141.156 246.717 142.726C243.831 145.604 240.42 147.959 236.484 149.529C229.924 152.669 222.577 154.501 215.23 154.239C210.244 153.977 205.259 152.669 200.536 151.361C200.273 151.361 199.749 151.622 200.273 151.884C208.145 155.286 217.067 156.856 225.463 155.286C229.399 154.501 233.073 153.454 236.484 151.622C240.42 149.791 244.093 147.697 247.242 144.558C249.079 142.464 250.391 140.633 251.44 138.278Z" fill="#844934"/>
<path opacity="0.45" d="M243.831 154.764C243.044 155.287 241.994 155.81 240.944 156.072C238.845 156.857 236.484 157.38 234.384 157.904C233.335 158.165 232.285 158.165 231.236 158.165C230.973 158.165 230.711 158.688 230.973 158.688C232.023 158.95 233.073 158.95 234.122 158.95C235.434 158.95 236.746 158.427 238.058 158.165C239.37 157.904 240.42 157.38 241.469 156.857C242.519 156.334 243.306 155.81 244.093 155.025C244.355 155.025 244.093 154.764 243.831 154.764Z" fill="#B8765D"/>
<path opacity="0.45" d="M200.798 130.167C200.798 129.905 200.798 129.905 200.536 129.905C200.273 129.905 200.273 129.643 200.011 129.643C199.486 129.643 198.699 129.905 198.174 130.167C198.174 130.167 198.174 130.167 197.912 130.428C197.912 130.428 197.649 130.428 197.649 130.69C197.387 130.952 196.862 131.475 196.862 131.998C197.125 132.783 197.912 132.783 198.437 132.783C198.961 132.522 199.486 132.26 199.749 131.737C200.536 131.213 200.798 130.69 200.798 130.167Z" fill="#B8765D"/>
<path opacity="0.45" d="M197.387 136.709C197.387 136.447 197.387 136.447 197.387 136.447C197.387 136.447 197.387 136.447 197.125 136.185C197.125 136.185 197.125 136.185 197.125 135.924H196.862H196.6C196.6 135.924 196.6 135.924 196.338 135.924C196.338 135.924 196.338 135.924 196.075 135.924C196.075 135.924 196.075 135.924 196.075 136.185C196.075 136.185 196.075 136.185 196.338 136.447H196.6H196.862H197.125C197.125 136.447 197.125 136.447 197.387 136.447C197.387 136.97 197.387 136.97 197.387 136.709C197.387 136.97 197.387 136.97 197.387 136.709Z" fill="#B8765D"/>
<g opacity="0.45">
<path d="M202.635 136.185C202.635 135.924 202.635 135.924 202.635 136.185C202.898 135.924 202.898 135.924 202.898 135.924C202.898 135.924 202.898 135.924 202.635 135.924C202.635 135.924 202.635 135.924 202.373 135.924H202.11H201.848H201.586C201.586 135.924 201.586 136.185 201.323 136.185C201.323 136.185 201.323 136.185 201.323 136.447V136.709C201.323 136.709 201.586 136.709 201.586 136.97H201.848H202.11C202.11 136.447 202.373 136.447 202.635 136.185C202.373 136.185 202.373 136.447 202.635 136.185Z" fill="#B8765D"/>
</g>
<path opacity="0.45" d="M207.096 145.343C207.096 145.343 207.096 145.082 206.833 145.082C206.833 145.082 206.833 145.082 206.571 144.82V144.558C206.309 144.558 206.309 144.558 206.046 144.558H205.784C205.521 144.558 205.259 144.82 204.997 144.82C204.997 144.82 204.734 144.82 204.734 145.082C204.472 145.082 204.472 145.343 204.472 145.343C204.209 145.605 203.947 145.867 203.947 146.128C203.947 146.39 204.209 146.652 204.472 146.652C204.997 146.913 205.521 146.913 206.046 146.652C206.571 146.39 207.096 146.128 207.358 145.605C207.096 145.605 207.096 145.605 207.096 145.343Z" fill="#B8765D"/>
<path opacity="0.45" d="M214.705 145.605C214.705 145.605 214.443 145.605 214.705 145.605C214.18 145.867 214.18 146.129 214.18 146.129C214.18 146.39 214.443 146.39 214.705 146.39C214.967 146.39 214.967 146.39 215.23 146.39C216.017 146.129 215.492 145.082 214.705 145.605Z" fill="#B8765D"/>
<path opacity="0.45" d="M230.186 147.175C230.186 146.913 230.186 146.913 230.186 147.175C230.186 146.913 230.186 146.913 230.186 147.175C230.186 146.913 230.186 146.913 230.186 146.913C230.186 146.913 230.186 146.651 229.924 146.651C229.662 146.651 229.662 146.651 229.399 146.651C229.137 146.651 229.137 146.651 228.875 146.651C228.612 146.651 228.612 146.651 228.612 146.651C228.612 146.651 228.35 146.651 228.35 146.913C228.35 146.913 228.35 146.913 228.087 146.913V147.175V147.436C228.087 147.436 228.087 147.436 228.35 147.698C228.35 147.698 228.35 147.698 228.612 147.698C228.612 147.698 228.875 147.698 229.137 147.698H229.399H229.662C229.662 147.698 229.924 147.698 229.924 147.436C229.924 147.436 230.186 147.436 230.186 147.175C230.186 147.175 230.186 147.436 230.186 147.175Z" fill="#B8765D"/>
<path opacity="0.45" d="M238.058 153.716C238.058 153.716 238.058 153.455 238.058 153.716C238.058 153.455 237.796 153.193 237.796 153.193H237.533C237.271 153.193 236.746 153.193 236.484 153.193C236.221 153.193 235.959 153.455 235.697 153.716V153.978L235.434 154.24C235.434 154.501 235.434 154.501 235.434 154.763C235.434 155.025 235.697 155.025 235.959 155.025C237.009 155.286 238.058 155.025 238.845 154.24C238.058 154.24 238.058 153.978 238.058 153.716Z" fill="#B8765D"/>
<path opacity="0.45" d="M242.781 152.67C242.781 152.67 242.781 152.408 242.781 152.67C242.519 152.408 242.519 152.408 242.781 152.67C242.781 152.408 242.781 152.408 242.519 152.408H242.256H241.994C241.994 152.408 241.994 152.408 241.732 152.408H241.469H241.207C241.207 152.408 240.945 152.408 240.945 152.67V152.931V153.193C240.945 153.193 240.945 153.193 241.207 153.455H241.469C241.732 153.455 241.732 153.455 241.994 153.455C241.994 153.455 242.256 153.455 242.256 153.193C242.256 152.931 242.519 152.931 242.781 152.67C242.519 152.67 242.519 152.931 242.781 152.67C242.519 152.67 242.519 152.67 242.781 152.67Z" fill="#B8765D"/>
<path d="M230.449 127.812C230.973 126.242 231.236 124.41 230.186 123.102C229.399 121.532 227.562 120.747 225.726 120.224C224.151 119.962 222.577 119.962 221.002 120.485C218.116 120.747 215.492 121.009 212.606 121.793C208.932 122.84 205.521 124.41 202.372 126.503C199.486 128.597 196.6 131.213 195.025 134.615C193.451 137.755 194.238 141.418 196.337 144.297C200.536 149.53 208.932 149.268 214.443 146.913C218.116 145.343 221.265 142.465 223.626 139.063C224.938 137.232 226.25 135.4 227.3 133.568C228.612 131.998 229.924 129.905 230.449 127.812Z" fill="#B5AA6B"/>
<path opacity="0.45" d="M248.291 122.578C250.653 125.98 251.44 130.428 250.128 134.353C248.816 139.063 245.405 142.726 241.994 146.128C243.306 145.081 244.88 144.296 246.192 142.988C248.029 141.418 249.341 139.586 250.653 137.493C251.965 135.138 252.49 132.26 253.015 129.643C253.277 128.335 253.539 127.026 253.539 125.456C253.539 124.933 253.539 124.41 253.539 123.625C251.703 122.055 249.866 121.008 247.767 120.223C247.242 119.961 246.717 119.7 246.192 119.438C246.717 120.485 247.504 121.531 248.291 122.578Z" fill="#B8765D"/>
</g>
<defs>
<clipPath id="clip0_1_605">
<rect width="217" height="129" fill="white" transform="translate(41 85.6836)"/>
</clipPath>
</defs>
</svg>
