<svg xmlns="http://www.w3.org/2000/svg" width="301" height="301" fill="none" xmlns:v="https://vecta.io/nano"><style><![CDATA[.B{opacity:.45}.C{fill:#b8765d}.D{fill:#844934}.E{fill:#5c4e2a}.F{fill:#b5aa6b}.G{fill:#70a644}]]></style><circle cx="150.1" cy="150.183" r="147.803" transform="rotate(0.894 150.1 150.183)" fill="#ffd94e"/><g clip-path="url(#A)"><path d="M145.171 116.822c1.312-2.879 2.099-6.019 1.574-9.42-.263-1.57-.787-3.14-1.574-4.449-1.05-1.831-2.624-3.401-4.199-4.971-3.936-3.663-8.396-6.542-13.119-8.635-12.595-5.495-25.19-4.71-38.048 0-2.624 1.047-4.985 2.355-6.822 4.187-12.595 12.822 12.07 29.829 22.041 34.278 7.347 3.14 15.744 4.449 23.616 2.355 6.56-1.831 13.382-7.065 16.531-13.344z" class="G"/><path d="M145.171 116.822c1.312-2.879 2.099-6.019 1.574-9.42-.263-1.57-.787-3.14-1.574-4.449-1.05-1.831-2.624-3.401-4.199-4.971-3.936-3.663-8.396-6.542-13.119-8.635-12.595-5.495-25.19-4.71-38.048 0-2.624 1.047-4.985 2.355-6.822 4.187-12.595 12.822 12.07 29.829 22.041 34.278 7.347 3.14 15.744 4.449 23.616 2.355 6.56-1.831 13.382-7.065 16.531-13.344zm-46.444-.262c-4.461-1.832-8.921-4.187-12.07-7.85-2.361-2.878-4.198-6.803-2.624-10.467.787-2.093 2.099-3.663 3.936-4.71 2.099-1.57 4.723-2.617 7.347-3.402 4.198-1.308 8.396-1.832 12.595-2.093 8.659-1.832 19.154 0 24.402 7.588 2.624 3.663 3.411 8.111 2.099 12.298-1.312 3.663-4.46 6.803-7.871 8.897-3.936 2.354-8.397 3.139-12.858 3.139-4.985-.261-10.233-1.308-14.956-3.401zm24.402 12.036c-3.936.262-7.871-1.046-10.758-3.925-.262-.261 0-.523.263-.785 1.574-.523 3.148-.261 4.723-.261s3.411 0 4.985-.262l5.248-.785c3.149-1.308 6.035-3.14 8.922-4.71.262-.261.787.262.524.524-.787 2.093-2.099 3.924-3.673 5.494-2.624 2.879-6.298 4.449-10.234 4.71z" class="E"/><path d="M138.873 115.775c1.574-1.832 2.362-4.187 3.411-6.542 0-.261-.262-.261-.262-.261-1.05 1.831-2.099 3.663-3.411 5.233-1.312 1.832-3.149 2.878-4.986 3.925-3.673 1.832-7.347 2.878-11.283 3.14-7.084.785-14.169.262-20.991-2.093-4.723-1.832-8.659-4.449-12.595-7.327-.262 0-.787 0-.525.262 6.035 5.495 13.907 9.42 22.041 10.728 3.674.523 7.61.523 11.283 0 4.198-.523 8.134-1.308 12.07-3.14 1.837-1.047 3.674-2.355 5.248-3.925z" class="D"/><g class="C"><path d="M127.065 128.596c-1.049.262-2.099.262-2.886.262-2.099 0-4.461-.262-6.56-.262-1.049 0-1.837-.261-2.886-.523-.263 0-.787.262-.263.523.788.524 1.837.785 2.887 1.047 1.312.262 2.361.523 3.673.523s2.362 0 3.674-.261l2.886-.785c0-.262-.525-.524-.525-.524zM94.791 93.01v-.262c0-.262-.262-.262-.262-.262a2.25 2.25 0 0 0-1.837 0h-.262-.262c-.525.262-1.05.523-1.05 1.047 0 .785.525 1.047 1.312 1.047.525 0 1.05-.262 1.574-.523.262-.262.787-.523.787-1.047zm-4.986 4.972v-.262-.262-.262l-.262-.262h-.262-.262-.262-.262-.262v.262.262h.262.262.262c.525.785.525.785.787.523 0 .262-.262.262 0 0z" class="B"/><g class="B"><path d="M94.791 99.029c0-.262 0-.262 0 0l.262-.262h-.262-.262-.262-.262s-.262 0-.262.262v.262.262s0 .262.262.262h.262.262c-.262-.523 0-.523.262-.785-.262 0-.262 0 0 0z"/></g><path d="M96.103 108.71v-.261-.262-.262l-.262-.261h-.262-.787-.262c-.262 0-.262 0-.525.261s-.525.262-.787.524 0 .523.262.785c.525.261 1.05.523 1.574.523s1.05-.262 1.312-.523c-.262-.262-.262-.262-.262-.524zm6.822 2.616c-.525 0-.525.262-.525.523s0 .262.263.524h.262c1.05 0 .787-1.309 0-1.047zm13.907 6.019v-.262s0-.262-.262-.262l-.263-.261c-.262 0-.262-.262-.525-.262h-.262-.262-.263-.262s0 .262-.263.262v.261.262h.263l.262.262h.263.262.262c.788.261.788.261 1.05 0 0 .261 0 .261 0 0zm4.985 8.373h0c0-.262 0-.523-.262-.523h-.262c-.263-.262-.525-.262-1.05-.262-.262 0-.525 0-.787.262l-.263.261s-.262 0-.262.262c0 0-.262.262-.262.523s.262.262.262.524c.787.523 2.099.523 2.886 0 .263-.524.263-.785 0-1.047zm4.724.524s0-.262 0 0c0-.262 0-.262 0 0v-.262h-.263-.262-.263-.262-.262s0 .262-.263.262v.261.262l.263.262h.262.262c.525-.785.525-.785.788-.785 0 0-.263 0 0 0z" class="B"/></g><path d="M122.867 99.813c1.05-1.308 1.574-2.878 1.312-4.448s-1.574-3.14-3.149-3.925c-1.312-.523-2.886-1.047-4.46-1.047l-8.135-1.308c-3.673-.262-7.347.262-10.758 1.308-3.149 1.047-6.822 2.617-9.184 5.233s-2.886 6.018-1.837 9.158c2.362 6.018 9.971 8.373 15.743 7.85 3.936-.262 7.61-2.093 10.758-4.187 1.837-1.308 3.412-2.616 4.986-3.925 1.837-1.57 3.411-2.878 4.723-4.71z" class="F"/><path d="M140.71 100.075c1.049 3.925.525 8.112-1.837 11.513-2.624 3.925-6.822 6.018-11.021 8.373 1.575-.523 3.149-.785 4.724-1.57 2.099-.785 3.935-2.093 5.772-3.663 1.837-1.831 3.149-4.186 4.461-6.541.525-1.047 1.312-2.355 1.837-3.664.262-.523.262-1.046.525-1.57-1.05-1.831-2.624-3.401-4.199-4.971-.525-.262-.787-.785-1.312-1.047.263 1.047.787 2.093 1.05 3.14z" class="B C"/><path d="M121.818 140.109c.787-3.14 1.049-6.541 0-9.681-.525-1.57-1.312-3.14-2.362-4.187-1.574-1.832-3.411-3.14-5.248-4.187-4.723-2.878-9.709-4.971-14.956-6.28-13.12-3.139-25.452-.261-36.998 6.019-3.411 1.831-6.822 4.448-8.659 8.111-7.347 14.653 19.155 26.69 29.651 29.045 8.134 1.832 17.055 1.57 24.402-1.832 6.298-3.401 12.333-9.943 14.17-17.008z" fill="#b98261"/><path d="M121.818 140.109c.787-3.14 1.049-6.541 0-9.681-.525-1.57-1.312-3.14-2.362-4.187-1.574-1.832-3.411-3.14-5.248-4.187-4.723-2.878-9.709-4.971-14.956-6.28-13.12-3.139-25.452-.261-36.998 6.019-3.411 1.831-6.822 4.448-8.659 8.111-7.347 14.653 19.155 26.69 29.651 29.045 8.134 1.832 17.055 1.57 24.402-1.832 6.298-3.401 12.333-9.943 14.17-17.008zm-47.231 8.373c-4.723-1.046-9.709-2.616-13.644-5.756-2.886-2.355-5.51-6.018-4.723-9.943.525-2.355 1.574-4.187 3.149-5.757 2.099-2.093 4.461-3.663 6.822-4.972 3.936-2.093 8.134-3.401 12.595-4.448 8.397-3.402 19.68-3.402 26.239 3.14 3.149 3.14 4.986 7.588 4.199 12.037-.788 4.186-3.149 7.849-6.298 10.466-3.411 3.14-7.872 4.71-12.332 5.495-5.248 1.047-10.758.785-16.006-.262zm27.289 7.589c-3.936 1.046-8.397.261-11.808-1.832-.262-.262-.262-.523 0-.785 1.574-.785 3.149-1.047 4.723-1.047 1.837-.261 3.411-.785 4.986-1.046 1.837-.524 3.674-1.047 5.248-1.832 2.887-2.093 5.511-4.187 8.397-6.542.262-.261.787 0 .787.524-.525 2.355-1.312 4.448-2.624 6.28-2.361 2.878-5.773 5.233-9.708 6.28z" class="E"/><path d="M115.52 140.11c1.312-2.355 1.574-4.71 2.362-7.065 0-.262-.263-.262-.263 0-.787 2.093-1.574 3.925-2.624 5.756-1.049 2.094-2.624 3.664-4.46 4.972-3.149 2.616-7.085 4.186-11.021 5.495-7.085 2.093-14.432 2.878-21.779 1.57-4.986-.785-9.446-3.14-14.169-4.972-.262 0-.787.262-.525.262 7.347 4.448 16.006 7.065 24.403 6.803 3.936-.262 7.872-.785 11.545-2.093 4.198-1.309 8.134-2.879 11.546-5.495 1.836-1.57 3.673-3.14 4.985-5.233z" class="D"/><g class="C"><path d="M105.549 155.285c-.788.523-2.1.523-2.887.785-1.049.262-2.361.262-3.411.523-2.099.262-4.198.262-6.56.262-.262 0-.525.262-.262.523 1.05.524 2.099.524 3.149.785 1.312 0 2.624 0 3.936-.261l3.673-.785c1.05-.262 1.837-.785 2.886-1.57.263 0-.262-.262-.524-.262zm-39.097-30.353c0-.261 0-.261-.262-.261 0 0-.262-.262-.525-.262-.525-.262-1.312 0-1.837.262l-.262.261s-.262 0-.262.262c-.525.262-.787.785-.787 1.308 0 .785.787 1.047 1.574.785.525 0 1.05-.523 1.574-.785.262-.523.787-1.046.787-1.57zm-4.198 6.28c0-.261 0-.261 0 0v-.261-.262-.262h-.262-.262-.262-.262-.262v.262l.262.262h.262.262.262c0 .523 0 .523.262.261-.262 0-.262.262 0 0z" class="B"/><g class="B"><path d="M67.239 131.212h0c.262-.261.262-.261 0 0l.262-.261h-.262-.262-.262-.262-.262s-.262 0-.262.261v.262.262l.262.261h.262.262c.262-.523.262-.523.525-.785 0 0 0 .262 0 0z"/></g><path d="M70.65 140.894v-.262l-.262-.261v-.262s-.262-.262-.525-.262h-.262c-.262 0-.525 0-.787.262h-.262c-.262 0-.262.262-.525.262-.525.261-.787.523-.787.785s0 .523.262.523c.525.262 1.05.262 1.574.262s1.05-.262 1.312-.785c0 0 .262 0 .262-.262zm7.348 1.308c-.262.262-.525.262-.262.523 0 .262 0 .262.525.262h.525c.525 0 0-1.047-.787-.785zm15.218 3.663c0-.262 0-.262 0 0v-.262s0-.261-.262-.261h-.262-.525-.525-.262-.262v.261.262l.262.262h.262l.262.261h.262.262.262c.262 0 .525-.261.525-.523 0 .262 0 .262 0 0zm6.823 7.589c0-.262-.263-.524-.263-.524h-.262c-.262-.261-.787-.261-1.049-.261s-.525.261-.787.523c0 0 0 .262-.262.262l-.262.261c0 .262-.262.262 0 .524 0 .261.262.261.262.261 1.05.524 2.099.262 2.886-.523-.262 0-.262-.262-.262-.523zm4.723-.524v-.261h-.263-.262-.263-.262s-.262 0-.262.261v.262.262s0 .261.262.261c0 0 .262 0 .262.262h.525.263c-.263-.785-.263-.785 0-1.047 0 .262 0 .262 0 0 0 .262 0 .262 0 0z" class="B"/></g><path d="M96.103 126.764c.787-1.57 1.049-3.14.525-4.71a7.15 7.15 0 0 0-3.936-3.401c-1.574-.524-3.149-.524-4.723-.524-2.886-.261-5.773-.261-8.397.262-3.674.523-7.609 1.57-10.758 3.402-3.149 1.57-6.298 3.925-8.397 6.803-1.837 2.878-1.837 6.803 0 9.681 3.411 5.757 11.808 6.542 17.58 4.972 3.936-1.047 7.347-3.402 10.233-6.28 1.574-1.57 2.886-3.14 4.461-4.971 1.312-1.309 2.624-3.14 3.411-5.234z" class="F"/><path d="M114.47 123.886c1.837 3.663 1.837 8.112.263 12.037-2.099 4.448-6.035 7.588-9.709 10.466 1.575-.785 3.149-1.57 4.461-2.355a15.05 15.05 0 0 0 4.985-4.972c1.575-2.355 2.624-4.709 3.412-7.326.524-1.308.787-2.617 1.312-3.925 0-.523.262-1.047.262-1.832-1.574-1.831-3.411-3.14-5.248-4.186l-1.574-.785c.787.785 1.312 1.831 1.836 2.878z" class="B C"/><path d="M230.186 113.158c.787-3.14 1.05-6.542 0-9.682-.525-1.57-1.312-3.14-2.361-4.186-1.575-1.832-3.412-3.14-5.248-4.187-4.723-2.878-9.709-4.972-14.957-6.28-13.119-3.14-25.452-.262-36.997 6.018-3.411 1.832-6.823 4.448-8.659 8.111-7.347 14.653 19.154 26.69 29.65 29.045 8.134 1.831 17.056 1.57 24.403-1.832 6.297-3.663 12.332-9.943 14.169-17.008z" fill="#b98261"/><path d="M230.186 113.158c.787-3.14 1.05-6.542 0-9.682-.525-1.57-1.312-3.14-2.361-4.186-1.575-1.832-3.412-3.14-5.248-4.187-4.723-2.878-9.709-4.972-14.957-6.28-13.119-3.14-25.452-.262-36.997 6.018-3.411 1.832-6.823 4.448-8.659 8.111-7.347 14.653 19.154 26.69 29.65 29.045 8.134 1.831 17.056 1.57 24.403-1.832 6.297-3.663 12.332-9.943 14.169-17.008zm-47.231 8.373c-4.723-1.046-9.708-2.616-13.644-5.756-2.887-2.355-5.511-6.019-4.723-9.944.262-2.093 1.574-3.925 3.148-5.495 2.099-2.093 4.461-3.663 6.823-4.971 3.936-2.093 8.134-3.402 12.595-4.448 8.396-3.402 19.679-3.402 26.239 3.14 3.149 3.14 4.985 7.588 4.198 12.036-.787 4.187-3.148 7.85-6.297 10.467-3.411 3.14-7.872 4.71-12.333 5.495-5.248.785-10.758.523-16.006-.524zm27.289 7.588c-3.936 1.047-8.396.262-11.808-1.831-.262-.262-.262-.524 0-.785 1.575-.785 3.149-1.047 4.724-1.047 1.836-.261 3.411-.785 4.985-1.046 1.837-.524 3.674-1.047 5.248-1.832 2.886-2.093 5.51-4.187 8.397-6.542.262-.261.787 0 .787.524-.525 2.355-1.312 4.448-2.624 6.28-2.362 2.878-5.773 5.233-9.709 6.279z" class="E"/><path d="M223.626 113.158c1.312-2.355 1.575-4.71 2.362-7.065 0-.261-.262-.261-.262 0-.788 2.094-1.575 3.925-2.624 5.757-1.05 2.093-2.624 3.663-4.461 4.972-3.149 2.616-7.085 4.186-11.021 5.495-7.084 2.093-14.431 2.878-21.778 1.57-4.986-.785-9.446-3.14-14.17-4.972-.262 0-.787.262-.524.262 7.347 4.448 16.006 7.065 24.402 6.803 3.936-.262 7.872-.785 11.546-2.093 4.198-1.309 8.134-2.879 11.545-5.495 2.099-1.57 3.936-3.14 4.985-5.234z" class="D"/><g class="C"><path d="M213.917 128.334c-.787.523-2.099.523-2.886.785-1.05.261-2.362.261-3.411.523-2.099.262-4.198.262-6.56.262-.262 0-.525.261-.262.523 1.049.523 2.099.523 3.148.785 1.312 0 2.624 0 3.936-.262l3.674-.785c1.049-.261 1.837-.785 2.886-1.57 0 0-.262-.261-.525-.261zm-39.359-30.353c0-.262 0-.262-.262-.262 0 0-.262-.262-.525-.262-.525-.262-1.312 0-1.837.262l-.262.262s-.262 0-.262.262c-.525.262-.788.785-.788 1.308 0 .785.788 1.047 1.575.785.525 0 1.049-.523 1.574-.785.525-.523.787-1.047.787-1.57zM170.622 104v-.262-.262-.261h-.262-.262-.263-.262-.263v.261l.263.262h.262.263.262c-.262.785 0 .523.262.262-.262.261-.262.261 0 0-.262.261-.262.261 0 0z" class="B"/><g class="B"><path d="M175.608 104.261s0-.261 0 0c.262-.261.262-.261 0 0l.262-.261h-.262-.263-.262-.262-.263s-.262 0-.262.261v.262.262l.262.261h.263.262c.262-.523.262-.523.525-.785z"/></g><path d="M178.757 113.943v-.262l-.263-.261v-.262s-.262-.262-.525-.262h-.262c-.262 0-.525 0-.787.262h-.263c-.262 0-.262.262-.524.262-.263.261-.525.523-.525.785s0 .523.262.523c.525.262 1.05.262 1.575.262s1.049-.262 1.312-.785v-.262zm7.609 1.308s-.262 0 0 0c-.262.262-.525.262-.262.524 0 .261 0 .261.525.261h.524c.525 0 0-1.308-.787-.785zm15.219 3.663c0-.262 0-.262 0 0 0-.262 0-.262 0 0v-.262s0-.262-.262-.262h-.263-.525-.524-.263-.262v.262.262l.262.261h.263l.262.262h.262.263.262l.525-.523s0 .261 0 0zm6.822 7.588c-.262 0-.262 0 0 0 0 0 0-.261 0 0 0-.261-.262-.523-.262-.523h-.263c-.262-.262-.787-.262-1.049-.262s-.525.262-.787.524c0 0 0 .261-.263.261l-.262.262c0 .262-.262.262 0 .523 0 .262.262.262.262.262 1.05.523 2.099.262 2.887-.523-.263 0-.263-.262-.263-.524zm4.723-.523s0-.262 0 0v-.262h-.262-.262-.263-.262s-.263 0-.263.262v.262.261s0 .262.263.262c0 0 .262 0 .262.262h.525.262c-.262-.785-.262-.785 0-1.047-.262.262-.262.262 0 0z" class="B"/></g><path opacity=".52" d="M204.472 99.813c.787-1.57 1.049-3.14.524-4.71-.787-1.57-2.361-2.617-3.936-3.402-1.574-.523-3.148-.523-4.723-.523-2.886-.262-5.772-.262-8.396.262-3.674.523-7.61 1.57-10.758 3.402-3.149 1.57-6.298 3.925-8.397 6.804-1.837 2.878-1.837 6.803 0 9.681 3.411 5.757 11.808 6.542 17.58 4.972 3.936-1.047 7.347-3.402 10.234-6.28 1.574-1.57 2.886-3.14 4.46-4.972 1.05-1.57 2.362-3.14 3.412-5.233z" class="F"/><path d="M222.839 96.935c1.837 3.663 1.837 8.111.263 12.036-2.1 4.449-6.036 7.589-9.709 10.467 1.574-.785 3.149-1.57 4.461-2.355a15.06 15.06 0 0 0 4.985-4.972c1.575-2.355 2.624-4.71 3.411-7.326.525-1.309.787-2.617 1.312-3.925 0-.524.263-1.047.263-1.832-1.575-1.832-3.411-3.14-5.248-4.187l-1.575-.785c.525.785 1.312 1.832 1.837 2.878z" class="B C"/><path d="M181.118 121.27c-.524-3.401-1.574-6.28-3.935-8.896-1.05-1.309-2.362-2.355-3.936-3.14-2.1-1.047-4.199-1.57-6.56-1.832-5.51-1.047-11.021-.785-16.269 0-13.382 2.093-23.615 9.42-31.749 19.886-2.362 3.14-4.461 6.804-4.723 10.729-1.05 16.484 28.076 17.008 38.834 15.176 8.134-1.57 16.268-4.972 21.779-11.251 4.723-5.234 7.609-13.345 6.559-20.672z" class="G"/><path d="M181.118 121.27c-.524-3.401-1.574-6.28-3.935-8.896-1.05-1.309-2.362-2.355-3.936-3.14-2.1-1.047-4.199-1.57-6.56-1.832-5.51-1.047-11.021-.785-16.269 0-13.382 2.093-23.615 9.42-31.749 19.886-2.362 3.14-4.461 6.804-4.723 10.729-1.05 16.484 28.076 17.008 38.834 15.176 8.134-1.57 16.268-4.972 21.779-11.251 4.723-5.234 7.609-13.345 6.559-20.672zm-40.146 25.905c-4.723 1.046-9.971 1.308-14.694 0-3.673-1.047-7.347-3.402-8.397-7.327-.524-2.093 0-4.448.788-6.28 1.049-2.616 2.624-4.971 4.46-7.326 2.887-3.402 6.298-6.28 9.709-8.897 6.56-6.28 16.793-10.728 25.452-7.326 4.198 1.57 7.61 4.971 8.659 9.42 1.05 3.924 0 8.373-1.837 12.036-2.099 4.187-5.247 7.327-9.183 9.943-4.723 2.879-9.709 4.71-14.957 5.757zm28.076-3.402c-3.411 2.617-7.609 3.663-11.545 2.878-.262 0-.525-.523-.262-.784 1.049-1.309 2.624-2.094 3.936-2.879 1.574-.785 2.886-1.831 4.198-3.14 1.574-1.308 2.886-2.355 4.198-3.663 1.837-2.878 3.411-6.018 5.248-9.158.262-.262.787-.262.787 0 .525 2.355.525 4.71 0 6.803-1.049 3.925-3.411 7.588-6.56 9.943z" class="E"/><path d="M175.346 123.625c.262-2.616-.263-4.971-.787-7.588 0-.262-.525 0-.263 0v6.542c-.262 2.355-1.049 4.186-2.099 6.279-2.099 3.664-4.985 6.542-8.134 9.159-5.51 4.71-12.07 8.373-19.417 9.943-4.986 1.047-9.971.785-14.957.785-.262 0-.525.523-.262.523 8.396 1.308 17.318.524 25.19-3.14 3.411-1.57 6.822-3.925 9.708-6.28 3.411-2.616 6.298-5.756 8.659-9.42 1.05-2.093 2.099-4.448 2.362-6.803z" class="D"/><g class="C"><path d="M172.197 141.68c-.525.785-1.574 1.308-2.361 1.831-1.05.785-2.099 1.309-2.887 1.832-1.836 1.047-3.936 1.831-5.772 2.878-.263.262-.525.523 0 .523 1.049 0 2.099-.261 3.148-.523 1.312-.523 2.362-1.047 3.411-1.57s2.1-1.308 2.887-2.093 1.312-1.57 2.099-2.355c.262-.785-.262-.785-.525-.523zm-48.018-12.822c0-.262-.262-.262-.262-.262h-.525c-.525 0-1.312.524-1.575 1.047v.262l-.262.261c-.262.262-.525 1.047-.262 1.309.262.523 1.312.523 1.836.261s.788-.785 1.05-1.308c0-.523.262-1.047 0-1.57zm-1.312 7.326c0-.261 0-.261 0 0 0-.261 0-.261-.262-.261h-.263l-.262-.262h-.262s-.263 0-.263.262h-.262v.261.262h.262.263.262s.262 0 .262-.262v-.261c.263.523.263.261.525.261z" class="B"/><g class="B"><path d="M127.59 134.091s0-.261 0 0v-.261h-.262-.263-.262s-.262 0-.262.261l-.263.262v.262.261.262h.263.262.262l.525-1.047c0 .262 0 .262 0 0z"/></g><path d="M134.412 141.941s0-.261-.262-.261h-.262v-.262h-.525-.263c-.262 0-.524.262-.787.523 0 0 0 .262-.262.262l-.263.262c-.262.261-.262.523-.262.785s.262.523.525.523c.525 0 1.049 0 1.574-.523.525-.262.787-.785.787-1.309 0 .262 0 0 0 0zm7.347-1.831c-.262 0-.262.261 0 0-.262.261-.262.523-.262.523 0 .262.262.262.525.262s.262 0 .262-.262c1.05-.262 0-1.047-.525-.523zm15.482-2.355c0-.262-.263-.262 0 0-.263-.262-.263-.262 0 0-.263-.262-.263-.262 0 0v-.262h-.263-.524-.525c-.263 0-.263 0-.263.262l-.262.261v.262.262.261.262h.262.263.525.262.262s.263 0 .263-.262c-.263-.785-.263-.785 0-1.046zm8.921 4.186c0-.261-.262-.261-.525-.261h-.262c-.262 0-.787 0-1.05.261s-.524.524-.524.785v.262s0 .262-.263.262v.523s.263.262.525.262c1.05 0 2.099-.524 2.362-1.57.262 0 0-.262-.263-.524zm4.461-2.093c0-.261 0-.261 0 0-.263-.261-.263-.261 0 0l-.263-.261h-.262-.262-.263-.262s-.263 0-.263.261l-.262.262v.262s0 .261.262.261h.263.262c.263 0 .263 0 .263-.261l.262-.262c.262 0 .262 0 .525-.262 0 0-.263 0 0 0z" class="B"/></g><path opacity=".52" d="M152.518 118.915c0-1.57-.263-3.401-1.312-4.448-1.312-1.308-3.149-1.57-4.986-1.57-1.574 0-3.148.524-4.46 1.309l-7.872 3.401c-3.411 2.093-6.298 4.448-8.922 7.327-2.099 2.616-4.46 6.018-4.985 9.681-.525 3.402.787 6.804 3.673 8.897 5.248 3.925 13.382 1.57 18.106-2.093 3.148-2.617 5.51-6.019 6.822-9.944.787-2.093 1.574-4.186 2.099-6.28 1.05-1.831 1.574-3.925 1.837-6.28z" fill="#b2cf74"/><path d="M168.261 109.234c3.149 2.878 4.986 6.803 4.723 10.989-.262 4.972-2.624 9.159-4.723 13.607 1.05-1.308 2.362-2.617 3.149-3.925 1.312-2.093 2.361-4.187 2.886-6.542.525-2.616.525-5.494.263-8.111 0-1.308-.263-2.878-.525-4.187 0-.523-.263-1.046-.525-1.57-2.099-1.046-4.198-1.57-6.56-1.831-.525 0-1.049-.262-1.837-.262 1.05.262 2.1 1.047 3.149 1.832z" class="B C"/><path d="M167.736 175.957c-1.049-3.14-2.624-6.018-5.247-8.373-1.312-1.046-2.624-1.831-4.461-2.355-2.099-.785-4.461-.785-6.822-.785-5.511 0-11.021.785-16.006 2.355-13.383 4.448-22.829 13.868-29.389 26.167-1.312 2.354-2.099 4.971-2.099 7.588-.787 18.578 29.913 14.915 40.671 11.251 7.872-2.616 15.219-7.326 19.942-14.391 3.936-5.757 5.511-14.392 3.411-21.457z" fill="#94694d"/><path d="M167.736 175.957c-1.049-3.14-2.624-6.018-5.247-8.373-1.312-1.046-2.624-1.831-4.461-2.355-2.099-.785-4.461-.785-6.822-.785-5.511 0-11.021.785-16.006 2.355-13.383 4.448-22.829 13.868-29.389 26.167-1.312 2.354-2.099 4.971-2.099 7.588-.787 18.578 29.913 14.915 40.671 11.251 7.872-2.616 15.219-7.326 19.942-14.391 3.936-5.757 5.511-14.392 3.411-21.457zm-35.948 31.662c-4.723 1.57-9.708 2.878-14.694 2.093-3.936-.523-7.871-2.355-9.183-6.018-.788-2.094-.788-4.187-.263-6.28.525-2.879 1.837-5.495 3.149-7.85 2.361-3.925 5.248-7.065 8.397-10.205 5.51-7.327 14.956-13.083 24.14-10.99 4.46 1.047 8.396 3.925 9.971 8.112 1.574 3.925 1.312 8.373 0 12.036-1.312 4.449-4.199 8.112-7.61 11.252-3.936 3.401-8.659 6.018-13.907 7.85zm27.289-7.589c-2.886 2.879-6.822 4.71-11.02 4.449-.263 0-.525-.524-.263-.785.788-1.309 2.1-2.355 3.412-3.402a24.28 24.28 0 0 0 3.673-3.663c1.312-1.309 2.362-2.878 3.674-4.448 1.312-3.14 2.624-6.542 3.673-9.944 0-.261.787-.261.787 0 .788 2.094 1.05 4.449 1.05 6.804-.262 4.186-2.099 8.111-4.986 10.989z" fill="#172d00" class="B"/><path d="M162.226 179.359c0-2.617-1.049-4.972-1.836-7.327 0-.261-.525 0-.263 0 .263 2.093.787 4.187.787 6.28 0 2.355-.262 4.448-1.049 6.542-1.575 3.925-3.936 7.326-6.56 10.466-4.723 5.495-10.758 9.943-17.581 12.56-4.723 1.832-9.708 2.355-14.694 3.14-.262 0-.524.523-.262.523 8.397 0 17.318-2.093 24.403-6.803 3.148-2.093 6.035-4.71 8.659-7.588 2.886-3.14 5.51-6.803 7.084-10.728.787-2.355 1.575-4.71 1.312-7.065z" class="D"/><g class="C"><path d="M161.964 197.414c-.525.785-1.312 1.57-2.099 2.355-1.575 1.57-3.674 2.878-5.248 4.186l-2.624 1.57c-.263.262-.525.785 0 .524 1.049-.262 2.099-.524 3.149-1.047s2.099-1.308 3.148-2.093a12.4 12.4 0 0 0 2.624-2.617c.787-.785 1.05-1.832 1.575-2.617 0-.261-.263-.261-.525-.261zm-49.33-5.495l-.263-.262h-.525c-.524.262-1.049.524-1.312 1.309v.261s0 .262-.262.262c-.262.523-.525 1.047 0 1.57a1.27 1.27 0 0 0 1.837 0c.525-.523.787-1.047.787-1.57-.262-.523 0-1.047-.262-1.57zm-.263 7.588c0-.262-.262-.262 0 0 0-.262-.262-.262-.262-.262h-.262-.263-.262s-.263 0-.263.262v.261.262.262.261l.263.262h.262.263.262s.262 0 .262-.262v-.261c-.262-.524 0-.785 0-.785z" class="B"/><g class="B"><path d="M116.57 196.89c.262-.261 0-.261 0 0 0-.261.262-.261 0 0v-.261h-.263-.262-.263s-.262 0-.262.261l-.262.262v.262.261l.262.262h.262.263s.262 0 .262-.262c.263-.523.263-.523.263-.785z"/></g><path d="M124.442 203.433l-.263-.262h-.262s0-.262-.263-.262h-.524-.263c-.262 0-.525.262-.787.524 0 0 0 .261-.262.261 0 .262-.263.262-.263.523s-.262.524-.262 1.047c0 .262.262.523.525.262.524 0 1.049-.262 1.574-.785.262-.262.787-.785.787-1.308.525.261.525.261.263 0zm7.084-2.879c0 .261 0 .261 0 0-.262.261-.262.523 0 .785 0 .261.262.261.525 0 .262 0 .262 0 .262-.262.787-.523-.262-1.308-.787-.523zm14.957-4.71c0-.262 0-.262 0 0 0-.262 0-.262-.263-.262h-.262-.525c-.262 0-.262 0-.525.262l-.262.261s0 .262-.263.262v.262.261.262l.263.262h.262.263.524.263s.262 0 .262-.262l.263-.262v-1.046s0 .261 0 0zm9.708 2.879c-.262-.262-.262-.262-.525-.262 0 0-.262 0-.262.262-.263 0-.787.261-1.05.523s-.525.523-.525.785v.262.261c0 .262 0 .262.263.524.262 0 .262.261.525 0 1.049-.262 2.099-.785 2.099-1.832-.263 0-.263-.262-.525-.523zm3.936-2.879c-.262 0-.262 0 0 0l-.262-.262h-.263l-.262.262h-.263-.262l-.262.261s0 .262-.263.262v.262l.263.261h.262.262s.263 0 .263-.261l.262-.262v-.262-.261c.525.261.525.261.525 0 0 0 0 .261 0 0z" class="B"/></g><path d="M139.135 178.051c-.262-1.57-.787-3.402-2.099-4.187-1.312-1.047-3.411-1.308-4.985-.785-1.575.262-2.887 1.047-4.198 2.093-2.624 1.309-4.986 2.879-7.085 4.71a38.67 38.67 0 0 0-7.61 8.374c-1.836 3.139-3.411 6.541-3.411 10.204s1.837 6.804 4.986 8.374c5.772 3.14 13.382-.524 17.58-4.972 2.887-2.878 4.461-6.803 5.51-10.728.525-2.093.788-4.187 1.05-6.542 0-2.093.262-4.448.262-6.541z" class="F"/><path d="M153.042 166.014c3.674 2.355 6.035 6.018 6.298 10.205.525 4.972-1.05 9.42-2.887 14.13 1.05-1.308 1.837-2.878 2.624-4.448 1.05-2.094 1.575-4.449 1.837-6.804.263-2.616-.262-5.495-1.049-8.111-.263-1.308-.525-2.617-1.05-3.925l-.787-1.57c-2.099-.785-4.461-.785-6.822-.785h-1.837c1.574.262 2.624.785 3.673 1.308z" class="B C"/><path d="M105.287 161.566c-.788-3.14-2.624-6.019-5.248-8.374-1.312-1.046-2.624-1.831-4.199-2.355-2.099-.785-4.461-.785-6.822-1.046-5.51-.262-11.02.785-16.268 2.355-12.857 3.925-22.041 12.56-28.601 24.073-2.099 3.401-3.411 7.326-3.149 11.251 1.312 16.485 30.175 13.083 40.409 9.682 7.872-2.617 15.481-7.327 19.942-14.13 3.936-5.757 5.772-14.391 3.936-21.456z" class="G"/><path d="M105.287 161.566c-.788-3.14-2.624-6.019-5.248-8.374-1.312-1.046-2.624-1.831-4.199-2.355-2.099-.785-4.461-.785-6.822-1.046-5.51-.262-11.02.785-16.268 2.355-12.857 3.925-22.041 12.56-28.601 24.073-2.099 3.401-3.411 7.326-3.149 11.251 1.312 16.485 30.175 13.083 40.409 9.682 7.872-2.617 15.481-7.327 19.942-14.13 3.936-5.757 5.772-14.391 3.936-21.456zm-36.473 31.138c-4.723 1.57-9.709 2.616-14.694 2.093-3.674-.523-7.872-2.355-9.184-6.28-.787-2.093-.787-4.187-.262-6.28.787-2.617 1.837-5.233 3.411-7.85 2.362-3.663 5.248-7.065 8.397-10.205 5.51-7.326 14.956-12.821 24.14-10.728 4.461 1.047 8.134 3.925 9.971 8.112 1.574 3.925 1.312 8.373 0 12.036-1.574 4.448-4.198 8.112-7.872 10.99-3.936 3.925-8.659 6.542-13.907 8.112zm27.551-7.327c-2.886 2.878-6.822 4.448-11.021 4.448-.262 0-.525-.523-.262-.785.787-1.308 2.099-2.355 3.411-3.401s2.624-2.355 3.674-3.664c1.312-1.308 2.624-2.878 3.674-4.186 1.574-3.14 2.624-6.542 3.936-9.682 0-.261.787-.261.787 0 .788 2.094 1.05 4.449.788 6.803-.525 3.925-2.1 7.589-4.986 10.467z" class="E"/><path d="M99.776 164.705c0-2.616-1.05-4.971-1.574-7.326 0-.262-.525 0-.262 0 .262 2.093.787 4.186.787 6.28 0 2.355-.262 4.448-1.312 6.541-1.574 3.925-3.936 7.065-6.56 10.205-4.985 5.495-11.021 9.943-17.843 12.56-4.723 1.832-9.709 2.355-14.694 2.878-.262 0-.525.524-.262.524 8.397 0 17.318-2.094 24.403-6.542 3.149-2.093 6.297-4.71 8.921-7.588 2.886-3.14 5.51-6.542 7.085-10.728.525-2.094 1.312-4.449 1.312-6.804z" class="D"/><g class="C"><path d="M99.252 183.022c-.525.785-1.312 1.57-2.099 2.355s-1.837 1.57-2.624 2.094l-5.51 3.663c-.262.262-.262.523 0 .523 1.05-.261 2.099-.523 3.149-1.046s2.099-1.309 3.149-2.094a12.42 12.42 0 0 0 2.624-2.616c.787-.785 1.049-1.832 1.574-2.617.262-.523-.262-.523-.262-.262zm-49.331-6.018l-.262-.262h-.525c-.525.262-1.05.523-1.312 1.047v.261s0 .262-.262.262c-.262.523-.525 1.047 0 1.57a1.27 1.27 0 0 0 1.837 0c.525-.262.787-1.047.787-1.57-.262-.523 0-1.047-.262-1.308zm-.524 7.326c0-.262 0-.262 0 0 0-.262-.262-.262-.262-.262h-.262-.262-.262s-.262 0-.262.262v.262.261.262.262l.262.261h.262.262.262s.262 0 .262-.261v-.262-.785z" class="B"/><g class="B"><path d="M53.857 181.714s0-.262 0 0c0-.262 0-.262 0 0v-.262h-.262-.262-.262s-.262 0-.262.262l-.262.261v.262.262l.262.261h.262.262s.262 0 .262-.261c0-.524.262-.524.262-.785 0 0 0 .261 0 0z"/></g><path d="M61.729 188.517l-.262-.261h-.262s0-.262-.262-.262h-.525-.262c-.262 0-.525.262-.787.523 0 0 0 .262-.262.262 0 .262-.262.262-.262.523s-.262.524-.262 1.047c0 .262.262.523.525.262.525 0 1.05-.262 1.574-.524.262-.261.787-.785.787-1.308.262 0 .262-.262.262-.262zm6.822-2.878s0 .261 0 0c-.262.261-.262.523 0 .785 0 .261.262.261.525 0 .262 0 .262 0 .262-.262.787-.523-.262-1.308-.787-.523zm15.219-4.449c-.262-.261-.262-.261 0 0-.262-.261-.262-.261 0 0-.262-.261-.262-.261 0 0 0-.261 0-.261-.262-.261h-.262-.525c-.262 0-.262 0-.525.261l-.262.262s0 .262-.262.262v.261.262.262l.262.261h.262.262.525.262s.262 0 .262-.261l.262-.262c-.262-.785 0-.785 0-1.047zm9.447 2.878c0-.261-.262-.261-.525-.261 0 0-.262 0-.262.261-.262 0-.787.262-1.05.524s-.525.523-.525.784v.262.262c0 .261 0 .261.262.523.262 0 .262.262.525 0 1.05-.262 2.099-.785 2.099-1.831l-.525-.524zm3.935-2.616c0-.262 0-.262 0 0 0-.262 0-.262 0 0l-.262-.262h-.262-.262-.262-.262l-.262.262s0 .262-.262.262v.261l.262.262h.262.262s.262 0 .262-.262l.262-.261v-.262-.262l.525.262z" class="B"/></g><path d="M76.423 163.135c-.262-1.57-.787-3.401-2.099-4.186-1.312-1.047-3.411-1.309-4.985-.785-1.574.261-2.886 1.046-4.198 2.093-2.624 1.308-4.986 2.617-7.085 4.448-2.886 2.355-5.773 5.234-7.609 8.374s-3.411 6.541-3.673 10.204c0 3.664 1.837 6.804 4.986 8.374 5.773 3.14 13.382-.262 17.58-4.71 2.886-2.879 4.461-6.804 5.51-10.728.525-2.094.787-4.187 1.312-6.542.262-2.093.525-4.187.262-6.542z" class="F"/><path d="M90.593 151.361c3.411 2.355 5.773 6.018 6.297 10.205.525 4.971-1.312 9.42-2.886 14.129 1.05-1.308 1.837-2.878 2.624-4.448 1.05-2.093 1.574-4.448 1.837-6.803.262-2.617-.262-5.495-.787-8.112-.262-1.308-.525-2.616-1.05-3.925l-.787-1.57c-2.099-.785-4.461-.785-6.822-1.046h-1.837c1.312.261 2.362.785 3.411 1.57z" class="B C"/><path d="M257.738 137.493c.524-3.402 0-6.542-1.575-9.682-.787-1.57-1.836-2.878-3.148-3.925-1.575-1.57-3.674-2.616-5.773-3.401-4.986-2.355-10.234-3.663-15.744-4.187-14.169-1.308-26.239 3.663-37.26 12.298-2.099 1.57-3.936 3.664-4.985 6.019-8.134 16.746 21.516 25.643 32.799 26.428 8.397.785 17.056-.785 23.878-5.234 5.773-3.925 11.02-10.99 11.808-18.316z" class="G"/><path d="M257.738 137.493c.524-3.402 0-6.542-1.575-9.682-.787-1.57-1.836-2.878-3.148-3.925-1.575-1.57-3.674-2.616-5.773-3.401-4.986-2.355-10.234-3.663-15.744-4.187-14.169-1.308-26.239 3.663-37.26 12.298-2.099 1.57-3.936 3.664-4.985 6.019-8.134 16.746 21.516 25.643 32.799 26.428 8.397.785 17.056-.785 23.878-5.234 5.773-3.925 11.02-10.99 11.808-18.316zm-45.657 14.653c-4.985-.262-9.971-1.308-14.432-3.925-3.411-2.093-6.297-5.233-6.035-9.42 0-2.093 1.05-4.186 2.362-6.018 1.574-2.355 3.673-4.187 6.035-5.757 3.673-2.616 7.609-4.448 11.808-6.018 7.871-4.448 18.892-6.018 26.501-.523 3.674 2.616 6.036 6.803 6.036 11.513 0 4.187-2.1 8.112-4.724 11.251-3.148 3.402-7.084 5.757-11.545 7.065-5.248 1.832-10.758 2.355-16.006 1.832zm28.076 3.925c-3.936 1.57-8.134 1.57-11.808-.262-.262-.261-.262-.523 0-.785 1.312-.785 2.887-1.308 4.461-1.831s3.149-1.047 4.723-1.832c1.837-.785 3.411-1.57 4.986-2.617 2.624-2.355 4.985-4.971 7.347-7.588.262-.261.787 0 .787.262 0 2.355-.787 4.448-1.837 6.541-1.837 3.664-4.985 6.542-8.659 8.112z" class="E"/><path d="M251.44 138.278c1.05-2.355 1.05-4.972 1.312-7.327 0-.262-.262-.262-.525 0l-1.836 6.28c-.788 2.093-2.1 3.925-3.674 5.495-2.886 2.878-6.297 5.233-10.233 6.803-6.56 3.14-13.907 4.972-21.254 4.71-4.986-.262-9.971-1.57-14.694-2.878-.263 0-.787.261-.263.523 7.872 3.402 16.794 4.972 25.19 3.402 3.936-.785 7.61-1.832 11.021-3.664 3.936-1.831 7.609-3.925 10.758-7.064 1.837-2.094 3.149-3.925 4.198-6.28z" class="D"/><g class="C"><path d="M243.831 154.764c-.787.523-1.837 1.046-2.887 1.308-2.099.785-4.46 1.308-6.56 1.832-1.049.261-2.099.261-3.148.261-.263 0-.525.523-.263.523 1.05.262 2.1.262 3.149.262 1.312 0 2.624-.523 3.936-.785s2.362-.785 3.411-1.308 1.837-1.047 2.624-1.832c.262 0 0-.261-.262-.261zm-43.033-24.597c0-.262 0-.262-.262-.262s-.263-.262-.525-.262c-.525 0-1.312.262-1.837.524l-.262.261s-.263 0-.263.262c-.262.262-.787.785-.787 1.308.263.785 1.05.785 1.575.785.524-.261 1.049-.523 1.312-1.046.787-.524 1.049-1.047 1.049-1.57zm-3.411 6.542v-.262l-.262-.262v-.261h-.263-.262-.262-.263v.261l.263.262h.262.262.263.262v.262c0 .261 0 .261 0 0z" class="B"/><g class="B"><path d="M202.635 136.185c0-.261 0-.261 0 0l.263-.261h-.263-.262-.263-.262-.262s0 .261-.263.261v.262.262s.263 0 .263.261h.262.262c0-.523.263-.523.525-.785-.262 0-.262.262 0 0z"/></g><path d="M207.096 145.343s0-.261-.263-.261l-.262-.262v-.262h-.525-.262c-.263 0-.525.262-.787.262 0 0-.263 0-.263.262-.262 0-.262.261-.262.261-.263.262-.525.524-.525.785s.262.524.525.524a1.68 1.68 0 0 0 1.574 0c.525-.262 1.05-.524 1.312-1.047-.262 0-.262 0-.262-.262zm7.609.262s-.262 0 0 0c-.525.262-.525.524-.525.524 0 .261.263.261.525.261h.525c.787-.261.262-1.308-.525-.785zm15.481 1.57c0-.262 0-.262 0 0 0-.262 0-.262 0 0v-.262s0-.262-.262-.262h-.525-.524-.263s-.262 0-.262.262h-.263v.262.261l.263.262h.262.525.262.263s.262 0 .262-.262c0 0 .262 0 .262-.261 0 0 0 .261 0 0zm7.872 6.541s0-.261 0 0c0-.261-.262-.523-.262-.523h-.263-1.049c-.263 0-.525.262-.787.523v.262l-.263.262v.523c0 .262.263.262.525.262 1.05.261 2.099 0 2.886-.785-.787 0-.787-.262-.787-.524zm4.723-1.046s0-.262 0 0c-.262-.262-.262-.262 0 0 0-.262 0-.262-.262-.262h-.263-.262-.262-.263-.262s-.262 0-.262.262v.261.262l.262.262h.262.525s.262 0 .262-.262.263-.262.525-.523c-.262 0-.262.261 0 0-.262 0-.262 0 0 0z" class="B"/></g><path d="M230.449 127.812c.524-1.57.787-3.402-.263-4.71-.787-1.57-2.624-2.355-4.46-2.878-1.575-.262-3.149-.262-4.724.261-2.886.262-5.51.524-8.396 1.308-3.674 1.047-7.085 2.617-10.234 4.71-2.886 2.094-5.772 4.71-7.347 8.112-1.574 3.14-.787 6.803 1.312 9.682 4.199 5.233 12.595 4.971 18.106 2.616 3.673-1.57 6.822-4.448 9.183-7.85 1.312-1.831 2.624-3.663 3.674-5.495 1.312-1.57 2.624-3.663 3.149-5.756z" class="F"/><path d="M248.291 122.578c2.362 3.402 3.149 7.85 1.837 11.775-1.312 4.71-4.723 8.373-8.134 11.775 1.312-1.047 2.886-1.832 4.198-3.14 1.837-1.57 3.149-3.402 4.461-5.495 1.312-2.355 1.837-5.233 2.362-7.85.262-1.308.524-2.617.524-4.187v-1.831a18.62 18.62 0 0 0-5.772-3.402l-1.575-.785c.525 1.047 1.312 2.093 2.099 3.14z" class="B C"/></g><defs><clipPath id="A"><path fill="#fff" transform="translate(41 85.684)" d="M0 0h217v129H0z"/></clipPath></defs></svg>