<svg xmlns="http://www.w3.org/2000/svg" width="143" height="191" fill="none" xmlns:v="https://vecta.io/nano"><path d="M75.8 175.165l-.965 1.516 1.797.021a7.7 7.7 0 0 1 1.048.083l.047.007c.24.033.583.08.951.011l.108-.02.101-.043c26.128-11.146 45.337-29.415 55.302-56.171 2.568-6.843 3.287-14.191 2.388-21.601-1.805-16.033-13.428-28.501-29.312-31.607-8.157-1.642-16.375-1.826-24.311 1.755l-.426.192-.126.45-.724 2.643c-.763 2.813-1.502 5.54-2.45 8.097-2.003 5.324-5.464 9.347-10.901 11.36l-.011.004-.011.004c-4.058 1.61-7.401.939-8.81-.899-2.051-2.674-1.67-5.811.222-8.288l.001-.002c2.874-3.778 6.238-7.243 9.718-10.451 1.776-1.613 3.923-2.92 6.102-4.245l1.539-.943.481-.299-.009-.566c-.122-7.816-3.635-13.924-9.462-17.544-5.797-3.601-13.77-4.673-22.75-2.714l-.518.113-.197.492-.406 1.017c-.678 1.703-1.366 3.43-2.132 5.059-3.552 7.094-8.963 12.04-16.827 13.631-3.052.611-5.834.473-7.722-2.113-1.31-1.83-1.077-4.957 1.377-8.141 4.032-5.069 9.511-8.324 15.432-11.064 2.123-.904 4.218-1.795 6.292-2.557l.641-.236.014-.683c.238-11.818-4.342-22.599-11.771-29.625-7.096-6.71-16.792-9.984-27.275-7.426l.13-.689c.135-.637.266-.941.387-1.085.225-.23.61-.445 1.149-.614.53-.166 1.128-.262 1.683-.309 11.213-.558 21.013 2.098 28.163 10.976h0l.005.006c5.486 6.702 8.762 14.41 10.489 22.988l.003.016c.226 1.18.462 2.41.824 3.664.036.227.135.395.195.484.088.13.194.236.259.299a10.45 10.45 0 0 0 .201.19l.04.037.291.276.281.275.393.01c.408.01.839.04 1.315.073l.597.041c.701.045 1.468.08 2.257.046 8.856-.172 15.219 1.212 20.081 4.641s8.388 9.022 11.316 17.607l.279.819.851-.159 1.612-.284c1.207-.206 2.516-.431 3.749-.718 10.34-1.97 20.233-.881 29.778 3.78l.002.001c15.513 7.531 24.126 22.766 22.9 40.477v.001c-.656 9.675-3.577 18.663-8.285 27.173-11.521 20.617-27.837 35.817-50.341 44.159l-.031.012-.03.013c-.53.237-1.092.442-1.695.662l-.017.006c-.585.213-1.21.44-1.81.708l-.104.047-.091.068c-.198.15-.349.341-.477.514-.136.183-.315.444-.559.8l-.719 1.048 1.187.452c4.102 1.564 8.146 1.847 12.008 2.118l1.044.074c2.572.265 5.231.436 7.954.61l3.59.239c-.36.835-.817 1.407-1.321 1.821-.718.589-1.618.926-2.696 1.149l-1.9.322c-2.098.369-4.048.713-5.954.551-7.094-.697-14.276-1.54-21.379-2.897-2.683-.556-3.939-1.537-4.346-2.535-.401-.982-.166-2.449 1.313-4.457l20.274-26.628c.79-1.004 1.681-1.839 2.796-2.883l.336-.315c.385.89.41 1.594.294 2.187-.172.881-.67 1.651-1.281 2.595l-.002.003c-4.63 6.54-8.865 13.131-13.438 20.316zM20.328 60.815l-.913 1.507 1.762.011c4.779.029 8.906-1.246 12.048-3.635 3.148-2.394 5.246-5.861 6.032-10.092l.356-1.917-1.765.83-.796.374c-6.244 2.929-12.429 5.83-16.724 12.923zM61.776 87.17l-.488 1.461 1.533-.148c4.164-.403 7.502-1.847 9.835-4.345s3.554-5.936 3.705-10.128l.068-1.889-1.6 1.006c-5.539 3.484-10.685 6.961-13.053 14.043z" fill="#2f5b0c" stroke="#ffbf2d" stroke-width="2"/></svg>