<svg width="196" height="196" viewBox="0 0 196 196" fill="none" xmlns="http://www.w3.org/2000/svg">
<circle cx="97.846" cy="97.597" r="96.499" fill="white" stroke="black" stroke-width="2.02792"/>
<circle cx="173.717" cy="85.7994" r="5.14471" fill="black"/>
<circle cx="18.9253" cy="108.659" r="5.14471" fill="black"/>
<path d="M166.68 100.373L175.166 100.799L175.008 103.939C174.974 104.617 174.833 105.173 174.584 105.606C174.335 106.04 174.008 106.355 173.601 106.554C173.194 106.752 172.744 106.839 172.251 106.814C171.782 106.79 171.355 106.664 170.97 106.434C170.592 106.204 170.293 105.861 170.073 105.404C169.861 104.948 169.773 104.372 169.808 103.677L169.887 102.089L166.602 101.924L166.68 100.373ZM171.148 102.153L171.073 103.644C171.046 104.185 171.144 104.579 171.366 104.825C171.597 105.08 171.918 105.217 172.33 105.238C172.75 105.259 173.084 105.154 173.33 104.924C173.584 104.702 173.725 104.32 173.752 103.778L173.827 102.287L171.148 102.153Z" fill="black"/>
<path d="M165.713 110.407C165.832 109.664 166.155 109.125 166.683 108.791C167.21 108.466 167.921 108.374 168.816 108.516L172.173 109.051L171.93 110.573L168.718 110.062C168.207 109.98 167.798 110.022 167.494 110.186C167.189 110.351 167.001 110.657 166.93 111.104C166.862 111.528 166.959 111.9 167.219 112.22C167.478 112.548 167.88 112.755 168.423 112.841L171.492 113.33L171.247 114.864L165.302 113.918L165.518 112.563L166.543 112.604C166.221 112.364 165.984 112.052 165.832 111.667C165.679 111.29 165.64 110.87 165.713 110.407Z" fill="black"/>
<path d="M164.698 116.546L169.277 117.694L169.478 116.894L170.738 117.21L170.537 118.01L171.22 118.181C171.926 118.358 172.384 118.661 172.594 119.089C172.802 119.525 172.829 120.049 172.676 120.661L172.513 121.309L171.23 120.987L171.333 120.575C171.398 120.316 171.393 120.119 171.319 119.983C171.244 119.848 171.086 119.749 170.842 119.688L170.159 119.517L169.844 120.777L168.584 120.461L168.9 119.201L164.32 118.053L164.698 116.546Z" fill="black"/>
<path d="M163.427 121.241L167.918 122.698L168.172 121.913L169.408 122.314L169.153 123.099L169.823 123.316C170.515 123.541 170.952 123.874 171.132 124.315C171.309 124.764 171.301 125.289 171.106 125.889L170.9 126.524L169.641 126.116L169.773 125.712C169.855 125.458 169.864 125.261 169.799 125.121C169.733 124.98 169.582 124.871 169.343 124.794L168.673 124.577L168.273 125.812L167.037 125.411L167.438 124.176L162.947 122.718L163.427 121.241Z" fill="black"/>
<path d="M160.44 129.249L167.004 132.319L168.053 130.076L169.186 130.605L166.425 136.509L165.292 135.98L166.346 133.726L159.782 130.657L160.44 129.249Z" fill="black"/>
<path d="M156.305 136.899C156.605 136.399 156.99 136.017 157.461 135.752C157.927 135.494 158.432 135.368 158.976 135.374C159.523 135.391 160.063 135.56 160.597 135.881C161.132 136.202 161.529 136.601 161.79 137.078C162.057 137.56 162.187 138.067 162.178 138.6C162.165 139.14 162.009 139.66 161.709 140.159C161.413 140.652 161.032 141.027 160.565 141.285C160.095 141.55 159.586 141.673 159.039 141.657C158.495 141.651 157.956 141.487 157.422 141.167C156.888 140.846 156.487 140.444 156.22 139.963C155.955 139.492 155.829 138.987 155.842 138.447C155.855 137.907 156.009 137.391 156.305 136.899ZM157.46 137.592C157.251 137.939 157.198 138.318 157.301 138.729C157.41 139.144 157.722 139.506 158.235 139.814C158.748 140.122 159.21 140.225 159.621 140.123C160.039 140.024 160.35 139.805 160.554 139.465C160.766 139.112 160.818 138.727 160.709 138.312C160.602 137.908 160.292 137.552 159.779 137.244C159.265 136.936 158.802 136.827 158.388 136.919C157.978 137.021 157.668 137.246 157.46 137.592Z" fill="black"/>
<path d="M153.727 144.251C153.902 144.018 154.09 143.821 154.293 143.659L154.203 143.03C154.062 143.097 153.902 143.209 153.722 143.368C153.543 143.526 153.276 143.801 152.921 144.193C152.382 144.79 151.881 145.142 151.416 145.249C150.952 145.356 150.502 145.247 150.069 144.921C149.784 144.708 149.574 144.428 149.438 144.084C149.295 143.734 149.268 143.339 149.355 142.899C149.436 142.454 149.666 141.979 150.044 141.474C150.559 140.788 151.104 140.332 151.678 140.105C152.246 139.874 152.786 139.95 153.297 140.333C153.731 140.659 153.949 141.15 153.95 141.809C154.106 141.723 154.252 141.656 154.39 141.608C154.522 141.566 154.651 141.536 154.776 141.518L154.999 141.685L155.259 143.2C155.871 143.072 156.435 143.203 156.953 143.591C157.277 143.834 157.513 144.132 157.662 144.487C157.806 144.848 157.847 145.232 157.783 145.64C157.72 146.048 157.533 146.459 157.223 146.873C157.019 147.145 156.791 147.368 156.538 147.543L155.169 149.368L154.412 148.8L154.972 147.931C154.629 147.876 154.309 147.737 154.011 147.514C153.687 147.271 153.451 146.972 153.302 146.618C153.153 146.264 153.113 145.879 153.181 145.465C153.244 145.057 153.426 144.653 153.727 144.251ZM154.679 144.965C154.489 145.217 154.402 145.476 154.416 145.739C154.426 146.01 154.557 146.239 154.81 146.429C155.062 146.618 155.32 146.68 155.582 146.613C155.839 146.553 156.062 146.397 156.252 146.145C156.451 145.879 156.543 145.615 156.528 145.351C156.514 145.087 156.38 144.861 156.128 144.671C155.875 144.482 155.62 144.417 155.363 144.477C155.106 144.537 154.878 144.7 154.679 144.965ZM152.572 141.564C152.332 141.384 152.071 141.361 151.79 141.494C151.497 141.628 151.229 141.857 150.986 142.181C150.753 142.491 150.629 142.792 150.613 143.084C150.59 143.37 150.685 143.593 150.899 143.754C151.074 143.885 151.268 143.929 151.482 143.887C151.69 143.852 151.948 143.656 152.256 143.3C152.474 143.049 152.688 142.825 152.897 142.627C152.934 142.362 152.923 142.141 152.863 141.965C152.798 141.795 152.701 141.661 152.572 141.564Z" fill="black"/>
<path d="M147.85 148.363C148.26 147.915 148.719 147.606 149.227 147.435C149.735 147.264 150.252 147.239 150.778 147.359C151.305 147.479 151.795 147.747 152.248 148.162C152.707 148.583 153.029 149.053 153.212 149.572C153.389 150.097 153.421 150.62 153.306 151.14C153.192 151.672 152.921 152.171 152.495 152.636C152.096 153.071 151.648 153.369 151.151 153.528C150.654 153.687 150.153 153.706 149.65 153.585C149.147 153.475 148.692 153.234 148.287 152.863C148.221 152.802 148.155 152.737 148.089 152.665C148.017 152.599 147.946 152.528 147.873 152.451L150.965 149.077C150.597 148.784 150.216 148.655 149.823 148.689C149.424 148.729 149.082 148.905 148.798 149.215C148.584 149.448 148.457 149.688 148.417 149.936C148.376 150.196 148.404 150.441 148.5 150.671L147.434 151.834C147.23 151.494 147.102 151.119 147.05 150.709C146.998 150.31 147.038 149.907 147.169 149.501C147.295 149.1 147.522 148.721 147.85 148.363ZM151.564 151.783C151.821 151.503 151.967 151.181 152.003 150.819C152.045 150.462 151.932 150.106 151.664 149.751L149.639 151.962C149.948 152.212 150.279 152.317 150.632 152.279C150.986 152.241 151.296 152.075 151.564 151.783Z" fill="black"/>
<path d="M143.027 153.426C143.492 153 143.969 152.771 144.457 152.741C144.945 152.711 145.454 152.985 145.985 153.564L147.756 155.497L148.517 154.8L149.394 155.757L148.633 156.454L149.59 157.767L148.579 158.694L147.488 157.504L146.289 158.603L145.411 157.645L146.611 156.546L144.831 154.605C144.634 154.39 144.453 154.282 144.287 154.28C144.12 154.29 143.924 154.399 143.697 154.607L143.142 155.115L142.248 154.14L143.027 153.426Z" fill="black"/>
<path d="M140.467 155.752L145.761 162.704L144.525 163.646L142.319 160.749C142.359 161.135 142.3 161.505 142.143 161.859C141.983 162.225 141.727 162.542 141.373 162.812C140.78 163.263 140.181 163.424 139.575 163.296C138.962 163.172 138.381 162.75 137.832 162.029L135.774 159.325L137 158.391L138.971 160.979C139.284 161.391 139.608 161.643 139.942 161.735C140.27 161.831 140.611 161.744 140.965 161.475C141.312 161.21 141.509 160.867 141.555 160.446C141.594 160.03 141.446 159.603 141.113 159.165L139.231 156.693L140.467 155.752Z" fill="black"/>
<path d="M132.197 161.458C132.715 161.142 133.241 160.972 133.777 160.948C134.312 160.924 134.816 161.043 135.289 161.305C135.761 161.566 136.158 161.959 136.479 162.484C136.803 163.015 136.982 163.556 137.014 164.105C137.039 164.659 136.924 165.17 136.67 165.638C136.413 166.117 136.015 166.522 135.476 166.851C134.972 167.159 134.459 167.32 133.938 167.335C133.416 167.35 132.93 167.23 132.48 166.974C132.027 166.729 131.657 166.372 131.37 165.903C131.324 165.827 131.279 165.745 131.235 165.658C131.184 165.575 131.135 165.487 131.087 165.393L134.992 163.008C134.72 162.624 134.39 162.394 134.002 162.318C133.607 162.246 133.231 162.32 132.871 162.539C132.602 162.704 132.414 162.899 132.306 163.127C132.195 163.365 132.154 163.608 132.182 163.856L130.836 164.679C130.734 164.295 130.715 163.899 130.779 163.49C130.839 163.093 130.989 162.717 131.228 162.363C131.459 162.013 131.782 161.711 132.197 161.458ZM134.818 165.773C135.143 165.575 135.373 165.307 135.507 164.969C135.646 164.637 135.636 164.264 135.478 163.849L132.919 165.412C133.146 165.737 133.435 165.931 133.785 165.992C134.136 166.053 134.48 165.98 134.818 165.773Z" fill="black"/>
<path d="M127.993 164.073L130.664 169.468L129.424 170.082L128.793 169.135C128.769 169.58 128.641 169.986 128.408 170.355C128.171 170.734 127.824 171.036 127.367 171.262L126.64 169.794L127.032 169.6C127.337 169.449 127.585 169.267 127.778 169.055C127.97 168.842 128.078 168.585 128.101 168.285C128.117 167.989 128.022 167.634 127.818 167.22L126.601 164.762L127.993 164.073Z" fill="black"/>
<path d="M120.571 167.579L120.272 176.621L118.612 177.167L113.007 170.066L114.575 169.55L115.835 171.206L118.983 170.171L119.026 168.087L120.571 167.579ZM118.958 171.457L116.617 172.226L118.896 175.195L118.958 171.457Z" fill="black"/>
<path d="M111.883 170.321L113.101 176.217L111.758 176.494L111.433 175.52C111.322 175.907 111.118 176.238 110.82 176.514C110.514 176.793 110.127 176.98 109.66 177.076C108.931 177.227 108.317 177.114 107.817 176.738C107.318 176.362 106.977 175.73 106.794 174.843L106.106 171.515L107.627 171.2L108.286 174.386C108.39 174.893 108.574 175.26 108.835 175.487C109.097 175.714 109.446 175.782 109.882 175.692C110.31 175.604 110.631 175.38 110.846 175.022C111.054 174.665 111.101 174.217 110.99 173.678L110.361 170.635L111.883 170.321Z" fill="black"/>
<path d="M103.869 169.16L102.787 172.355L103.149 172.319L106.043 177.676L104.364 177.845L102.261 173.799L100.934 178.19L99.2917 178.355L102.226 169.325L103.869 169.16Z" fill="black"/>
<path d="M95.0109 172.456C95.6419 172.446 96.15 172.592 96.535 172.893C96.92 173.195 97.1186 173.738 97.1307 174.523L97.1712 177.144L98.2027 177.128L98.2228 178.427L97.1912 178.443L97.0341 180.06L95.6627 180.081L95.6378 178.467L94.0116 178.492L93.9915 177.193L95.6177 177.168L95.5771 174.535C95.5726 174.243 95.5088 174.042 95.3857 173.931C95.2546 173.828 95.0353 173.778 94.7279 173.783L93.9754 173.795L93.955 172.472L95.0109 172.456Z" fill="black"/>
<path d="M90.692 179.355C90.9748 179.37 91.2045 179.467 91.3812 179.647C91.5497 179.826 91.627 180.045 91.6131 180.304C91.5991 180.562 91.4988 180.768 91.3123 180.92C91.1173 181.079 90.8784 181.152 90.5956 181.136C90.3128 181.121 90.0871 181.024 89.9186 180.844C89.7415 180.673 89.6599 180.458 89.6739 180.199C89.6879 179.94 89.7924 179.731 89.9874 179.572C90.1743 179.412 90.4092 179.339 90.692 179.355ZM91.8432 172.452L91.5181 178.463L89.9668 178.379L90.2918 172.368L91.8432 172.452Z" fill="black"/>
<path d="M88.2351 172.443L87.3115 178.392L85.9562 178.182L85.949 177.358C85.7124 177.616 85.4252 177.804 85.0873 177.924C84.7401 178.05 84.3587 178.081 83.9429 178.016C83.0233 177.874 82.4269 177.417 82.1536 176.645C81.8868 176.94 81.5586 177.155 81.169 177.291C80.7714 177.426 80.3567 177.46 79.9249 177.393C79.1493 177.272 78.5896 176.948 78.2458 176.42C77.902 175.891 77.7997 175.179 77.9387 174.284L78.4601 170.925L79.9953 171.164L79.4963 174.378C79.4168 174.89 79.4559 175.297 79.6136 175.6C79.7633 175.902 80.0421 176.084 80.4499 176.148C80.8656 176.212 81.2251 176.112 81.5281 175.848C81.8232 175.583 82.0129 175.178 82.0973 174.635L82.574 171.564L84.1092 171.803L83.6102 175.017C83.5307 175.529 83.5698 175.936 83.7275 176.239C83.8852 176.542 84.172 176.725 84.5878 176.79C84.9956 176.853 85.351 176.753 85.654 176.489C85.9491 176.223 86.1388 175.819 86.2232 175.275L86.6999 172.205L88.2351 172.443Z" fill="black"/>
<path d="M74.4086 169.632C74.9919 169.799 75.4733 170.072 75.8529 170.451C76.2324 170.829 76.4857 171.281 76.6128 171.806C76.7398 172.33 76.7184 172.888 76.5486 173.479C76.3765 174.078 76.099 174.575 75.716 174.97C75.3253 175.363 74.8714 175.624 74.3544 175.754C73.8274 175.888 73.2605 175.869 72.6539 175.694C72.0862 175.531 71.6203 175.263 71.2563 174.889C70.8923 174.515 70.6523 174.075 70.5364 173.57C70.4104 173.071 70.4234 172.557 70.5754 172.028C70.6 171.943 70.6296 171.854 70.6641 171.763C70.691 171.67 70.7228 171.574 70.7596 171.475L75.1575 172.739C75.256 172.279 75.2022 171.88 74.9959 171.543C74.7819 171.204 74.4727 170.976 74.0683 170.86C73.765 170.773 73.4933 170.766 73.2531 170.84C73.0029 170.92 72.7959 171.054 72.6323 171.243L71.1157 170.807C71.3296 170.473 71.6085 170.191 71.9523 169.961C72.2861 169.737 72.6642 169.593 73.0866 169.53C73.5013 169.464 73.942 169.498 74.4086 169.632ZM73.0025 174.481C73.3681 174.586 73.721 174.574 74.0613 174.444C74.3993 174.323 74.6676 174.063 74.866 173.665L71.9846 172.837C71.8985 173.225 71.9513 173.569 72.1432 173.868C72.335 174.167 72.6215 174.372 73.0025 174.481Z" fill="black"/>
<path d="M70.6598 167.143L68.9698 169.742L67.5568 169.224L69.7026 166.792L70.6598 167.143Z" fill="black"/>
<path d="M64.215 166.2L57.5464 172.313L55.9947 171.509L57.146 162.536L58.6115 163.296L58.3101 165.354L61.2519 166.879L62.7711 165.452L64.215 166.2ZM60.3162 167.761L58.1287 166.627L57.6024 170.333L60.3162 167.761Z" fill="black"/>
<path d="M56.1847 161.912L52.8237 166.907L51.6858 166.141L52.1543 165.227C51.8011 165.419 51.4215 165.505 51.0154 165.485C50.6025 165.461 50.1981 165.315 49.802 165.049C49.1843 164.633 48.8354 164.115 48.755 163.496C48.6746 162.876 48.8874 162.19 49.3934 161.438L51.2908 158.619L52.5797 159.486L50.7637 162.185C50.4745 162.614 50.3405 163.002 50.3614 163.348C50.3824 163.693 50.5774 163.99 50.9467 164.239C51.3092 164.483 51.6938 164.556 52.1004 164.459C52.5003 164.358 52.8539 164.079 53.1611 163.622L54.8958 161.044L56.1847 161.912Z" fill="black"/>
<path d="M51.4147 155.379L48.3769 156.845L48.6566 157.078L46.8599 162.895L45.5636 161.816L46.9783 157.481L42.915 159.609L41.6466 158.553L50.1464 154.322L51.4147 155.379Z" fill="black"/>
<path d="M43.5215 152.087L40.3898 157.521L39.3239 156.408L41.7321 152.657L37.7627 154.777L36.5708 153.532L38.8615 149.659L35.0012 151.892L33.9353 150.779L39.5095 147.896L40.6258 149.062L38.2627 153.105L42.4052 150.921L43.5215 152.087Z" fill="black"/>
<path d="M37.8384 145.946L30.8471 151.189L29.9149 149.946L32.828 147.762C32.4412 147.799 32.0714 147.737 31.7186 147.577C31.3545 147.415 31.0389 147.156 30.7719 146.8C30.3252 146.205 30.1682 145.604 30.301 144.999C30.4288 144.387 30.8552 143.81 31.5803 143.266L34.2991 141.227L35.224 142.46L32.6217 144.412C32.2074 144.722 31.9533 145.044 31.8594 145.378C31.7607 145.705 31.8448 146.046 32.1119 146.402C32.374 146.752 32.7155 146.951 33.1363 146.999C33.5522 147.041 33.9802 146.897 34.4204 146.567L36.9062 144.703L37.8384 145.946Z" fill="black"/>
<path d="M32.2023 137.66C32.5148 138.18 32.6809 138.708 32.7006 139.244C32.7203 139.779 32.5977 140.283 32.3329 140.753C32.0681 141.224 31.6721 141.617 31.145 141.934C30.6109 142.255 30.0691 142.429 29.5195 142.457C28.9658 142.478 28.4558 142.36 27.9894 142.102C27.5119 141.842 27.1106 141.441 26.7856 140.9C26.4814 140.393 26.3236 139.879 26.3123 139.357C26.3009 138.836 26.4248 138.351 26.6841 137.902C26.9323 137.451 27.2922 137.084 27.7639 136.801C27.8402 136.755 27.922 136.71 28.0094 136.667C28.0927 136.617 28.1815 136.569 28.2758 136.521L30.6321 140.444C31.0178 140.174 31.25 139.846 31.3289 139.459C31.4037 139.065 31.3327 138.687 31.116 138.327C30.9535 138.056 30.7591 137.866 30.5329 137.757C30.2955 137.644 30.0526 137.601 29.8043 137.628L28.9917 136.275C29.3761 136.177 29.7723 136.16 30.1803 136.227C30.5772 136.29 30.952 136.443 31.3046 136.684C31.653 136.919 31.9522 137.244 32.2023 137.66ZM27.8677 140.25C28.0635 140.576 28.3301 140.807 28.6674 140.944C28.9977 141.086 29.371 141.079 29.7872 140.923L28.2435 138.353C27.9161 138.578 27.7205 138.865 27.6569 139.215C27.5932 139.565 27.6635 139.91 27.8677 140.25Z" fill="black"/>
<path d="M29.5945 133.404L24.1796 136.035L23.5749 134.79L24.5266 134.166C24.0817 134.139 23.6761 134.008 23.3096 133.772C22.9324 133.532 22.6323 133.183 22.4096 132.725L23.8834 132.009L24.0743 132.402C24.2229 132.707 24.4028 132.957 24.6141 133.152C24.8254 133.346 25.0811 133.455 25.3812 133.481C25.6777 133.498 26.0334 133.407 26.4483 133.205L28.9156 132.006L29.5945 133.404Z" fill="black"/>
<path d="M26.6021 126.433C26.8196 126.999 26.8915 127.548 26.8179 128.079C26.7444 128.61 26.5363 129.084 26.1939 129.502C25.8514 129.919 25.3931 130.238 24.8189 130.458C24.2372 130.682 23.6734 130.759 23.1273 130.691C22.5784 130.616 22.0966 130.411 21.6821 130.076C21.257 129.737 20.9315 129.272 20.7053 128.683C20.4936 128.131 20.4275 127.598 20.5069 127.082C20.5862 126.566 20.7925 126.11 21.1257 125.713C21.4484 125.312 21.8666 125.013 22.3803 124.816C22.4634 124.784 22.5517 124.754 22.6453 124.727C22.7359 124.692 22.8318 124.66 22.9329 124.63L24.5726 128.902C24.9991 128.703 25.2848 128.42 25.4298 128.053C25.5718 127.677 25.5674 127.293 25.4166 126.901C25.3036 126.606 25.1451 126.385 24.9413 126.238C24.727 126.086 24.4953 126.002 24.2461 125.985L23.6807 124.512C24.0763 124.481 24.4693 124.534 24.8596 124.67C25.2395 124.802 25.5821 125.017 25.8875 125.316C26.1899 125.607 26.4281 125.979 26.6021 126.433ZM21.8838 128.231C22.0201 128.586 22.2424 128.86 22.5507 129.054C22.8515 129.25 23.2204 129.308 23.6573 129.227L22.5831 126.428C22.2216 126.593 21.9792 126.842 21.8558 127.175C21.7324 127.509 21.7417 127.86 21.8838 128.231Z" fill="black"/>
<path d="M25.6497 96.339L17.1641 95.913L17.3218 92.7733C17.3558 92.0944 17.4972 91.5384 17.7458 91.1053C17.9944 90.6722 18.3222 90.3565 18.7291 90.1582C19.1361 89.9598 19.586 89.873 20.079 89.8978C20.5477 89.9213 20.9748 90.0481 21.3603 90.2781C21.7376 90.5077 22.0364 90.8508 22.2565 91.3075C22.4685 91.7637 22.5571 92.3394 22.5222 93.0344L22.4425 94.6224L25.7277 94.7873L25.6497 96.339ZM21.1818 94.5591L21.2566 93.0681C21.2838 92.5266 21.1861 92.1328 20.9635 91.8867C20.7332 91.632 20.412 91.4944 19.9999 91.4737C19.5796 91.4526 19.2462 91.5574 18.9997 91.7881C18.7455 92.0103 18.6048 92.3921 18.5776 92.9336L18.5027 94.4246L21.1818 94.5591Z" fill="black"/>
<path d="M26.6165 86.3049C26.4982 87.0481 26.1749 87.5866 25.6466 87.9204C25.1195 88.2461 24.4084 88.3378 23.5134 88.1953L20.1571 87.6611L20.3995 86.1388L23.6119 86.6501C24.1233 86.7315 24.5314 86.69 24.8362 86.5255C25.141 86.3609 25.329 86.0549 25.4002 85.6074C25.4676 85.1839 25.3711 84.8121 25.1107 84.4921C24.8516 84.1641 24.4503 83.9568 23.9069 83.8703L20.8383 83.3818L21.0825 81.8475L27.0279 82.7939L26.8123 84.1484L25.7864 84.108C26.1087 84.3478 26.3458 84.66 26.4976 85.0447C26.6507 85.4214 26.6903 85.8415 26.6165 86.3049Z" fill="black"/>
<path d="M27.6322 80.1657L23.0524 79.0174L22.8517 79.818L21.5919 79.5022L21.7927 78.7016L21.1098 78.5304C20.4034 78.3533 19.9454 78.0508 19.7357 77.6228C19.5279 77.187 19.5008 76.663 19.6543 76.0508L19.8166 75.4032L21.0999 75.725L20.9966 76.137C20.9317 76.396 20.9365 76.5933 21.0109 76.7287C21.0854 76.8642 21.2443 76.9624 21.4876 77.0234L22.1705 77.1946L22.4863 75.9349L23.7461 76.2507L23.4302 77.5105L28.01 78.6587L27.6322 80.1657Z" fill="black"/>
<path d="M28.9031 75.4712L24.4121 74.0137L24.1573 74.7988L22.922 74.3979L23.1768 73.6128L22.5072 73.3955C21.8145 73.1707 21.3782 72.8377 21.1981 72.3964C21.0205 71.9474 21.0292 71.4228 21.224 70.8225L21.4301 70.1875L22.6884 70.5959L22.5573 71C22.4749 71.2539 22.4662 71.451 22.5313 71.5913C22.5964 71.7315 22.7482 71.8403 22.9868 71.9178L23.6564 72.1351L24.0573 70.8998L25.2926 71.3007L24.8917 72.536L29.3826 73.9935L28.9031 75.4712Z" fill="black"/>
<path d="M31.8896 67.4626L25.3256 64.3932L24.2768 66.6361L23.1443 66.1065L25.9053 60.2023L27.0377 60.7319L25.9837 62.9858L32.5477 66.0552L31.8896 67.4626Z" fill="black"/>
<path d="M36.0252 59.8131C35.7252 60.3125 35.3399 60.6947 34.8693 60.9595C34.4029 61.2173 33.8977 61.3434 33.3537 61.3375C32.8069 61.3206 32.2665 61.1517 31.7324 60.8308C31.1983 60.51 30.8009 60.1108 30.5403 59.6333C30.2727 59.1516 30.1432 58.6443 30.1518 58.1115C30.1646 57.5717 30.321 57.052 30.621 56.5526C30.9168 56.0601 31.298 55.6849 31.7644 55.4271C32.235 55.1623 32.7436 55.0383 33.2904 55.0553C33.8344 55.0611 34.3734 55.2244 34.9075 55.5453C35.4416 55.8661 35.8425 56.2674 36.11 56.7491C36.3748 57.2196 36.5009 57.7248 36.4881 58.2647C36.4753 58.8045 36.321 59.3206 36.0252 59.8131ZM34.8702 59.1193C35.0786 58.7725 35.1315 58.3937 35.029 57.9829C34.9196 57.5679 34.6083 57.2062 34.095 56.8979C33.5817 56.5895 33.1196 56.4866 32.7088 56.5891C32.2911 56.6874 31.9801 56.9065 31.7759 57.2464C31.5634 57.6001 31.5119 57.9845 31.6213 58.3995C31.7279 58.8034 32.0379 59.1595 32.5512 59.4678C33.0645 59.7762 33.5279 59.8847 33.9415 59.7933C34.3523 59.6908 34.6619 59.4662 34.8702 59.1193Z" fill="black"/>
<path d="M38.6028 52.4606C38.428 52.6936 38.2395 52.891 38.0372 53.0529L38.127 53.6816C38.2678 53.6152 38.428 53.5028 38.6077 53.3442C38.7873 53.1856 39.0543 52.9105 39.4087 52.5188C39.9476 51.9216 40.4493 51.5696 40.9138 51.4628C41.3783 51.356 41.8273 51.4653 42.2611 51.7905C42.5459 52.0042 42.7563 52.2833 42.8922 52.628C43.0346 52.9776 43.0622 53.3725 42.9748 53.8127C42.8939 54.2577 42.6641 54.7327 42.2854 55.2376C41.7707 55.9238 41.2262 56.3802 40.6517 56.6067C40.0836 56.8382 39.5439 56.7621 39.0325 56.3786C38.5988 56.0533 38.3811 55.5613 38.3795 54.9026C38.2241 54.9884 38.0777 55.0556 37.9401 55.1041C37.8074 55.1462 37.6787 55.1761 37.5541 55.1939L37.3308 55.0264L37.071 53.5117C36.4593 53.6395 35.8945 53.5093 35.3766 53.1209C35.053 52.8781 34.8167 52.5795 34.6678 52.2251C34.5238 51.8642 34.4833 51.4799 34.5464 51.072C34.6095 50.6642 34.7964 50.2532 35.1072 49.8389C35.3111 49.567 35.5393 49.3436 35.7917 49.1689L37.1608 47.3434L37.9182 47.9114L37.3575 48.7804C37.7006 48.8355 38.021 48.9746 38.3188 49.198C38.6424 49.4407 38.8787 49.7393 39.0276 50.0937C39.1765 50.4481 39.217 50.8325 39.149 51.2468C39.0859 51.6546 38.9038 52.0592 38.6028 52.4606ZM37.6512 51.7469C37.8406 51.4944 37.9279 51.2363 37.9134 50.9725C37.9037 50.7022 37.7726 50.4724 37.5201 50.2831C37.2677 50.0937 37.0103 50.0322 36.7482 50.0986C36.4908 50.1585 36.2675 50.3146 36.0782 50.5671C35.8791 50.8325 35.7869 51.0971 35.8014 51.3609C35.816 51.6247 35.9495 51.8513 36.202 52.0406C36.4544 52.23 36.7093 52.2947 36.9667 52.2348C37.224 52.1749 37.4522 52.0123 37.6512 51.7469ZM39.7583 55.1478C39.9978 55.3274 40.2584 55.3509 40.54 55.2182C40.8329 55.0839 41.1007 54.8549 41.3435 54.5312C41.5765 54.2205 41.7011 53.9195 41.7173 53.6282C41.74 53.3417 41.6445 53.1184 41.4309 52.9582C41.2561 52.8271 41.0619 52.7826 40.8483 52.8247C40.6395 52.8603 40.3814 53.0561 40.0739 53.4121C39.8554 53.663 39.6418 53.8871 39.433 54.0846C39.3958 54.35 39.4071 54.5709 39.467 54.7473C39.5317 54.9172 39.6288 55.0507 39.7583 55.1478Z" fill="black"/>
<path d="M44.4801 48.3489C44.0701 48.7963 43.6111 49.1056 43.1031 49.2766C42.5951 49.4477 42.0779 49.4731 41.5515 49.3529C41.0251 49.2327 40.5352 48.9649 40.0818 48.5494C39.6224 48.1285 39.3012 47.6585 39.1182 47.1396C38.9407 46.6147 38.9093 46.0921 39.024 45.5716C39.1383 45.0397 39.4086 44.5411 39.835 44.0758C40.2341 43.6403 40.6822 43.343 41.1792 43.1838C41.6763 43.0247 42.1766 43.0057 42.6801 43.127C43.1832 43.2367 43.6375 43.4775 44.0432 43.8492C44.1088 43.9094 44.1747 43.9752 44.2408 44.0468C44.3124 44.1124 44.3843 44.1837 44.4563 44.2607L41.3648 47.6343C41.7327 47.9276 42.1135 48.057 42.5072 48.0226C42.9063 47.9823 43.248 47.807 43.5323 47.4968C43.7455 47.2642 43.8725 47.0238 43.9132 46.7758C43.9534 46.5163 43.9255 46.2712 43.8296 46.0406L44.8956 44.8773C45.0994 45.2178 45.2275 45.593 45.2798 46.0031C45.3315 46.4017 45.2918 46.8044 45.1606 47.211C45.0349 47.6117 44.8081 47.991 44.4801 48.3489ZM40.7657 44.9286C40.5087 45.209 40.3624 45.5304 40.3267 45.8928C40.285 46.2497 40.3979 46.6056 40.6653 46.9604L42.6908 44.7501C42.3821 44.5002 42.051 44.3943 41.6976 44.4327C41.3442 44.471 41.0336 44.6363 40.7657 44.9286Z" fill="black"/>
<path d="M49.303 43.2856C48.8377 43.712 48.3609 43.9403 47.8728 43.9706C47.3847 44.0008 46.8755 43.7266 46.3452 43.1479L44.5739 41.215L43.8133 41.9121L42.9359 40.9546L43.6965 40.2575L42.7401 38.9444L43.7513 38.0177L44.8419 39.2079L46.041 38.1091L46.9184 39.0666L45.7193 40.1654L47.4988 42.1072C47.6956 42.322 47.877 42.4301 48.043 42.4316C48.2096 42.4217 48.4062 42.3129 48.6329 42.1052L49.1877 41.5967L50.0815 42.5721L49.303 43.2856Z" fill="black"/>
<path d="M51.8631 40.9602L46.5688 34.0073L47.8049 33.0661L50.0108 35.9632C49.9708 35.5767 50.0296 35.2064 50.1872 34.8525C50.3464 34.4872 50.603 34.1697 50.9571 33.9001C51.5494 33.4491 52.1486 33.2878 52.7549 33.416C53.3675 33.5394 53.9483 33.9616 54.4974 34.6827L56.5563 37.3866L55.3299 38.3204L53.3592 35.7324C53.0455 35.3204 52.7216 35.0687 52.3875 34.9772C52.0599 34.8809 51.7191 34.9675 51.365 35.2371C51.0173 35.5019 50.8208 35.8448 50.7753 36.2659C50.7363 36.6821 50.8834 37.1091 51.2168 37.5469L53.0992 40.019L51.8631 40.9602Z" fill="black"/>
<path d="M60.133 35.2539C59.6151 35.5702 59.0884 35.7402 58.5529 35.7638C58.0174 35.7875 57.5134 35.6686 57.0409 35.4073C56.5684 35.1459 56.1719 34.7529 55.8513 34.228C55.5266 33.6963 55.3481 33.1558 55.316 32.6065C55.2909 32.053 55.4055 31.5421 55.6599 31.0738C55.9171 30.5944 56.3149 30.1902 56.8536 29.8612C57.3577 29.5533 57.8706 29.3917 58.3923 29.3765C58.9139 29.3613 59.3999 29.4817 59.8502 29.7377C60.3031 29.9825 60.673 30.3397 60.9598 30.8093C61.0062 30.8852 61.0512 30.9668 61.095 31.0539C61.1456 31.1367 61.1948 31.2252 61.2428 31.3191L57.3376 33.7042C57.6099 34.0879 57.9399 34.3178 58.3277 34.3938C58.7224 34.4656 59.0993 34.3919 59.4584 34.1726C59.7277 34.0081 59.9163 33.8123 60.0241 33.5852C60.1346 33.3471 60.1757 33.1039 60.1474 32.8557L61.494 32.0332C61.5956 32.4169 61.6146 32.8129 61.5513 33.2214C61.4905 33.6188 61.3409 33.9947 61.1022 34.349C60.8704 34.6992 60.5473 35.0008 60.133 35.2539ZM57.5115 30.9385C57.187 31.1367 56.9573 31.4049 56.8226 31.7432C56.6837 32.0746 56.6935 32.4478 56.8522 32.8629L59.4108 31.3003C59.1834 30.9745 58.8946 30.7811 58.5444 30.7201C58.1942 30.659 57.8499 30.7318 57.5115 30.9385Z" fill="black"/>
<path d="M64.3369 32.6392L61.6659 27.2439L62.906 26.63L63.5373 27.577C63.5608 27.132 63.689 26.7254 63.9221 26.3572C64.1588 25.9782 64.5056 25.6756 64.9625 25.4494L65.6895 26.9179L65.2979 27.1118C64.9933 27.2625 64.7447 27.4443 64.552 27.657C64.3594 27.8698 64.2516 28.1263 64.2287 28.4266C64.2131 28.7232 64.3076 29.0782 64.5122 29.4916L65.7293 31.9499L64.3369 32.6392Z" fill="black"/>
<path d="M71.7589 29.1326L72.0576 20.0909L73.718 19.5451L79.323 26.6462L77.7548 27.1617L76.4951 25.506L73.3472 26.5407L73.304 28.6247L71.7589 29.1326ZM73.3718 25.255L75.7125 24.4855L73.4334 21.5168L73.3718 25.255Z" fill="black"/>
<path d="M80.447 26.3908L79.2288 20.4951L80.572 20.2176L80.8972 21.1915C81.0074 20.8052 81.2116 20.4738 81.5097 20.1973C81.8158 19.9193 82.2027 19.7319 82.6702 19.6353C83.3992 19.4847 84.0133 19.5974 84.5124 19.9735C85.0115 20.3496 85.3528 20.9815 85.5361 21.869L86.2238 25.1972L84.7023 25.5116L84.0441 22.326C83.9394 21.8188 83.7561 21.4518 83.4944 21.225C83.2327 20.9981 82.8839 20.9297 82.4481 21.0198C82.0202 21.1082 81.6987 21.3316 81.4835 21.69C81.2763 22.0468 81.2284 22.4947 81.3397 23.0335L81.9684 26.0765L80.447 26.3908Z" fill="black"/>
<path d="M88.4613 27.5517L89.5428 24.3566L89.1805 24.3931L86.2873 19.036L87.9659 18.8672L90.0685 22.9131L91.3957 18.5222L93.0381 18.357L90.1037 27.3865L88.4613 27.5517Z" fill="black"/>
<path d="M97.319 24.2562C96.6879 24.266 96.1798 24.12 95.7948 23.8185C95.4098 23.5169 95.2113 22.9737 95.1991 22.1889L95.1587 19.5675L94.1271 19.5834L94.107 18.2848L95.1386 18.2689L95.2957 16.652L96.6671 16.6308L96.692 18.2449L98.3183 18.2198L98.3383 19.5184L96.7121 19.5435L96.7528 22.177C96.7572 22.4683 96.8211 22.6696 96.9442 22.781C97.0752 22.8842 97.2945 22.9334 97.602 22.9287L98.3544 22.9171L98.3748 24.2399L97.319 24.2562Z" fill="black"/>
<path d="M101.638 17.3571C101.355 17.3418 101.125 17.2443 100.949 17.0646C100.78 16.8853 100.703 16.6664 100.717 16.4078C100.731 16.1493 100.831 15.944 101.017 15.792C101.213 15.6324 101.451 15.5602 101.734 15.5755C102.017 15.5908 102.243 15.6881 102.411 15.8674C102.588 16.039 102.67 16.2541 102.656 16.5127C102.642 16.7712 102.537 16.9803 102.342 17.14C102.156 17.3 101.921 17.3724 101.638 17.3571ZM100.487 24.2599L100.812 18.2484L102.363 18.3323L102.038 24.3438L100.487 24.2599Z" fill="black"/>
<path d="M104.095 24.2687L105.018 18.3198L106.374 18.5302L106.381 19.3542C106.617 19.0962 106.905 18.9074 107.243 18.7879C107.59 18.6616 107.971 18.6308 108.387 18.6953C109.306 18.8381 109.903 19.2951 110.176 20.0663C110.443 19.772 110.771 19.5568 111.161 19.4208C111.558 19.286 111.973 19.2521 112.405 19.3191C113.181 19.4395 113.74 19.7639 114.084 20.2922C114.428 20.8205 114.53 21.5325 114.391 22.428L113.87 25.7863L112.335 25.548L112.834 22.3336C112.913 21.8219 112.874 21.4145 112.716 21.1116C112.567 20.81 112.288 20.6275 111.88 20.5642C111.464 20.4996 111.105 20.5994 110.802 20.8636C110.507 21.1289 110.317 21.5335 110.233 22.0772L109.756 25.1476L108.221 24.9093L108.72 21.6949C108.799 21.1832 108.76 20.7759 108.602 20.473C108.445 20.1701 108.158 19.9863 107.742 19.9218C107.334 19.8585 106.979 19.9589 106.676 20.223C106.381 20.4884 106.191 20.8929 106.107 21.4366L105.63 24.5071L104.095 24.2687Z" fill="black"/>
<path d="M117.921 27.0802C117.338 26.9126 116.857 26.6396 116.477 26.2611C116.097 25.8826 115.844 25.431 115.717 24.9062C115.59 24.3814 115.611 23.8234 115.781 23.2324C115.953 22.6335 116.231 22.1366 116.614 21.7414C117.005 21.3486 117.458 21.0875 117.975 20.9582C118.502 20.8234 119.069 20.8432 119.676 21.0175C120.244 21.1806 120.709 21.4492 121.074 21.8232C121.438 22.1972 121.677 22.6366 121.793 23.1413C121.919 23.6406 121.906 24.1546 121.754 24.6835C121.73 24.769 121.7 24.8573 121.666 24.9484C121.639 25.0418 121.607 25.1379 121.57 25.2367L117.172 23.973C117.074 24.433 117.128 24.8316 117.334 25.1687C117.548 25.508 117.857 25.7358 118.262 25.852C118.565 25.9391 118.837 25.9456 119.077 25.8715C119.327 25.7919 119.534 25.6577 119.698 25.469L121.214 25.9047C121 26.239 120.721 26.5209 120.378 26.7504C120.044 26.9745 119.666 27.1184 119.243 27.1822C118.829 27.2483 118.388 27.2143 117.921 27.0802ZM119.327 22.2307C118.962 22.1257 118.609 22.1379 118.269 22.2674C117.93 22.3892 117.662 22.6489 117.464 23.0465L120.345 23.8744C120.431 23.4866 120.379 23.1431 120.187 22.8438C119.995 22.5446 119.708 22.3402 119.327 22.2307Z" fill="black"/>
<path d="M121.67 29.5687L123.36 26.9694L124.773 27.4875L122.627 29.9197L121.67 29.5687Z" fill="black"/>
<path d="M128.115 30.5118L134.783 24.3985L136.335 25.2029L135.184 34.176L133.718 33.4163L134.02 31.3578L131.078 29.8329L129.559 31.2603L128.115 30.5118ZM132.014 28.9508L134.201 30.0847L134.727 26.3792L132.014 28.9508Z" fill="black"/>
<path d="M136.145 34.8L139.506 29.8053L140.644 30.571L140.176 31.4846C140.529 31.2932 140.908 31.2073 141.314 31.227C141.727 31.2512 142.132 31.3966 142.528 31.6631C143.145 32.0787 143.494 32.5964 143.575 33.2162C143.655 33.836 143.442 34.5218 142.936 35.2737L141.039 38.0932L139.75 37.2259L141.566 34.5271C141.855 34.0975 141.989 33.7098 141.968 33.3641C141.947 33.0184 141.752 32.7213 141.383 32.4728C141.021 32.2289 140.636 32.1554 140.229 32.2524C139.83 32.3539 139.476 32.6329 139.169 33.0894L137.434 35.6673L136.145 34.8Z" fill="black"/>
<path d="M140.915 41.333L143.953 39.8668L143.673 39.6338L145.47 33.8165L146.766 34.8963L145.351 39.2309L149.415 37.1024L150.683 38.1589L142.183 42.3894L140.915 41.333Z" fill="black"/>
<path d="M148.808 44.625L151.94 39.1905L153.006 40.304L150.598 44.0545L154.567 41.9348L155.759 43.1798L153.468 47.053L157.329 44.8193L158.395 45.9328L152.82 48.8159L151.704 47.6498L154.067 43.6065L149.925 45.7911L148.808 44.625Z" fill="black"/>
<path d="M154.491 50.766L161.483 45.5226L162.415 46.7655L159.502 48.9503C159.889 48.9131 160.258 48.9746 160.611 49.1348C160.975 49.2966 161.291 49.5555 161.558 49.9116C162.005 50.5071 162.162 51.1075 162.029 51.7128C161.901 52.3245 161.475 52.9023 160.75 53.446L158.031 55.4851L157.106 54.252L159.708 52.3002C160.122 51.9895 160.377 51.6675 160.47 51.3341C160.569 51.0072 160.485 50.6657 160.218 50.3097C159.956 49.9601 159.614 49.7611 159.194 49.7125C158.778 49.6704 158.35 49.8145 157.909 50.1446L155.424 52.0089L154.491 50.766Z" fill="black"/>
<path d="M160.128 59.0518C159.815 58.5316 159.649 58.0036 159.629 57.468C159.61 56.9323 159.732 56.4292 159.997 55.9586C160.262 55.4881 160.658 55.0944 161.185 54.7778C161.719 54.4569 162.261 54.2825 162.81 54.2544C163.364 54.2333 163.874 54.3517 164.34 54.6096C164.818 54.8702 165.219 55.2711 165.544 55.8121C165.848 56.3185 166.006 56.8325 166.018 57.3543C166.029 57.8761 165.905 58.3612 165.646 58.8095C165.398 59.2607 165.038 59.6279 164.566 59.9112C164.49 59.9571 164.408 60.0015 164.32 60.0446C164.237 60.0946 164.148 60.1432 164.054 60.1905L161.698 56.2679C161.312 56.5373 161.08 56.8656 161.001 57.2529C160.926 57.647 160.997 58.0244 161.214 58.3851C161.376 58.6556 161.571 58.8457 161.797 58.9552C162.034 59.0675 162.277 59.1103 162.526 59.0838L163.338 60.4365C162.954 60.5352 162.558 60.5513 162.15 60.485C161.753 60.4213 161.378 60.2689 161.025 60.0276C160.677 59.7932 160.378 59.468 160.128 59.0518ZM164.462 56.4621C164.266 56.1361 164 55.9045 163.662 55.7673C163.332 55.6259 162.959 55.6331 162.543 55.7887L164.086 58.3586C164.414 58.1337 164.609 57.8463 164.673 57.4966C164.737 57.1468 164.666 56.802 164.462 56.4621Z" fill="black"/>
<path d="M162.735 63.3081L168.15 60.6772L168.755 61.9218L167.803 62.5461C168.248 62.5729 168.654 62.7042 169.02 62.9399C169.397 63.1795 169.697 63.5285 169.92 63.987L168.446 64.7031L168.255 64.3101C168.107 64.0044 167.927 63.7544 167.716 63.5602C167.504 63.366 167.249 63.2563 166.949 63.2312C166.652 63.2134 166.296 63.3052 165.882 63.5068L163.414 64.7055L162.735 63.3081Z" fill="black"/>
<path d="M165.728 70.2792C165.51 69.7126 165.438 69.1638 165.512 68.6329C165.585 68.1019 165.794 67.6277 166.136 67.2103C166.478 66.7928 166.937 66.4739 167.511 66.2535C168.093 66.0303 168.656 65.9525 169.203 66.0203C169.751 66.0956 170.233 66.3008 170.648 66.6357C171.073 66.9753 171.398 67.4397 171.625 68.0289C171.836 68.5804 171.902 69.114 171.823 69.6299C171.744 70.1457 171.537 70.6019 171.204 70.9985C170.881 71.3997 170.463 71.6989 169.95 71.896C169.866 71.9279 169.778 71.9575 169.685 71.9847C169.594 72.0195 169.498 72.052 169.397 72.0821L167.757 67.8101C167.331 68.0085 167.045 68.2915 166.9 68.6591C166.758 69.0343 166.762 69.4183 166.913 69.8112C167.026 70.1058 167.185 70.3267 167.389 70.4738C167.603 70.6256 167.835 70.71 168.084 70.727L168.649 72.2001C168.253 72.2306 167.861 72.1778 167.47 72.0415C167.09 71.91 166.748 71.6948 166.442 71.396C166.14 71.1047 165.902 70.7324 165.728 70.2792ZM170.446 68.4812C170.31 68.1262 170.087 67.8518 169.779 67.6581C169.478 67.4616 169.109 67.4038 168.673 67.4848L169.747 70.2837C170.108 70.119 170.351 69.8699 170.474 69.5366C170.597 69.2032 170.588 68.8514 170.446 68.4812Z" fill="black"/>
<path d="M97.8461 64.016C78.2125 64.016 62.278 79.9505 62.278 99.5841C62.278 119.218 78.2125 135.152 97.8461 135.152C117.48 135.152 133.414 119.218 133.414 99.5841C133.414 79.9505 117.48 64.016 97.8461 64.016ZM107.307 105.737L102.755 108.369L98.2018 111.001C92.3331 114.38 87.5314 111.606 87.5314 104.848V99.5841V94.32C87.5314 87.5265 92.3331 84.7878 98.2018 88.1667L102.755 90.7988L107.307 93.4308C113.176 96.8098 113.176 102.358 107.307 105.737Z" fill="black"/>
<path d="M98.4115 107.392L98.4122 107.392L102.965 104.76L107.517 102.128C107.517 102.128 107.517 102.128 107.517 102.128C110.53 100.393 112.129 98.0443 112.129 95.6105C112.129 93.1767 110.53 90.8277 107.517 89.0932C107.517 89.0931 107.517 89.093 107.517 89.093L102.965 86.4613L98.4122 83.8292L98.4115 83.8289C95.4001 82.095 92.5654 81.8786 90.4564 83.0907C88.3467 84.3032 87.1111 86.8599 87.1111 90.3464V95.6105V100.875C87.1111 104.344 88.3471 106.9 90.4558 108.117C92.5642 109.333 95.399 109.127 98.4115 107.392ZM62.6983 95.6105C62.6983 76.209 78.4447 60.4627 97.8461 60.4627C117.248 60.4627 132.994 76.209 132.994 95.6105C132.994 115.012 117.248 130.758 97.8461 130.758C78.4447 130.758 62.6983 115.012 62.6983 95.6105Z" fill="#FFDB56" stroke="black" stroke-width="0.840603"/>
</svg>
