<svg width="246" height="287" viewBox="0 0 246 287" fill="none" xmlns="http://www.w3.org/2000/svg">
<g clip-path="url(#clip0_1_116)">
<path d="M154.886 265.033L153.769 267.479L156.437 267.144C157.187 267.05 157.694 267.05 158.124 267.05C158.149 267.05 158.173 267.05 158.199 267.05C158.587 267.051 159.127 267.052 159.682 266.867L159.839 266.815L159.98 266.729C198.928 243.274 225.392 209.947 235.417 165.077C238.008 153.61 237.571 141.734 234.562 130.106C228.279 104.934 207.247 87.5555 181.471 86.0341C168.214 85.1776 155.186 86.664 143.415 94.0899L142.824 94.4624L142.729 95.154C142.527 96.6234 142.338 98.0824 142.15 99.5285C141.546 104.19 140.959 108.716 140.006 113.014C137.97 121.983 133.337 129.188 125.135 133.597L125.119 133.605L125.104 133.614C119.013 137.072 113.529 136.745 110.859 134.07C106.996 130.199 106.929 125.041 109.415 120.635L109.416 120.633C113.159 113.967 117.745 107.696 122.567 101.814C125.039 98.8432 128.168 96.2827 131.334 93.6922C132.078 93.0836 132.823 92.4735 133.563 91.8559L134.21 91.3155L134.085 90.4817C132.22 78.0611 125.375 69.0944 115.404 64.5864C105.481 60.1 92.6536 60.1109 78.8742 65.1801L78.129 65.4542L77.9368 66.2247C77.7951 66.7923 77.6541 67.3632 77.5126 67.936C76.8043 70.8036 76.0845 73.7175 75.2205 76.49C71.1111 88.6237 63.5852 97.7246 51.4483 101.981C46.7411 103.622 42.2604 104.02 38.6761 100.253C36.1593 97.5587 35.8787 92.4454 39.0933 86.8029C44.4018 77.8074 52.3924 71.4086 61.1816 65.7458C64.3481 63.8424 67.4759 61.9629 70.5973 60.295L71.4963 59.8147L71.3808 58.802C69.2249 39.9025 59.6801 23.6975 46.4357 14.0989C33.7513 4.90614 17.6761 1.78915 1.61615 8.20571C1.63382 7.73348 1.65168 7.30612 1.68077 6.90785C1.75762 5.85542 1.90158 5.31387 2.08149 5.02995C2.40262 4.59151 2.98407 4.15501 3.80873 3.76485C4.62055 3.38076 5.55286 3.09565 6.42582 2.89992C24.0705 -0.422958 40.1865 1.69581 53.4401 14.3617L53.4401 14.3618L53.4488 14.3699C63.5853 23.9039 70.4342 35.5261 75.0151 48.875C75.0158 48.8771 75.0165 48.8792 75.0172 48.8813L75.0224 48.8972C75.6347 50.7374 76.2711 52.6503 77.1139 54.5729C77.2113 54.9067 77.3935 55.1419 77.5046 55.2671C77.6643 55.447 77.8474 55.5888 77.9631 55.6757C78.0693 55.7555 78.1967 55.8458 78.3203 55.9333C78.3444 55.9504 78.3684 55.9673 78.392 55.9841C78.5462 56.0936 78.7182 56.2167 78.9133 56.3633L79.389 56.7208L79.9803 56.6549C80.6311 56.5825 81.3216 56.537 82.084 56.4869C82.3891 56.4668 82.7057 56.4459 83.0359 56.4223C84.1543 56.3423 85.3739 56.2327 86.6104 56.0086C100.601 53.814 110.99 54.6455 119.447 59.0838C127.912 63.5265 134.699 71.7175 141.181 84.8119L141.761 85.9832L143.001 85.5692C143.779 85.3094 144.621 85.0425 145.497 84.7647C147.362 84.1736 149.383 83.5332 151.27 82.8074C167.232 77.4137 183.144 77.0098 199.272 82.396L199.275 82.3971C225.482 91.0803 242.418 113.593 244.281 142.208L244.281 142.211C245.32 157.831 242.621 172.843 236.989 187.474C223.166 222.935 200.585 250.774 166.731 268.989L166.687 269.013L166.645 269.039C165.854 269.534 165.005 269.985 164.099 270.466L164.076 270.478C163.194 270.946 162.257 271.443 161.367 272L161.222 272.091L161.101 272.212C160.831 272.482 160.64 272.808 160.476 273.11C160.301 273.43 160.075 273.884 159.765 274.506L158.919 276.201L160.763 276.636C167.579 278.243 174.028 277.82 180.202 277.417C180.76 277.38 181.317 277.344 181.871 277.309C185.998 277.175 190.241 276.872 194.587 276.561C196.526 276.423 198.486 276.283 200.465 276.156C200.072 277.665 199.445 278.742 198.697 279.554C197.67 280.669 196.301 281.408 194.635 282C193.635 282.301 192.66 282.616 191.704 282.924C188.46 283.97 185.432 284.945 182.368 285.101C170.988 285.523 159.435 285.732 147.897 285.102C143.526 284.795 141.284 283.497 140.398 281.943C139.52 280.404 139.601 277.956 141.52 274.414C150.17 258.772 159.031 243.129 167.897 227.479C168.937 225.695 170.175 224.159 171.718 222.245C171.895 222.026 172.075 221.803 172.26 221.573C173.13 222.98 173.341 224.161 173.281 225.19C173.196 226.659 172.564 228.016 171.806 229.644L171.796 229.666C165.871 241.116 160.582 252.562 154.886 265.033ZM42.5411 94.3427L41.4992 96.7645L44.1134 96.4228C51.67 95.4353 57.9084 92.5115 62.3511 88.0322C66.8012 83.5454 69.3662 77.5802 69.6994 70.6796L69.8412 67.7438L67.3807 69.3516C66.9895 69.6071 66.5983 69.8621 66.2073 70.117C56.9469 76.1521 47.8034 82.1111 42.5411 94.3427ZM113.813 127.448L113.386 129.72L115.634 129.185C122.126 127.642 127.076 124.622 130.214 120.152C133.349 115.685 134.542 109.958 133.883 103.251L133.605 100.411L131.423 102.251C123.401 109.02 116.032 115.666 113.813 127.448Z" fill="#2F5B0C" stroke="#FFFDF0" stroke-width="3"/>
</g>
<defs>
<clipPath id="clip0_1_116">
<rect width="246" height="287" fill="white"/>
</clipPath>
</defs>
</svg>
