<svg width="250" height="290" viewBox="0 0 250 290" fill="none" xmlns="http://www.w3.org/2000/svg">
<g clip-path="url(#clip0_1_118)">
<path d="M10.7794 166.8C8.14677 155.215 8.59099 143.217 11.6473 131.469C18.0324 106.036 39.4016 88.485 65.5813 86.949C79.0498 86.0839 92.2811 87.5856 104.237 95.0846L104.83 95.4564L104.926 96.1496C105.131 97.6341 105.324 99.1082 105.514 100.569C106.128 105.278 106.724 109.851 107.693 114.194C109.761 123.259 114.472 130.546 122.816 135.006L122.831 135.014L122.846 135.022C129.042 138.52 134.633 138.195 137.358 135.48C141.291 131.563 141.356 126.346 138.829 121.892L138.828 121.889C135.024 115.153 130.362 108.816 125.461 102.872C122.948 99.8682 119.766 97.2794 116.549 94.6616C115.793 94.0468 115.035 93.4305 114.284 92.8067L113.633 92.2659L113.759 91.4286C115.654 78.8796 122.609 69.8253 132.733 65.2745C142.808 60.7453 155.834 60.755 169.832 65.8751L170.578 66.1481L170.772 66.9187C170.916 67.4922 171.059 68.0691 171.203 68.6478C171.923 71.5455 172.654 74.4903 173.532 77.2922C177.709 89.5539 185.36 98.7564 197.704 103.061C202.492 104.72 207.062 105.126 210.716 101.309C213.279 98.5802 213.562 93.409 210.294 87.7057C204.897 78.6128 196.774 72.1449 187.84 66.4219C184.622 64.4984 181.442 62.5989 178.269 60.9131L177.366 60.4334L177.483 59.4175C179.674 40.3217 189.373 23.9515 202.827 14.2566C215.721 4.96546 232.061 1.82099 248.383 8.31977C248.365 7.83125 248.346 7.39011 248.316 6.97954C248.238 5.91607 248.092 5.36662 247.907 5.07698C247.578 4.6304 246.984 4.187 246.143 3.79144C245.315 3.40209 244.365 3.11333 243.476 2.91522C225.537 -0.443906 209.148 1.69783 195.671 14.5035L195.671 14.5035L195.662 14.5117C185.358 24.1478 178.397 35.8937 173.741 49.3829C173.741 49.3852 173.74 49.3874 173.739 49.3897L173.734 49.4059C173.111 51.2656 172.465 53.1982 171.608 55.1405C171.51 55.4763 171.326 55.7124 171.214 55.8376C171.053 56.0178 170.869 56.16 170.751 56.2477C170.644 56.3279 170.515 56.4187 170.39 56.507C170.365 56.5244 170.34 56.5417 170.316 56.5589C170.159 56.6695 169.984 56.7941 169.786 56.9424L169.311 57.2968L168.723 57.2317C168.061 57.1584 167.358 57.1124 166.583 57.0617C166.273 57.0414 165.951 57.0203 165.616 56.9965C164.48 56.9157 163.242 56.805 161.987 56.5788C147.765 54.3606 137.199 55.2002 128.596 59.6892C119.987 64.1818 113.088 72.463 106.5 85.6946L105.919 86.8598L104.684 86.4496C103.893 86.1868 103.036 85.917 102.146 85.6363C100.25 85.039 98.1982 84.3923 96.2807 83.659C80.0537 78.2068 63.8748 77.7983 47.4776 83.2432L47.4742 83.2443C20.8286 92.0225 3.61574 114.779 1.72269 143.695L1.72253 143.697C0.666214 159.481 3.40921 174.651 9.13319 189.436C23.1814 225.27 46.1324 253.404 80.5436 271.813L80.587 271.836L80.6288 271.862C81.4338 272.363 82.2974 272.82 83.218 273.305L83.2418 273.318C84.1382 273.79 85.0897 274.292 85.9934 274.855L86.1383 274.945L86.2592 275.066C86.5312 275.337 86.7247 275.664 86.8918 275.969C87.0659 276.287 87.2905 276.734 87.5976 277.346L87.6141 277.379L88.4671 279.079L86.6158 279.513C79.6938 281.135 73.1439 280.709 66.8696 280.301C66.3018 280.264 65.7363 280.227 65.1729 280.192C60.9796 280.057 56.6685 279.75 52.2518 279.437C50.2709 279.296 48.2687 279.154 46.2463 279.025C46.6456 280.561 47.2858 281.657 48.0515 282.484C49.0988 283.614 50.4942 284.363 52.1905 284.962C53.2056 285.266 54.1955 285.583 55.1666 285.895C58.4644 286.952 61.546 287.939 64.6646 288.097C76.2303 288.523 87.9724 288.735 99.6996 288.098C104.148 287.787 106.437 286.473 107.343 284.894C108.237 283.336 108.153 280.86 106.204 277.28C97.4124 261.474 88.4064 245.667 79.3958 229.852C78.3386 228.048 77.0792 226.495 75.5106 224.561C75.3237 224.331 75.1324 224.095 74.9366 223.852C74.0343 225.291 73.8157 226.495 73.8767 227.544C73.9632 229.03 74.606 230.402 75.3769 232.048L75.3873 232.07C81.4086 243.64 86.7829 255.205 92.5719 267.807L93.6963 270.254L91.0235 269.921C90.2589 269.826 89.7427 269.826 89.3045 269.826C89.28 269.826 89.2549 269.826 89.2291 269.826C88.8348 269.827 88.2904 269.828 87.732 269.643L87.5756 269.591L87.4341 269.506C47.8582 245.808 20.966 212.137 10.7794 166.8ZM10.7794 166.8C10.7796 166.8 10.7797 166.801 10.7798 166.801L12.2425 166.469L10.779 166.798C10.7791 166.798 10.7793 166.799 10.7794 166.8ZM248.453 9.96701C248.969 10.1804 249.484 10.4037 250 10.6372C249.955 10.0558 249.929 9.4932 249.908 8.95514L248.453 9.96701ZM206.744 95.3322L207.792 97.7556L205.174 97.4153C197.5 96.4183 191.166 93.4666 186.655 88.9444C182.136 84.4142 179.53 78.3896 179.192 71.4181L179.049 68.4908L181.507 70.0875C181.905 70.3457 182.302 70.6033 182.699 70.8607C192.11 76.9587 201.398 82.9771 206.744 95.3322ZM134.312 128.782L134.742 131.052L132.493 130.521C125.902 128.963 120.877 125.915 117.691 121.402C114.508 116.892 113.295 111.108 113.964 104.331L114.243 101.502L116.421 103.329C124.573 110.168 132.058 116.881 134.312 128.782Z" fill="#2F5B0C" stroke="#FFFDF0" stroke-width="3"/>
</g>
<defs>
<clipPath id="clip0_1_118">
<rect width="250" height="290" fill="white" transform="matrix(-1 0 0 1 250 0)"/>
</clipPath>
</defs>
</svg>
